<svg width="24" height="24" viewBox="0 0 24 24" fill="#3B74B9" xmlns="http://www.w3.org/2000/svg">
<path d="M11.27 18.54C12.883 18.5397 14.4495 17.9997 15.7202 17.006L19.715 21.0009L21 19.7159L17.0051 15.7211C17.9993 14.4503 18.5396 12.8834 18.54 11.27C18.54 7.26151 15.2785 4 11.27 4C7.26151 4 4 7.26151 4 11.27C4 15.2785 7.26151 18.54 11.27 18.54ZM11.27 5.8175C14.2771 5.8175 16.7225 8.26295 16.7225 11.27C16.7225 14.2771 14.2771 16.7225 11.27 16.7225C8.26295 16.7225 5.8175 14.2771 5.8175 11.27C5.8175 8.26295 8.26295 5.8175 11.27 5.8175Z" fill="#3B74B9"/>
</svg>
