<svg width="22" height="22" viewBox="0 0 22 22" fill="none" xmlns="http://www.w3.org/2000/svg">
<path d="M21.58 4.546L17.6667 0.612662C17.4081 0.355372 17.0582 0.210937 16.6934 0.210938C16.3286 0.210938 15.9786 0.355372 15.72 0.612662L1.8467 14.466L0.580038 19.9327C0.536342 20.1325 0.53784 20.3396 0.584422 20.5388C0.631004 20.7379 0.721494 20.9242 0.84928 21.0839C0.977067 21.2437 1.13892 21.3728 1.32302 21.462C1.50712 21.5512 1.70882 21.5981 1.91337 21.5993C2.00868 21.609 2.10472 21.609 2.20004 21.5993L7.72671 20.3327L21.58 6.49266C21.8373 6.23407 21.9818 5.88412 21.9818 5.51933C21.9818 5.15454 21.8373 4.80459 21.58 4.546ZM7.06004 19.1327L1.88004 20.2193L3.06004 15.1393L13.44 4.79933L17.44 8.79933L7.06004 19.1327ZM18.3334 7.83266L14.3334 3.83266L16.6534 1.526L20.5867 5.526L18.3334 7.83266Z" fill="#183E6C"/>
</svg>
