<svg width="18" height="18" viewBox="0 0 18 18" fill="none" xmlns="http://www.w3.org/2000/svg">
<path d="M4.3641 3.62518C3.8835 4.10579 1.48047 6.52996 1.48047 9.39245C1.48047 10.9133 1.93146 12.4001 2.77642 13.6646C3.62137 14.9292 4.82234 15.9148 6.22744 16.4968C7.63255 17.0788 9.17869 17.2311 10.6703 16.9344C12.162 16.6377 13.5322 15.9053 14.6076 14.8299C15.683 13.7545 16.4154 12.3843 16.7121 10.8926C17.0088 9.40098 16.8565 7.85484 16.2745 6.44973C15.6925 5.04463 14.7069 3.84366 13.4423 2.99871C12.1778 2.15375 10.691 1.70276 9.17016 1.70276" stroke="#231F20" stroke-width="1.5" stroke-linecap="square" stroke-linejoin="round"/>
<path d="M4.84485 6.98962V3.14478H1" stroke="#231F20" stroke-width="1.5" stroke-linecap="square" stroke-linejoin="round"/>
</svg>
