<svg width="24" height="24" viewBox="0 0 24 24" fill="none" xmlns="http://www.w3.org/2000/svg">
<path d="M20.6275 12.3585L12.4491 4.18613C12.3902 4.12712 12.3203 4.08032 12.2433 4.04838C12.1663 4.01644 12.0837 4 12.0004 4C11.917 4 11.8345 4.01644 11.7575 4.04838C11.6805 4.08032 11.6105 4.12712 11.5516 4.18613L3.37328 12.3585C3.13502 12.5968 3 12.9204 3 13.258C3 13.9589 3.56984 14.5287 4.27073 14.5287H5.13245V20.3602C5.13245 20.7116 5.41638 20.9956 5.76782 20.9956H10.7296V16.548H12.9534V20.9956H18.2329C18.5844 20.9956 18.8683 20.7116 18.8683 20.3602V14.5287H19.73C20.0675 14.5287 20.3912 14.3957 20.6294 14.1554C21.1238 13.6591 21.1238 12.8549 20.6275 12.3585Z" fill="black"/>
</svg>
