<svg width="24" height="24" viewBox="0 0 24 24" fill="none" xmlns="http://www.w3.org/2000/svg">
<path d="M17.7339 14.6188C17.245 14.6213 16.7628 14.732 16.323 14.9427C15.8832 15.1535 15.497 15.459 15.1929 15.8367L10.4179 12.8919C10.5919 12.3379 10.5919 11.7449 10.4179 11.1908L15.1929 8.24607C15.6776 8.83806 16.359 9.24173 17.1165 9.38557C17.8739 9.52941 18.6586 9.40415 19.3314 9.03196C20.0042 8.65977 20.5217 8.06468 20.7924 7.35211C21.063 6.63954 21.0692 5.85549 20.8099 5.13883C20.5506 4.42218 20.0425 3.81919 19.3757 3.43668C18.7089 3.05416 17.9263 2.91682 17.1666 3.04897C16.407 3.18112 15.7192 3.57423 15.2253 4.15868C14.7313 4.74313 14.463 5.48118 14.4678 6.24209C14.4709 6.53024 14.5149 6.81654 14.5985 7.09266L9.82348 10.0374C9.40192 9.51391 8.82571 9.13275 8.17473 8.94675C7.52374 8.76075 6.83022 8.77913 6.1903 8.99934C5.55037 9.21955 4.99575 9.63069 4.60329 10.1758C4.21084 10.7208 4 11.3728 4 12.0414C4 12.7099 4.21084 13.3619 4.60329 13.907C4.99575 14.4521 5.55037 14.8632 6.1903 15.0834C6.83022 15.3036 7.52374 15.322 8.17473 15.136C8.82571 14.95 9.40192 14.5689 9.82348 14.0454L14.5985 16.9901C14.5149 17.2662 14.4709 17.5525 14.4678 17.8407C14.4678 18.4779 14.6594 19.1008 15.0183 19.6306C15.3772 20.1604 15.8872 20.5734 16.484 20.8173C17.0808 21.0611 17.7375 21.1249 18.3711 21.0006C19.0047 20.8763 19.5866 20.5694 20.0434 20.1188C20.5002 19.6683 20.8112 19.0942 20.9372 18.4692C21.0633 17.8442 20.9986 17.1964 20.7514 16.6077C20.5042 16.019 20.0856 15.5158 19.5485 15.1618C19.0114 14.8078 18.3799 14.6188 17.7339 14.6188ZM17.7339 4.309C18.1215 4.309 18.5004 4.42237 18.8226 4.63478C19.1449 4.8472 19.3961 5.1491 19.5444 5.50233C19.6927 5.85556 19.7315 6.24424 19.6559 6.61922C19.5803 6.99421 19.3937 7.33865 19.1196 7.609C18.8455 7.87935 18.4964 8.06346 18.1162 8.13805C17.7361 8.21264 17.3421 8.17435 16.984 8.02804C16.6259 7.88173 16.3199 7.63396 16.1045 7.31607C15.8892 6.99817 15.7743 6.62443 15.7743 6.24209C15.7743 5.72941 15.9807 5.23772 16.3482 4.87519C16.7157 4.51266 17.2142 4.309 17.7339 4.309ZM7.28247 13.9745C6.89488 13.9745 6.51601 13.8611 6.19374 13.6487C5.87148 13.4363 5.62031 13.1344 5.47199 12.7811C5.32367 12.4279 5.28486 12.0392 5.36047 11.6643C5.43609 11.2893 5.62272 10.9448 5.89679 10.6745C6.17085 10.4041 6.52002 10.22 6.90016 10.1454C7.28029 10.0708 7.67431 10.1091 8.03239 10.2554C8.39047 10.4017 8.69652 10.6495 8.91185 10.9674C9.12718 11.2853 9.24211 11.6591 9.24211 12.0414C9.24211 12.5541 9.03565 13.0458 8.66815 13.4083C8.30064 13.7708 7.8022 13.9745 7.28247 13.9745ZM17.7339 19.7738C17.3463 19.7738 16.9675 19.6604 16.6452 19.448C16.3229 19.2356 16.0718 18.9337 15.9234 18.5804C15.7751 18.2272 15.7363 17.8385 15.8119 17.4635C15.8875 17.0886 16.0742 16.7441 16.3482 16.4738C16.6223 16.2034 16.9715 16.0193 17.3516 15.9447C17.7317 15.8701 18.1258 15.9084 18.4838 16.0547C18.8419 16.201 19.148 16.4488 19.3633 16.7667C19.5786 17.0846 19.6936 17.4583 19.6936 17.8407C19.6936 18.3534 19.4871 18.8451 19.1196 19.2076C18.7521 19.5701 18.2536 19.7738 17.7339 19.7738Z" fill="black"/>
</svg>
