<svg width="24" height="25" viewBox="0 0 24 25" fill="none" xmlns="http://www.w3.org/2000/svg">
<path d="M10 12.2757H2.66671C2.31309 12.2757 1.97395 12.1352 1.7239 11.8852C1.47385 11.6351 1.33337 11.296 1.33337 10.9424V6.27572C1.33337 5.92209 1.47385 5.58296 1.7239 5.33291C1.97395 5.08286 2.31309 4.94238 2.66671 4.94238H10C10.3537 4.94238 10.6928 5.08286 10.9429 5.33291C11.1929 5.58296 11.3334 5.92209 11.3334 6.27572V10.9424C11.3334 11.296 11.1929 11.6351 10.9429 11.8852C10.6928 12.1352 10.3537 12.2757 10 12.2757ZM2.66671 6.27572V10.9424H10V6.27572H2.66671Z" fill="black"/>
<path d="M21.3333 12.2757H14C13.6463 12.2757 13.3072 12.1352 13.0572 11.8852C12.8071 11.6351 12.6666 11.296 12.6666 10.9424V6.27572C12.6666 5.92209 12.8071 5.58296 13.0572 5.33291C13.3072 5.08286 13.6463 4.94238 14 4.94238H15.06V4.97972C15.06 5.42838 15.12 5.86305 15.232 6.27572H14V10.9424H21.3333V9.72572C21.8053 9.5919 22.2547 9.38832 22.6666 9.12172V10.9424C22.6666 11.296 22.5262 11.6351 22.2761 11.8852C22.0261 12.1352 21.6869 12.2757 21.3333 12.2757Z" fill="black"/>
<path d="M10 20.9427H2.66671C2.31309 20.9427 1.97395 20.8022 1.7239 20.5522C1.47385 20.3021 1.33337 19.963 1.33337 19.6094V14.9427C1.33337 14.5891 1.47385 14.2499 1.7239 13.9999C1.97395 13.7499 2.31309 13.6094 2.66671 13.6094H10C10.3537 13.6094 10.6928 13.7499 10.9429 13.9999C11.1929 14.2499 11.3334 14.5891 11.3334 14.9427V19.6094C11.3334 19.963 11.1929 20.3021 10.9429 20.5522C10.6928 20.8022 10.3537 20.9427 10 20.9427ZM2.66671 14.9427V19.6094H10V14.9427H2.66671Z" fill="black"/>
<path d="M21.3333 20.9427H14C13.6463 20.9427 13.3072 20.8022 13.0572 20.5522C12.8071 20.3021 12.6666 19.963 12.6666 19.6094V14.9427C12.6666 14.5891 12.8071 14.2499 13.0572 13.9999C13.3072 13.7499 13.6463 13.6094 14 13.6094H21.3333C21.6869 13.6094 22.0261 13.7499 22.2761 13.9999C22.5262 14.2499 22.6666 14.5891 22.6666 14.9427V19.6094C22.6666 19.963 22.5262 20.3021 22.2761 20.5522C22.0261 20.8022 21.6869 20.9427 21.3333 20.9427ZM14 14.9427V19.6094H21.3333V14.9427H14Z" fill="black"/>
<path d="M20 8.27604C21.8409 8.27604 23.3333 6.78366 23.3333 4.94271C23.3333 3.10176 21.8409 1.60938 20 1.60938C18.159 1.60938 16.6666 3.10176 16.6666 4.94271C16.6666 6.78366 18.159 8.27604 20 8.27604Z" fill="black"/>
</svg>
