<svg viewBox="0 0 16 15" fill="none" xmlns="http://www.w3.org/2000/svg">
<path fill-rule="evenodd" clip-rule="evenodd" d="M11.3333 6.66667H12C12.3536 6.66667 12.6928 6.80714 12.9428 7.05719C13.1929 7.30724 13.3333 7.64638 13.3333 8V13.3333C13.3333 13.687 13.1929 14.0261 12.9428 14.2761C12.6928 14.5262 12.3536 14.6667 12 14.6667H4C3.64638 14.6667 3.30724 14.5262 3.05719 14.2761C2.80714 14.0261 2.66667 13.687 2.66667 13.3333V8C2.66667 7.64638 2.80714 7.30724 3.05719 7.05719C3.30724 6.80714 3.64638 6.66667 4 6.66667H4.66667V4.66667C4.66667 2.82867 6.162 1.33333 8 1.33333C9.838 1.33333 11.3333 2.82867 11.3333 4.66667V6.66667ZM10 6.66667L10 4.66667C10 3.564 9.10267 2.66667 8 2.66667C6.89733 2.66667 6 3.564 6 4.66667V6.66667H10ZM7.25125 9.56423C6.98262 9.7458 6.78928 10.019 6.70733 10.3327C6.635 10.6143 6.65706 10.9118 6.77015 11.1796C6.88323 11.4475 7.08108 11.6708 7.33333 11.8153V13.3333H8.66667V11.8153C8.86893 11.6993 9.03705 11.5321 9.15409 11.3304C9.27112 11.1288 9.33295 10.8998 9.33333 10.6667C9.33253 10.3424 9.21372 10.0296 8.99909 9.78653C8.78447 9.54349 8.48872 9.38689 8.16707 9.34598C7.84542 9.30507 7.51988 9.38265 7.25125 9.56423Z" fill="#333333"/>
</svg>
