<svg width="24" height="24" viewBox="0 0 24 24" fill="none" xmlns="http://www.w3.org/2000/svg">
<path d="M20.625 2.625H3.375C2.96016 2.625 2.625 2.96016 2.625 3.375V20.625C2.625 21.0398 2.96016 21.375 3.375 21.375H20.625C21.0398 21.375 21.375 21.0398 21.375 20.625V3.375C21.375 2.96016 21.0398 2.625 20.625 2.625Z" fill="#183E6C"/>
<path d="M10.1508 15.4148C10.2198 15.5111 10.3108 15.5896 10.4161 15.6437C10.5215 15.6978 10.6382 15.7261 10.7567 15.7261C10.8751 15.7261 10.9919 15.6978 11.0972 15.6437C11.2026 15.5896 11.2936 15.5111 11.3625 15.4148L16.2985 8.57109C16.3875 8.44688 16.2985 8.27344 16.1461 8.27344H15.0469C14.8078 8.27344 14.5805 8.38828 14.4399 8.58516L10.7579 13.6945L9.08911 11.3789C8.94848 11.1844 8.72348 11.0672 8.48208 11.0672H7.38286C7.23052 11.0672 7.14146 11.2406 7.23052 11.3648L10.1508 15.4148Z" fill="white"/>
</svg>
