<svg width="14" height="15" viewBox="0 0 14 15" fill="none" xmlns="http://www.w3.org/2000/svg">
<path fill-rule="evenodd" clip-rule="evenodd" d="M12.9147 8.14977C12.6286 9.21545 11.6559 10 10.5 10C9.34399 10 8.37127 9.21545 8.08522 8.14977H0V6.99977H8.05001C8.28173 5.85876 9.29055 5 10.5 5C11.7093 5 12.7182 5.85876 12.9499 6.99977H14V8.14977H12.9147ZM11.8999 7.3999C11.8999 8.1731 11.2731 8.7999 10.4999 8.7999C9.72673 8.7999 9.09993 8.1731 9.09993 7.3999C9.09993 6.6267 9.72673 5.9999 10.4999 5.9999C11.2731 5.9999 11.8999 6.6267 11.8999 7.3999Z" fill="#183E6C"/>
<path fill-rule="evenodd" clip-rule="evenodd" d="M1.08532 1.85023C1.37137 0.784552 2.34409 -1.01899e-06 3.50005 -9.17935e-07C4.65601 -8.16878e-07 5.62873 0.784553 5.91478 1.85023L14 1.85023L14 3.00023L5.94999 3.00023C5.71827 4.14123 4.70945 5 3.50005 5C2.29065 5 1.28183 4.14123 1.0501 3.00023L1.74825e-07 3.00023L2.75362e-07 1.85023L1.08532 1.85023ZM2.10007 2.6001C2.10007 1.8269 2.72687 1.2001 3.50007 1.2001C4.27327 1.2001 4.90007 1.8269 4.90007 2.6001C4.90007 3.3733 4.27327 4.0001 3.50007 4.0001C2.72687 4.0001 2.10007 3.3733 2.10007 2.6001Z" fill="#183E6C"/>
<path fill-rule="evenodd" clip-rule="evenodd" d="M1.08532 11.8502C1.37137 10.7846 2.34409 10 3.50005 10C4.65601 10 5.62873 10.7846 5.91478 11.8502L14 11.8502L14 13.0002L5.94999 13.0002C5.71827 14.1412 4.70945 15 3.50005 15C2.29065 15 1.28183 14.1412 1.0501 13.0002L1.74825e-07 13.0002L2.75362e-07 11.8502L1.08532 11.8502ZM2.10007 12.6001C2.10007 11.8269 2.72687 11.2001 3.50007 11.2001C4.27327 11.2001 4.90007 11.8269 4.90007 12.6001C4.90007 13.3733 4.27327 14.0001 3.50007 14.0001C2.72687 14.0001 2.10007 13.3733 2.10007 12.6001Z" fill="#183E6C"/>
</svg>
