<svg width="44" height="43" viewBox="0 0 44 43" fill="none" xmlns="http://www.w3.org/2000/svg">
<path d="M9.34056 17.8037L4.05323 23.091C1.8849 25.2593 0.666748 28.2002 0.666748 31.2667C0.666748 34.3332 1.8849 37.2741 4.05323 39.4424C6.22156 41.6107 9.16245 42.8289 12.2289 42.8289C15.2954 42.8289 18.2363 41.6107 20.4046 39.4424L27.4493 32.3939C28.7568 31.0862 29.7316 29.4839 30.2917 27.7214C30.8519 25.959 30.9811 24.088 30.6685 22.2653C30.3559 20.4426 29.6107 18.7215 28.4953 17.2464C27.3799 15.7714 25.9269 14.5854 24.2584 13.7881L22.0001 16.0464C21.7708 16.2761 21.5714 16.5337 21.4066 16.8133C22.6958 17.1839 23.8659 17.8845 24.8013 18.846C25.7367 19.8074 26.405 20.9963 26.7402 22.2951C27.0753 23.594 27.0656 24.9578 26.7122 26.2518C26.3587 27.5458 25.6736 28.7251 24.7247 29.6732L17.6839 36.7178C16.2377 38.164 14.2761 38.9765 12.2309 38.9765C10.1856 38.9765 8.22406 38.164 6.77782 36.7178C5.33159 35.2716 4.5191 33.3101 4.5191 31.2648C4.5191 29.2195 5.33159 27.258 6.77782 25.8117L9.83384 22.7596C9.40266 21.1438 9.23608 19.4689 9.34056 17.7998V17.8037Z" fill="white"/>
<path d="M16.5507 10.5976C15.2431 11.9054 14.2683 13.5077 13.7082 15.2701C13.148 17.0325 13.0188 18.9036 13.3314 20.7263C13.644 22.5489 14.3893 24.27 15.5046 25.7451C16.62 27.2201 18.073 28.4061 19.7416 29.2035L22.7282 26.213C21.4216 25.8625 20.2302 25.1743 19.2738 24.2175C18.3175 23.2607 17.6298 22.0691 17.2798 20.7623C16.9299 19.4556 16.9301 18.0797 17.2803 16.773C17.6306 15.4664 18.3186 14.2749 19.2752 13.3184L26.316 6.27373C27.7623 4.82749 29.7238 4.01501 31.7691 4.01501C33.8143 4.01501 35.7759 4.82749 37.2221 6.27373C38.6683 7.71996 39.4808 9.68148 39.4808 11.7268C39.4808 13.772 38.6683 15.7336 37.2221 17.1798L34.1661 20.232C34.5977 21.8505 34.7634 23.5269 34.6594 25.1917L39.9467 19.9044C42.115 17.7361 43.3332 14.7952 43.3332 11.7287C43.3332 8.66221 42.115 5.72132 39.9467 3.55299C37.7784 1.38466 34.8375 0.166504 31.771 0.166504C28.7045 0.166504 25.7636 1.38466 23.5953 3.55299L16.5507 10.5976Z" fill="white"/>
</svg>
