<svg width="24" height="24" viewBox="0 0 24 24" fill="none" xmlns="http://www.w3.org/2000/svg">
<path fill-rule="evenodd" clip-rule="evenodd" d="M13 3L4 3C3.46957 3 2.96086 3.21071 2.58579 3.58579C2.21072 3.96086 2 4.46957 2 5L2 19C2 19.5304 2.21071 20.0391 2.58579 20.4142C2.96086 20.7893 3.46957 21 4 21L13 21C13.5304 21 14.0391 20.7893 14.4142 20.4142C14.7893 20.0391 15 19.5304 15 19L15 15H13L13 19L4 19L4 5L13 5V9H15V5C15 4.46957 14.7893 3.96086 14.4142 3.58579C14.0391 3.21072 13.5304 3 13 3ZM11.2684 11.2931C11.4403 11.1056 11.6735 11.0003 11.9165 11.0003L18.8693 11.0003L16.7668 8.70883C16.6816 8.61588 16.614 8.50553 16.5679 8.38408C16.5218 8.26263 16.498 8.13247 16.498 8.00101C16.498 7.86956 16.5218 7.73939 16.5679 7.61794C16.614 7.49649 16.6816 7.38614 16.7668 7.29319C16.852 7.20024 16.9532 7.1265 17.0645 7.0762C17.1759 7.02589 17.2952 7 17.4157 7C17.5362 7 17.6556 7.02589 17.7669 7.0762C17.8782 7.1265 17.9794 7.20024 18.0646 7.29319L21.7307 11.2922C21.8161 11.385 21.8838 11.4954 21.93 11.6168C21.9762 11.7383 22 11.8685 22 12C22 12.1315 21.9762 12.2617 21.93 12.3832C21.8838 12.5046 21.8161 12.615 21.7307 12.7078L18.0646 16.7068C17.9794 16.7998 17.8782 16.8735 17.7669 16.9238C17.6556 16.9741 17.5362 17 17.4157 17C17.2952 17 17.1759 16.9741 17.0645 16.9238C16.9532 16.8735 16.852 16.7998 16.7668 16.7068C16.6816 16.6139 16.614 16.5035 16.5679 16.3821C16.5218 16.2606 16.498 16.1304 16.498 15.999C16.498 15.8675 16.5218 15.7374 16.5679 15.6159C16.614 15.4945 16.6816 15.3841 16.7668 15.2912L18.8693 12.9997H11.9165C11.6735 12.9997 11.4403 12.8944 11.2684 12.7069C11.0966 12.5194 11 12.2652 11 12C11 11.7349 11.0966 11.4806 11.2684 11.2931Z" fill="black"/>
</svg>
