<svg viewBox="0 0 11 11" fill="none" xmlns="http://www.w3.org/2000/svg">
<path d="M8.00005 5.11122H4.00005V3.77789C4.00005 3.04278 4.59828 2.44455 5.33339 2.44455C6.0685 2.44455 6.66672 3.04278 6.66672 3.77789H7.55561C7.55561 2.55255 6.55872 1.55566 5.33339 1.55566C4.10805 1.55566 3.11117 2.55255 3.11117 3.77789V5.11122H2.66672C2.43097 5.11122 2.20488 5.20487 2.03818 5.37157C1.87148 5.53827 1.77783 5.76436 1.77783 6.00011V9.55567C1.77783 9.79141 1.87148 10.0175 2.03818 10.1842C2.20488 10.3509 2.43097 10.4446 2.66672 10.4446H8.00005C8.2358 10.4446 8.46189 10.3509 8.62859 10.1842C8.79529 10.0175 8.88894 9.79141 8.88894 9.55567V6.00011C8.88894 5.76436 8.79529 5.53827 8.62859 5.37157C8.46189 5.20487 8.2358 5.11122 8.00005 5.11122ZM4.47161 7.55522C4.52624 7.34608 4.65514 7.16398 4.83422 7.04293C5.01331 6.92188 5.23034 6.87016 5.44477 6.89743C5.6592 6.9247 5.85637 7.0291 5.99945 7.19113C6.14253 7.35316 6.22174 7.56173 6.22228 7.77789C6.22202 7.93333 6.1808 8.08596 6.10278 8.2204C6.02475 8.35483 5.91267 8.46633 5.77783 8.54366V9.55567H4.88894V8.54366C4.72077 8.4473 4.58887 8.29842 4.51349 8.11986C4.4381 7.94131 4.42339 7.74294 4.47161 7.55522Z" fill="#183E6C"/>
</svg>
