<svg width="24" height="24" viewBox="0 0 24 20" fill="none" xmlns="http://www.w3.org/2000/svg">
<path d="M21.9603 10.8569C21.1762 8.82858 19.8149 7.0745 18.0447 5.81145C16.2745 4.54839 14.1731 3.83172 12 3.75C9.82695 3.83172 7.72547 4.54839 5.9553 5.81145C4.18512 7.0745 2.82385 8.82858 2.03972 10.8569C1.98676 11.0033 1.98676 11.1637 2.03972 11.3102C2.82385 13.3385 4.18512 15.0926 5.9553 16.3556C7.72547 17.6187 9.82695 18.3354 12 18.4171C14.1731 18.3354 16.2745 17.6187 18.0447 16.3556C19.8149 15.0926 21.1762 13.3385 21.9603 11.3102C22.0132 11.1637 22.0132 11.0033 21.9603 10.8569ZM12 17.0837C8.46657 17.0837 4.73313 14.4636 3.37976 11.0835C4.73313 7.70345 8.46657 5.08337 12 5.08337C15.5334 5.08337 19.2669 7.70345 20.6202 11.0835C19.2669 14.4636 15.5334 17.0837 12 17.0837Z" fill="black"/>
<path d="M12 7.0835C11.2088 7.0835 10.4355 7.3181 9.77765 7.75764C9.11983 8.19718 8.60713 8.82191 8.30437 9.55283C8.00161 10.2838 7.9224 11.088 8.07674 11.864C8.23109 12.6399 8.61206 13.3527 9.17149 13.9121C9.73091 14.4715 10.4437 14.8525 11.2196 15.0069C11.9956 15.1612 12.7998 15.082 13.5308 14.7792C14.2617 14.4765 14.8864 13.9638 15.326 13.306C15.7655 12.6481 16.0001 11.8748 16.0001 11.0836C16.0001 10.0227 15.5787 9.00527 14.8285 8.2551C14.0783 7.50494 13.0609 7.0835 12 7.0835ZM12 13.7504C11.4726 13.7504 10.957 13.594 10.5184 13.3009C10.0799 13.0079 9.73808 12.5914 9.53624 12.1041C9.3344 11.6168 9.28159 11.0807 9.38449 10.5634C9.48739 10.0461 9.74137 9.57089 10.1143 9.19794C10.4873 8.82499 10.9624 8.571 11.4797 8.46811C11.997 8.36521 12.5332 8.41802 13.0205 8.61986C13.5078 8.8217 13.9243 9.1635 14.2173 9.60205C14.5103 10.0406 14.6667 10.5562 14.6667 11.0836C14.6667 11.7909 14.3858 12.4692 13.8857 12.9693C13.3856 13.4694 12.7073 13.7504 12 13.7504Z" fill="black"/>
</svg>
