<svg width="39" height="40" viewBox="0 0 39 40" fill="none" xmlns="http://www.w3.org/2000/svg">
<path d="M8.14417 21.755C9.61267 18.0438 13.2206 15.4192 17.4426 15.4192C22.9685 15.4192 27.4436 19.9121 27.4436 25.4599C27.4436 30.7027 23.4432 35.0114 18.3351 35.4625" stroke="#231F20" stroke-width="1.15" stroke-miterlimit="10" stroke-linecap="round" stroke-linejoin="round"/>
<path d="M5.21985 21.7301C6.80862 16.4682 11.6762 12.6362 17.4426 12.6362C24.5003 12.6362 30.2224 18.3811 30.2224 25.4668" stroke="#231F20" stroke-width="1.15" stroke-miterlimit="10" stroke-linecap="round" stroke-linejoin="round"/>
<path d="M29.1146 30.6968C27.7474 33.7662 25.2155 36.1938 22.0886 37.4203C20.6517 37.9859 19.0819 38.2972 17.4489 38.2972" stroke="#231F20" stroke-width="1.15" stroke-miterlimit="10" stroke-linecap="round" stroke-linejoin="round"/>
<path d="M16.5754 28.3258H12.6193L15.6892 25.5869C16.1576 25.1166 16.4235 24.4748 16.4235 23.8075C16.4235 22.8034 15.6132 21.9836 14.6068 21.9836C13.8979 21.9836 13.2586 22.3967 12.9611 23.0386" stroke="#231F20" stroke-width="1.15" stroke-miterlimit="10" stroke-linecap="round" stroke-linejoin="round"/>
<path d="M20.9492 28.3261V21.9902L17.0437 26.6929H21.4682" stroke="#231F20" stroke-width="1.15" stroke-miterlimit="10" stroke-linecap="round" stroke-linejoin="round"/>
<path d="M31.2034 24.3542L30.2223 25.7015L29.2412 24.3542" stroke="#231F20" stroke-width="1.15" stroke-miterlimit="10" stroke-linecap="round" stroke-linejoin="round"/>
<path d="M16.2589 37.5597C14.6005 39.0594 12.0433 39.0086 10.4482 37.4072L2.88411 29.8131C1.28901 28.2116 1.23837 25.6442 2.7322 23.9793L2.72587 23.9729L4.70075 21.9902C5.06155 21.6279 5.65022 21.6279 6.01102 21.9902L8.51761 24.5067C8.8784 24.8689 8.8784 25.46 8.51761 25.8222L6.46043 27.2393C5.99836 27.5571 5.94139 28.2116 6.33383 28.6056L11.6572 33.9501C12.0496 34.3441 12.7079 34.2869 13.0181 33.823L14.4233 31.7513C14.7841 31.3891 15.3727 31.3891 15.7335 31.7513L18.2401 34.2678C18.6009 34.6301 18.6009 35.2211 18.2401 35.5833L16.2589 37.5597Z" stroke="#231F20" stroke-width="1.15" stroke-miterlimit="10" stroke-linecap="round" stroke-linejoin="round"/>
</svg>
