<svg width="44" height="48" viewBox="0 0 44 48" fill="none" xmlns="http://www.w3.org/2000/svg">
<g filter="url(#filter0_d_805_3080)">
<path d="M23.6959 18.3662C27.4705 19.9267 30.0571 23.0925 30.0571 26.7426C30.0571 30.0609 27.9339 32.9756 24.7154 34.6527L24.3616 37.8095C24.3026 38.3566 23.8729 38.7602 23.3589 38.7602H22.1204C21.6149 38.7602 21.1852 38.3566 21.1262 37.8095L20.9156 35.9441C20.0899 36.0876 19.2389 36.1683 18.3542 36.1683C17.4696 36.1683 16.6186 36.0876 15.7929 35.9441L15.5823 37.8095C15.5317 38.3566 15.0936 38.7602 14.5881 38.7602H13.3496C12.8356 38.7602 12.4143 38.3566 12.3554 37.8095L12.0099 34.6617C9.57499 33.3881 7.76353 31.4061 7.03052 29.0834L5.75829 28.8322C5.32016 28.7426 5 28.339 5 27.8637V25.6395C5 25.1642 5.32016 24.7606 5.75829 24.6709L7.03052 24.4198C7.63715 22.4827 8.99364 20.7966 10.8135 19.55" stroke="#231F20" stroke-width="1.14504" stroke-miterlimit="10" stroke-linecap="round" stroke-linejoin="round"/>
<path d="M16.9305 17.3975C16.0458 17.4871 15.1864 17.6486 14.3691 17.8907" stroke="#231F20" stroke-width="1.14504" stroke-miterlimit="10" stroke-linecap="round" stroke-linejoin="round"/>
<path d="M16.7029 20.1958C17.2421 20.133 17.7982 20.0972 18.3627 20.0972C20.1152 20.0972 21.7834 20.4111 23.2747 20.9671" stroke="#231F20" stroke-width="1.14504" stroke-miterlimit="10" stroke-linecap="round" stroke-linejoin="round"/>
<path d="M11.2938 20.9759L9.80249 16.4738C9.80249 16.4738 13.4338 16.151 15.338 18.976" stroke="#231F20" stroke-width="1.14504" stroke-miterlimit="10" stroke-linecap="round" stroke-linejoin="round"/>
<path d="M10.6704 23.828C10.6704 24.0163 10.5271 24.1688 10.3502 24.1688C10.1733 24.1688 10.03 24.0163 10.03 23.828C10.03 23.6397 10.1733 23.4872 10.3502 23.4872C10.5271 23.4782 10.6704 23.6307 10.6704 23.828Z" stroke="#231F20" stroke-width="1.14504" stroke-miterlimit="10" stroke-linecap="round" stroke-linejoin="round"/>
<path d="M17.2844 13.8372L19.2391 8.519C19.6941 7.2724 20.604 6.28588 21.7667 5.77469L27.7656 3.138L30.1668 0.582031" stroke="#231F20" stroke-width="1.14504" stroke-miterlimit="10" stroke-linecap="round" stroke-linejoin="round"/>
<path d="M24.3786 15.5323C24.5049 16.734 24.1427 17.9806 23.2748 18.9043C21.7667 20.5097 19.3318 20.5007 17.832 18.9043C16.3239 17.299 16.3239 14.7072 17.832 13.1018C18.7167 12.1602 19.93 11.7745 21.0842 11.9449C21.8931 12.0615 22.6682 12.4561 23.2833 13.1108C23.5108 13.353 23.7045 13.613 23.8646 13.9" stroke="#231F20" stroke-width="1.14504" stroke-miterlimit="10" stroke-linecap="round" stroke-linejoin="round"/>
<path d="M34.5141 4.59082L31.8432 7.43378L29.2482 12.2767C28.8606 12.9941 28.2793 13.5681 27.58 13.9179L24.0245 15.7115C23.4768 14.7609 23.7211 13.5143 24.5805 12.8776L25.5916 12.1242C26.2151 11.6579 26.4173 10.77 26.0634 10.0525C25.7601 9.43372 25.1198 9.09292 24.471 9.20951L22.3309 9.58618L21.0671 11.9538" stroke="#231F20" stroke-width="1.14504" stroke-miterlimit="10" stroke-linecap="round" stroke-linejoin="round"/>
<path d="M29.8464 24.1509C31.1945 23.9087 32.6437 24.4917 33.5199 25.6127C33.8485 26.0342 34.0928 26.5275 34.1602 27.0656C34.2276 27.6037 34.0928 28.1866 33.739 28.5723C33.3851 28.9669 32.8037 29.1283 32.3404 28.9131C32.037 28.7696 31.8011 28.4736 31.6832 28.1418C31.5568 27.81 31.5399 27.4423 31.5736 27.0835C31.6579 26.2226 32.0707 25.4065 32.6774 24.8414C33.284 24.2675 34.0844 23.9356 34.8932 23.8818" stroke="#231F20" stroke-width="1.14504" stroke-miterlimit="10" stroke-linecap="round" stroke-linejoin="round"/>
<path d="M21.32 15.2273C21.32 14.7788 20.9746 14.4111 20.5533 14.4111C20.1321 14.4111 19.7866 14.7788 19.7866 15.2273C19.7866 16.3662 21.32 15.7564 21.32 16.7698C21.32 17.2182 20.9746 17.5859 20.5533 17.5859C20.1321 17.5859 19.7866 17.2182 19.7866 16.7698" stroke="#231F20" stroke-width="1.14504" stroke-miterlimit="10" stroke-linecap="round" stroke-linejoin="round"/>
<path d="M20.5535 13.8911V14.4113" stroke="#231F20" stroke-width="1.14504" stroke-miterlimit="10" stroke-linecap="round" stroke-linejoin="round"/>
<path d="M20.5535 17.5859V18.1151" stroke="#231F20" stroke-width="1.14504" stroke-miterlimit="10" stroke-linecap="round" stroke-linejoin="round"/>
</g>
<defs>
<filter id="filter0_d_805_3080" x="0" y="0" width="48" height="48" filterUnits="userSpaceOnUse" color-interpolation-filters="sRGB">
<feFlood flood-opacity="0" result="BackgroundImageFix"/>
<feColorMatrix in="SourceAlpha" type="matrix" values="0 0 0 0 0 0 0 0 0 0 0 0 0 0 0 0 0 0 127 0" result="hardAlpha"/>
<feOffset dy="4"/>
<feGaussianBlur stdDeviation="2"/>
<feComposite in2="hardAlpha" operator="out"/>
<feColorMatrix type="matrix" values="0 0 0 0 0 0 0 0 0 0 0 0 0 0 0 0 0 0 0.25 0"/>
<feBlend mode="normal" in2="BackgroundImageFix" result="effect1_dropShadow_805_3080"/>
<feBlend mode="normal" in="SourceGraphic" in2="effect1_dropShadow_805_3080" result="shape"/>
</filter>
</defs>
</svg>
