<svg width="132" height="49" viewBox="0 0 132 49" fill="none" xmlns="http://www.w3.org/2000/svg">
<path d="M13.1726 24.7181C11.7103 26.5249 10.0414 28.0136 8.16185 29.188C6.28233 30.3624 4.31702 31.1598 2.27373 31.5762L0.628174 24.1839C2.56229 23.7871 4.10646 22.9701 5.25678 21.7211C6.40711 20.4759 7.20259 18.7398 7.63933 16.5166L1.39636 17.7932V10.2359L8.02537 8.88469V6.12731L18.3237 4.02588V6.78326L24.9527 5.43207V12.9933L18.6552 14.2777C19.0919 16.3241 19.8874 17.7342 21.0377 18.508C22.1881 19.2858 23.7322 19.4743 25.6663 19.0815L24.0247 27.1416C21.9775 27.5579 20.0161 27.554 18.1366 27.1298C16.2492 26.7016 14.5959 25.8964 13.1726 24.7181Z" fill="#183E6C"/>
<path d="M29.441 26.5524L29.2811 19.3604L25.756 20.0085L25.4207 12.4591L29.1095 11.7442L28.9301 3.69202L40.8624 1.27637L39.8212 24.7259L29.441 26.5524Z" fill="#183E6C"/>
<path d="M120.184 3.67236L131.933 0.75L130.143 42.2168L119.767 43.9451L120.184 3.67236Z" fill="#183E6C"/>
<path d="M37.3567 28.5831C35.7307 27.3144 33.6757 26.9334 31.1957 27.4401L11.1448 31.529C8.66092 32.0357 6.60593 33.2534 4.98377 35.1859C4.05961 36.2857 3.4084 37.4719 3.01066 38.7406C3.49809 38.501 4.00501 38.2732 4.53923 38.0729L4.81219 38.8074C4.19998 39.0392 3.61507 39.2984 3.07305 39.5812L2.87028 39.2041C2.65581 40.029 2.54663 40.8892 2.54663 41.7848C2.54663 44.2515 3.35771 46.1172 4.98377 47.3859C6.60982 48.6547 8.66092 49.0357 11.1448 48.529L31.1957 44.4361C33.6796 43.9294 35.7307 42.7117 37.3567 40.7792C38.9828 38.8467 39.7939 36.651 39.7939 34.1843C39.7939 31.7175 38.9828 29.8518 37.3567 28.5831ZM5.89233 38.446L5.66617 37.6958C6.30177 37.5033 6.95297 37.3384 7.60028 37.2166L7.74846 37.9865C7.12845 38.1043 6.50454 38.2575 5.89233 38.446ZM26.7581 33.0923H26.5437C25.9626 33.0923 25.3933 33.1198 24.8591 33.1787C21.8371 33.4969 16.8653 34.5378 15.0326 37.9511C17.8557 39.9033 18.4329 42.8492 17.5984 44.1101C17.3449 44.495 16.9199 44.7857 16.3428 44.7857C15.9411 44.7857 15.4654 44.6443 14.9234 44.2908C14.0538 43.7251 13.1842 41.498 13.7419 39.1648C13.8159 38.8545 13.9095 38.5599 14.0187 38.2732C13.0127 37.8058 11.5816 37.6055 9.90873 37.7037C9.56948 37.7233 9.22243 37.7587 8.87149 37.8019L8.774 37.0241C9.14055 36.977 9.50709 36.9417 9.86194 36.922C11.1799 36.8435 12.9503 36.9063 14.3463 37.5623C16.3428 33.8504 22.6013 31.8157 25.0814 31.5526C25.6429 31.4937 26.2356 31.4151 26.8439 31.4151H27.0701L26.7581 33.0923ZM30.1233 33.3633C29.2654 33.2848 28.7702 33.2141 27.9006 33.2494L28.3296 31.4426C29.1875 31.423 29.6749 31.5133 30.5211 31.6036L30.1233 33.3633ZM33.8239 34.0114C33.0674 33.7954 32.3499 33.6736 31.5817 33.5479L31.9599 31.8079C32.7164 31.9454 33.4768 32.126 34.2216 32.3499L33.8239 34.0114ZM37.1384 35.4294C36.4365 35.0955 35.7112 34.7028 35.0015 34.4474L35.5162 32.7859C36.2142 33.0412 36.92 33.3398 37.6102 33.6736L37.1384 35.4294ZM38.3199 36.1521L38.8268 34.2746C39.5404 34.6203 40.3983 35.0877 41.4043 35.7083L41.0456 38.0297C40.2033 37.3069 38.9399 36.5999 38.3199 36.1521Z" fill="#183E6C"/>
<path d="M0.0666504 40.7516L0.612569 41.3133C1.02201 40.9087 1.51724 40.5198 2.08265 40.1545L1.66151 39.4907C1.0532 39.8874 0.515084 40.3117 0.0666504 40.7516Z" fill="#183E6C"/>
<path d="M113.31 33.3046C112.031 31.8906 111.029 29.6871 110.295 26.6901C109.566 23.6931 109.2 20.0087 109.2 15.6291V14.0304L116.542 12.5339V4.25391L92.1125 9.23841V17.5145L99.5058 16.0062V17.6048C99.5058 24.4826 98.8195 29.8285 97.4508 33.6385C96.0821 37.4486 93.9374 39.7818 91.0128 40.6341L93.2043 48.7413C95.1774 48.1914 97.1466 47.0719 99.1197 45.3829C101.093 43.6939 102.844 41.4393 104.376 38.627C104.38 38.6309 104.38 38.6348 104.384 38.6387C104.7 37.9435 105.331 36.4941 105.581 35.5396L106.334 35.7399C105.987 37.0715 104.996 39.1808 104.906 39.3654C106.279 41.1722 107.835 42.4645 109.578 43.2501C111.551 44.1378 113.52 44.452 115.493 44.1967L117.685 35.1979C116.047 35.3472 114.589 34.7187 113.31 33.3046Z" fill="#183E6C"/>
<path d="M60.4999 17.9972L56.6668 18.7789V6.86162L46.3684 8.96304V48.8037L70.7983 43.8192V3.97461L60.4999 6.07604V17.9972ZM64.1653 25.0556C64.142 25.0596 62.3638 25.3738 60.999 25.7705C61.1199 27.106 61.2174 29.9145 60.2035 32.0198C58.827 34.8793 56.9124 36.3759 55.9259 35.3585C54.9393 34.3412 55.2552 31.1989 56.6317 28.3394C57.4077 26.725 58.6672 25.8687 59.6225 25.4288L59.6186 25.4249C59.7356 25.3699 59.8682 25.3188 60.0086 25.2678C60.1918 25.197 60.3556 25.1421 60.4882 25.1028C61.9232 24.655 63.9236 24.2976 64.025 24.2818L64.1653 25.0556Z" fill="#183E6C"/>
<path d="M85.1286 19.9415L86.8522 0.789062L74.7874 3.37362L73.6799 43.5128L83.1477 41.9102L84.4072 27.923L88.6069 27.1492L89.5311 19.0891L85.1286 19.9415Z" fill="#183E6C"/>
</svg>
