<svg width="24" height="24" viewBox="0 0 24 24" fill="none" xmlns="http://www.w3.org/2000/svg">
<path d="M17.5984 2H5.86614C5.60367 2 5.3937 2.07874 5.23622 2.23622C5.07874 2.3937 5 2.59055 5 2.82677V21.1339C5 21.3701 5.0853 21.5735 5.25591 21.7441C5.42651 21.9147 5.62992 22 5.86614 22C6.04987 22 6.24672 21.9344 6.45669 21.8032L11.2205 17.6299C11.3255 17.5249 11.5223 17.4724 11.811 17.4724C11.9948 17.4724 12.1916 17.5249 12.4016 17.6299L17.2047 21.8032C17.3097 21.9344 17.5066 22 17.7953 22C18.0052 22 18.1955 21.9147 18.3661 21.7441C18.5367 21.5735 18.622 21.3701 18.622 21.1339V2.82677C18.4383 2.27559 18.0971 2 17.5984 2Z" fill="black"/>
</svg>
