<svg width="25" height="24" viewBox="0 0 25 24" fill="none" xmlns="http://www.w3.org/2000/svg">
<path fill-rule="evenodd" clip-rule="evenodd" d="M21.14 12.2047C21.14 11.5665 21.0827 10.9529 20.9764 10.3638H12.5V13.8451H17.3436C17.135 14.9701 16.5009 15.9233 15.5477 16.5615V18.8197H18.4564C20.1582 17.2529 21.14 14.9456 21.14 12.2047Z" fill="#4285F4"/>
<path fill-rule="evenodd" clip-rule="evenodd" d="M12.5 21C14.93 21 16.9673 20.1941 18.4564 18.8195L15.5477 16.5613C14.7418 17.1013 13.7109 17.4204 12.5 17.4204C10.1559 17.4204 8.17182 15.8372 7.46409 13.71H4.45728V16.0418C5.93818 18.9831 8.98182 21 12.5 21Z" fill="#34A853"/>
<path fill-rule="evenodd" clip-rule="evenodd" d="M7.46409 13.7098C7.28409 13.1698 7.18182 12.593 7.18182 11.9998C7.18182 11.4066 7.28409 10.8298 7.46409 10.2898V7.95801H4.45727C3.84773 9.17301 3.5 10.5476 3.5 11.9998C3.5 13.4521 3.84773 14.8266 4.45727 16.0416L7.46409 13.7098Z" fill="#FBBC05"/>
<path fill-rule="evenodd" clip-rule="evenodd" d="M12.5 6.57955C13.8214 6.57955 15.0077 7.03364 15.9405 7.92545L18.5218 5.34409C16.9632 3.89182 14.9259 3 12.5 3C8.98182 3 5.93818 5.01682 4.45728 7.95818L7.46409 10.29C8.17182 8.16273 10.1559 6.57955 12.5 6.57955Z" fill="#EA4335"/>
</svg>
