<svg width="67" height="58" viewBox="0 0 67 58" fill="none" xmlns="http://www.w3.org/2000/svg">
<path d="M0 0H67V42C67 50.8366 59.8366 58 51 58H16C7.16344 58 0 50.8366 0 42V0Z" fill="#E4ECF6"/>
<path d="M3 0V39C3 47.8366 10.1634 55 19 55H48C56.8366 55 64 47.8366 64 39V0" stroke="#3B74B9" stroke-width="0.4" stroke-dasharray="4 4"/>
<path d="M13.4355 21.0693C13.4355 18.6768 14.4245 16.5872 16.4023 14.8008C18.125 13.2695 20.055 12.5039 22.1924 12.5039V18.7246C21.2992 18.7246 20.5335 19.1234 19.8955 19.9209C19.4489 20.5589 19.2256 21.3086 19.2256 22.1699L13.4355 21.0693ZM14.4404 46V39.3965H33.7725V46H14.4404ZM14.4404 36.9082C14.4404 34.7708 15.86 32.6175 18.6992 30.4482C19.1139 30.1292 19.752 29.6667 20.6133 29.0605C21.4108 28.5182 21.9691 28.1195 22.2881 27.8643C22.6071 27.609 23.1016 27.2422 23.7715 26.7637C25.877 25.2643 27.1689 24.0999 27.6475 23.2705C27.9027 22.792 28.0303 22.3454 28.0303 21.9307C28.0303 20.2718 27.2646 19.251 25.7334 18.8682C25.4144 18.7725 25.1113 18.7246 24.8242 18.7246V12.5039C28.8757 12.5039 31.6829 14.083 33.2461 17.2412C33.916 18.6449 34.251 20.1921 34.251 21.8828C34.251 24.3711 33.4056 26.4925 31.7148 28.2471C30.8854 29.1084 29.7848 30.0335 28.4131 31.0225C27.9027 31.4053 27.137 31.9157 26.1162 32.5537C24.0745 33.9255 22.8304 34.9463 22.3838 35.6162C22.1286 36.0628 22.001 36.4935 22.001 36.9082H14.4404Z" fill="#3B74B9"/>
<path d="M35.8906 46V36.2734C35.8906 35.4922 36.2422 34.7266 36.9453 33.9766C37.8047 33.0859 38.875 32.6328 40.1562 32.6172V35.7344C39.5 35.8125 39.1406 36.1172 39.0781 36.6484V46H35.8906ZM41.2344 35.7344V32.6172C42.75 32.6172 43.9453 33.2188 44.8203 34.4219C45.2891 35.0781 45.5234 35.6953 45.5234 36.2734V46H42.3359V36.6484C42.3359 36.1328 42.0469 35.8359 41.4688 35.7578C41.3906 35.7422 41.3125 35.7344 41.2344 35.7344ZM47.1172 42.3672V36.2734C47.1328 35.5391 47.4531 34.8047 48.0781 34.0703C48.8594 33.1797 49.8281 32.7266 50.9844 32.7109H51.7578V35.7344H50.9844C50.5312 35.7812 50.2578 36 50.1641 36.3906V42.3203C50.1641 42.4922 50.2734 42.6562 50.4922 42.8125C50.6484 42.9062 50.8281 42.9531 51.0312 42.9531H51.7578V46H51.0312C49.6094 46 48.5 45.3672 47.7031 44.1016C47.3125 43.4766 47.1172 42.8984 47.1172 42.3672ZM53 46V29.2188H56.2578L56.2344 46H53Z" fill="#3B74B9"/>
</svg>
