<svg width="67" height="58" viewBox="0 0 67 58" fill="none" xmlns="http://www.w3.org/2000/svg">
<path d="M0 0H67V42C67 50.8366 59.8366 58 51 58H16C7.16344 58 0 50.8366 0 42V0Z" fill="#E4ECF6"/>
<path d="M3 0V39C3 47.8366 10.1634 55 19 55H48C56.8366 55 64 47.8366 64 39V0" stroke="#3B74B9" stroke-width="0.4" stroke-dasharray="4 4"/>
<path d="M18.4355 21.4043V15.375L22.0723 12.5039H28.8193V46H22.0723V21.4043H18.4355Z" fill="#3B74B9"/>
<path d="M32.4688 42.4844L35.375 41.9453C35.375 42.4609 35.6406 42.8281 36.1719 43.0469C36.3594 43.1094 36.5312 43.1484 36.6875 43.1641V46.1172C34.875 46.1172 33.6172 45.4766 32.9141 44.1953C32.6172 43.6641 32.4688 43.0938 32.4688 42.4844ZM32.6094 36.2969C32.6094 34.8438 33.2891 33.7656 34.6484 33.0625C35.3203 32.7031 35.9844 32.5234 36.6406 32.5234V35.4297C35.875 35.4453 35.4922 35.7344 35.4922 36.2969C35.4922 36.8906 36.2109 37.4141 37.6484 37.8672C38.1797 38.0391 38.8047 38.2031 39.5234 38.3594C40.6016 38.5625 41.3672 39.1641 41.8203 40.1641C42.0547 40.6797 42.1719 41.25 42.1719 41.875C42.1719 43.5 41.5312 44.6953 40.25 45.4609C39.5156 45.8984 38.6797 46.1172 37.7422 46.1172V43.1641C38.2891 43.1641 38.6953 42.9844 38.9609 42.625C39.0859 42.4531 39.1484 42.2656 39.1484 42.0625C39.1484 41.5781 38.5547 41.1562 37.3672 40.7969C37.1797 40.75 36.8906 40.6719 36.5 40.5625C35.6719 40.3438 35.1016 40.1641 34.7891 40.0234C33.6484 39.4453 32.9609 38.5938 32.7266 37.4688C32.6484 37.0938 32.6094 36.7031 32.6094 36.2969ZM37.6953 35.4297L37.7188 32.5234C39.125 32.5234 40.2578 33.0391 41.1172 34.0703C41.6641 34.7422 41.9375 35.4531 41.9375 36.2031L39.0547 36.6953C39.0547 35.9922 38.6797 35.5781 37.9297 35.4531C37.8359 35.4375 37.7578 35.4297 37.6953 35.4297ZM42.9688 35.6641V32.6406H44.6094V29.2188H47.75V32.6406H49.2969V35.6875H47.75V41.8984C47.7812 42.4609 48.0703 42.75 48.6172 42.7656H49.2969L50 46H48.5938C46.5469 46 45.2969 45.2266 44.8438 43.6797C44.6875 43.1172 44.6094 42.4453 44.6094 41.6641V35.6641H42.9688Z" fill="#3B74B9"/>
</svg>
