<svg width="67" height="58" viewBox="0 0 67 58" fill="none" xmlns="http://www.w3.org/2000/svg">
<path d="M0 0H67V42C67 50.8366 59.8366 58 51 58H16C7.16344 58 0 50.8366 0 42V0Z" fill="#E4ECF6"/>
<path d="M3 0V39C3 47.8366 10.1634 55 19 55H48C56.8366 55 64 47.8366 64 39V0" stroke="#3B74B9" stroke-width="0.4" stroke-dasharray="4 4"/>
<path d="M12.957 39.2051V32.9844L22.0488 17.3848V29.4434L19.8477 32.9844H22.0488V39.2051H12.957ZM24.7764 46V12.4561H31.4756V32.9844H34.0596V39.2051H31.4756V46H24.7764Z" fill="#3B74B9"/>
<path d="M35.3281 35.6641V32.6406H36.9688V29.2188H40.1094V32.6406H41.6562V35.6875H40.1094V41.8984C40.1406 42.4609 40.4297 42.75 40.9766 42.7656H41.6562L42.3594 46H40.9531C38.9062 46 37.6562 45.2266 37.2031 43.6797C37.0469 43.1172 36.9688 42.4453 36.9688 41.6641V35.6641H35.3281ZM43.5781 46.1875V29.2188H46.5078V33.2031C46.8203 33.0938 47.2422 33.0391 47.7734 33.0391V35.9219C47.2266 35.9219 46.8281 36.1719 46.5781 36.6719C46.5469 36.7344 46.5312 36.7812 46.5312 36.8125V46.1875H43.5781ZM48.9219 35.9219V33.0391C50.4375 33.0391 51.5781 33.5781 52.3438 34.6562C52.7656 35.2344 52.9766 35.875 52.9766 36.5781V46.1875H50.0469V36.8125C50.0469 36.5938 49.9219 36.3828 49.6719 36.1797C49.4688 36.0078 49.2188 35.9219 48.9219 35.9219Z" fill="#3B74B9"/>
</svg>
