<svg width="67" height="58" viewBox="0 0 67 58" fill="none" xmlns="http://www.w3.org/2000/svg">
<path d="M0 0H67V42C67 50.8366 59.8366 58 51 58H16C7.16344 58 0 50.8366 0 42V0Z" fill="#E4ECF6"/>
<path d="M3 0V39C3 47.8366 10.1634 55 19 55H48C56.8366 55 64 47.8366 64 39V0" stroke="#3B74B9" stroke-width="0.4" stroke-dasharray="4 4"/>
<path d="M14.1533 29.0605L15.541 12.5039H32.7197V18.7246H21.3311L20.7568 24.8496C21.4587 24.6901 22.1764 24.6104 22.9102 24.6104V30.4961C21.4746 30.6237 20.4378 31.1501 19.7998 32.0752C19.736 32.1709 19.6882 32.2507 19.6562 32.3145L14.1533 29.0605ZM25.4941 46V39.9707C27.3125 39.6517 28.5088 38.6309 29.083 36.9082C29.2425 36.3978 29.3223 35.8555 29.3223 35.2812C29.3223 33.4629 28.5885 32.0752 27.1211 31.1182C26.5788 30.7673 26.0365 30.5599 25.4941 30.4961V24.6104C29.4499 24.7061 32.305 26.3649 34.0596 29.5869C34.9847 31.3096 35.4473 33.2236 35.4473 35.3291C35.4473 39.1253 34.0596 42.0443 31.2842 44.0859C29.5296 45.2982 27.5996 45.9362 25.4941 46ZM13.4355 37.5781L19.2256 36.4775C19.2894 37.7855 20.0869 38.7904 21.6182 39.4922C22.0967 39.7155 22.4795 39.8271 22.7666 39.8271V46.0479C20.2464 46.0479 17.9974 45.0749 16.0195 43.1289C14.3288 41.4062 13.4674 39.556 13.4355 37.5781Z" fill="#3B74B9"/>
<path d="M35.3281 35.6641V32.6406H36.9688V29.2188H40.1094V32.6406H41.6562V35.6875H40.1094V41.8984C40.1406 42.4609 40.4297 42.75 40.9766 42.7656H41.6562L42.3594 46H40.9531C38.9062 46 37.6562 45.2266 37.2031 43.6797C37.0469 43.1172 36.9688 42.4453 36.9688 41.6641V35.6641H35.3281ZM43.5781 46.1875V29.2188H46.5078V33.2031C46.8203 33.0938 47.2422 33.0391 47.7734 33.0391V35.9219C47.2266 35.9219 46.8281 36.1719 46.5781 36.6719C46.5469 36.7344 46.5312 36.7812 46.5312 36.8125V46.1875H43.5781ZM48.9219 35.9219V33.0391C50.4375 33.0391 51.5781 33.5781 52.3438 34.6562C52.7656 35.2344 52.9766 35.875 52.9766 36.5781V46.1875H50.0469V36.8125C50.0469 36.5938 49.9219 36.3828 49.6719 36.1797C49.4688 36.0078 49.2188 35.9219 48.9219 35.9219Z" fill="#3B74B9"/>
</svg>
