<svg width="67" height="58" viewBox="0 0 67 58" fill="none" xmlns="http://www.w3.org/2000/svg">
<path d="M0 0H67V42C67 50.8366 59.8366 58 51 58H16C7.16344 58 0 50.8366 0 42V0Z" fill="#E4ECF6"/>
<path d="M3 0V39C3 47.8366 10.1634 55 19 55H48C56.8366 55 64 47.8366 64 39V0" stroke="#3B74B9" stroke-width="0.4" stroke-dasharray="4 4"/>
<path d="M24.8242 46V39.7793C26.7702 39.5879 27.9186 38.7744 28.2695 37.3389C28.3333 37.0518 28.3652 36.7487 28.3652 36.4297C28.3652 34.5156 27.472 33.3034 25.6855 32.793C24.7604 32.5059 23.596 32.3623 22.1924 32.3623V26.1416C25.8291 26.1416 27.8548 25.1527 28.2695 23.1748C28.3333 22.8239 28.3652 22.457 28.3652 22.0742C28.3652 20.3197 27.4082 19.235 25.4941 18.8203C25.2389 18.7884 25.0156 18.7565 24.8242 18.7246V12.5039C27.5039 12.5039 29.7848 13.3493 31.667 15.04C33.613 16.7946 34.5859 19.1234 34.5859 22.0264C34.5859 25.1527 33.6289 27.4814 31.7148 29.0127C31.5872 29.1084 31.4756 29.1882 31.3799 29.252C33.1344 30.4323 34.1712 32.3304 34.4902 34.9463C34.554 35.4567 34.5859 35.9671 34.5859 36.4775C34.5859 40.4014 32.943 43.1927 29.6572 44.8516C28.0941 45.6172 26.4831 46 24.8242 46ZM13.4355 37.4346L19.2256 36.334C19.2256 38.0247 19.9434 39.1253 21.3789 39.6357C21.6979 39.7314 21.9691 39.7793 22.1924 39.7793V46C19.6403 46 17.4551 44.9632 15.6367 42.8896C14.1693 41.1989 13.4355 39.3805 13.4355 37.4346ZM13.4355 21.0693C13.4355 18.6768 14.4245 16.5872 16.4023 14.8008C18.125 13.2695 20.055 12.5039 22.1924 12.5039V18.7246C20.8525 18.8841 19.9434 19.554 19.4648 20.7344C19.3053 21.181 19.2256 21.6595 19.2256 22.1699L13.4355 21.0693Z" fill="#3B74B9"/>
<path d="M35.9844 46V32.6406H39.1719V34.1172C39.7188 33.4141 40.4609 32.9297 41.3984 32.6641C41.7266 32.5703 42.0547 32.5234 42.3828 32.5234H43.2266L42.5 35.6641C41.5156 35.6797 40.6641 36.1094 39.9453 36.9531C39.4297 37.5625 39.1719 38.1953 39.1719 38.8516V46H35.9844ZM44.1641 42.3672V36.2734C44.1797 35.5391 44.5 34.8047 45.125 34.0703C45.9062 33.1797 46.875 32.7266 48.0312 32.7109H48.8047V35.7344H48.0312C47.5781 35.7812 47.3047 36 47.2109 36.3906V42.3203C47.2109 42.4922 47.3203 42.6562 47.5391 42.8125C47.6953 42.9062 47.875 42.9531 48.0781 42.9531H48.8047V46H48.0781C46.6562 46 45.5469 45.3672 44.75 44.1016C44.3594 43.4766 44.1641 42.8984 44.1641 42.3672ZM50.0469 46V29.2188H53.3047L53.2812 46H50.0469Z" fill="#3B74B9"/>
</svg>
