<svg xmlns="http://www.w3.org/2000/svg" viewBox="0 0 454.66 227.33"><defs><style>.cls-1{fill:#fff;}.cls-2{fill:#183e6c;}</style></defs><g id="레이어_2" data-name="레이어 2"><g id="레이어_2-2" data-name="레이어 2"><rect class="cls-1" width="454.66" height="227.33"/><path d="M156,161.13v-2.32h2.69v-1.56h2.81v1.56h2.68v2.32h-2.63a3,3,0,0,0,2.89,2.94v2.36a6.86,6.86,0,0,1-4.33-2,7,7,0,0,1-4.37,2.17v-2.34a3.21,3.21,0,0,0,2.9-3.12Zm.76,8.91A2.58,2.58,0,0,1,158,167.8a11.33,11.33,0,0,1,9.78,0A2.62,2.62,0,0,1,169,170a2.59,2.59,0,0,1-1.21,2.23,11.61,11.61,0,0,1-9.78,0A2.55,2.55,0,0,1,156.78,170Zm2.81,0a.7.7,0,0,0,.34.56,9.46,9.46,0,0,0,5.89,0,.62.62,0,0,0,.31-.56.63.63,0,0,0-.31-.58,9.66,9.66,0,0,0-5.89,0A.71.71,0,0,0,159.59,170Zm9-12.36v8.81h-2.86v-2.87h-2.16v-2.2h2.16v-3.74Z"/><path d="M178.14,166.4h-6.08V158h1.76v6.82h4.4a8.17,8.17,0,0,0,2.61-.31V166A7.33,7.33,0,0,1,178.14,166.4Zm6.17,6.42H173v-5h1.78v3.5h9.57Zm-6.17-9.29V162h4.12V160.8h-4.12v-1.52h4.12v-1.36h1.79v10.39h-1.79v-4.78Z"/><path d="M193.88,161.16h-6.43v-1.54h2.36V157.5h1.8v2.12h2.27Zm-6.12,6c0-2.18.41-3.68,1.35-4.4a2.42,2.42,0,0,1,1.62-.52,2.51,2.51,0,0,1,1.65.55c.9.74,1.32,2.23,1.32,4.37v.31h1.49v-2.9h-1.65V163h1.65v-5h1.72v14.56h-1.72V169h-1.62a3.76,3.76,0,0,1-1.24,2.54,2.48,2.48,0,0,1-1.6.49,2.55,2.55,0,0,1-1.59-.47C188.17,170.85,187.76,169.36,187.76,167.15Zm1.71,0c0,1.7.21,2.7.63,3.14a.9.9,0,0,0,.63.26,1,1,0,0,0,.62-.23c.42-.42.63-1.44.63-3.17s-.19-2.72-.6-3.14a.9.9,0,0,0-.65-.26.88.88,0,0,0-.71.32A5.57,5.57,0,0,0,189.47,167.15ZM200,157.92v14.84h-1.73V157.92Z"/><path d="M207.69,166.58h-4.3V158.1h5.55v1.46h-3.83v2h3.65V163h-3.65v2.08h2.81a4.59,4.59,0,0,0,2.72-.64V158h1.68v3.53H214v-3.63h1.71V167H214v-3.86h-1.64v3.78h-1.68v-1A4.52,4.52,0,0,1,207.69,166.58Zm6.22,6.42v-3.45h-9.64V168h11.4v5Z"/><path d="M219,173c.72,0,1.06-.43,1.06-1.21h-1v-2.16h2v2.32c0,1.18-.75,1.85-2.07,1.95Z"/><path d="M231.53,157.94v5h2.19v-5h2.82V172h-7.82V157.94Zm0,11.74h2.19V165.3h-2.19Zm6.5-12h2.86v5.9H243V166h-2.11v7H238Z"/><path d="M246.85,163.66v2.43h10v1.53H251.8v2.95h5.66v1.53H244.29v-1.53H250v-2.95h-5v-5.49h9.85v-2.37h-9.85v-1.57h11.63v5.47Z"/><path d="M260.18,173c.72,0,1.07-.43,1.07-1.21h-1v-2.16h2v2.32c0,1.18-.75,1.85-2.08,1.95Z"/><path d="M269.88,160.31v-2.37h8.36v2.37H275.5v3.34c0,4.19,1.17,5.3,2.89,6v2.43a6.85,6.85,0,0,1-4.32-2.73,6.77,6.77,0,0,1-4.35,2.73v-2.43c1.73-.66,2.91-1.8,2.91-6v-3.34Zm9.72-2.63h2.86V173H279.6Z"/><path d="M285.41,165.81v-1.56h13.37v1.56ZM296,161v-1.29h-9.74V158.1h11.52v2.78a10.3,10.3,0,0,1-.28,2.47H295.8A11.24,11.24,0,0,0,296,161Zm1.78,12H286.39v-5.47h11.42ZM296,171.42V169h-7.87v2.47Z"/><path d="M161.77,184.86l2.75,4.78,2.76-4.78h.81l-3.19,5.5v3.57h-.75v-3.57l-3.19-5.5Z"/><path d="M170.51,194.08c-1.86,0-2.74-1.27-2.74-3.38s.88-3.4,2.74-3.4,2.73,1.27,2.73,3.4S172.37,194.08,170.51,194.08Zm0-.62c1.41,0,2-1,2-2.76s-.61-2.78-2-2.78-2,1-2,2.78S169.09,193.46,170.51,193.46Z"/><path d="M174.62,187.45h.72v3.78c0,1.57.58,2.23,1.72,2.23s2.05-1,2.06-2.73v-3.28h.73v6.48h-.73v-1.25a2.18,2.18,0,0,1-2.2,1.4c-1.5,0-2.3-1-2.3-2.62Z"/><path d="M182.68,192.13c0,1,.45,1.28,1.34,1.28h.65v.6h-.74c-1.35,0-2-.42-2-1.77v-4.18h-1v-.62h1v-1.84h.71v1.84h2v.62h-2Z"/><path d="M191.13,193.93h-.71v-3.77c0-1.56-.6-2.24-1.72-2.24s-2,1-2.07,2.74v3.27h-.72v-9.07h.72v3.85a2.2,2.2,0,0,1,2.21-1.41c1.49,0,2.29,1,2.29,2.63Z"/><path d="M196.27,193.93v-9.07h3.24c1.76,0,2.65.85,2.65,2.34a1.93,1.93,0,0,1-1.43,2.06,2,2,0,0,1,1.69,2.21c0,1.67-1,2.46-2.8,2.46Zm3.1-8.39H197V189h2.36c1.39,0,2-.58,2-1.71S200.76,185.54,199.37,185.54Zm.08,7.71c1.63,0,2.22-.63,2.22-1.81s-.59-1.83-2.22-1.83H197v3.64Z"/><path d="M204.24,190.91c0,1.64.66,2.55,2,2.55a1.67,1.67,0,0,0,1.84-1.41h.74a2.37,2.37,0,0,1-2.59,2c-1.86,0-2.74-1.26-2.74-3.38s.88-3.4,2.74-3.4,2.73,1.27,2.73,3.4v.21Zm0-.6h4c-.07-1.51-.7-2.39-2-2.39S204.32,188.8,204.26,190.31Z"/><path d="M215.63,193.93h-.71v-3.77c0-1.56-.6-2.24-1.72-2.24s-2,1-2.08,2.74v3.27h-.71v-6.48h.71v1.26a2.21,2.21,0,0,1,2.22-1.41c1.48,0,2.29,1,2.29,2.63Z"/><path d="M217.72,190.91c0,1.64.66,2.55,2,2.55a1.67,1.67,0,0,0,1.84-1.41h.74a2.37,2.37,0,0,1-2.59,2c-1.86,0-2.75-1.26-2.75-3.38s.89-3.4,2.75-3.4,2.73,1.27,2.73,3.4v.21Zm0-.6h4c-.07-1.51-.7-2.39-2-2.39S217.8,188.8,217.74,190.31Z"/><path d="M226.23,185.4c-1,0-1.27.28-1.27,1.24v.81h1.86v.62H225v5.86h-.72v-5.86h-1v-.62h1v-.87c0-1.36.51-1.81,1.93-1.81.22,0,.43,0,.65,0v.6Z"/><path d="M228,186.05v-1.19h.72v1.19Zm0,7.88v-6.48h.72v6.48Z"/><path d="M231.61,192.13c0,1,.44,1.28,1.34,1.28h.64v.6h-.74c-1.35,0-2-.42-2-1.77v-4.18h-1v-.62h1v-1.84h.72v1.84h2v.62h-2Z"/><path d="M243.79,193.93a2.77,2.77,0,0,1-.14-.82l-.09-1.28c-.08-1.12-.58-1.59-2-1.59h-2.46v3.69h-.75v-9.07h3.35c1.9,0,2.8,1,2.8,2.65a2.21,2.21,0,0,1-1.61,2.39c.91.18,1.34.73,1.44,1.92l.08,1.28a3.12,3.12,0,0,0,.16.83Zm-2.17-4.36a2,2,0,1,0,0-4h-2.53v4Z"/><path d="M246.05,186.05v-1.19h.73v1.19Zm0,7.88v-6.48h.73v6.48Z"/><path d="M253,192.85a2.06,2.06,0,0,1-2.09,1.23c-1.74,0-2.67-1.16-2.67-3.38s.93-3.4,2.67-3.4a2,2,0,0,1,2.09,1.25v-1.1h.71v6.85a2.39,2.39,0,0,1-2.58,2.64,2.26,2.26,0,0,1-2.52-1.92h.72a1.63,1.63,0,0,0,1.8,1.29,1.76,1.76,0,0,0,1.87-2Zm-2-4.93c-1.42,0-2,1-2,2.78s.61,2.76,2,2.76,2-1,2-2.76S252.39,187.92,251,187.92Z"/><path d="M260.58,193.93h-.71v-3.77c0-1.56-.59-2.24-1.71-2.24s-2.06,1-2.08,2.74v3.27h-.71v-9.07h.71v3.85a2.21,2.21,0,0,1,2.22-1.41c1.48,0,2.28,1,2.28,2.63Z"/><path d="M263.3,192.13c0,1,.45,1.28,1.35,1.28h.64v.6h-.74c-1.35,0-2-.42-2-1.77v-4.18h-1v-.62h1v-1.84h.71v1.84h2v.62h-2Z"/><path d="M275.46,193.93l-4.68-7.69v7.69H270v-9.07h.74l4.68,7.69v-7.69h.75v9.07Z"/><path d="M280.49,194.08c-1.85,0-2.74-1.27-2.74-3.38s.89-3.4,2.74-3.4,2.74,1.27,2.74,3.4S282.35,194.08,280.49,194.08Zm0-.62c1.42,0,2-1,2-2.76s-.6-2.78-2-2.78-2,1-2,2.78S279.07,193.46,280.49,193.46Z"/><path d="M289.2,187.45l1.87,5.58,1.87-5.58h.76l-2.22,6.48h-.8l-1.86-5.57L287,193.93h-.8l-2.21-6.48h.74l1.87,5.58,1.87-5.58Z"/><path class="cls-2" d="M134.32,95.69a35.29,35.29,0,0,1-8.82,7.82,31.57,31.57,0,0,1-10.37,4.17l-2.89-12.91a14.82,14.82,0,0,0,8.15-4.31,18.28,18.28,0,0,0,4.19-9.09l-11,2.22V70.38L125.26,68V63.2l18.13-3.68v4.83L155.06,62V75.19L144,77.44q1.16,5.36,4.19,7.4c2,1.36,4.74,1.69,8.15,1l-2.89,14.09a24.47,24.47,0,0,1-10.37,0A20.55,20.55,0,0,1,134.32,95.69Z"/><polygon class="cls-2" points="162.97 98.91 162.68 86.33 156.47 87.47 155.88 74.27 162.38 73.02 162.06 58.94 183.07 54.73 181.24 95.71 162.97 98.91"/><polygon class="cls-2" points="322.73 58.91 343.41 53.8 340.26 126.28 321.99 129.3 322.73 58.91"/><path class="cls-2" d="M176.9,102.45q-4.29-3.33-10.85-2l-35.3,7.15A18.71,18.71,0,0,0,119.9,114a17.94,17.94,0,0,0-3.47,6.21,28.64,28.64,0,0,1,2.69-1.16l.48,1.28a28.73,28.73,0,0,0-3.07,1.36l-.35-.68a18.16,18.16,0,0,0-.57,4.51q0,6.47,4.29,9.79t10.85,2l35.3-7.15a18.75,18.75,0,0,0,10.85-6.39,17.35,17.35,0,0,0,4.29-11.53Q181.19,105.78,176.9,102.45Zm-55.4,17.24-.39-1.32c1.12-.33,2.26-.62,3.4-.84l.26,1.35A31.84,31.84,0,0,0,121.5,119.69Zm36.74-9.35h-.38a28.38,28.38,0,0,0-3,.15c-5.32.56-14.08,2.38-17.3,8.35,5,3.41,6,8.56,4.52,10.76a2.58,2.58,0,0,1-2.21,1.18,4.61,4.61,0,0,1-2.49-.86c-1.53-1-3.06-4.88-2.08-9a10.91,10.91,0,0,1,.49-1.56,15.54,15.54,0,0,0-7.24-1c-.59,0-1.2.09-1.82.17l-.17-1.37c.64-.08,1.29-.14,1.91-.18a17.34,17.34,0,0,1,7.9,1.12c3.52-6.48,14.53-10,18.9-10.5a30.45,30.45,0,0,1,3.1-.24h.4Zm5.92.47a24.22,24.22,0,0,0-3.91-.2l.76-3.16a26,26,0,0,1,3.85.28Zm6.52,1.13a34.17,34.17,0,0,0-4-.81l.66-3a37.1,37.1,0,0,1,4,1Zm5.84,2.48a40.56,40.56,0,0,0-3.76-1.72l.9-2.91c1.23.45,2.47,1,3.68,1.55Zm2.07,1.26.9-3.28c1.26.6,2.76,1.42,4.54,2.5L183.4,119C181.91,117.7,179.69,116.46,178.59,115.68Z"/><path class="cls-2" d="M111.25,123.72l1,1a16.4,16.4,0,0,1,2.59-2l-.74-1.16A17.58,17.58,0,0,0,111.25,123.72Z"/><path class="cls-2" d="M310.62,110.7q-3.37-3.7-5.3-11.56a82.19,82.19,0,0,1-1.93-19.33V77l12.92-2.61V59.93l-43,8.71V83.11l13-2.64v2.8q0,18-3.62,28t-11.33,12.23l3.86,14.17a27.55,27.55,0,0,0,10.41-5.87A41.44,41.44,0,0,0,294.9,120v0a41,41,0,0,0,2.11-5.42l1.33.35a47.22,47.22,0,0,1-2.51,6.34,21.42,21.42,0,0,0,8.22,6.79,19.14,19.14,0,0,0,10.42,1.65L318.34,114A9,9,0,0,1,310.62,110.7Z"/><path class="cls-2" d="M217.65,84l-6.75,1.37V64.48l-18.13,3.68v69.63l43-8.71V59.44l-18.13,3.68Zm6.45,12.34s-3.17.56-5.57,1.25c.21,2.33.38,7.24-1.4,10.92-2.42,5-5.79,7.61-7.53,5.84S208.42,107,210.84,102a10.75,10.75,0,0,1,5.27-5.09h0c.21-.1.44-.19.69-.28a8.64,8.64,0,0,1,.85-.29,63.81,63.81,0,0,1,6.23-1.44Z"/><polygon class="cls-2" points="261 87.35 264.04 53.87 242.8 58.39 240.85 128.55 257.52 125.75 259.74 101.3 267.13 99.95 268.76 85.86 261 87.35"/></g></g></svg>