<svg width="120" height="120" viewBox="0 0 120 120" fill="none" xmlns="http://www.w3.org/2000/svg">
<path fill-rule="evenodd" clip-rule="evenodd" d="M43.815 13.5C45.9518 13.4991 48.0466 14.0936 49.8645 15.2168C51.6824 16.3401 53.1514 17.9476 54.1066 19.8592L58.5766 28.7992C59.2824 30.2115 60.3677 31.3997 61.7106 32.2299C63.0536 33.0602 64.6012 33.4999 66.1801 33.5H100C103.05 33.5 105.975 34.7116 108.132 36.8683C110.288 39.0249 111.5 41.95 111.5 45V95C111.5 98.05 110.288 100.975 108.132 103.132C105.975 105.288 103.05 106.5 100 106.5H20C16.95 106.5 14.0249 105.288 11.8683 103.132C9.7116 100.975 8.5 98.05 8.5 95V25C8.5 21.95 9.7116 19.0249 11.8683 16.8683C14.0249 14.7116 16.95 13.5 20 13.5H43.815ZM48.2876 17.769C46.9438 16.9387 45.3953 16.4993 43.8157 16.5L20 16.5C17.7457 16.5 15.5837 17.3955 13.9896 18.9896C12.3955 20.5837 11.5 22.7457 11.5 25V95C11.5 97.2543 12.3955 99.4163 13.9896 101.01C15.5837 102.604 17.7457 103.5 20 103.5H100C102.254 103.5 104.416 102.604 106.01 101.01C107.604 99.4163 108.5 97.2543 108.5 95V45C108.5 42.7457 107.604 40.5837 106.01 38.9896C104.416 37.3955 102.254 36.5 100 36.5H66.18C64.0439 36.4999 61.95 35.9049 60.1331 34.7817C58.3163 33.6585 56.8482 32.0515 55.8934 30.1408L51.4234 21.2008C50.7173 19.7878 49.6313 18.5992 48.2876 17.769Z" fill="white"/>
<path fill-rule="evenodd" clip-rule="evenodd" d="M59.9998 49.5C60.8282 49.5 61.4998 50.1716 61.4998 51V67.5H77.9998C78.8282 67.5 79.4998 68.1716 79.4998 69C79.4998 69.8284 78.8282 70.5 77.9998 70.5H61.4998V87C61.4998 87.8284 60.8282 88.5 59.9998 88.5C59.1713 88.5 58.4998 87.8284 58.4998 87V70.5H41.9998C41.1713 70.5 40.4998 69.8284 40.4998 69C40.4998 68.1716 41.1713 67.5 41.9998 67.5H58.4998V51C58.4998 50.1716 59.1713 49.5 59.9998 49.5Z" fill="white"/>
</svg>
