<svg width="40" height="40" viewBox="0 0 40 40" fill="none" xmlns="http://www.w3.org/2000/svg">
<path fill-rule="evenodd" clip-rule="evenodd" d="M17.2657 10.7582C17.2657 9.24599 18.5283 8 20 8C21.4952 8 22.7344 9.22249 22.7344 10.7582C22.7344 11.0464 22.5081 11.28 22.2289 11.28C21.9498 11.28 21.7235 11.0464 21.7235 10.7582C21.7235 9.8264 20.964 9.04347 20 9.04347C19.0594 9.04347 18.2766 9.8499 18.2766 10.7582C18.2766 11.2294 18.4663 11.6595 18.7775 11.9687L18.7778 11.969C19.7258 12.9124 20.395 14.1415 20.493 15.5193C21.1462 15.7293 21.6335 16.3455 21.6335 17.0957V17.9958H21.9635C22.06 17.9958 22.1545 18.0243 22.2358 18.0779L38.162 28.5907L38.1625 28.591C39.7148 29.6184 38.9522 32 37.1597 32H2.84028C1.0478 32 0.285213 29.6184 1.8375 28.591L1.83801 28.5907L17.7642 18.0779C17.8455 18.0243 17.94 17.9958 18.0365 17.9958H18.3664V17.0957C18.3664 16.3601 18.8373 15.7472 19.4793 15.5282C19.3858 14.482 18.8678 13.508 18.0761 12.7202C17.5755 12.2226 17.2657 11.5247 17.2657 10.7582ZM18.8651 19.0392C18.8673 19.0393 18.8696 19.0393 18.8718 19.0393C18.8741 19.0393 18.8763 19.0393 18.8786 19.0392H21.1213C21.1235 19.0393 21.1258 19.0393 21.128 19.0393C21.1303 19.0393 21.1326 19.0393 21.1348 19.0392H21.8157L37.6168 29.4695C37.617 29.4695 37.6171 29.4696 37.6173 29.4697C38.266 29.8996 38.0058 30.9565 37.1597 30.9565H2.84028C1.99401 30.9565 1.73389 29.8992 2.38316 29.4695L18.1843 19.0392H18.8651ZM20.6226 17.9958H19.3773V17.0957C19.3773 16.7738 19.6421 16.4855 19.9999 16.4855C20.3562 16.4855 20.6226 16.7722 20.6226 17.0957V17.9958ZM18.7075 20.7899L5.95853 29.2056H34.0415L21.2926 20.7899H18.7075ZM18.2873 19.8287C18.3686 19.775 18.4631 19.7465 18.5597 19.7465H21.4404C21.5369 19.7465 21.6314 19.775 21.7128 19.8287L36.0424 29.2878C36.2316 29.4126 36.3183 29.6513 36.2553 29.8738C36.1922 30.0962 35.9946 30.2491 35.7701 30.2491H4.22996C4.00544 30.2491 3.80783 30.0962 3.74482 29.8738C3.68181 29.6513 3.76849 29.4126 3.95764 29.2878L18.2873 19.8287Z" fill="#183E6C"/>
</svg>
