<svg width="40" height="40" viewBox="0 0 40 40" fill="none" xmlns="http://www.w3.org/2000/svg">
<path fill-rule="evenodd" clip-rule="evenodd" d="M12.3615 10.8923L12.3675 10.8923L12.3735 10.8923H27.6228L27.6288 10.8923L27.6348 10.8923H34.5575V25.0897C34.5575 26.0426 33.8458 26.7502 33.0524 26.7502H32.557V24.997C32.557 24.6996 32.3163 24.4585 32.0195 24.4585H29.5746C29.2777 24.4585 29.0371 24.6996 29.0371 24.997V26.7502H10.9629V24.997C10.9629 24.6996 10.7223 24.4585 10.4254 24.4585H7.98051C7.68367 24.4585 7.44303 24.6996 7.44303 24.997V26.7502H6.95144C6.15805 26.7502 5.44634 26.0426 5.44634 25.0897V10.8923H12.3615ZM4.37138 10.9192C3.63193 11.0566 3.07496 11.7033 3.07496 12.4794V32.336C3.07496 33.2119 3.78452 33.923 4.66517 33.923H35.3348C36.2155 33.923 36.925 33.2119 36.925 32.336V12.4794C36.925 11.7046 36.37 11.0589 35.6325 10.92V25.0897C35.6325 26.5637 34.5105 27.8272 33.0524 27.8272H32.557V28.4597C32.557 29.436 31.7644 30.2194 30.797 30.2194C29.8236 30.2194 29.0371 29.4299 29.0371 28.4597V27.8272H10.9629V28.4597C10.9629 29.4349 10.1753 30.2194 9.20296 30.2194C8.23059 30.2194 7.44303 29.4349 7.44303 28.4597V27.8272H6.95144C5.49335 27.8272 4.37138 26.5637 4.37138 25.0897V10.9192ZM30.1121 27.2956V28.4597C30.1121 28.8344 30.4165 29.1425 30.797 29.1425C31.1759 29.1425 31.482 28.8361 31.482 28.4597V25.5355H30.1121V27.2818C30.1121 27.2841 30.1121 27.2864 30.1121 27.2887C30.1121 27.291 30.1121 27.2933 30.1121 27.2956ZM28.1605 9.81532H35.3348C36.8062 9.81532 38 11.0057 38 12.4794V32.336C38 33.8097 36.8062 35 35.3348 35H4.66517C3.19375 35 2 33.8097 2 32.336V12.4794C2 11.0057 3.19376 9.81532 4.66517 9.81532H11.8359C11.9641 7.13714 14.1851 5 16.8937 5H23.1027C25.8112 5 28.0322 7.13714 28.1605 9.81532ZM27.0839 9.81532C26.9567 7.73473 25.2201 6.07698 23.1027 6.07698H16.8937C14.7763 6.07698 13.0396 7.73473 12.9124 9.81532H27.0839ZM12.7777 12.7382C12.7777 12.4408 13.0183 12.1997 13.3152 12.1997H26.6848C26.9816 12.1997 27.2223 12.4408 27.2223 12.7382C27.2223 13.0356 26.9816 13.2767 26.6848 13.2767H13.3152C13.0183 13.2767 12.7777 13.0356 12.7777 12.7382ZM8.51799 25.5355V28.4597C8.51799 28.8372 8.82135 29.1425 9.20296 29.1425C9.58457 29.1425 9.88794 28.8372 9.88794 28.4597V25.5355H8.51799Z" fill="#183E6C"/>
</svg>
