<svg width="40" height="40" viewBox="0 0 40 40" fill="none" xmlns="http://www.w3.org/2000/svg">
<path fill-rule="evenodd" clip-rule="evenodd" d="M6.19482 15.6272C6.21957 15.6252 6.24405 15.6216 6.2681 15.6165C6.44291 15.6013 6.62321 15.6595 6.75586 15.7908L9.96607 18.9699C10.1925 19.1941 10.2026 19.555 9.99631 19.7914L7.41306 21.5467C6.52266 22.1507 6.4126 23.3985 7.1693 24.1479L13.9869 30.8993C14.7389 31.644 16.0068 31.5437 16.6107 30.6551L16.6119 30.6534L18.3738 28.0911C18.6136 27.8866 18.9804 27.8967 19.2076 28.1217L22.4178 31.3007C22.6154 31.4964 22.6482 31.7962 22.5163 32.0265C22.4887 32.0572 22.4645 32.0908 22.4442 32.1267C22.4359 32.1359 22.4273 32.145 22.4184 32.1539L19.892 34.6397C17.9932 36.3241 15.0719 36.263 13.2497 34.4585L3.56233 24.8651C1.7377 23.0582 1.67929 20.161 3.38843 18.282C3.40776 18.2607 3.42519 18.2384 3.44073 18.2152L5.88892 15.7908C5.97551 15.7051 6.0824 15.6505 6.19482 15.6272ZM2.457 17.6057C2.48196 17.5628 2.51264 17.5231 2.54855 17.4875L5.0778 14.9828C5.25899 14.8034 5.47017 14.6713 5.69552 14.5866C7.89741 7.86293 14.2717 3 21.802 3C30.6906 3 37.9835 9.78153 38.6879 18.4079L38.9624 18.0361C39.15 17.782 39.5094 17.7271 39.7652 17.9134C40.021 18.0998 40.0764 18.4568 39.8888 18.7109L38.6323 20.4128C38.5241 20.5593 38.352 20.6459 38.169 20.6459C37.9861 20.6459 37.814 20.5593 37.7058 20.4128L36.4493 18.7109C36.2617 18.4568 36.317 18.0998 36.5729 17.9134C36.8287 17.7271 37.1881 17.782 37.3757 18.0361L37.5182 18.2291C36.7324 10.3218 29.9969 4.14101 21.802 4.14101C14.9193 4.14101 9.07296 8.49813 6.91299 14.5735C7.15193 14.6573 7.37611 14.7938 7.56698 14.9828L10.7772 18.1619C11.4644 18.8424 11.4644 19.9511 10.7772 20.6316C10.7522 20.6564 10.725 20.6787 10.696 20.6985L8.06132 22.4887C7.76815 22.6876 7.7319 23.0937 7.98042 23.3398L14.7981 30.0913C15.0508 30.3416 15.4679 30.298 15.6589 30.0161L15.6611 30.013L17.4608 27.3959C17.481 27.3664 17.5041 27.3389 17.5295 27.3137C18.2158 26.6341 19.3324 26.6341 20.0187 27.3137L23.2289 30.4927C23.5742 30.8346 23.746 31.2847 23.7443 31.7342C29.5814 30.815 34.0359 25.8045 34.0359 19.7703C34.0359 13.0787 28.5633 7.65678 21.8019 7.65678C16.6371 7.65678 12.2233 10.8232 10.4269 15.3013C10.3095 15.594 9.9754 15.7367 9.6807 15.6201C9.386 15.5035 9.24228 15.1716 9.3597 14.8789C11.3248 9.98036 16.1524 6.51577 21.8019 6.51577C29.1946 6.51577 35.1847 12.4453 35.1847 19.7703C35.1847 26.6096 29.9579 32.2425 23.2404 32.951C23.2366 32.9548 23.2328 32.9587 23.2289 32.9625L23.2276 32.9638L20.6902 35.4604C20.6836 35.467 20.6768 35.4734 20.6698 35.4796C18.3205 37.5752 14.6988 37.5048 12.4386 35.2665L2.75121 25.6732C0.518619 23.4622 0.420971 19.9349 2.457 17.6057ZM15.5419 16.47C16.0169 15.459 17.0382 14.8081 18.1701 14.8081C19.7759 14.8081 21.0711 16.0988 21.0711 17.6826C21.0711 18.6778 20.6694 19.6338 19.9619 20.3344C19.9539 20.3424 19.9457 20.35 19.9372 20.3575L17.139 22.82H20.6912C21.0084 22.82 21.2656 23.0754 21.2656 23.3905C21.2656 23.7056 21.0084 23.961 20.6912 23.961H15.6246C15.386 23.961 15.1722 23.8144 15.0875 23.5928C15.0029 23.3712 15.0651 23.1207 15.2437 22.9635L19.1621 19.5151C19.6473 19.0287 19.9223 18.368 19.9223 17.6826C19.9223 16.7296 19.1421 15.9491 18.1701 15.9491C17.486 15.9491 16.8698 16.3419 16.5829 16.9525C16.4487 17.2381 16.1069 17.3615 15.8194 17.2282C15.532 17.095 15.4077 16.7555 15.5419 16.47ZM26.489 14.8508C26.7162 14.9327 26.8674 15.1471 26.8674 15.3871V20.7572H26.9578C27.275 20.7572 27.5322 21.0127 27.5322 21.3277C27.5322 21.6428 27.275 21.8983 26.9578 21.8983H26.8674V23.3909C26.8674 23.706 26.6103 23.9614 26.293 23.9614C25.9758 23.9614 25.7186 23.706 25.7186 23.3909V21.8983H21.2913C21.0682 21.8983 20.8653 21.77 20.7709 21.5693C20.6764 21.3686 20.7075 21.1317 20.8506 20.9618L25.8524 15.0211C26.0074 14.837 26.2619 14.7689 26.489 14.8508ZM25.7186 20.7572V16.9586L22.5204 20.7572H25.7186ZM36.9855 25.8651C37.275 25.9941 37.4044 26.3317 37.2745 26.6192C35.4618 30.6334 32.1057 33.8071 27.9606 35.4108C26.0551 36.1506 23.974 36.5576 21.81 36.5576C21.4928 36.5576 21.2356 36.3021 21.2356 35.987C21.2356 35.672 21.4928 35.4165 21.81 35.4165C23.8288 35.4165 25.7684 35.0369 27.543 34.3478C31.4072 32.8528 34.5371 29.8929 36.2264 26.1522C36.3562 25.8647 36.6961 25.7362 36.9855 25.8651Z" fill="#183E6C"/>
</svg>
