<svg width="40" height="40" viewBox="0 0 40 40" fill="none" xmlns="http://www.w3.org/2000/svg">
<path fill-rule="evenodd" clip-rule="evenodd" d="M22.718 22.5894C25.378 25.2894 28.448 28.2994 29.718 29.4794V29.4994C29.868 29.6394 29.988 29.8094 30.068 29.9894C30.148 30.1794 30.188 30.3794 30.188 30.5794C30.188 30.7794 30.138 30.9794 30.058 31.1694C29.978 31.3594 29.858 31.5194 29.708 31.6594L27.148 33.9694C26.998 34.0994 26.828 34.2094 26.638 34.2694C26.498 34.3094 26.358 34.3394 26.218 34.3394H26.038C25.838 34.3194 25.648 34.2594 25.468 34.1594C25.288 34.0594 25.128 33.9194 25.008 33.7594C23.988 32.4394 21.398 29.3894 19.008 26.6294L18.848 26.4394C18.818 26.4094 18.7905 26.3769 18.763 26.3444C18.7355 26.3119 18.708 26.2794 18.678 26.2494L18.6765 26.2477C18.467 26.0083 18.2575 25.7688 18.058 25.5394L17.718 25.1594C17.098 24.4494 16.528 23.7994 16.018 23.2294C15.9892 23.1958 15.9605 23.1646 15.9328 23.1345C15.9028 23.1019 15.874 23.0706 15.848 23.0394C15.788 22.9794 15.728 22.9094 15.678 22.8494C15.498 22.6594 15.338 22.4794 15.188 22.3094L15.048 22.1494L14.708 21.7694L12.898 19.7694C12.658 19.4994 12.508 19.1694 12.458 18.8194C12.438 18.6394 12.438 18.4494 12.478 18.2594C12.498 18.1694 12.458 18.0794 12.388 18.0194C12.348 17.9894 12.288 17.9694 12.238 17.9694C12.198 17.9694 12.158 17.9694 12.128 17.9894C11.288 18.3894 10.388 18.6094 9.46796 18.6394H8.90796C7.08796 18.5594 5.40796 17.7794 4.17796 16.4294C2.25796 14.3294 1.84796 11.2094 3.16796 8.67936C3.23796 8.53936 3.37796 8.44936 3.52796 8.42936C3.66796 8.40936 3.82796 8.46936 3.92796 8.57936L7.59796 12.5894C7.68796 12.6994 7.84796 12.6994 7.94796 12.6094L10.288 10.4694C10.338 10.4294 10.368 10.3694 10.368 10.2994C10.378 10.2294 10.308 10.1194 10.308 10.1194L6.69796 6.16936C6.58796 6.04936 6.54796 5.88936 6.58796 5.73936C6.62796 5.58936 6.73796 5.45936 6.88796 5.40936C9.49796 4.46936 12.388 5.17936 14.258 7.21936C15.488 8.55936 16.118 10.3094 16.038 12.1294C15.988 13.2594 15.658 14.3594 15.078 15.3194C15.028 15.3994 15.028 15.4994 15.078 15.5794C15.128 15.6594 15.208 15.6994 15.308 15.6994C15.488 15.6894 15.648 15.6994 15.808 15.7294C16.188 15.7994 16.528 15.9894 16.788 16.2694L17.328 16.8694C17.441 16.9945 17.5671 17.1327 17.7068 17.2859C17.9133 17.5121 18.1496 17.7712 18.418 18.0694L18.758 18.4494C18.7893 18.4842 18.8219 18.519 18.8553 18.5547C18.9177 18.6215 18.9828 18.6912 19.048 18.7694C19.148 18.8794 19.268 19.0094 19.388 19.1394C19.4479 19.1993 19.498 19.2494 19.558 19.3194C19.6079 19.3793 19.6679 19.4393 19.7279 19.4993C19.8975 19.6759 20.0758 19.8626 20.262 20.0575C20.6028 20.4142 20.9699 20.7984 21.358 21.1994L21.528 21.3794C21.578 21.4394 21.638 21.4994 21.698 21.5594C21.918 21.7794 22.138 21.9994 22.358 22.2294L22.718 22.5894ZM8.94796 17.7094H9.21796L9.22796 17.7194C10.698 17.7194 12.098 17.1794 13.188 16.1794C14.348 15.1194 15.028 13.6694 15.098 12.0994C15.168 10.5294 14.618 9.01936 13.558 7.85936C12.228 6.40936 10.288 5.70936 8.34796 6.00936C8.25796 6.01936 8.17796 6.08936 8.14796 6.16936C8.11796 6.24936 8.13796 6.34936 8.19796 6.41936L11.488 10.0194C11.568 10.1094 11.608 10.2394 11.608 10.3594C11.608 10.4894 11.548 10.6094 11.458 10.6894L8.04796 13.7994C7.85796 13.9694 7.55796 13.9594 7.38796 13.7694L3.99796 10.0594C3.93796 9.97936 3.84796 9.95936 3.75796 9.97936C3.67796 9.99936 3.60796 10.0594 3.57796 10.1494C2.98796 12.1294 3.48796 14.2894 4.86796 15.7994C5.92796 16.9594 7.37796 17.6394 8.94796 17.7094ZM29.068 30.9494C29.128 30.8994 29.168 30.8394 29.198 30.7694L29.188 30.7994C29.218 30.7394 29.238 30.6594 29.238 30.5794C29.238 30.4994 29.228 30.4294 29.198 30.3694C29.168 30.2994 29.118 30.2394 29.068 30.1894C27.798 29.0194 24.738 26.0094 22.058 23.2994L21.698 22.9394C21.5817 22.8231 21.4705 22.7094 21.3606 22.5969C21.2531 22.4869 21.1467 22.3781 21.038 22.2694C20.988 22.2094 20.928 22.1494 20.868 22.0894C20.818 22.0294 20.758 21.9694 20.698 21.9094C20.088 21.2894 19.538 20.7094 19.058 20.1994C19.033 20.1694 19.003 20.1394 18.973 20.1094C18.943 20.0794 18.913 20.0494 18.888 20.0194C18.858 19.9894 18.8305 19.9594 18.803 19.9294C18.7755 19.8994 18.748 19.8694 18.718 19.8394C18.5979 19.7008 18.4779 19.5709 18.3657 19.4494C18.3564 19.4393 18.3471 19.4293 18.338 19.4194C18.248 19.3194 18.168 19.2294 18.088 19.1394L17.748 18.7594C17.3966 18.3774 17.0977 18.048 16.8424 17.7666C16.7635 17.6796 16.6888 17.5973 16.618 17.5194L16.078 16.9194C15.958 16.7894 15.788 16.6994 15.608 16.6594C15.428 16.6194 15.248 16.6394 15.068 16.7194C14.978 16.7594 14.898 16.8094 14.828 16.8794L13.658 17.9594C13.568 18.0394 13.498 18.1294 13.448 18.2294C13.368 18.3794 13.348 18.5394 13.368 18.7094C13.398 18.8694 13.468 19.0294 13.578 19.1494L15.358 21.1194L15.868 21.6894C16.008 21.8394 16.168 22.0194 16.328 22.1994C16.358 22.2294 16.3855 22.2619 16.413 22.2944C16.4405 22.3269 16.468 22.3594 16.498 22.3894C16.528 22.4194 16.5555 22.4519 16.583 22.4844C16.6105 22.5169 16.638 22.5494 16.668 22.5794C17.158 23.1394 17.718 23.7794 18.328 24.4694L18.668 24.8494C18.868 25.0794 19.078 25.3194 19.288 25.5594L19.458 25.7494C19.488 25.7794 19.5155 25.8119 19.543 25.8444C19.5705 25.8769 19.598 25.9094 19.628 25.9394C22.058 28.7394 24.698 31.8494 25.738 33.1994C25.778 33.2594 25.838 33.3094 25.898 33.3394C25.968 33.3694 26.038 33.3994 26.098 33.3994H26.168C26.218 33.3994 26.278 33.3894 26.328 33.3694C26.388 33.3494 26.448 33.3094 26.508 33.2594L29.068 30.9494Z" fill="#183E6C"/>
<path fill-rule="evenodd" clip-rule="evenodd" d="M37.2779 14.5094L35.0979 12.4294C35.0179 12.3494 34.9279 12.2894 34.8179 12.2494C34.7179 12.2094 34.6079 12.1994 34.5379 12.1994C34.3979 12.1994 34.3079 12.2194 34.1979 12.2694C34.0979 12.3094 34.0079 12.3694 33.9179 12.4594C33.8679 12.5094 33.7979 12.5294 33.7279 12.5294C33.6079 12.5194 33.5079 12.4994 33.4479 12.4794C33.3279 12.4794 33.2279 12.4094 33.1979 12.2894C33.1779 12.2094 33.1779 12.0994 33.1979 11.8494C33.2179 11.4794 33.2379 11.0194 32.9379 10.6194C32.4779 10.0194 31.9679 9.45942 31.4279 8.93942C30.6179 8.16942 28.8579 6.71942 26.1479 5.67942C25.1579 5.28942 24.1079 5.09942 23.0479 5.12942C21.2479 5.16942 19.9079 5.99942 19.3979 6.47942C18.9979 6.84942 18.6279 7.39942 18.6079 7.42942C18.4879 7.59942 18.4979 7.82942 18.6279 7.98942C18.7579 8.14942 18.9679 8.20942 19.1679 8.13942C19.3679 8.05942 19.5679 7.99942 19.7679 7.94942C20.1979 7.84942 20.6379 7.80942 21.0779 7.83942C22.0079 7.89942 23.0879 8.32942 23.5979 8.70942C24.4679 9.37942 24.8979 10.2794 24.9879 11.6294C25.0379 12.3194 24.4779 13.3394 23.2779 14.7494C23.1179 14.9394 23.0379 15.1794 23.0479 15.4194V15.4994C23.0679 15.5794 23.0279 15.6694 22.9679 15.7194C22.8979 15.7694 22.8079 15.7894 22.7279 15.7594C22.5579 15.6994 22.3779 15.6794 22.1979 15.6794C22.0779 15.6794 21.9579 15.6894 21.8379 15.7194C21.4879 15.7894 21.1679 15.9694 20.9179 16.2194L19.1079 18.0894C19.2079 18.1994 19.3079 18.3094 19.4179 18.4394C19.5179 18.5494 19.6279 18.6694 19.7379 18.7894C20.2898 18.2148 20.7217 17.7717 21.0465 17.4385L21.048 17.4368C21.1522 17.3299 21.2454 17.2344 21.3279 17.1494L21.5879 16.8794C21.7079 16.7594 21.8579 16.6794 22.0179 16.6394C22.0579 16.6294 22.1179 16.6194 22.1679 16.6194C22.2879 16.6194 22.3979 16.6394 22.5079 16.6794C22.6079 16.7194 22.6979 16.7794 22.7879 16.8694L23.9379 17.9594C24.0079 18.0294 24.0679 18.0994 24.1179 18.1794C24.2079 18.3494 24.2379 18.5294 24.2179 18.7094C24.1879 18.8994 24.1079 19.0694 23.9879 19.1994L23.4279 19.7794C23.2459 19.9668 23.0324 20.1885 22.7843 20.4461L22.7833 20.4472C22.5682 20.6706 22.327 20.921 22.0579 21.1994C22.1666 21.3081 22.2728 21.4168 22.3802 21.5266C22.4901 21.6391 22.6016 21.7531 22.7179 21.8694C22.9971 21.5807 23.2472 21.3212 23.4692 21.0907L23.4705 21.0894C23.717 20.8336 23.9292 20.6134 24.1079 20.4294L24.6679 19.8494C24.9279 19.5694 25.0979 19.2194 25.1479 18.8394C25.1879 18.5294 25.1479 18.2294 25.0379 17.9494C25.0079 17.8694 25.0179 17.7794 25.0679 17.7094C25.1179 17.6394 25.1979 17.5994 25.2879 17.6094H25.3679C25.6179 17.6094 25.8479 17.5094 26.0379 17.3294C26.9579 16.3994 27.9479 15.5194 28.4479 15.1994C29.0026 14.8394 29.4247 14.7634 29.5483 14.7411L29.5579 14.7394C29.9379 14.6994 30.3079 14.7794 30.6479 14.9794C30.6679 14.9894 30.6779 14.9994 30.6979 15.0194C30.9179 15.2294 30.9179 15.5994 30.6979 15.8194L30.5579 15.9594C30.4879 16.0294 30.4279 16.1194 30.3979 16.2094C30.3579 16.3094 30.3379 16.4194 30.3379 16.5294C30.3379 16.6394 30.3679 16.7494 30.4079 16.8394C30.4479 16.9394 30.5179 17.0294 30.5879 17.1094L32.7679 19.1894C32.8479 19.2594 32.9379 19.3194 33.0379 19.3494C33.1379 19.3894 33.2579 19.3994 33.3379 19.3994H33.3579C33.5679 19.3994 33.7579 19.3194 33.9279 19.1494L37.3179 15.6494C37.4579 15.4994 37.5279 15.2894 37.5279 15.0794C37.5279 14.8694 37.4379 14.6594 37.2879 14.5094H37.2779ZM36.3579 15.2794L33.4979 18.2394C33.4479 18.2894 33.3879 18.3194 33.3179 18.3194C33.2479 18.3194 33.1979 18.2994 33.1479 18.2494L31.5079 16.6794C31.4179 16.5894 31.4079 16.4494 31.4779 16.3494C31.9479 15.7394 31.8979 14.8794 31.3579 14.3494C31.2679 14.2594 31.1679 14.1794 31.0579 14.1294C30.5579 13.8494 29.9979 13.7394 29.4379 13.8094C29.1679 13.8494 28.6179 13.9694 27.9279 14.4094C27.2879 14.8194 26.2679 15.7694 25.5179 16.5094C25.4179 16.6094 25.2679 16.6094 25.1679 16.5094L24.1279 15.5194C24.0379 15.4294 24.0279 15.2794 24.1079 15.1794C24.9179 14.2094 25.9879 12.7694 25.8979 11.5494C25.7879 9.95942 25.2079 8.77942 24.1379 7.94942C23.4679 7.44942 22.3179 7.01942 21.3279 6.90942C21.2179 6.89942 21.1179 6.80942 21.1079 6.68942C21.0979 6.57942 21.1579 6.46942 21.2679 6.41942C21.8379 6.18942 22.4379 6.06942 23.0379 6.05942C23.9779 6.03942 24.9079 6.19942 25.7879 6.53942C28.4579 7.56942 30.1579 9.01942 30.7579 9.59942C31.2679 10.0894 31.7379 10.6094 32.1679 11.1694C32.2479 11.2694 32.2579 11.3994 32.2379 11.7894L32.2375 11.7959C32.2176 12.1654 32.1902 12.6716 32.5779 13.0394C32.8279 13.2694 33.1779 13.4094 33.6179 13.4494C33.8079 13.4694 33.9879 13.4494 34.1479 13.3894C34.2179 13.3594 34.2879 13.3294 34.3579 13.2894C34.4579 13.2294 34.5779 13.2394 34.6579 13.3194L36.3379 14.9194C36.3379 14.9194 36.4179 15.0294 36.4179 15.0994C36.4179 15.1694 36.3979 15.2294 36.3479 15.2794H36.3579Z" fill="#183E6C"/>
<path d="M11.3379 33.1894C11.2879 33.2494 11.2279 33.2994 11.1579 33.3294C11.0979 33.3594 11.0279 33.3794 10.9479 33.3794C10.8879 33.3794 10.8179 33.3794 10.7479 33.3494C10.6779 33.3194 10.6179 33.2794 10.5679 33.2394L8.09792 30.8294C8.04792 30.7794 8.00793 30.7194 7.97792 30.6494C7.94792 30.5794 7.93792 30.5094 7.93792 30.4394C7.93792 30.3694 7.95792 30.2994 7.98793 30.2294C8.01793 30.1594 8.06792 30.0994 8.12792 30.0494C9.46793 28.8694 12.6079 25.8594 15.3379 23.1894C15.1579 22.9894 14.9879 22.7994 14.8379 22.6294L14.7079 22.4894C11.9879 25.1594 8.83792 28.1694 7.49792 29.3494C7.34792 29.4794 7.21792 29.6494 7.13792 29.8294C7.04792 30.0094 7.00793 30.2094 6.99792 30.4194C6.99792 30.6194 7.02793 30.8194 7.10792 31.0094C7.18792 31.1994 7.29792 31.3694 7.44793 31.5094L9.92793 33.9194C10.0779 34.0594 10.2479 34.1694 10.4379 34.2394C10.6079 34.2994 10.7979 34.3294 10.9779 34.3294C11.2379 34.3194 11.4379 34.2594 11.6179 34.1694C11.7979 34.0794 11.9579 33.9494 12.0879 33.7894C13.1479 32.4894 15.8579 29.3894 18.3579 26.6094C18.1479 26.3694 17.9379 26.1294 17.7379 25.8994C15.2079 28.7094 12.4379 31.8694 11.3679 33.1894H11.3379Z" fill="#183E6C"/>
</svg>
