<svg width="40" height="40" viewBox="0 0 40 40" fill="none" xmlns="http://www.w3.org/2000/svg">
<path fill-rule="evenodd" clip-rule="evenodd" d="M19.6695 7.06639C19.8274 6.97787 20.0244 6.97787 20.1823 7.06639L35.9484 15.9042C36.0994 15.9889 36.192 16.1419 36.192 16.307V18.8317C36.192 19.0006 36.0952 19.1565 35.9387 19.2398C35.7822 19.3232 35.59 19.3212 35.4356 19.2346L19.9259 10.5405L4.41632 19.2346C4.26182 19.3212 4.06965 19.3232 3.91314 19.2398C3.75662 19.1565 3.65991 19.0006 3.65991 18.8317V16.307C3.65991 16.1419 3.75243 15.9889 3.90351 15.9042L19.6695 7.06639ZM4.65991 16.5733V18.0049L19.6695 9.59107C19.8274 9.50254 20.0244 9.50254 20.1823 9.59107L35.192 18.0049V16.5733L19.9259 8.01578L4.65991 16.5733Z" fill="#183E6C"/>
<path fill-rule="evenodd" clip-rule="evenodd" d="M7.29346 16.6951C7.5696 16.6951 7.79346 16.9052 7.79346 17.1643V30.0616H32.0618V17.1643C32.0618 16.9052 32.2857 16.6951 32.5618 16.6951C32.838 16.6951 33.0618 16.9052 33.0618 17.1643V30.5308C33.0618 30.7899 32.838 31 32.5618 31H7.29346C7.01731 31 6.79346 30.7899 6.79346 30.5308V17.1643C6.79346 16.9052 7.01731 16.6951 7.29346 16.6951Z" fill="#183E6C"/>
<path fill-rule="evenodd" clip-rule="evenodd" d="M15.168 20.4406C15.168 20.1815 15.3918 19.9714 15.668 19.9714H23.8749C24.151 19.9714 24.3749 20.1815 24.3749 20.4406V30.5306C24.3749 30.7897 24.151 30.9998 23.8749 30.9998C23.5987 30.9998 23.3749 30.7897 23.3749 30.5306V20.9099H16.168V30.5306C16.168 30.7897 15.9441 30.9998 15.668 30.9998C15.3918 30.9998 15.168 30.7897 15.168 30.5306V20.4406Z" fill="#183E6C"/>
<path fill-rule="evenodd" clip-rule="evenodd" d="M17.3415 24.7927C17.6177 24.7927 17.8415 25.0028 17.8415 25.2619V26.1747C17.8415 26.4338 17.6177 26.6439 17.3415 26.6439C17.0654 26.6439 16.8415 26.4338 16.8415 26.1747V25.2619C16.8415 25.0028 17.0654 24.7927 17.3415 24.7927Z" fill="#183E6C"/>
<path fill-rule="evenodd" clip-rule="evenodd" d="M7.65481 7.85258C7.65481 7.59344 7.87866 7.38336 8.15481 7.38336H13.3663C13.6425 7.38336 13.8663 7.59344 13.8663 7.85258V10.9623C13.8663 11.2215 13.6425 11.4316 13.3663 11.4316C13.0902 11.4316 12.8663 11.2215 12.8663 10.9623V8.3218H8.65481V14.0692C8.65481 14.3283 8.43095 14.5384 8.15481 14.5384C7.87866 14.5384 7.65481 14.3283 7.65481 14.0692V7.85258Z" fill="#183E6C"/>
<path fill-rule="evenodd" clip-rule="evenodd" d="M1 30.5307C1 30.2715 1.22386 30.0614 1.5 30.0614H38.5C38.7762 30.0614 39 30.2715 39 30.5307C39 30.7898 38.7762 30.9999 38.5 30.9999H1.5C1.22386 30.9999 1 30.7898 1 30.5307Z" fill="#183E6C"/>
<path fill-rule="evenodd" clip-rule="evenodd" d="M32.5619 25.5253L32.4611 25.0657C32.1906 25.1179 32.0165 25.366 32.0721 25.6199C32.1275 25.8722 32.3892 26.0353 32.658 25.9858M32.5619 25.5253C32.4611 25.0657 32.4608 25.0658 32.4611 25.0657L32.4622 25.0655L32.4634 25.0653L32.4663 25.0647L32.4734 25.0634L32.4934 25.0601C32.5091 25.0576 32.5298 25.0547 32.5548 25.0517C32.6046 25.0459 32.6725 25.04 32.7537 25.0383C32.9136 25.035 33.1377 25.048 33.3786 25.1189C33.6229 25.1908 33.8879 25.3238 34.1124 25.5594C34.2616 25.7161 34.3825 25.9075 34.469 26.1355C34.6295 26.1529 34.826 26.1891 35.0295 26.263C35.2877 26.3567 35.5676 26.5152 35.7918 26.7803C35.9628 26.9826 36.0876 27.2308 36.1529 27.5273C36.1629 27.5317 36.1731 27.5362 36.1834 27.5409C36.3777 27.6287 36.6339 27.7726 36.8762 27.9978C37.383 28.4689 37.7678 29.2408 37.5278 30.4063C37.4754 30.6607 37.2131 30.8271 36.942 30.7779C36.6708 30.7287 36.4935 30.4826 36.5459 30.2282C36.7235 29.3663 36.4392 28.9124 36.1725 28.6646C36.028 28.5303 35.8713 28.4414 35.7495 28.3864C35.6893 28.3591 35.6397 28.3411 35.6075 28.3306C35.5916 28.3253 35.5802 28.3219 35.5742 28.3203L35.5699 28.3191C35.364 28.2676 35.2153 28.0992 35.1999 27.8995C35.1791 27.6293 35.0953 27.4664 35.0084 27.3636C34.9191 27.2579 34.8014 27.1864 34.6687 27.1382C34.5339 27.0893 34.3947 27.0688 34.2845 27.0618C34.2307 27.0583 34.1871 27.0583 34.1589 27.059C34.1449 27.0593 34.1349 27.0598 34.1297 27.0602L34.1258 27.0604" fill="#183E6C"/>
<path fill-rule="evenodd" clip-rule="evenodd" d="M7.03915 25.3179L7.13993 24.8583C7.4104 24.9105 7.58454 25.1586 7.52888 25.4124C7.47354 25.6648 7.21185 25.8278 6.94299 25.7783M7.03915 25.3179C7.13993 24.8583 7.1402 24.8583 7.13993 24.8583L7.13882 24.8581L7.13759 24.8578L7.13475 24.8573L7.12761 24.856L7.10765 24.8527C7.0919 24.8502 7.07123 24.8472 7.04624 24.8443C6.99645 24.8384 6.92848 24.8325 6.84735 24.8309C6.68742 24.8276 6.4633 24.8405 6.22239 24.9115C5.97814 24.9834 5.71307 25.1164 5.48866 25.352C5.33942 25.5087 5.21848 25.7 5.13198 25.9281C4.97148 25.9455 4.77505 25.9817 4.57154 26.0555C4.31334 26.1493 4.0334 26.3077 3.80923 26.5729C3.63822 26.7751 3.5134 27.0234 3.44807 27.3199C3.43807 27.3243 3.42792 27.3288 3.41761 27.3334C3.22329 27.4213 2.9671 27.5652 2.72483 27.7904C2.218 28.2614 1.83319 29.0333 2.07324 30.1988C2.12565 30.4533 2.38792 30.6196 2.65905 30.5705C2.93017 30.5213 3.10748 30.2752 3.05507 30.0207C2.87755 29.1589 3.16184 28.705 3.42852 28.4571C3.573 28.3228 3.72966 28.234 3.85151 28.1789C3.91176 28.1517 3.96136 28.1337 3.99347 28.1231C4.00945 28.1179 4.02086 28.1145 4.0268 28.1128L4.03114 28.1116C4.23702 28.0602 4.38571 27.8918 4.40108 27.692C4.42187 27.4219 4.50571 27.259 4.59261 27.1562C4.68193 27.0505 4.79964 26.9789 4.9323 26.9308C5.06711 26.8819 5.20634 26.8614 5.31652 26.8543C5.37033 26.8509 5.4139 26.8509 5.44211 26.8516C5.45613 26.8519 5.46608 26.8524 5.4713 26.8527L5.47517 26.853" fill="#183E6C"/>
</svg>
