<svg width="40" height="40" viewBox="0 0 40 40" fill="none" xmlns="http://www.w3.org/2000/svg">
<path fill-rule="evenodd" clip-rule="evenodd" d="M32.0317 22.0955C32.3079 22.0955 32.5317 22.3232 32.5317 22.6041V27.0874C32.5317 28.0258 31.7952 28.8074 30.8662 28.8074C30.59 28.8074 30.3662 28.5797 30.3662 28.2988C30.3662 28.0179 30.59 27.7902 30.8662 27.7902C31.2226 27.7902 31.5317 27.4849 31.5317 27.0874V22.6041C31.5317 22.3232 31.7555 22.0955 32.0317 22.0955Z" fill="#183E6C"/>
<path fill-rule="evenodd" clip-rule="evenodd" d="M4.94569 8.01719C4.59034 8.01719 4.28022 8.32145 4.28022 8.72377V27.0872C4.28022 27.4847 4.58934 27.79 4.94569 27.79C5.22185 27.79 5.44572 28.0177 5.44572 28.2986C5.44572 28.5795 5.22185 28.8072 4.94569 28.8072C4.01674 28.8072 3.28017 28.0256 3.28017 27.0872V8.72377C3.28017 7.78261 4.01574 7 4.94569 7H30.8698C31.7984 7 32.5332 7.78037 32.5353 8.71974L32.5861 12.2108C32.5902 12.4917 32.3697 12.7227 32.0935 12.7269C31.8174 12.731 31.5902 12.5067 31.5862 12.2259L31.5352 8.72377C31.5352 8.32145 31.2252 8.01719 30.8698 8.01719H4.94569Z" fill="#183E6C"/>
<path fill-rule="evenodd" clip-rule="evenodd" d="M1 28.2987C1 28.0179 1.22387 27.7901 1.50003 27.7901H34.3082C34.5843 27.7901 34.8082 28.0179 34.8082 28.2987C34.8082 30.3316 33.2184 32 31.2365 32H4.57171C2.58981 32 1 30.3316 1 28.2987ZM2.04608 28.8073C2.27468 30.0526 3.32685 30.9828 4.57171 30.9828H31.2365C32.4814 30.9828 33.5335 30.0526 33.7621 28.8073H2.04608Z" fill="#183E6C"/>
<path fill-rule="evenodd" clip-rule="evenodd" d="M5.90406 9.77369C6.18021 9.77369 6.40408 10.0014 6.40408 10.2823V22.0952H27.384C27.6602 22.0952 27.8841 22.3229 27.8841 22.6038C27.8841 22.8847 27.6602 23.1124 27.384 23.1124H5.90406C5.6279 23.1124 5.40403 22.8847 5.40403 22.6038V10.2823C5.40403 10.0014 5.6279 9.77369 5.90406 9.77369Z" fill="#183E6C"/>
<path fill-rule="evenodd" clip-rule="evenodd" d="M21.5032 12.7682C21.7026 12.9626 21.7093 13.2845 21.5182 13.4873L16.5549 18.7556C16.452 18.8648 16.3068 18.9217 16.1585 18.911C16.0102 18.9003 15.8743 18.8231 15.7876 18.7002L14.5515 16.9478L11.4392 20.8057C11.3411 20.9272 11.1934 20.9958 11.0389 20.9915C10.8844 20.9872 10.7406 20.9105 10.6493 20.7837L9.54958 19.2569L6.48551 22.8576C6.30478 23.07 5.989 23.0931 5.7802 22.9093C5.57139 22.7255 5.54863 22.4043 5.72936 22.1919L9.20407 18.1086C9.30369 17.9915 9.45033 17.927 9.60243 17.9333C9.75454 17.9396 9.89554 18.016 9.98551 18.1409L11.075 19.6536L14.1916 15.7904C14.2902 15.6682 14.439 15.5995 14.5944 15.6047C14.7497 15.6098 14.8939 15.6881 14.9844 15.8165L16.2493 17.6098L20.7962 12.7836C20.9873 12.5808 21.3038 12.5739 21.5032 12.7682Z" fill="#183E6C"/>
<path fill-rule="evenodd" clip-rule="evenodd" d="M21.9599 12.3216C22.0742 12.437 22.1268 12.6014 22.1013 12.7631L21.7672 14.8802C21.7235 15.1575 21.467 15.3463 21.1943 15.3018C20.9216 15.2573 20.7361 14.9964 20.7798 14.719L21.0035 13.3011L19.6533 13.5313C19.381 13.5777 19.1232 13.3908 19.0775 13.1137C19.0319 12.8367 19.2157 12.5745 19.488 12.5281L21.5249 12.1809C21.6837 12.1538 21.8457 12.2062 21.9599 12.3216Z" fill="#183E6C"/>
<path fill-rule="evenodd" clip-rule="evenodd" d="M5.40403 24.8265C5.40403 24.5456 5.6279 24.3179 5.90406 24.3179H9.16817C9.44433 24.3179 9.6682 24.5456 9.6682 24.8265C9.6682 25.1074 9.44433 25.3351 9.16817 25.3351H5.90406C5.6279 25.3351 5.40403 25.1074 5.40403 24.8265Z" fill="#183E6C"/>
<path fill-rule="evenodd" clip-rule="evenodd" d="M10.7705 24.8265C10.7705 24.5456 10.9944 24.3179 11.2705 24.3179H12.5304C12.8066 24.3179 13.0305 24.5456 13.0305 24.8265C13.0305 25.1074 12.8066 25.3351 12.5304 25.3351H11.2705C10.9944 25.3351 10.7705 25.1074 10.7705 24.8265Z" fill="#183E6C"/>
<path fill-rule="evenodd" clip-rule="evenodd" d="M7.45561 9.14648C7.45561 8.86559 7.67948 8.63788 7.95563 8.63788H11.2197C11.4959 8.63788 11.7198 8.86559 11.7198 9.14648C11.7198 9.42737 11.4959 9.65507 11.2197 9.65507H7.95563C7.67948 9.65507 7.45561 9.42737 7.45561 9.14648Z" fill="#183E6C"/>
<path fill-rule="evenodd" clip-rule="evenodd" d="M12.3173 9.14648C12.3173 8.86559 12.5412 8.63788 12.8173 8.63788H14.0772C14.3534 8.63788 14.5773 8.86559 14.5773 9.14648C14.5773 9.42737 14.3534 9.65507 14.0772 9.65507H12.8173C12.5412 9.65507 12.3173 9.42737 12.3173 9.14648Z" fill="#183E6C"/>
<path fill-rule="evenodd" clip-rule="evenodd" d="M5.40403 26.5626C5.40403 26.2817 5.6279 26.054 5.90406 26.054H9.16817C9.44433 26.054 9.6682 26.2817 9.6682 26.5626C9.6682 26.8435 9.44433 27.0712 9.16817 27.0712H5.90406C5.6279 27.0712 5.40403 26.8435 5.40403 26.5626Z" fill="#183E6C"/>
<path fill-rule="evenodd" clip-rule="evenodd" d="M10.7705 26.5626C10.7705 26.2817 10.9944 26.054 11.2705 26.054H12.5304C12.8066 26.054 13.0305 26.2817 13.0305 26.5626C13.0305 26.8435 12.8066 27.0712 12.5304 27.0712H11.2705C10.9944 27.0712 10.7705 26.8435 10.7705 26.5626Z" fill="#183E6C"/>
<path fill-rule="evenodd" clip-rule="evenodd" d="M32.9233 13.8269C31.3548 12.1967 28.8163 12.1967 27.2478 13.8269C25.6734 15.4633 25.6734 18.121 27.2478 19.7574C28.8163 21.3876 31.3548 21.3876 32.9233 19.7574C34.4977 18.121 34.4977 15.4633 32.9233 13.8269ZM26.5331 13.1155C28.4937 11.0775 31.6774 11.0775 33.6381 13.1155C35.5928 15.1472 35.5928 18.4371 33.6381 20.4688C31.6774 22.5067 28.4937 22.5067 26.5331 20.4688C24.5783 18.4371 24.5783 15.1472 26.5331 13.1155Z" fill="#183E6C"/>
<path fill-rule="evenodd" clip-rule="evenodd" d="M31.9576 14.8309C30.9229 13.7554 29.2485 13.7554 28.2137 14.8309C28.0206 15.0316 27.704 15.0351 27.5066 14.8387C27.3092 14.6422 27.3058 14.3202 27.499 14.1194C28.9259 12.6363 31.2454 12.6363 32.6724 14.1194C32.8655 14.3202 32.8621 14.6422 32.6647 14.8387C32.4674 15.0351 32.1508 15.0316 31.9576 14.8309Z" fill="#183E6C"/>
<path fill-rule="evenodd" clip-rule="evenodd" d="M33.7225 18.927C33.9198 18.7306 34.2364 18.734 34.4296 18.9348L35.5007 20.0481C35.6909 20.2458 35.6909 20.5618 35.5007 20.7595L33.9176 22.4049C33.8236 22.5027 33.6947 22.5578 33.5602 22.5578C33.4258 22.5578 33.2969 22.5027 33.2029 22.4049L32.1318 21.2916C31.9386 21.0909 31.942 20.7689 32.1394 20.5724C32.3368 20.3759 32.6534 20.3794 32.8465 20.5802L33.5602 21.322L34.4437 20.4038L33.7148 19.6462C33.5217 19.4455 33.5251 19.1235 33.7225 18.927Z" fill="#183E6C"/>
<path fill-rule="evenodd" clip-rule="evenodd" d="M34.5176 20.3271C34.715 20.1307 35.0316 20.1341 35.2247 20.3349L38.6449 23.8898C39.1184 24.3819 39.1184 25.1772 38.6449 25.6693L38.6427 25.6716C38.1615 26.1654 37.3832 26.1688 36.9027 25.6693L33.4824 22.1143C33.2893 21.9136 33.2927 21.5916 33.4901 21.3951C33.6875 21.1987 34.004 21.2021 34.1972 21.4029L37.6174 24.9578C37.7029 25.0467 37.8389 25.0504 37.9313 24.9567C38.0232 24.8599 38.0228 24.6976 37.9302 24.6013L34.51 21.0463C34.3168 20.8456 34.3202 20.5236 34.5176 20.3271Z" fill="#183E6C"/>
</svg>
