<svg width="40" height="40" viewBox="0 0 40 40" fill="none" xmlns="http://www.w3.org/2000/svg">
<path fill-rule="evenodd" clip-rule="evenodd" d="M23.3505 18.5353C23.4696 18.2655 23.7996 18.1371 24.0876 18.2487C28.1351 19.8166 31.0056 23.0404 31.0056 26.8426C31.0056 30.207 28.7688 33.1203 25.4526 34.8316L25.1204 37.608C25.1204 37.6084 25.1204 37.6089 25.1203 37.6093C25.0308 38.382 24.3681 39 23.5239 39H22.2449C21.4067 39 20.7466 38.3794 20.6573 37.6096C20.6572 37.6091 20.6572 37.6086 20.6571 37.608L20.5059 36.3534C19.809 36.4429 19.0935 36.492 18.3555 36.492C17.6175 36.492 16.902 36.4429 16.2051 36.3534L16.0542 37.6059C15.9741 38.3872 15.2959 39 14.4661 39H13.1871C12.3369 39 11.6879 38.376 11.5993 37.6086C11.5993 37.6084 11.5994 37.6088 11.5993 37.6086L11.275 34.8394C8.89435 33.6068 7.06976 31.7584 6.23111 29.567L5.23814 29.3834L5.23425 29.3827C4.50196 29.2422 4 28.6216 4 27.9274V25.7752C4 25.081 4.50196 24.4605 5.23425 24.32L5.23814 24.3193L6.23037 24.1358C6.94495 22.2577 8.38346 20.644 10.2491 19.4466C10.5063 19.2816 10.8575 19.3431 11.0336 19.584C11.2098 19.825 11.1441 20.154 10.887 20.3191C9.09282 21.4706 7.78206 23.0109 7.19981 24.753C7.13804 24.9379 6.97335 25.0763 6.77056 25.1138L5.4591 25.3563C5.28706 25.3901 5.12864 25.5502 5.12864 25.7752V27.9274C5.12864 28.1524 5.28704 28.3126 5.45908 28.3463C5.45958 28.3464 5.46008 28.3465 5.46059 28.3466L6.77056 28.5889C6.97292 28.6263 7.13737 28.7642 7.19944 28.9485C7.90341 31.0387 9.65683 32.8566 12.0651 34.0368C12.2318 34.1185 12.3441 34.2726 12.3646 34.4477L12.7214 37.4947C12.7549 37.7858 12.9759 37.9425 13.1871 37.9425H14.4661C14.6785 37.9425 14.9038 37.7774 14.9309 37.5027L14.932 37.492L15.1496 35.687C15.1671 35.5422 15.2475 35.4106 15.372 35.3232C15.4964 35.2358 15.6538 35.2004 15.807 35.2254C16.6301 35.3594 17.4766 35.4345 18.3555 35.4345C19.2344 35.4345 20.0809 35.3594 20.904 35.2254C21.0572 35.2004 21.2146 35.2358 21.3391 35.3232C21.4635 35.4106 21.5439 35.5422 21.5614 35.687L21.7792 37.4947C21.8124 37.7829 22.0396 37.9425 22.2449 37.9425H23.5239C23.7409 37.9425 23.9655 37.7801 23.9983 37.4947L23.9986 37.4925L24.364 34.4378C24.3849 34.2628 24.4974 34.1091 24.664 34.0278C27.8491 32.4727 29.877 29.8105 29.877 26.8426C29.877 23.5809 27.405 20.6781 23.6564 19.226C23.3684 19.1144 23.2314 18.8052 23.3505 18.5353Z" fill="#183E6C"/>
<path fill-rule="evenodd" clip-rule="evenodd" d="M17.4466 17.7466C17.478 18.0372 17.2521 18.2966 16.9421 18.326C16.0593 18.4099 15.2068 18.5603 14.4003 18.7842C14.1015 18.8672 13.7875 18.7074 13.6989 18.4274C13.6104 18.1475 13.7809 17.8532 14.0797 17.7703C14.9613 17.5255 15.8838 17.3636 16.8282 17.2739C17.1383 17.2444 17.4151 17.4561 17.4466 17.7466Z" fill="#183E6C"/>
<path fill-rule="evenodd" clip-rule="evenodd" d="M18.364 20.9411C17.8049 20.9411 17.2525 20.9744 16.7152 21.0331C16.4056 21.0668 16.1254 20.8591 16.0894 20.569C16.0534 20.2789 16.2751 20.0164 16.5847 19.9826C17.1611 19.9198 17.7573 19.8836 18.364 19.8836C20.2408 19.8836 22.0304 20.1985 23.6339 20.7587C23.9259 20.8607 24.0744 21.1653 23.9655 21.4389C23.8566 21.7125 23.5316 21.8516 23.2396 21.7496C21.7629 21.2337 20.1069 20.9411 18.364 20.9411Z" fill="#183E6C"/>
<path fill-rule="evenodd" clip-rule="evenodd" d="M10.3061 17.4376C10.6382 17.4576 11.0568 17.5045 11.5142 17.6063C12.6129 17.8511 13.8945 18.4025 14.7725 19.6231C14.9467 19.8653 15.2975 19.9293 15.5559 19.7661C15.8143 19.6029 15.8826 19.2742 15.7084 19.0321C14.6201 17.5191 13.0433 16.86 11.7753 16.5775C11.1399 16.436 10.5719 16.3864 10.1617 16.372C9.95611 16.3647 9.78877 16.3663 9.67074 16.3699C9.61168 16.3716 9.56485 16.3739 9.53162 16.3759C9.515 16.3768 9.50176 16.3777 9.49209 16.3784L9.48027 16.3793L9.4764 16.3796L9.47498 16.3797C9.47473 16.3797 9.47391 16.3798 9.52388 16.9064L9.47391 16.3798C9.30218 16.3941 9.14684 16.4811 9.0522 16.6162C8.95755 16.7512 8.93397 16.9194 8.98819 17.0727L10.5283 21.4291C10.6263 21.7063 10.9456 21.8566 11.2414 21.7648C11.5373 21.6729 11.6977 21.3738 11.5997 21.0966L10.3061 17.4376Z" fill="#183E6C"/>
<path fill-rule="evenodd" clip-rule="evenodd" d="M10.1045 24.221C10.0994 24.221 10.0944 24.2209 10.0895 24.2206C10.0152 24.2167 9.95193 24.1844 9.91206 24.1447C9.86902 24.1017 9.85583 24.055 9.85583 24.0223C9.85583 23.9442 9.92788 23.8234 10.0895 23.8234C10.0919 23.8234 10.0942 23.8234 10.0966 23.8234C10.2532 23.8269 10.3232 23.9453 10.3232 24.0223C10.3232 24.0958 10.2596 24.2068 10.118 24.22C10.1136 24.2204 10.1091 24.2208 10.1045 24.221ZM10.0751 23.1639C10.6321 23.1452 10.9845 23.5919 10.9845 24.0223C10.9845 24.465 10.6166 24.8809 10.0895 24.8809C9.56244 24.8809 9.19455 24.465 9.19455 24.0223C9.19455 23.5837 9.55574 23.1714 10.0751 23.1639Z" fill="#183E6C"/>
<path fill-rule="evenodd" clip-rule="evenodd" d="M30.9409 1.14339C31.168 1.34334 31.1792 1.67796 30.9658 1.8908L28.486 4.36404C28.434 4.41592 28.3713 4.45743 28.3018 4.48607L22.1067 7.03739C22.1066 7.0374 22.1067 7.03738 22.1067 7.03739C21.0532 7.47137 20.2189 8.31292 19.7993 9.39012L19.7989 9.39125L17.7802 14.5373C17.6727 14.8114 17.3484 14.952 17.0559 14.8512C16.7633 14.7505 16.6134 14.4466 16.7209 14.1725L18.7391 9.02756C18.7392 9.02734 18.739 9.02777 18.7391 9.02756C19.2593 7.69258 20.3046 6.62456 21.6524 6.06931L27.7422 3.56135L30.1432 1.16672C30.3566 0.953884 30.7137 0.943439 30.9409 1.14339Z" fill="#183E6C"/>
<path fill-rule="evenodd" clip-rule="evenodd" d="M21.0924 13.047C20.0811 12.9071 19.0131 13.2218 18.2274 14.0054C16.874 15.3553 16.874 17.5461 18.2274 18.896C19.5542 20.2193 21.692 20.2262 23.0258 18.896C23.7999 18.1239 24.1305 17.074 24.0157 16.0504C23.9831 15.76 24.2079 15.4998 24.5179 15.4693C24.8278 15.4387 25.1055 15.6494 25.1381 15.9398C25.2843 17.242 24.8666 18.6046 23.8483 19.6201C22.0671 21.3966 19.1757 21.3862 17.4049 19.6201C15.6433 17.8632 15.6433 15.0382 17.4049 13.2813C18.4461 12.2428 19.8837 11.8111 21.2562 12.0007C22.2204 12.1311 23.1363 12.5712 23.857 13.29C24.1211 13.5534 24.3494 13.8397 24.5389 14.1581C24.6908 14.4132 24.5932 14.7352 24.321 14.8775C24.0488 15.0197 23.7051 14.9283 23.5533 14.6733C23.4122 14.4363 23.2402 14.2193 23.0345 14.0141C22.485 13.4661 21.8004 13.1426 21.0943 13.0472L21.0924 13.047Z" fill="#183E6C"/>
<path fill-rule="evenodd" clip-rule="evenodd" d="M35.4305 5.02253C35.6577 5.22248 35.6688 5.5571 35.4554 5.76994L32.7481 8.47005L30.1034 13.0947L30.1025 13.0963C29.6503 13.8805 28.9677 14.5157 28.1367 14.9055C28.1363 14.9056 28.1359 14.9058 28.1356 14.906L24.4655 16.6408C24.198 16.7672 23.8718 16.6758 23.7223 16.4326C23.0196 15.2898 23.3224 13.7846 24.449 13.002C24.4492 13.0019 24.4488 13.0022 24.449 13.002L25.4917 12.2741C25.4918 12.274 25.4915 12.2741 25.4917 12.2741C25.9088 11.9814 26.0609 11.4017 25.8108 10.9267L25.8102 10.9256C25.6 10.5236 25.1769 10.3294 24.7723 10.3975L24.7703 10.3979L22.8308 10.7177L21.655 12.7816C21.5083 13.0392 21.1664 13.1366 20.8915 12.999C20.6165 12.8615 20.5126 12.5412 20.6594 12.2836L21.9645 9.99258C22.0462 9.84921 22.1937 9.74899 22.3646 9.72082L24.5726 9.35668C24.573 9.35661 24.5734 9.35654 24.5738 9.35648C25.5085 9.19961 26.4072 9.66457 26.8234 10.4595C27.3037 11.3728 27.0378 12.511 26.1677 13.1209L26.1669 13.1215L25.1227 13.8504L25.1215 13.8513C24.6122 14.2049 24.3786 14.8409 24.5101 15.4352L27.629 13.961L27.6307 13.9602C28.2433 13.6731 28.7609 13.198 29.1091 12.5943C29.1092 12.5941 29.1089 12.5946 29.1091 12.5943L31.7885 7.9091C31.8118 7.8683 31.8408 7.83054 31.8746 7.7968L34.6328 5.04586C34.8462 4.83302 35.2034 4.82258 35.4305 5.02253Z" fill="#183E6C"/>
<path fill-rule="evenodd" clip-rule="evenodd" d="M35.9987 24.0394C36.0194 24.3307 35.7841 24.5827 35.4731 24.602C34.9825 24.6326 34.4963 24.7727 34.0689 25.0104C34.2086 25.1396 34.3401 25.2775 34.462 25.4237C34.847 25.8864 35.1533 26.4515 35.2386 27.0894C35.3234 27.7236 35.1633 28.4544 34.6616 28.9683C34.1597 29.4909 33.3019 29.7446 32.5615 29.4224L32.5579 29.4208C32.0841 29.2108 31.7529 28.8019 31.591 28.3792C31.4202 27.9557 31.4066 27.5121 31.4456 27.1231L31.4458 27.121C31.5222 26.3891 31.824 25.6881 32.2838 25.1155C31.6656 24.8443 30.9762 24.7454 30.3235 24.8552C30.0167 24.9068 29.7234 24.7157 29.6683 24.4283C29.6132 24.1409 29.8172 23.866 30.1239 23.8144C31.1526 23.6412 32.2182 23.8441 33.1212 24.3335C33.7879 23.866 34.5902 23.5972 35.3982 23.5469C35.7092 23.5275 35.978 23.748 35.9987 24.0394ZM33.2187 25.7109C32.8641 26.1366 32.6272 26.6695 32.5692 27.223C32.5389 27.5261 32.5598 27.7916 32.6479 28.0083L32.6524 28.0194C32.7346 28.236 32.8887 28.3968 33.0388 28.4641C33.2545 28.5568 33.5948 28.499 33.8235 28.2601L33.8278 28.2556C34.0553 28.0233 34.173 27.6271 34.1187 27.2209C34.0648 26.8176 33.8662 26.4277 33.5726 26.0747C33.4638 25.9443 33.3453 25.8229 33.2187 25.7109Z" fill="#183E6C"/>
<path fill-rule="evenodd" clip-rule="evenodd" d="M19.2704 15.7C19.2704 15.0056 19.8471 14.3815 20.6265 14.3815C21.4059 14.3815 21.9826 15.0056 21.9826 15.7C21.9826 15.9877 21.7374 16.2217 21.4321 16.2286C21.4551 16.242 21.4777 16.2562 21.4998 16.271C21.7989 16.4721 21.9826 16.7804 21.9826 17.1926C21.9826 17.8869 21.4059 18.5111 20.6265 18.5111C19.8471 18.5111 19.2704 17.8869 19.2704 17.1926C19.2704 16.9343 19.468 16.7192 19.7294 16.673C19.7271 16.6713 19.7249 16.6696 19.7226 16.6678C19.4309 16.4419 19.2704 16.1159 19.2704 15.7ZM20.3433 16.9632C20.379 17.0326 20.399 17.1104 20.399 17.1926C20.399 17.3661 20.5358 17.4535 20.6265 17.4535C20.7172 17.4535 20.854 17.3661 20.854 17.1926C20.854 17.1602 20.8502 17.1424 20.848 17.1346C20.8466 17.1335 20.8446 17.1321 20.8419 17.1303C20.7865 17.093 20.6953 17.0641 20.4623 16.9977C20.4584 16.9966 20.4544 16.9955 20.4504 16.9943C20.418 16.9851 20.382 16.9749 20.3433 16.9632ZM20.8463 17.1299C20.8463 17.1299 20.8465 17.1303 20.8468 17.131L20.8463 17.1299ZM20.9889 16.0431C20.9048 15.9507 20.854 15.8309 20.854 15.7C20.854 15.5265 20.7172 15.439 20.6265 15.439C20.5358 15.439 20.399 15.5265 20.399 15.7C20.399 15.8258 20.4315 15.8462 20.4401 15.8517C20.4408 15.8521 20.4413 15.8524 20.4417 15.8527C20.4896 15.8898 20.5772 15.9251 20.7907 15.986C20.8047 15.99 20.8198 15.9942 20.8358 15.9987C20.8806 16.0112 20.9326 16.0257 20.9889 16.0431Z" fill="#183E6C"/>
<path fill-rule="evenodd" clip-rule="evenodd" d="M20.6266 13.8782C20.9383 13.8782 21.1909 14.115 21.1909 14.407V14.9103C21.1909 15.2023 20.9382 15.439 20.6265 15.439C20.3148 15.439 20.0623 15.2023 20.0623 14.9103V14.407C20.0623 14.115 20.3149 13.8782 20.6266 13.8782Z" fill="#183E6C"/>
<path fill-rule="evenodd" clip-rule="evenodd" d="M20.6265 17.4535C20.9382 17.4535 21.1909 17.6903 21.1909 17.9823V18.4943C21.1909 18.7864 20.9382 19.0231 20.6266 19.0231C20.3149 19.0231 20.0622 18.7864 20.0622 18.4943V17.9823C20.0622 17.6903 20.3148 17.4535 20.6265 17.4535Z" fill="#183E6C"/>
</svg>
