<svg width="40" height="40" viewBox="0 0 40 40" fill="none" xmlns="http://www.w3.org/2000/svg">
<path fill-rule="evenodd" clip-rule="evenodd" d="M7 33.4562C7 31.6519 8.47677 30.1956 10.2866 30.1956H32.8286C33.1048 30.1956 33.3286 30.4195 33.3286 30.6956V36.4998C33.3286 36.7759 33.1048 36.9998 32.8286 36.9998H10.2866C8.47677 36.9998 7 35.5435 7 33.7392V33.4562ZM10.2866 31.1956C9.02019 31.1956 8 32.213 8 33.4562V33.7392C8 34.9824 9.02019 35.9998 10.2866 35.9998H32.3286V31.1956H10.2866Z" fill="#183E6C"/>
<path fill-rule="evenodd" clip-rule="evenodd" d="M7 7.40209C7 5.5169 8.53797 4 10.4294 4H32.8246C33.1007 4 33.3246 4.22386 33.3246 4.5V33.5977C33.3246 33.8738 33.1007 34.0977 32.8246 34.0977C32.5484 34.0977 32.3246 33.8738 32.3246 33.5977V5H10.4294C9.08139 5 8 6.07801 8 7.40209V33.5977C8 33.8738 7.77614 34.0977 7.5 34.0977C7.22386 34.0977 7 33.8738 7 33.5977V7.40209Z" fill="#183E6C"/>
<path fill-rule="evenodd" clip-rule="evenodd" d="M10.4294 4C10.7056 4 10.9294 4.22386 10.9294 4.5V30.6956C10.9294 30.9717 10.7056 31.1956 10.4294 31.1956C10.1533 31.1956 9.92944 30.9717 9.92944 30.6956V4.5C9.92944 4.22386 10.1533 4 10.4294 4Z" fill="#183E6C"/>
<path fill-rule="evenodd" clip-rule="evenodd" d="M14.1604 11.1004C14.1604 10.8243 14.3842 10.6004 14.6604 10.6004H28.308C28.5841 10.6004 28.808 10.8243 28.808 11.1004V17.5958C28.808 17.8719 28.5841 18.0958 28.308 18.0958H14.6604C14.3842 18.0958 14.1604 17.8719 14.1604 17.5958V11.1004ZM15.1604 11.6004V17.0958H27.808V11.6004H15.1604Z" fill="#183E6C"/>
<path fill-rule="evenodd" clip-rule="evenodd" d="M20.6721 32.6478C20.6721 32.3716 20.8959 32.1478 21.1721 32.1478H32.8245C33.1007 32.1478 33.3245 32.3716 33.3245 32.6478C33.3245 32.9239 33.1007 33.1478 32.8245 33.1478H21.1721C20.8959 33.1478 20.6721 32.9239 20.6721 32.6478Z" fill="#183E6C"/>
<path fill-rule="evenodd" clip-rule="evenodd" d="M23.2874 34.6202C23.2874 34.3441 23.5112 34.1202 23.7874 34.1202H26.9983C27.2745 34.1202 27.4983 34.3441 27.4983 34.6202C27.4983 34.8964 27.2745 35.1202 26.9983 35.1202H23.7874C23.5112 35.1202 23.2874 34.8964 23.2874 34.6202Z" fill="#183E6C"/>
<path fill-rule="evenodd" clip-rule="evenodd" d="M9.92944 34.6202C9.92944 34.3441 10.1533 34.1202 10.4294 34.1202H19.4911C19.7673 34.1202 19.9911 34.3441 19.9911 34.6202C19.9911 34.8964 19.7673 35.1202 19.4911 35.1202H10.4294C10.1533 35.1202 9.92944 34.8964 9.92944 34.6202Z" fill="#183E6C"/>
</svg>
