<svg width="40" height="40" viewBox="0 0 40 40" fill="none" xmlns="http://www.w3.org/2000/svg">
<path d="M19.1631 6.73063H9.59236C8.69043 6.73063 7.95392 5.98221 7.95392 5.0657V3.66492C7.95392 2.74842 8.69043 2 9.59236 2H19.1631C20.065 2 20.8015 2.74842 20.8015 3.66492V5.0657C20.8015 5.98221 20.0689 6.73063 19.1631 6.73063ZM9.59236 2.80044C9.12367 2.80044 8.74163 3.18866 8.74163 3.66492V5.0657C8.74163 5.54197 9.12367 5.93018 9.59236 5.93018H19.1631C19.6317 5.93018 20.0138 5.54197 20.0138 5.0657V3.66492C20.0138 3.18866 19.6317 2.80044 19.1631 2.80044H9.59236Z" fill="#183E6C"/>
<path d="M19.167 38H9.58842C7.05987 38 5 35.9068 5 33.3374V13.9787C5 13.2783 5.15754 12.5739 5.46081 11.9455C6.16581 10.4647 7.6152 9.46815 9.21426 9.33207V6.33041C9.21426 6.11028 9.39149 5.93018 9.60811 5.93018C9.82473 5.93018 10.002 6.11028 10.002 6.33041V9.71629C10.002 9.93641 9.82473 10.1165 9.60811 10.1165C8.14297 10.1165 6.79992 10.973 6.16975 12.2937C5.91768 12.814 5.78771 13.3983 5.78771 13.9787V33.3374C5.78771 35.4666 7.49311 37.1996 9.58842 37.1996H19.167C21.2623 37.1996 22.9677 35.4666 22.9677 33.3374V13.9787C22.9677 13.3983 22.8377 12.818 22.5857 12.2937C21.9555 10.969 20.6124 10.1165 19.1631 10.1165C18.9464 10.1165 18.7534 9.93641 18.7534 9.71629V6.33041C18.7534 6.11028 18.9307 5.93018 19.1473 5.93018C19.3639 5.93018 19.5412 6.11028 19.5412 6.33041V9.33207C21.1481 9.47215 22.5896 10.4687 23.2946 11.9455C23.5939 12.5739 23.7554 13.2783 23.7554 13.9787V33.3374C23.7554 35.9068 21.6995 38 19.167 38Z" fill="#183E6C"/>
<path d="M19.1512 10.1165H14.0154C13.7987 10.1165 13.6215 9.93641 13.6215 9.71629C13.6215 9.49617 13.7987 9.31607 14.0154 9.31607H19.1512C19.3679 9.31607 19.5451 9.49617 19.5451 9.71629C19.5451 9.93641 19.3679 10.1165 19.1512 10.1165Z" fill="#183E6C"/>
<path d="M10.9354 10.1165H9.58842C9.3718 10.1165 9.19457 9.93641 9.19457 9.71629C9.19457 9.49617 9.3718 9.31607 9.58842 9.31607H10.9354C11.152 9.31607 11.3293 9.49617 11.3293 9.71629C11.3293 9.93641 11.152 10.1165 10.9354 10.1165Z" fill="#183E6C"/>
<path d="M23.3616 16.6802H5.39386C5.17724 16.6802 5 16.5001 5 16.2799C5 16.0598 5.17724 15.8797 5.39386 15.8797H23.3616C23.5782 15.8797 23.7554 16.0598 23.7554 16.2799C23.7554 16.5001 23.5821 16.6802 23.3616 16.6802Z" fill="#183E6C"/>
<path d="M23.3616 28.5988H5.39386C5.17724 28.5988 5 28.4187 5 28.1986C5 27.9784 5.17724 27.7983 5.39386 27.7983H23.3616C23.5782 27.7983 23.7554 27.9784 23.7554 28.1986C23.7554 28.4187 23.5821 28.5988 23.3616 28.5988Z" fill="#183E6C"/>
<path d="M19.6317 25.5731H9.12761C8.91099 25.5731 8.73375 25.393 8.73375 25.1729V19.2496C8.73375 19.0295 8.91099 18.8494 9.12761 18.8494H19.6317C19.8484 18.8494 20.0256 19.0295 20.0256 19.2496V25.1729C20.0256 25.393 19.8484 25.5731 19.6317 25.5731ZM9.52147 24.7727H19.2379V19.6498H9.52147V24.7727Z" fill="#183E6C"/>
<path d="M27.3828 34.8262C26.8787 34.8262 26.4061 34.6261 26.0477 34.2659C25.6932 33.9057 25.4963 33.4215 25.4963 32.9132C25.4963 32.4009 25.6932 31.9206 26.0477 31.5564L30.7976 26.7337C31.5341 25.9853 32.7274 25.9853 33.464 26.7337C34.2005 27.4822 34.2005 28.6948 33.464 29.4432L28.718 34.2659C28.3596 34.6261 27.887 34.8262 27.3828 34.8262ZM32.1327 26.9739C31.8531 26.9739 31.5695 27.0819 31.3568 27.2981L26.6069 32.1207C26.3982 32.3329 26.284 32.613 26.284 32.9092C26.284 33.2053 26.3982 33.4855 26.6069 33.6976C27.0362 34.1339 27.7334 34.1339 28.1587 33.6976L32.9047 28.8749C33.334 28.4387 33.334 27.7303 32.9047 27.2981C32.692 27.0819 32.4124 26.9739 32.1327 26.9739Z" fill="#183E6C"/>
<path d="M30.8133 31.9727C30.7109 31.9727 30.6124 31.9326 30.5337 31.8566L28.6865 29.9795C28.5329 29.8235 28.5329 29.5713 28.6865 29.4152C28.8401 29.2591 29.0882 29.2591 29.2418 29.4152L31.089 31.2923C31.2426 31.4484 31.2426 31.7005 31.089 31.8566C31.0142 31.9326 30.9118 31.9727 30.8133 31.9727Z" fill="#183E6C"/>
<path d="M33.267 36.8434H26.2485C25.2915 36.8434 24.5156 36.0549 24.5156 35.0824V34.7742C24.5156 34.4901 24.5865 34.2019 24.7164 33.9497C24.8188 33.7536 25.0551 33.6816 25.2481 33.7817C25.4411 33.8857 25.512 34.1258 25.4136 34.322C25.3427 34.462 25.3033 34.6141 25.3033 34.7702V35.0784C25.3033 35.6067 25.7286 36.0389 26.2485 36.0389H33.267C33.7869 36.0389 34.2123 35.6067 34.2123 35.0784V34.7702C34.2123 34.2419 33.7869 33.8097 33.267 33.8097H29.0016C28.785 33.8097 28.6077 33.6296 28.6077 33.4094C28.6077 33.1893 28.785 33.0092 29.0016 33.0092H33.267C34.2241 33.0092 35 33.7977 35 34.7702V35.0784C35 36.0549 34.2202 36.8434 33.267 36.8434Z" fill="#183E6C"/>
<path d="M29.7578 36.8434C29.5412 36.8434 29.3639 36.6633 29.3639 36.4431V33.7897C29.3639 33.5695 29.5412 33.3894 29.7578 33.3894C29.9744 33.3894 30.1516 33.5695 30.1516 33.7897V36.4431C30.1516 36.6633 29.9744 36.8434 29.7578 36.8434Z" fill="#183E6C"/>
</svg>
