<svg width="40" height="40" viewBox="0 0 40 40" fill="none" xmlns="http://www.w3.org/2000/svg">
<path fill-rule="evenodd" clip-rule="evenodd" d="M4.37605 8.45828C4.50902 8.31603 4.71162 8.25815 4.90166 8.30811L19.5148 12.1499C19.7017 12.199 19.8462 12.3445 19.8914 12.529C19.9366 12.7135 19.8753 12.9075 19.7316 13.0346L9.79448 21.8216C9.66407 21.9369 9.48375 21.981 9.3134 21.9394C9.14306 21.8977 9.00498 21.7757 8.94505 21.6138L4.26897 8.98495C4.2018 8.80354 4.24308 8.60054 4.37605 8.45828ZM5.60697 9.56554L9.66969 20.5379L18.3033 12.9034L5.60697 9.56554Z" fill="#183E6C"/>
<path fill-rule="evenodd" clip-rule="evenodd" d="M9.56468 20.9338C9.84804 21.0008 10.0224 21.2805 9.95403 21.5584L7.52914 31.4232C7.46081 31.7012 7.17571 31.8722 6.89235 31.8052C6.60899 31.7381 6.43467 31.4585 6.503 31.1805L8.92789 21.3157C8.99622 21.0377 9.28132 20.8667 9.56468 20.9338Z" fill="#183E6C"/>
<path fill-rule="evenodd" clip-rule="evenodd" d="M2.01813 29.9873C2.09362 29.7111 2.38304 29.5472 2.66458 29.6213L11.6409 31.9821C11.9225 32.0561 12.0895 32.34 12.014 32.6162C11.9385 32.8924 11.6491 33.0563 11.3676 32.9822L2.39123 30.6214C2.1097 30.5474 1.94265 30.2635 2.01813 29.9873Z" fill="#183E6C"/>
<path fill-rule="evenodd" clip-rule="evenodd" d="M7.18315 13.757C7.18315 13.471 7.41944 13.2392 7.71092 13.2392H16.2548C16.5463 13.2392 16.7825 13.471 16.7825 13.757C16.7825 14.0429 16.5463 14.2747 16.2548 14.2747H7.71092C7.41944 14.2747 7.18315 14.0429 7.18315 13.757Z" fill="#183E6C"/>
<path fill-rule="evenodd" clip-rule="evenodd" d="M37.6241 8.45822C37.757 8.60047 37.7983 8.80347 37.7311 8.98488L33.0551 21.6137C32.9951 21.7756 32.857 21.8976 32.6867 21.9393C32.5164 21.981 32.336 21.9368 32.2056 21.8215L22.2685 13.0345C22.1248 12.9074 22.0635 12.7134 22.1087 12.5289C22.1539 12.3444 22.2984 12.199 22.4853 12.1498L37.0984 8.30804C37.2885 8.25808 37.4911 8.31596 37.6241 8.45822ZM36.3931 9.56548L23.6968 12.9034L32.3304 20.5378L36.3931 9.56548Z" fill="#183E6C"/>
<path fill-rule="evenodd" clip-rule="evenodd" d="M32.4352 20.9337C32.7185 20.8667 33.0036 21.0377 33.072 21.3156L35.4969 31.1804C35.5652 31.4584 35.3909 31.7381 35.1075 31.8051C34.8242 31.8721 34.5391 31.7011 34.4707 31.4231L32.0458 21.5584C31.9775 21.2804 32.1518 21.0007 32.4352 20.9337Z" fill="#183E6C"/>
<path fill-rule="evenodd" clip-rule="evenodd" d="M39.9819 29.9872C40.0573 30.2634 39.8903 30.5473 39.6088 30.6213L30.6324 32.9821C30.3509 33.0562 30.0615 32.8923 29.986 32.6161C29.9105 32.34 30.0775 32.056 30.3591 31.982L39.3354 29.6212C39.617 29.5471 39.9064 29.711 39.9819 29.9872Z" fill="#183E6C"/>
<path fill-rule="evenodd" clip-rule="evenodd" d="M25.2174 13.7569C25.2174 13.4709 25.4537 13.2392 25.7452 13.2392H34.2891C34.5805 13.2392 34.8168 13.4709 34.8168 13.7569C34.8168 14.0428 34.5805 14.2746 34.2891 14.2746H25.7452C25.4537 14.2746 25.2174 14.0428 25.2174 13.7569Z" fill="#183E6C"/>
<path fill-rule="evenodd" clip-rule="evenodd" d="M20.9982 7C21.2897 7 21.526 7.2318 21.526 7.51773V9.40564C21.526 9.69158 21.2897 9.92338 20.9982 9.92338C20.7067 9.92338 20.4704 9.69158 20.4704 9.40564V7.51773C20.4704 7.2318 20.7067 7 20.9982 7Z" fill="#183E6C"/>
<path fill-rule="evenodd" clip-rule="evenodd" d="M17.0829 7.80012C17.3202 7.63408 17.6498 7.68819 17.819 7.92098L18.9038 9.41297C19.0731 9.64576 19.0179 9.96908 18.7806 10.1351C18.5433 10.3012 18.2137 10.247 18.0445 10.0143L16.9597 8.52226C16.7904 8.28947 16.8456 7.96615 17.0829 7.80012Z" fill="#183E6C"/>
<path fill-rule="evenodd" clip-rule="evenodd" d="M24.9131 7.79965C25.1506 7.96533 25.2063 8.28856 25.0374 8.52161L23.9561 10.0136C23.7872 10.2466 23.4577 10.3013 23.2202 10.1356C22.9826 9.9699 22.9269 9.64667 23.0958 9.41363L24.1771 7.92163C24.346 7.68858 24.6755 7.63397 24.9131 7.79965Z" fill="#183E6C"/>
</svg>
