<svg width="40" height="40" viewBox="0 0 40 40" fill="none" xmlns="http://www.w3.org/2000/svg">
<path fill-rule="evenodd" clip-rule="evenodd" d="M23.3968 22.4838C23.3968 18.3592 26.6026 14.9676 30.6043 14.9676C34.6066 14.9676 37.8053 18.3598 37.8053 22.4838C37.8053 26.6146 34.613 30 30.6043 30C26.5959 30 23.3968 26.6081 23.3968 22.4838ZM30.6043 15.8747C27.1557 15.8747 24.313 18.8123 24.313 22.4838C24.313 26.1556 27.1495 29.0928 30.6043 29.0928C34.0588 29.0928 36.8891 26.1626 36.8891 22.4838C36.8891 18.8117 34.0523 15.8747 30.6043 15.8747Z" fill="#183E6C"/>
<path fill-rule="evenodd" clip-rule="evenodd" d="M24.883 22.4837C24.883 19.2151 27.4135 16.5226 30.6043 16.5226C33.7883 16.5226 36.3256 19.2148 36.3256 22.4837C36.3256 25.7526 33.7883 28.4448 30.6043 28.4448C27.4203 28.4448 24.883 25.7526 24.883 22.4837ZM30.6043 17.4298C27.9673 17.4298 25.7992 19.6675 25.7992 22.4837C25.7992 25.2995 27.9734 27.5376 30.6043 27.5376C33.2352 27.5376 35.4094 25.2995 35.4094 22.4837C35.4094 19.6679 33.2352 17.4298 30.6043 17.4298Z" fill="#183E6C"/>
<path fill-rule="evenodd" clip-rule="evenodd" d="M30.5978 22.1224C30.4443 22.1224 30.2772 22.2603 30.2772 22.4838C30.2772 22.7073 30.4443 22.8451 30.5978 22.8451C30.7514 22.8451 30.9185 22.7073 30.9185 22.4838C30.9185 22.2603 30.7514 22.1224 30.5978 22.1224ZM29.3609 22.4838C29.3609 21.8072 29.8912 21.2153 30.5978 21.2153C31.3045 21.2153 31.8347 21.8072 31.8347 22.4838C31.8347 23.1604 31.3045 23.7523 30.5978 23.7523C29.8912 23.7523 29.3609 23.1604 29.3609 22.4838Z" fill="#183E6C"/>
<path fill-rule="evenodd" clip-rule="evenodd" d="M28.4913 12.8949C28.4913 12.2269 29.0168 11.64 29.7152 11.64H31.4869C32.1853 11.64 32.7108 12.2269 32.7108 12.8949V13.1122C32.7108 13.7802 32.1853 14.3671 31.4869 14.3671H29.7152C29.0168 14.3671 28.4913 13.7802 28.4913 13.1122V12.8949ZM29.7152 12.5471C29.5699 12.5471 29.4075 12.68 29.4075 12.8949V13.1122C29.4075 13.3271 29.5699 13.46 29.7152 13.46H31.4869C31.6322 13.46 31.7946 13.3271 31.7946 13.1122V12.8949C31.7946 12.68 31.6322 12.5471 31.4869 12.5471H29.7152Z" fill="#183E6C"/>
<path fill-rule="evenodd" clip-rule="evenodd" d="M31.2468 13.4532C31.4998 13.4532 31.7049 13.6562 31.7049 13.9068V15.36C31.7049 15.6105 31.4998 15.8136 31.2468 15.8136C30.9938 15.8136 30.7887 15.6105 30.7887 15.36V13.9068C30.7887 13.6562 30.9938 13.4532 31.2468 13.4532Z" fill="#183E6C"/>
<path fill-rule="evenodd" clip-rule="evenodd" d="M29.9553 13.4532C30.2083 13.4532 30.4134 13.6562 30.4134 13.9068V15.36C30.4134 15.6105 30.2083 15.8136 29.9553 15.8136C29.7023 15.8136 29.4972 15.6105 29.4972 15.36V13.9068C29.4972 13.6562 29.7023 13.4532 29.9553 13.4532Z" fill="#183E6C"/>
<path fill-rule="evenodd" clip-rule="evenodd" d="M25.2144 15.567C25.3982 15.3949 25.6882 15.4028 25.8621 15.5848L26.7577 16.5219C26.9315 16.7039 26.9235 16.991 26.7397 17.1631C26.556 17.3353 26.266 17.3274 26.0921 17.1454L25.1965 16.2083C25.0226 16.0263 25.0307 15.7392 25.2144 15.567Z" fill="#183E6C"/>
<path fill-rule="evenodd" clip-rule="evenodd" d="M35.0397 13.855C35.5024 13.3617 36.2689 13.368 36.7324 13.8531L37.6589 14.8225C38.1157 15.2919 38.1106 16.0477 37.6623 16.5187C37.1996 17.012 36.4332 17.0057 35.9696 16.5206L35.0431 15.5512C34.5863 15.0818 34.5915 14.326 35.0397 13.855ZM36.0669 14.4766C35.96 14.3647 35.8063 14.3703 35.7107 14.4728L35.7071 14.4766C35.5867 14.6025 35.5918 14.8081 35.7034 14.9223L35.7071 14.926L36.6351 15.8972C36.742 16.009 36.8957 16.0034 36.9914 15.901L36.9949 15.8971C37.1153 15.7712 37.1102 15.5656 36.9986 15.4514L36.9949 15.4477L36.0669 14.4766Z" fill="#183E6C"/>
<path fill-rule="evenodd" clip-rule="evenodd" d="M25.4916 14.4727C25.3959 14.3703 25.2422 14.3646 25.1353 14.4765L24.2037 15.4514C24.092 15.5655 24.0869 15.7711 24.2073 15.8971L24.2109 15.9009C24.3065 16.0033 24.4602 16.009 24.5671 15.8971L25.4988 14.9222C25.6104 14.808 25.6155 14.6024 25.4952 14.4765L25.4916 14.4727ZM26.1625 13.8549C25.6999 13.3616 24.9334 13.3679 24.4698 13.853L23.5433 14.8224C23.0865 15.2919 23.0917 16.0476 23.54 16.5187C24.0026 17.012 24.7691 17.0057 25.2327 16.5206L26.1591 15.5511C26.6159 15.0817 26.6108 14.326 26.1625 13.8549Z" fill="#183E6C"/>
<path fill-rule="evenodd" clip-rule="evenodd" d="M35.9877 15.567C36.1715 15.7392 36.1795 16.0263 36.0056 16.2083L35.11 17.1454C34.9361 17.3274 34.6462 17.3353 34.4624 17.1631C34.2786 16.991 34.2706 16.7039 34.4445 16.5219L35.3401 15.5848C35.514 15.4028 35.8039 15.3949 35.9877 15.567Z" fill="#183E6C"/>
<path fill-rule="evenodd" clip-rule="evenodd" d="M30.5978 16.5226C30.8509 16.5226 31.056 16.7257 31.056 16.9762V18.0967C31.056 18.3472 30.8509 18.5503 30.5978 18.5503C30.3448 18.5503 30.1397 18.3472 30.1397 18.0967V16.9762C30.1397 16.7257 30.3448 16.5226 30.5978 16.5226Z" fill="#183E6C"/>
<path fill-rule="evenodd" clip-rule="evenodd" d="M26.5643 18.2631C26.7481 18.0909 27.038 18.0988 27.2119 18.2808L27.9712 19.0753C28.1451 19.2573 28.1371 19.5444 27.9533 19.7166C27.7696 19.8887 27.4796 19.8808 27.3057 19.6988L26.5464 18.9043C26.3725 18.7223 26.3805 18.4352 26.5643 18.2631Z" fill="#183E6C"/>
<path fill-rule="evenodd" clip-rule="evenodd" d="M24.883 22.4837C24.883 22.2332 25.0881 22.0302 25.3411 22.0302H26.4119C26.6649 22.0302 26.87 22.2333 26.87 22.4838C26.87 22.7343 26.6649 22.9374 26.4119 22.9374H25.3411C25.0881 22.9374 24.883 22.7342 24.883 22.4837Z" fill="#183E6C"/>
<path fill-rule="evenodd" clip-rule="evenodd" d="M27.9533 25.2577C28.1371 25.4299 28.1451 25.7169 27.9712 25.8989L27.2119 26.6934C27.038 26.8754 26.7481 26.8833 26.5643 26.7112C26.3805 26.539 26.3725 26.2519 26.5464 26.07L27.3057 25.2754C27.4796 25.0934 27.7695 25.0855 27.9533 25.2577Z" fill="#183E6C"/>
<path fill-rule="evenodd" clip-rule="evenodd" d="M30.5978 26.4172C30.8508 26.4172 31.0559 26.6203 31.0559 26.8708V27.9913C31.0559 28.2418 30.8508 28.4449 30.5978 28.4449C30.3448 28.4449 30.1397 28.2418 30.1397 27.9913V26.8708C30.1397 26.6203 30.3448 26.4172 30.5978 26.4172Z" fill="#183E6C"/>
<path fill-rule="evenodd" clip-rule="evenodd" d="M33.2488 25.2577C33.4326 25.0855 33.7225 25.0934 33.8964 25.2754L34.6557 26.07C34.8296 26.2519 34.8216 26.539 34.6378 26.7112C34.4541 26.8833 34.1641 26.8754 33.9902 26.6934L33.2309 25.8989C33.057 25.7169 33.065 25.4299 33.2488 25.2577Z" fill="#183E6C"/>
<path fill-rule="evenodd" clip-rule="evenodd" d="M34.3321 22.4838C34.3321 22.2333 34.5372 22.0302 34.7902 22.0302H35.861C36.114 22.0302 36.3191 22.2333 36.3191 22.4838C36.3191 22.7343 36.114 22.9374 35.861 22.9374H34.7902C34.5372 22.9374 34.3321 22.7343 34.3321 22.4838Z" fill="#183E6C"/>
<path fill-rule="evenodd" clip-rule="evenodd" d="M34.6378 18.2631C34.8216 18.4352 34.8296 18.7223 34.6557 18.9043L33.8964 19.6988C33.7225 19.8808 33.4326 19.8887 33.2488 19.7166C33.065 19.5444 33.057 19.2573 33.2309 19.0753L33.9902 18.2808C34.1641 18.0988 34.454 18.0909 34.6378 18.2631Z" fill="#183E6C"/>
<path fill-rule="evenodd" clip-rule="evenodd" d="M30.5978 18.5329C30.8509 18.5329 31.056 18.736 31.056 18.9865V21.669C31.056 21.9195 30.8508 22.1224 30.5978 22.1224C30.3448 22.1224 30.1397 21.9195 30.1397 21.669V18.9865C30.1397 18.736 30.3448 18.5329 30.5978 18.5329Z" fill="#183E6C"/>
<path fill-rule="evenodd" clip-rule="evenodd" d="M2 19.7198C2 19.4693 2.2051 19.2663 2.45811 19.2663H6.04696C6.29997 19.2663 6.50508 19.4693 6.50508 19.7198V22.4227C6.50508 22.6732 6.29997 22.8762 6.04696 22.8762C5.79396 22.8762 5.58885 22.6732 5.58885 22.4227V20.1734H2.91622V28.7125H5.58885V25.0711C5.58885 24.8206 5.79396 24.6176 6.04696 24.6176C6.29997 24.6176 6.50508 24.8206 6.50508 25.0711V29.1661C6.50508 29.4166 6.29997 29.6197 6.04696 29.6197H2.45811C2.2051 29.6197 2 29.4166 2 29.1661V19.7198Z" fill="#183E6C"/>
<path fill-rule="evenodd" clip-rule="evenodd" d="M8.45085 15.0341C8.45085 14.7836 8.65595 14.5805 8.90896 14.5805H12.4978C12.7508 14.5805 12.9559 14.7836 12.9559 15.0341V20.3242C12.9559 20.5747 12.7508 20.7778 12.4978 20.7778C12.2448 20.7778 12.0397 20.5747 12.0397 20.3242V15.4876H9.36707V23.4413C9.36707 23.6918 9.16197 23.8949 8.90896 23.8949C8.65595 23.8949 8.45085 23.6918 8.45085 23.4413V15.0341Z" fill="#183E6C"/>
<path fill-rule="evenodd" clip-rule="evenodd" d="M12.4978 25.3985C12.7508 25.3985 12.9559 25.6016 12.9559 25.8521V29.1661C12.9559 29.4166 12.7508 29.6197 12.4978 29.6197H8.90896C8.65595 29.6197 8.45085 29.4166 8.45085 29.1661V26.0762C8.45085 25.8257 8.65595 25.6226 8.90896 25.6226C9.16197 25.6226 9.36707 25.8257 9.36707 26.0762V28.7125H12.0397V25.8521C12.0397 25.6016 12.2448 25.3985 12.4978 25.3985Z" fill="#183E6C"/>
<path fill-rule="evenodd" clip-rule="evenodd" d="M18.9487 21.9691C19.2017 21.9691 19.4068 22.1722 19.4068 22.4227V29.1661C19.4068 29.4166 19.2017 29.6197 18.9487 29.6197H15.3533C15.1003 29.6197 14.8952 29.4166 14.8952 29.1661V24.718C14.8952 24.4675 15.1003 24.2644 15.3533 24.2644C15.6063 24.2644 15.8114 24.4675 15.8114 24.718V28.7125H18.4905V22.4227C18.4905 22.1722 18.6957 21.9691 18.9487 21.9691Z" fill="#183E6C"/>
<path fill-rule="evenodd" clip-rule="evenodd" d="M14.8952 11.4688C14.8952 11.2183 15.1003 11.0152 15.3533 11.0152H18.9487C19.2017 11.0152 19.4068 11.2183 19.4068 11.4688V14.8914C19.4068 15.142 19.2017 15.345 18.9487 15.345C18.6957 15.345 18.4905 15.142 18.4905 14.8914V11.9224H15.8114V17.4992C15.8114 17.7497 15.6063 17.9528 15.3533 17.9528C15.1003 17.9528 14.8952 17.7497 14.8952 17.4992V11.4688Z" fill="#183E6C"/>
<path fill-rule="evenodd" clip-rule="evenodd" d="M21.346 8.45358C21.346 8.20308 21.5511 8 21.8042 8H25.393C25.646 8 25.8511 8.20308 25.8511 8.45358V12.243C25.8511 12.4935 25.646 12.6965 25.393 12.6965C25.14 12.6965 24.9349 12.4935 24.9349 12.243V8.90716H22.2623V15.6928C22.2623 15.9433 22.0572 16.1464 21.8042 16.1464C21.5511 16.1464 21.346 15.9433 21.346 15.6928V8.45358Z" fill="#183E6C"/>
<path fill-rule="evenodd" clip-rule="evenodd" d="M21.8042 17.9624C22.0572 17.9624 22.2623 18.1655 22.2623 18.416V28.7125H24.9349V26.9794C24.9349 26.7289 25.14 26.5258 25.393 26.5258C25.646 26.5258 25.8511 26.7289 25.8511 26.9794V29.1661C25.8511 29.4166 25.646 29.6197 25.393 29.6197H21.8042C21.5511 29.6197 21.346 29.4166 21.346 29.1661V18.416C21.346 18.1655 21.5511 17.9624 21.8042 17.9624Z" fill="#183E6C"/>
<path fill-rule="evenodd" clip-rule="evenodd" d="M22.8698 15.157C22.9872 15.27 23.0348 15.4364 22.9946 15.5935L20.8335 24.0483C20.7925 24.2087 20.6666 24.3343 20.5049 24.376C20.3432 24.4177 20.1715 24.369 20.0566 24.2488L18.677 22.8051C15.5147 25.8998 10.7443 27.7236 6.42904 25.8675L6.42661 25.8664C6.04769 25.7008 5.58509 25.3153 5.20672 24.9341C4.82718 24.5517 4.44885 24.0893 4.28427 23.7191C4.20668 23.5445 4.24767 23.3405 4.38685 23.2087C4.52603 23.0768 4.73366 23.0452 4.90639 23.1297C5.43297 23.3871 6.20304 23.4614 7.15501 23.3467C8.09653 23.2333 9.16344 22.9413 10.2425 22.5247C12.2356 21.7551 14.2032 20.5868 15.4411 19.4258L14.1379 18.0622C14.0278 17.947 13.9865 17.7831 14.029 17.6302C14.0715 17.4772 14.1916 17.3573 14.3457 17.3141L22.4255 15.0459C22.583 15.0017 22.7524 15.044 22.8698 15.157ZM15.3232 17.9826L16.4129 19.1229C16.5801 19.2978 16.5801 19.5715 16.4129 19.7464C15.0901 21.1306 12.8233 22.5019 10.5753 23.3699C9.44704 23.8055 8.30378 24.1222 7.2657 24.2472C6.77613 24.3062 6.2976 24.3241 5.84871 24.2866C5.85253 24.2905 5.85636 24.2944 5.8602 24.2982C6.22269 24.6634 6.58372 24.9431 6.79551 25.036C10.7857 26.7514 15.3511 24.9771 18.3498 21.8393C18.4363 21.7487 18.5567 21.6974 18.6826 21.6974C18.8085 21.6974 18.9288 21.7487 19.0153 21.8393L20.1496 23.0262L21.9116 16.1331L15.3232 17.9826Z" fill="#183E6C"/>
</svg>
