<svg width="40" height="40" viewBox="0 0 40 40" fill="none" xmlns="http://www.w3.org/2000/svg">
<path fill-rule="evenodd" clip-rule="evenodd" d="M34.8425 8.10746C33.3079 4.29237 29.0738 2.49835 25.3926 4.06856C22.2264 5.41911 20.4752 8.82837 21.0142 12.184C21.0256 12.2222 21.0325 12.2623 21.0344 12.3038C21.1254 12.8179 21.2704 13.3301 21.4727 13.8329C23.0073 17.648 27.2414 19.442 30.9226 17.8718C34.6119 16.2981 36.38 11.9295 34.8425 8.10746ZM20.119 12.827C20.2209 13.2908 20.3623 13.752 20.5449 14.2061C22.2811 18.5223 27.0998 20.5895 31.315 18.7916C35.5221 16.9971 37.5037 12.0435 35.7703 7.73427C34.0341 3.41806 29.2154 1.35079 25.0002 3.14875C21.5541 4.61869 19.6012 8.20818 19.9601 11.827H11.3218C11.1762 11.827 11.0378 11.8904 10.9428 12.0008L1.62101 22.8334C1.49353 22.9816 1.46405 23.1904 1.54555 23.368C1.62704 23.5457 1.80457 23.6595 2.00001 23.6595H4.44715L4.44714 36.9999C4.44714 37.1325 4.49982 37.2597 4.59359 37.3534C4.68735 37.4472 4.81453 37.4999 4.94714 37.4999H20.6323C20.6361 37.5 20.64 37.5 20.6439 37.5C20.6478 37.5 20.6517 37.5 20.6556 37.4999H35.894C36.1701 37.4999 36.394 37.276 36.394 36.9999V23.6595H38C38.1954 23.6595 38.3729 23.5457 38.4544 23.3681C38.5359 23.1905 38.5065 22.9817 38.3791 22.8335L34.163 17.9314C33.9829 17.722 33.6672 17.6983 33.4579 17.8784C33.2485 18.0584 33.2248 18.3741 33.4048 18.5835L36.9105 22.6595H35.8982L35.894 22.6595L35.8898 22.6595H20.8732L13.1791 13.7187C13.1704 13.7076 13.1611 13.6969 13.1513 13.6864L12.4117 12.827H20.119ZM11.3218 13.0935L3.08992 22.6595H4.71741L12.1266 14.0287L11.3218 13.0935ZM12.7864 14.7954L5.44715 23.3447L5.44714 36.4999H20.1439L20.1438 23.3451L12.7864 14.7954ZM21.1438 23.6595L21.1439 36.4999H29.192V27.4276C29.192 27.1514 29.4159 26.9276 29.692 26.9276H33.5176C33.7938 26.9276 34.0176 27.1514 34.0176 27.4276V36.4999H35.394V23.6595H21.1438ZM33.0176 36.4999V27.9276H30.192V36.4999H33.0176ZM28.1602 5.7135C27.4289 5.7135 26.8131 6.32624 26.8131 7.11558C26.8131 7.90491 27.4289 8.51766 28.1602 8.51766C28.8915 8.51766 29.5073 7.90491 29.5073 7.11558C29.5073 6.32691 28.8884 5.7135 28.1602 5.7135ZM25.8131 7.11558C25.8131 5.8018 26.8491 4.7135 28.1602 4.7135C29.4668 4.7135 30.5073 5.80113 30.5073 7.11558C30.5073 8.00776 30.0295 8.79596 29.3122 9.20995C29.8303 9.43157 30.2735 9.79752 30.5947 10.2574H31.1298C31.7896 10.2574 32.3029 10.8031 32.2981 11.4515L32.298 11.4543L31.7981 11.4494H32.2981V11.4515V15C32.2981 15.0579 32.2981 14.5517 32.2981 15.0517H24.0208C24.0027 15 24.0109 15.3927 24.0109 15.3348V11.4494C24.0109 10.8045 24.5214 10.2574 25.183 10.2574H25.7188C26.0407 9.7981 26.4856 9.43075 27.0059 9.20866C26.2899 8.79432 25.8131 8.00683 25.8131 7.11558ZM27.1479 10.2574H29.1673C28.8698 10.0765 28.5239 9.97389 28.1564 9.97389C27.7903 9.97389 27.4451 10.0768 27.1479 10.2574ZM24.0208 15.0517H23.4792C23.203 15.0517 22.9792 15.2756 22.9792 15.5517C22.9792 15.8279 23.203 16.0517 23.4792 16.0517H32.8011C33.0773 16.0517 33.3011 15.8279 33.3011 15.5517C33.3011 15.2756 33.0773 15.0517 32.8011 15.0517H32.2981C32.2298 15.2467 32.0163 15.8348 31.7981 15.8348H24.5109C24.2927 15.8348 24.089 15.2467 24.0208 15.0517ZM25.183 11.2574C25.1011 11.2574 25.0109 11.3289 25.0109 11.4494V14.8348H31.2981V11.4445C31.2992 11.3287 31.2124 11.2574 31.1298 11.2574H25.183ZM28.1564 12.564C27.9196 12.564 27.7028 12.7659 27.7028 13.046C27.7028 13.3261 27.9196 13.5279 28.1564 13.5279C28.3932 13.5279 28.61 13.3261 28.61 13.046C28.61 12.7659 28.3932 12.564 28.1564 12.564ZM26.7028 13.046C26.7028 12.2414 27.3399 11.564 28.1564 11.564C28.9729 11.564 29.61 12.2414 29.61 13.046C29.61 13.8505 28.9729 14.5279 28.1564 14.5279C27.3399 14.5279 26.7028 13.8505 26.7028 13.046ZM9.11001 25.1738C9.11001 24.8976 9.33387 24.6738 9.61001 24.6738H14.7121C14.9883 24.6738 15.2121 24.8976 15.2121 25.1738V30.4277C15.2121 30.7038 14.9883 30.9277 14.7121 30.9277H9.61001C9.33387 30.9277 9.11001 30.7038 9.11001 30.4277V25.1738ZM10.11 25.6738V29.9277H14.2121V25.6738H10.11ZM22.1037 27.4276C22.1037 27.1514 22.3276 26.9276 22.6037 26.9276H27.7058C27.982 26.9276 28.2058 27.1514 28.2058 27.4276V30.4237C28.2058 30.6999 27.982 30.9237 27.7058 30.9237H22.6037C22.3276 30.9237 22.1037 30.6999 22.1037 30.4237V27.4276ZM23.1037 27.9276V29.9237H27.2058V27.9276H23.1037Z" fill="#183E6C"/>
<path d="M31.7981 15.8348C32.0163 15.8348 32.2298 15.2467 32.2981 15.0517H24.0208C24.089 15.2467 24.2927 15.8348 24.5109 15.8348H31.7981Z" fill="#183E6C"/>
</svg>
