<svg width="25" height="24" viewBox="0 0 25 24" fill="none" xmlns="http://www.w3.org/2000/svg">
<g clip-path="url(#clip0_944_15889)">
<path d="M21.0601 20.3607C20.3121 20.3607 19.5477 20.1331 18.7205 19.752C17.5411 20.6465 14.9666 21.2765 12.0564 21.2765C7.96673 21.2765 4.64697 20.0749 4.64697 18.59C4.64697 17.1238 7.96946 15.9222 12.0564 15.9222C12.7252 15.9222 13.3723 15.9592 13.9838 16.0174C13.7681 15.7898 13.5907 15.5596 13.375 15.3319C12.9436 15.3108 12.5096 15.2922 12.0591 15.2922C5.67074 15.2922 0.5 17.2561 0.5 19.6567C0.5 22.0572 5.67074 23.9999 12.0591 23.9999C18.4283 23.9999 23.5963 22.0573 23.5963 19.654C23.5963 19.5005 23.5963 19.3497 23.5581 19.2147C22.9875 19.8075 22.1822 20.3607 21.0601 20.3607Z" fill="#00A73C"/>
<path d="M23.6346 16.3774C23.6346 16.3774 23.8503 17.8649 22.417 17.8649C20.9618 17.8649 15.7529 11.5392 13.061 1L9.16797 9.67066C10.4074 11.653 11.8817 13.6354 13.375 15.3293C13.5907 15.557 13.7681 15.7872 13.9838 16.0148C15.5754 17.6743 17.208 19.0268 18.7205 19.752C19.5449 20.1331 20.3121 20.3608 21.0601 20.3608C22.1795 20.3608 22.9876 19.8076 23.5554 19.2174C24.2052 18.5133 24.5 17.7696 24.5 17.7696L23.6346 16.3774Z" fill="#1D2088"/>
</g>
<defs>
<clipPath id="clip0_944_15889">
<rect width="24" height="23" fill="white" transform="translate(0.5 1)"/>
</clipPath>
</defs>
</svg>
