<svg width="24" height="24" viewBox="0 0 24 24" fill="none" xmlns="http://www.w3.org/2000/svg">
<path d="M11.9803 1C5.38453 1 0 6.16587 0 12.5089C0 18.8341 5.38453 24 11.9803 24C18.597 24 24 18.8341 24 12.5089C24 6.16587 18.597 1 11.9803 1ZM22.881 9.84301C21.8014 8.61219 20.0004 7.58055 17.7624 6.93705C17.0436 4.78694 15.9614 3.07861 14.6738 2.04696C18.7103 2.98668 21.8778 6.02032 22.881 9.84301ZM18.4259 9.99112C19.7529 10.5784 21.1379 11.3879 22.5387 12.4732C21.2116 13.6683 19.8267 14.5697 18.3864 15.2132C18.4996 14.3501 18.576 13.4487 18.576 12.5115C18.5786 11.6458 18.5417 10.8006 18.4259 9.99112ZM15.4321 16.2244C12.9308 16.8117 10.4452 16.7198 8.19133 16.1325C7.52781 13.6683 7.56467 11.2041 8.15447 8.99778C10.2767 8.48196 12.8176 8.31853 15.6428 9.01565C16.1325 11.0943 16.2089 13.5585 15.4321 16.2244ZM11.9803 2.65471C12.075 2.3968 13.5548 3.81403 14.7291 6.33185C13.8576 6.23992 12.965 6.18375 12.075 6.18375C11.0692 6.18375 10.066 6.23992 9.11816 6.3676C9.85804 4.89675 10.8639 3.63018 11.9803 2.65471ZM9.19451 2.08527C7.86747 3.11436 6.82479 4.861 6.12441 7.03153C3.83105 7.73121 2.04849 8.81392 1.04268 10.1214C1.9537 6.20417 5.1186 3.09648 9.19451 2.08527ZM5.49775 15.1212C4.03906 14.4216 2.8068 13.5023 1.83785 12.4732C1.59035 12.3813 3.01218 11.0023 5.49775 9.89919C5.38453 10.7444 5.3266 11.6101 5.3266 12.5089C5.3266 13.4078 5.38453 14.2735 5.49775 15.1212ZM1.04268 14.8991C2.04849 16.204 3.82841 17.2892 6.12441 17.9889C6.82479 20.1594 7.86747 21.8856 9.19451 22.9352C5.1186 21.9239 1.9537 18.8163 1.04268 14.8991ZM11.9803 22.5674C10.7664 21.3162 9.85804 19.9935 9.19451 18.6503C10.1055 18.778 11.0719 18.8341 12.075 18.8341C12.8913 18.8341 13.7233 18.7984 14.4816 18.7064C13.8576 19.973 13.0624 21.26 11.9803 22.5674ZM14.6738 22.9709C15.964 21.9418 17.0436 20.2131 17.765 18.0808C20.0031 17.4195 21.8041 16.4082 22.8836 15.1749C21.8778 19.0001 18.7103 22.0159 14.6738 22.9709Z" fill="#0066B5"/>
</svg>
