<svg width="25" height="24" viewBox="0 0 25 24" fill="none" xmlns="http://www.w3.org/2000/svg">
<path d="M19.8995 22.0519C19.879 22.0519 19.879 22.0519 19.8586 22.0519C19.7943 22.0696 19.7329 22.1077 19.6482 22.1254C19.6277 22.1432 19.4377 22.1077 19.4377 22.1609C19.4377 22.1964 19.5225 22.1787 19.543 22.1964C19.543 22.2142 19.543 22.27 19.5225 22.27C19.6277 22.2522 19.7972 22.2142 19.879 22.1432C19.9638 22.0696 20.1099 22.0519 20.2151 22.0341C20.3408 22.0163 20.4255 21.9605 20.5103 21.9073C20.595 21.8718 20.6798 21.8718 20.7616 21.8515C20.8873 21.7957 20.9516 21.7246 21.0773 21.7044C21.162 21.6866 21.1825 21.6688 21.2672 21.613C21.2029 21.6485 21.1416 21.6485 21.0773 21.6485C20.9925 21.6663 20.9078 21.7044 20.8259 21.7221C20.785 21.7399 20.7207 21.7779 20.6564 21.7957C20.5717 21.8134 20.4869 21.8312 20.4051 21.887C20.2999 21.9605 20.1947 21.9225 20.0895 21.9783C20.0281 22.0138 19.9638 22.0341 19.8995 22.0519Z" fill="#007F51"/>
<g clip-path="url(#clip0_944_15273)">
<path d="M24.5 0H0.5V24H24.5V0Z" fill="#008CC2"/>
<path d="M20.9538 13.4033C22.061 10.8741 21.4069 8.71182 21.4069 8.71182C19.0822 7.53309 16.7259 7.81411 16.7259 7.81411C15.7054 5.19905 12.498 3.79395 12.498 3.79395C12.498 3.79395 9.29069 5.19905 8.27016 7.81411C8.27016 7.81411 5.94542 7.53309 3.58916 8.71182C3.58916 8.71182 2.93508 10.8741 4.04229 13.4033C4.04229 13.4033 1.8594 14.7538 1.48901 15.7061L3.07693 16.9707C3.07693 16.9707 4.77911 14.8904 6.73741 14.3869C6.73741 14.3869 5.63021 13.0364 5.43319 10.1989C5.43319 10.1989 6.8241 9.44169 9.37737 9.97251C9.37737 9.97251 10.7407 6.85395 12.498 6.23337C14.2554 6.85005 15.6463 9.97251 15.6463 9.97251C18.1996 9.43779 19.5905 10.1989 19.5905 10.1989C19.3619 13.0364 18.2587 14.3869 18.2587 14.3869C20.2446 14.8943 21.9192 16.9707 21.9192 16.9707L23.5347 15.7061C23.1682 14.7538 20.9538 13.4033 20.9538 13.4033Z" fill="white"/>
<path d="M13.4952 10.425H11.5093V19.4451H13.4952V10.425Z" fill="white"/>
<path d="M9.18046 12.0566L7.81714 13.4071C8.97951 14.6717 9.12136 16.0222 9.12136 19.4491H11.0206C11.0245 19.4452 11.5919 13.9965 9.18046 12.0566Z" fill="white"/>
<path d="M7.59255 15.4836L6.1189 16.7482C7.13942 17.5913 6.85572 19.4453 6.85572 19.4453H8.75492C8.75492 16.4672 7.59255 15.4836 7.59255 15.4836Z" fill="white"/>
<path d="M15.8196 12.0566C13.4082 13.9965 14.0032 19.4491 14.0032 19.4491H15.8748C15.8748 16.0222 16.0442 14.6717 17.2066 13.4071L15.8196 12.0566Z" fill="white"/>
<path d="M16.2451 19.4453H18.1443C18.1443 19.4453 17.8606 17.5913 18.8811 16.7482L17.4075 15.4836C17.4075 15.4836 16.2451 16.4672 16.2451 19.4453Z" fill="white"/>
</g>
<defs>
<clipPath id="clip0_944_15273">
<rect width="24" height="24" fill="white" transform="translate(0.5)"/>
</clipPath>
</defs>
</svg>
