<svg width="24" height="24" viewBox="0 0 24 24" fill="none" xmlns="http://www.w3.org/2000/svg">
<g clip-path="url(#clip0_944_19263)">
<path d="M23.5562 11.2109L18.2666 5.92256L18.0045 6.30072C18.0045 6.30072 16.5123 8.4238 14.9248 9.96325C14.9248 9.96325 13.9449 10.9905 12.825 10.9191H9.23604C9.23604 10.9191 11.3835 9.73099 13.5756 6.8367C13.5756 6.8367 14.9754 5.01735 15.8153 3.99303C15.8153 3.99303 15.8809 3.88285 16.0268 3.71611L18.2666 5.92256C19.9077 2.91809 22.9397 2.11412 22.9397 2.11412C23.3954 1.96226 22.9039 1.90271 22.9039 1.90271C18.2666 1.29228 16.4944 3.18906 16.0298 3.68633L12.7863 0.443649C12.1966 -0.14593 11.7975 -0.14593 11.2077 0.443649L5.78406 5.97318C7.10946 5.70519 8.16381 6.13695 8.16381 6.13695C9.00372 6.50916 9.61132 7.48881 9.61132 7.48881C9.61132 7.48881 10.0074 8.02479 10.4989 8.46846C10.4989 8.46846 11.1273 9.00444 10.0313 9.49576C8.47654 10.1896 7.18392 7.91164 7.18392 7.91164C6.65972 6.89625 5.84661 6.2769 5.36411 6.39601L0.437826 11.2109C0.157856 11.4908 0.014892 11.5771 0 11.9434H13.799C13.8109 11.7022 14.1832 10.9161 15.2554 11.5712C15.2554 11.5712 15.4877 10.9637 16.2234 11.3032C16.2234 11.3032 16.7357 10.0913 17.7632 10.7434C17.7632 10.7434 17.9866 9.76375 18.895 9.73993C18.895 9.73993 19.7349 9.61189 20.1549 11.059C20.1549 11.059 21.1705 10.4397 21.6292 11.9464V11.9523C21.6292 11.9702 21.6351 11.9851 21.6351 12.0059L21.0156 12.0863C18.4036 12.2948 8.35145 13.4293 3.36262 15.996L6.10871 18.7414C7.38049 18.0298 15.032 13.8015 22.5287 12.6074C22.5287 12.6074 12.4468 16.9429 8.86076 21.4928L11.2048 23.5563C11.7945 24.1459 12.1906 24.1459 12.7833 23.5563L23.5532 12.7891C24.1489 12.1995 24.1489 11.8005 23.5562 11.2109Z" fill="#232DAC"/>
</g>
<defs>
<clipPath id="clip0_944_19263">
<rect width="24" height="24" fill="white"/>
</clipPath>
</defs>
</svg>
