<svg width="24" height="24" viewBox="0 0 24 24" fill="none" xmlns="http://www.w3.org/2000/svg">
<g clip-path="url(#clip0_944_20396)">
<path fill-rule="evenodd" clip-rule="evenodd" d="M11.1047 14.0307C9.53004 12.5517 7.2382 14.6414 8.55664 16.5949C9.23066 17.5927 10.966 18.2422 13.4549 18.1126C13.8101 18.0941 13.926 18.0159 13.5733 17.856C11.3948 16.87 12.2659 15.121 11.1047 14.0307Z" fill="#6FBA2C"/>
<path fill-rule="evenodd" clip-rule="evenodd" d="M6.01616 18.5896C6.17853 18.2825 6.22166 18.2068 5.80389 18.3995C3.44186 19.4915 2.97842 17.7298 1.40965 17.9637C0.538587 18.0932 -0.129512 18.9278 0.0210217 19.8423C0.202 20.9343 1.47477 21.349 2.48707 21.2455C4.5734 21.0335 5.74807 19.0969 6.01616 18.5896Z" fill="#F39800"/>
<path fill-rule="evenodd" clip-rule="evenodd" d="M4.21083 17.8444C4.29456 17.9142 4.40281 18.0505 4.0992 18.0051C0.322325 17.438 -0.363535 15.2154 0.618318 14.1225C1.13927 13.5429 2.25389 13.468 2.78668 14.0519C3.79644 15.1598 2.70888 16.5816 4.21083 17.8444Z" fill="#0093D4"/>
<path fill-rule="evenodd" clip-rule="evenodd" d="M17.8289 8.94254C18.1968 8.956 18.2915 9.03003 17.9185 9.1781C17.0306 9.53144 16.135 10.1876 16.0994 11.6751C16.0479 13.8187 12.9298 13.25 13.2816 11.0096C13.6782 8.4731 17.4018 8.92655 17.8289 8.94254Z" fill="#F39800"/>
<path fill-rule="evenodd" clip-rule="evenodd" d="M6.80791 19.8474C7.44895 21.7529 10.1408 21.0883 9.91838 19.2568C9.72641 17.6802 7.83205 18.1859 7.83205 16.4511C7.83205 16.2399 7.81429 16.0658 7.60117 16.3897C7.0075 17.2916 6.49078 18.9035 6.80791 19.8474Z" fill="#B963A4"/>
<path fill-rule="evenodd" clip-rule="evenodd" d="M18.4065 18.8109C16.7498 19.9761 16.1434 18.5669 14.951 18.5005C13.5776 18.4239 13.1793 20.6432 14.9459 21.0521C15.7654 21.2448 17.7858 20.8519 18.6162 18.8513C18.6602 18.7453 18.6154 18.6258 18.4065 18.8109Z" fill="#6FBA2C"/>
<path fill-rule="evenodd" clip-rule="evenodd" d="M17.9263 17.353C18.2975 15.4803 16.7347 13.7313 16.5858 13.5453C16.5469 13.4965 16.2281 13.1146 16.3668 13.6757C16.7795 15.3508 15.9093 15.8261 15.6454 17.019C15.264 18.7378 17.6024 18.9851 17.9263 17.353Z" fill="#F39800"/>
<path d="M8.33841 13.547C6.35694 13.7464 5.20172 14.2974 4.5776 14.7787C3.65832 15.4879 3.76742 16.6186 4.31712 17.1671C4.89389 17.7442 6.00006 17.9217 6.71721 17.0443C7.58151 15.9851 6.73581 14.6937 8.42975 13.717C8.67838 13.5739 8.52277 13.5285 8.33841 13.547Z" fill="#EB6100"/>
<path fill-rule="evenodd" clip-rule="evenodd" d="M21.1779 13.7851C20.8041 13.945 20.5132 14.2411 20.3043 14.5835C20.0844 14.9444 19.9973 15.3684 19.7741 15.7268C19.5804 16.0364 19.3335 16.3342 19.0426 16.5513C18.881 16.6707 18.7914 16.8398 19.1001 16.7759C19.347 16.7246 19.6971 16.6766 20.1217 16.7195C20.547 16.7608 21.1111 16.966 21.3674 17.0275C21.8942 17.2016 22.5091 17.194 22.9074 16.7751C23.5569 16.0936 23.4731 14.8308 22.8363 14.1645C22.4194 13.7287 21.7429 13.5437 21.1779 13.7851Z" fill="#6FBA2C"/>
<path fill-rule="evenodd" clip-rule="evenodd" d="M22.7136 17.6743C21.3825 17.4674 20.7288 18.4744 18.7702 17.1325C18.5959 17.0139 18.4496 16.9146 18.5782 17.3084C18.7888 17.9494 19.7233 20.5238 21.5331 20.9815C24.1843 21.6511 24.8862 18.0731 22.7136 17.6743Z" fill="#0093D4"/>
<path fill-rule="evenodd" clip-rule="evenodd" d="M10.1287 8.15259C9.84121 9.61728 10.9795 10.3105 10.6996 12.4642C10.6776 12.6358 10.8324 12.6316 10.8747 12.5357C11.7381 10.5604 13.0286 10.6369 13.5175 9.11335C14.2481 6.83597 10.5068 6.22098 10.1287 8.15259Z" fill="#0093D4"/>
<path fill-rule="evenodd" clip-rule="evenodd" d="M4.49065 13.7985C6.24632 13.9357 6.33765 12.6485 9.45743 12.8235C9.71113 12.8378 9.68069 12.6721 9.51747 12.6233C6.72075 11.7836 6.24463 10.0018 4.79003 9.94627C2.41447 9.85709 2.07872 13.6109 4.49065 13.7985Z" fill="#B963A4"/>
<path fill-rule="evenodd" clip-rule="evenodd" d="M6.61824 10.1717C7.69396 11.5481 8.5312 10.6395 9.76506 11.9645C9.9452 12.158 10.0805 12.0638 9.94097 11.8375C9.0809 10.4519 10.0484 9.19834 9.3253 8.28133C7.96373 6.55416 5.35223 8.55307 6.61824 10.1717Z" fill="#EB6100"/>
<path fill-rule="evenodd" clip-rule="evenodd" d="M16.6846 11.596C16.6846 13.0556 18.2965 13.7304 18.3996 16.4519C18.4064 16.632 18.573 16.637 18.6077 16.4595C19.1405 13.7497 20.634 13.2256 20.7634 11.6675C20.9629 9.26057 16.6846 8.82478 16.6846 11.596Z" fill="#EB6100"/>
<path fill-rule="evenodd" clip-rule="evenodd" d="M15.2471 16.3755C15.8999 15.8126 16.1249 14.8123 15.5321 14.0871C14.4445 12.8471 13.2774 14.0812 12.1662 12.0117C11.9835 11.6709 11.8651 11.745 11.9319 12.1126C12.1603 13.3771 11.7434 14.6323 12.485 15.7546C13.2208 16.8659 14.535 16.9896 15.2471 16.3755Z" fill="#B963A4"/>
<path fill-rule="evenodd" clip-rule="evenodd" d="M11.8846 18.7277C11.0905 18.7277 10.4478 19.3679 10.4478 20.157V24H13.3214V20.157C13.3214 19.3679 12.6778 18.7277 11.8846 18.7277Z" fill="#AAA893"/>
</g>
<defs>
<clipPath id="clip0_944_20396">
<rect width="24" height="17" fill="white" transform="translate(0 7)"/>
</clipPath>
</defs>
</svg>
