<svg width="25" height="24" viewBox="0 0 25 24" fill="none" xmlns="http://www.w3.org/2000/svg">
<g clip-path="url(#clip0_944_20400)">
<path d="M17.9262 5.05109C18.0235 5.06404 18.1109 5.1029 18.1884 5.16309C18.2298 5.16004 18.2459 5.23089 18.3003 5.20499C18.3455 5.27584 18.4215 5.2827 18.4767 5.33831C18.4644 5.37717 18.5219 5.34517 18.5081 5.38402H18.5234V5.49068C18.5434 5.50135 18.5664 5.49526 18.5901 5.49754V5.55468C18.6737 5.5524 18.7366 5.60192 18.8171 5.60649C18.8539 5.6263 18.8516 5.67429 18.8884 5.67658C18.9137 5.6941 18.8983 5.72686 18.9298 5.73981C18.893 5.80533 19.0057 5.81067 18.9727 5.87238C19.0118 5.88533 18.9804 5.92494 19.0164 5.93637C19.0241 6.00113 19.0617 6.05065 19.1015 6.10093C19.1199 6.18474 19.2158 6.23807 19.2035 6.33482C19.2541 6.40872 19.2503 6.50777 19.2871 6.59005V6.84832C19.238 6.85594 19.271 6.92679 19.2602 6.96488C19.2464 7.00755 19.1989 7.03726 19.2188 7.09287C19.2211 7.10202 19.2334 7.09592 19.2395 7.09821C19.2395 7.12106 19.2334 7.14849 19.2602 7.16144V7.326C19.2395 7.36105 19.2188 7.39762 19.1974 7.4319C19.2112 7.46542 19.1613 7.44257 19.1782 7.47533C19.159 7.49742 19.1207 7.50961 19.1284 7.54389H19.1115C19.1253 7.61094 19.0693 7.64827 19.0594 7.70769C19.0279 7.71912 19.034 7.77093 18.9949 7.77093C19.0126 7.80064 18.965 7.80369 18.9735 7.83035C18.9282 7.83797 18.9083 7.9073 18.8569 7.90349C18.7887 7.94006 18.7994 8.01853 18.7297 8.05739C18.755 8.11453 18.6752 8.10005 18.6975 8.15262C18.6722 8.16862 18.6484 8.18843 18.6185 8.18843C18.5641 8.22347 18.5104 8.25547 18.4583 8.28595C18.4613 8.31642 18.4253 8.31337 18.4092 8.32861C18.334 8.42003 18.2436 8.4726 18.1408 8.50384C18.0672 8.52517 17.9798 8.51907 17.9177 8.57317C17.8625 8.59907 17.7905 8.58078 17.7475 8.63564C17.7123 8.67449 17.6501 8.64478 17.6026 8.66307C17.3918 8.76287 17.161 8.64935 16.9256 8.67906C16.8842 8.6524 16.7631 8.69735 16.8037 8.59907L16.7347 8.58764V8.48708C16.7063 8.49012 16.678 8.52441 16.6481 8.54574C16.635 8.52365 16.6304 8.4985 16.5944 8.50384C16.5676 8.52898 16.5369 8.53584 16.5277 8.57317C16.507 8.58079 16.5001 8.55945 16.4878 8.55031C16.4963 8.51907 16.4564 8.5046 16.4411 8.48174C16.3989 8.47946 16.3874 8.55031 16.3337 8.52365C16.3291 8.50688 16.323 8.49241 16.3084 8.48174C16.2962 8.4985 16.2708 8.50688 16.28 8.52974L16.1888 8.59221H16.0861C16.1482 8.56021 16.1259 8.49546 16.1298 8.43984C16.142 8.44289 16.1466 8.43298 16.1528 8.42765V8.30804L16.0999 8.23719C16.0738 8.24557 16.0953 8.29585 16.0569 8.27985C16.0447 8.28823 16.037 8.30956 16.0186 8.30194C16.0148 8.26157 16.0539 8.225 16.0401 8.17395L16.014 8.16176C16.0861 8.11757 15.9841 8.08862 16.014 8.02996C15.9948 7.99644 15.9642 7.96673 15.9504 7.93016C15.9435 7.92025 15.9358 7.92635 15.9274 7.92406C15.9358 7.89283 15.9113 7.85245 15.9504 7.83264V7.65284C15.9028 7.63837 15.9519 7.58427 15.9074 7.56751C15.9251 7.51113 15.8561 7.48904 15.8791 7.43038C15.843 7.41819 15.8745 7.37933 15.8369 7.36714C15.8246 7.32524 15.8292 7.27877 15.7894 7.24982C15.7848 7.21858 15.8009 7.1782 15.7664 7.15992C15.771 7.06088 15.7602 6.95574 15.7802 6.86432C15.7986 6.81556 15.7848 6.75385 15.7894 6.69899C15.83 6.68223 15.8124 6.64033 15.8162 6.60986C15.8369 6.61519 15.8461 6.59919 15.8599 6.58852V6.56719C15.886 6.56262 15.8875 6.50624 15.9266 6.50853L15.9389 6.49786C15.9358 6.49558 15.9335 6.49024 15.9266 6.49329V6.47729C15.9389 6.47958 15.9435 6.47196 15.9496 6.46586C15.9243 6.41558 15.9948 6.43539 15.9711 6.38587C16.0094 6.37063 15.9856 6.32949 15.9918 6.30206C15.9435 6.27845 15.9948 6.19693 15.9504 6.16188C15.978 6.1017 16.0224 6.04532 16.0569 5.98894C16.0539 5.98132 16.0454 5.98208 16.0401 5.98208C16.0477 5.9539 16.0224 5.90818 16.06 5.89295C16.0462 5.86171 16.0991 5.86019 16.083 5.82895C16.0999 5.80609 16.1359 5.79238 16.1298 5.75962C16.1574 5.76953 16.1466 5.73829 16.1574 5.72762C16.1773 5.70172 16.2126 5.68496 16.2172 5.65525C16.2816 5.66667 16.3146 5.58973 16.3537 5.55316C16.3376 5.51659 16.4434 5.48611 16.3774 5.46859C16.3606 5.4244 16.4004 5.41755 16.4234 5.40002C16.5055 5.29489 16.609 5.25222 16.7132 5.20346C16.8006 5.18746 16.8873 5.17147 16.9739 5.15471C17.0054 5.14861 17.0314 5.12652 17.0713 5.13413C17.1242 5.04881 17.2285 5.08385 17.2944 5.02138C17.3335 5.02138 17.3757 5.02824 17.404 5.00157C17.5773 5.01909 17.7828 4.96348 17.9262 5.05109Z" fill="#E6002D"/>
<path d="M24.5001 23.367C24.5001 23.7174 20.2212 24.0001 14.9432 24.0001C9.66525 24.0001 5.38477 23.7174 5.38477 23.367C5.38477 23.018 9.66448 22.7346 14.9432 22.7346C20.2212 22.7346 24.5001 23.018 24.5001 23.367Z" fill="#00A0E9"/>
<path d="M11.5541 7.66261C12.1475 7.7449 12.734 7.98183 13.194 8.29267C13.3052 8.31172 13.4072 8.28201 13.4961 8.23096C13.447 8.06259 13.2646 7.89955 13.1112 7.80203C12.7455 7.64433 12.3269 7.61157 12.0172 7.31673C11.9596 7.44015 11.8247 7.44472 11.7013 7.44625C11.4935 7.41196 11.3432 7.23597 11.1132 7.24816C11.0465 7.26721 11.0427 7.34187 10.9829 7.37768C10.9783 7.40891 10.9959 7.44777 10.9668 7.47063C10.9522 7.52167 10.9591 7.58262 10.9905 7.62376L11.5541 7.66261Z" fill="#009A5B"/>
<path d="M18.5442 17.4785L18.7857 17.7079C18.8509 17.7848 18.8792 17.8534 18.834 17.9684C19.1161 18.3181 19.7272 19.6697 19.9626 20.1047L19.9894 20.0125C19.9419 19.5919 19.777 19.6689 19.8146 19.2826C19.6766 19.2011 19.7188 18.971 19.6245 18.8598C19.5156 18.6053 19.4673 18.3547 19.2848 18.1299C19.2802 18.088 19.2012 18.0934 19.1721 18.0598C19.1744 17.7856 18.9344 17.33 18.8102 17.1052C18.7535 16.9414 18.6078 16.7098 18.5465 16.543C18.3747 16.0478 17.7767 15.3034 17.7606 15.0459C17.493 14.8478 17.4095 14.4151 17.217 14.1637C17.1242 13.9549 16.9709 13.7691 16.813 13.5877C16.7647 13.4674 16.6274 13.3866 16.5577 13.2761C16.5017 13.2129 16.494 13.1116 16.4173 13.0689C16.3491 13.0902 16.3207 13.0232 16.254 13.0445L16.0294 12.7085C15.9466 12.5851 15.8607 12.4487 15.712 12.4099C15.6361 12.3589 15.5747 12.4792 15.518 12.3779C15.4291 12.2484 15.413 12.0914 15.3233 11.9627C15.2742 11.9193 15.2512 12.0137 15.2029 11.9688C15.1791 11.8766 15.1914 11.8614 15.16 11.7745C15.0158 11.7684 14.9054 11.6777 14.805 11.5734C14.7176 11.5261 14.6478 11.3936 14.5489 11.4347C14.4224 11.4911 14.4462 11.3341 14.3672 11.2747C14.3565 11.2222 14.3304 11.1734 14.2959 11.13C14.233 11.1246 14.2507 11.0233 14.1732 11.0538C14.1318 10.9936 14.0912 11.0637 14.049 11.0675C13.9923 11.0065 14.0298 10.9106 14.0183 10.829C13.9777 10.8168 14.0122 10.7727 13.97 10.7605C13.9018 10.7795 13.8282 10.7711 13.7922 10.8527C13.6189 10.8687 13.5085 10.6988 13.4303 10.5601C13.372 10.5654 13.2999 10.5449 13.2608 10.5974C13.2056 10.6058 13.1129 10.6241 13.0983 10.5441C13.0653 10.4412 13.0002 10.3475 12.9189 10.279C12.8315 10.2074 12.7242 10.2081 12.6383 10.1517C12.5593 10.1022 12.5332 10.0344 12.4313 9.99709C12.3462 9.9689 12.2519 9.96509 12.1668 9.93918C11.9536 9.8729 11.7267 9.85081 11.5089 9.77843C11.4468 9.75329 11.433 9.74262 11.3686 9.7251C11.305 9.767 11.2352 9.80891 11.1517 9.77996C11.0589 9.71672 10.9469 9.69539 10.8749 9.58873L10.8273 9.75786L10.6571 9.77081C10.5506 9.77919 10.4655 9.83862 10.378 9.89576C10.2469 9.90033 10.1434 9.8409 10.0461 9.76396C9.9878 9.86833 9.87969 9.91709 9.79152 9.97956C9.76162 9.99937 9.71102 9.97118 9.69032 10.0116C9.62132 9.98337 9.59448 10.0611 9.52701 10.0337C9.50631 10.0885 9.40587 9.97652 9.40587 10.0504C9.40587 10.1495 9.19657 10.1959 9.19963 10.1373C9.15516 10.2249 9.19656 10.3117 9.11146 10.378C9.05856 10.3849 9.03326 10.3232 8.99492 10.2957C8.83622 10.2942 8.69821 10.3483 8.54564 10.3643L8.4981 10.471C8.40993 10.5167 8.4038 10.637 8.3601 10.717L8.32099 10.6949C8.27346 10.6881 8.23282 10.7033 8.20446 10.7323C8.11168 10.698 8.12855 10.8237 8.04958 10.8092C8.02428 10.8397 7.96525 10.8565 7.92691 10.8808C7.87707 10.8938 7.84717 10.9578 7.7935 10.9563C7.74597 10.9913 7.73063 11.0515 7.69307 11.1018C7.42165 11.4781 7.25758 11.3372 7.21925 11.309C7.23995 11.1719 7.40172 11.0843 7.47532 10.9768C7.56503 10.8466 7.67773 10.7963 7.78507 10.6942C7.82954 10.6508 7.84334 10.5898 7.89164 10.5494C7.94454 10.503 8.02045 10.487 8.07105 10.4367C8.10632 10.4032 8.11092 10.4009 8.15615 10.3635C8.34783 10.1936 8.61541 10.0756 8.66371 10.0085C8.71354 10.039 8.76875 9.98642 8.82395 9.99785L8.92362 9.95975C8.97652 9.85157 9.14213 9.79748 9.23183 9.7312C9.2694 9.77005 9.3177 9.78605 9.37597 9.77767C9.48944 9.73882 9.60905 9.76319 9.67345 9.65577C9.73402 9.58797 9.85899 9.59635 9.928 9.61692C9.94026 9.58111 9.9533 9.5453 9.99087 9.51788C10.0491 9.47216 10.1289 9.46683 10.2071 9.47216C10.2577 9.5293 10.352 9.49045 10.4095 9.53464C10.4662 9.53235 10.5306 9.54302 10.5705 9.49578C10.6142 9.45997 10.6142 9.4036 10.6334 9.35636C10.848 9.3716 11.0987 9.3076 11.2536 9.47216C11.5565 9.35027 11.9667 9.38988 12.2342 9.55825C12.5309 9.66263 12.8001 9.84167 13.0845 9.97194C13.1872 9.97652 13.2616 10.0489 13.3559 10.071C13.4755 10.1563 13.4663 10.2919 13.5744 10.3803C13.6204 10.3757 13.6741 10.3917 13.714 10.3643C14.3388 10.7193 14.9223 11.1772 15.4988 11.6488C16.1896 12.2354 17.3129 13.7218 17.7729 14.4486C17.8304 14.4905 17.917 14.5477 17.927 14.6246C17.9691 14.6574 18.019 14.7419 18.0289 14.7899C18.0872 14.8852 18.4621 15.4832 18.6308 15.7773C18.6783 15.8588 18.7466 15.9053 18.8501 15.9983C18.571 15.2242 18.0067 14.3961 17.5973 13.6715C17.1886 13.0651 16.8636 12.4297 16.3491 11.8697C16.2954 11.7654 16.1973 11.6838 16.1022 11.6092C16.0003 11.4995 15.9796 11.2922 15.7864 11.3075C15.7066 11.0363 15.4766 10.7864 15.2282 10.6241L15.1454 10.6081C15.1354 10.6287 15.1584 10.6355 15.1684 10.647C15.1661 10.6988 15.1791 10.7567 15.1216 10.7864C15.0181 10.7544 15.0112 10.6439 14.9184 10.5852C14.6877 10.4153 14.483 10.186 14.2453 10.0238C14.1931 9.93233 14.1126 9.86528 14.0444 9.78757C13.8566 9.68548 13.6611 9.60397 13.4809 9.48588C13.4333 9.41274 13.3252 9.35865 13.2785 9.26951C13.2202 9.26341 13.1466 9.29008 13.1006 9.2497C12.8361 9.21466 12.6528 8.9861 12.4267 8.85734C12.3324 8.86039 12.2818 8.75906 12.1813 8.7804C12.0809 8.70269 11.9222 8.76821 11.8072 8.72707C11.686 8.75602 11.6186 8.6524 11.5365 8.58841L11.499 8.62498C11.387 8.68821 11.2015 8.73926 11.0872 8.64098C10.9584 8.62802 10.776 8.58307 10.6955 8.73316C10.5881 8.72173 10.4931 8.69126 10.3995 8.64783C10.1342 8.65545 9.92493 8.75145 9.57992 8.79792C9.38824 8.91601 9.22187 8.91067 9.03019 9.02343C8.93512 9.076 8.82702 9.09428 8.74651 9.17885C8.66831 9.17123 8.57707 9.23904 8.52034 9.17123C8.5234 9.11333 8.59547 9.07676 8.60007 9.02038C8.73731 8.94877 8.87225 8.88553 8.97729 8.77049C9.12296 8.73849 9.23413 8.62421 9.38517 8.6006C9.38517 8.59984 9.38517 8.59984 9.38517 8.59984C9.40357 8.59374 9.42351 8.58765 9.44191 8.58307C9.52931 8.56403 9.61902 8.55489 9.70412 8.53279C10.5766 8.30652 11.2774 8.32709 11.8685 8.47108C12.1238 8.51451 12.3592 8.6006 12.5953 8.68745C13.293 8.99219 13.947 9.38836 14.5382 9.94756C14.7191 10.1022 15.0365 10.4214 15.0818 10.3849C15.1262 10.3498 14.969 10.2035 14.966 10.1076C14.9192 10.0344 14.9138 10.0116 14.8425 9.95518C14.7912 9.96356 14.7467 9.75405 14.7015 9.79672C14.4163 9.51483 14.151 9.27484 13.852 9.02419C13.3789 8.64098 12.8691 8.36061 12.3193 8.16405C12.0594 8.11758 11.8125 8.03758 11.5358 8.02616C11.4277 7.99416 11.3449 7.89588 11.2276 7.87988C11.0803 7.88216 10.9055 7.86083 10.7859 7.95606C10.6104 7.82883 10.3757 7.93397 10.1818 7.95606C10.1442 7.96292 10.0905 8.00558 10.0484 8.01854C9.9947 8.03454 9.93873 8.04368 9.88276 8.04901C9.77159 8.05739 9.65889 8.04215 9.55078 8.01168C9.55615 8.13129 9.3246 8.14424 9.24793 8.16634C9.22033 8.17396 9.14443 8.22348 9.14826 8.21662C8.96809 8.19757 8.85922 8.30119 8.73655 8.41013C8.64684 8.39947 8.51114 8.44213 8.53567 8.28519C8.5441 8.23338 8.58781 8.20672 8.62691 8.17624C8.64454 8.16177 8.67291 8.14881 8.68441 8.13129C8.69054 8.12672 8.71201 8.08482 8.70741 8.08939C8.71354 8.08558 8.92975 7.97359 8.92975 7.97359C9.06009 7.95987 9.19886 7.83188 9.31694 7.93473C9.3384 7.84102 9.43961 7.81893 9.51015 7.78998C9.62208 7.79836 9.70642 7.75341 9.77389 7.6658C9.95866 7.62389 10.1657 7.62694 10.3696 7.62694C10.4172 7.58199 10.4969 7.6178 10.5536 7.59647C10.5943 7.57133 10.6709 7.55456 10.6617 7.49666C10.7131 7.42733 10.6594 7.31686 10.7077 7.25134C10.6104 7.13097 10.5061 7.27649 10.3995 7.27344C10.3696 7.23915 10.3236 7.20792 10.3075 7.16602C10.0284 7.20411 9.76699 7.2742 9.48714 7.31153C9.44191 7.33972 9.37137 7.38467 9.34914 7.3062C9.21343 7.25211 9.13063 7.35877 9.03709 7.42733C9.00336 7.422 8.95505 7.44028 8.92975 7.4121C8.70434 7.58885 8.4176 7.6178 8.18759 7.78084L8.17225 7.75722C8.11475 7.76103 8.08102 7.69322 8.04038 7.67341L8.02811 7.68865C7.79044 7.84255 7.49526 7.85778 7.22768 7.94311L7.08967 8.02692C6.9256 8.13739 6.99767 8.36975 6.82669 8.44975H6.32987C6.26547 8.45356 6.27007 8.52822 6.21487 8.55793C6.2164 8.60669 6.21947 8.6585 6.18343 8.69507L5.88135 8.75602C5.76635 8.88477 5.64061 8.97619 5.51794 9.08743C5.21969 9.28018 4.95901 9.56435 4.66767 9.76548C4.61707 9.97042 4.39396 10.0146 4.24062 10.103C4.19155 10.1563 4.13711 10.2112 4.12561 10.2889C4.07961 10.33 4.16011 10.4519 4.05661 10.4412C3.98377 10.5342 3.9416 10.6393 3.91477 10.749C3.87183 10.7765 3.83273 10.8222 3.776 10.8268L2.56308 12.4289C2.58531 13.0125 2.03942 13.3622 1.92135 13.8909C1.55717 14.3184 1.37776 14.8219 1.13241 15.2981L0.585758 16.9132C0.548189 17.3833 0.481486 17.7376 0.506021 18.2351C0.535155 18.3692 0.571957 18.6122 0.606459 18.7341C0.673161 19.0228 0.903938 19.2423 1.12705 19.4662C1.46516 19.8502 1.91828 20.0513 2.42507 19.9371C2.70185 19.8251 2.98399 19.7276 3.23087 19.5508C3.44785 19.454 3.67863 19.3855 3.8565 19.1965C3.99757 19.0602 4.08728 18.9032 4.16548 18.744C4.30425 18.2617 4.53963 17.8191 4.7313 17.3605C4.90305 16.9437 5.21509 16.5856 5.4221 16.1826C5.4244 16.0935 5.4451 16.0097 5.452 15.9205C5.55014 15.7202 5.72648 15.5495 5.79932 15.3377C5.76328 15.2151 5.89669 15.1556 5.96186 15.0833C5.97336 15.0703 6.00019 15.0734 6.00786 15.0932C6.02703 15.0962 6.04466 15.1244 6.06153 15.1069C6.10446 14.9743 6.04083 14.8014 6.11673 14.684C6.27084 14.5881 6.36821 14.4303 6.47171 14.2902C6.55222 14.0601 6.72932 13.8658 6.8727 13.6616C7.02604 13.5862 7.01914 13.4095 7.11421 13.2921C7.52209 12.8998 7.95221 12.5226 8.35166 12.1379C8.45517 12.0594 8.57707 12.0267 8.67061 11.9223C8.74268 11.7836 8.90292 11.7433 9.01946 11.6526C9.67039 11.2793 11.075 10.7338 12.8392 11.4309C14.6079 12.1303 16.6121 13.9298 18.5442 17.4785Z" fill="#009A5B"/>
<path d="M17.4262 12.6484C17.4784 12.7559 17.5727 12.8656 17.611 12.9791C17.6233 13.0103 17.6424 13.12 17.5903 13.1284C17.5297 13.1391 17.4262 12.8991 17.4009 12.8602C17.2568 12.6241 17.1073 12.3886 16.9524 12.1593C16.6319 11.6809 16.28 11.2207 15.8944 10.7918L15.8568 10.7209L14.995 9.77013C14.5787 9.35416 14.1317 9.01208 13.7016 8.63115C13.618 8.57477 13.5268 8.52525 13.4463 8.46126C13.4624 8.41936 13.5092 8.38888 13.5391 8.3546C13.6502 8.37212 13.7453 8.30279 13.835 8.36374C14.9613 9.1355 16.717 11.2215 17.4262 12.6484Z" fill="#009A5B"/>
<path d="M22.3071 17.087C22.4267 17.212 22.5126 17.3628 22.6008 17.4999C22.5839 17.6142 22.7564 17.6607 22.797 17.7529C22.876 17.8793 22.945 18.0089 23.0086 18.1414C23.1144 18.3106 23.1742 18.501 23.3031 18.6633C23.3046 18.6945 23.3161 18.7227 23.3322 18.7486C23.3399 18.8751 23.4832 18.8934 23.5469 18.9962C23.5469 19.0237 23.5438 19.0526 23.5622 19.0709C23.5676 19.1021 23.5798 19.1478 23.5469 19.1699C23.747 19.416 23.8466 19.7055 23.9639 19.9866C23.9869 20.1055 24.0636 20.2007 24.0974 20.3158C24.1495 20.3622 24.1533 20.4285 24.1733 20.4895C24.1993 20.51 24.217 20.5481 24.2568 20.5352C24.2492 20.3927 24.1763 20.2761 24.1326 20.1459C24.1027 20.1131 24.0682 20.0804 24.082 20.027C24.0897 19.8952 23.9777 19.8099 23.957 19.6888C23.8535 19.5867 23.9233 19.4122 23.7669 19.3307C23.7692 19.2994 23.7692 19.272 23.747 19.2514C23.7692 19.1585 23.7217 19.109 23.6826 19.0404C23.6603 18.9955 23.6504 18.853 23.6496 18.7989C23.5814 18.7082 23.5461 18.5879 23.4702 18.5033C23.4763 18.4157 23.4326 18.3479 23.4073 18.2755C23.3713 18.2229 23.3084 18.1826 23.28 18.1262C23.1719 18.0218 23.2302 17.8969 23.1221 17.7955C23.1328 17.7544 23.0891 17.7369 23.073 17.7049C23.0109 17.5784 22.909 17.4542 22.8538 17.3415C22.7802 17.2356 22.705 17.1274 22.6314 17.0192C22.6391 16.9346 22.6092 16.8645 22.554 16.8051C22.4658 16.7914 22.4121 16.6931 22.3408 16.6352L22.3577 16.5857C22.3217 16.5636 22.3017 16.4958 22.2458 16.5202C22.2082 16.5065 22.2335 16.4638 22.2281 16.4371C22.0096 16.3145 21.9981 16.057 21.8057 15.9237C21.7658 15.8939 21.7881 15.8376 21.7627 15.7995C21.7788 15.7416 21.7175 15.7157 21.6861 15.676C21.6577 15.6692 21.6163 15.6936 21.601 15.6562C21.5542 15.6692 21.5565 15.6006 21.5113 15.606C21.5159 15.5724 21.4699 15.561 21.4844 15.5222C21.397 15.4734 21.3602 15.3614 21.2606 15.3233C21.2391 15.3264 21.2153 15.3614 21.2008 15.3233C21.1417 15.2944 21.0536 15.2349 21.0612 15.158C21.0559 15.0963 20.9891 15.1275 20.9508 15.1184C20.9017 15.0993 20.937 15.0475 20.9194 15.0148C20.9125 14.9934 20.8887 14.9652 20.8634 14.9652C20.8688 14.9195 20.8174 14.9492 20.7944 14.9401C20.6733 14.8951 20.6472 14.7504 20.5284 14.7016C20.5038 14.6933 20.4686 14.6917 20.4525 14.7214C20.4187 14.7542 20.3888 14.7283 20.362 14.6971C20.3007 14.6933 20.2516 14.6582 20.2086 14.6064C20.2048 14.5607 20.1373 14.5767 20.1067 14.547C20.0185 14.4571 19.8031 14.4876 19.7126 14.3923C19.6214 14.2971 19.4243 14.3664 19.3461 14.2316C19.3223 14.2887 19.3147 14.2285 19.2671 14.2346C19.2342 14.1965 19.1069 14.2293 19.1207 14.1622H19.0617L19.0532 14.2278L18.7266 14.2156C18.7128 14.2034 18.7044 14.1805 18.6814 14.1889C18.4805 13.8971 18.8355 14.0594 18.8355 14.0495C18.8355 14.0487 18.8355 13.9946 18.8355 13.9946C18.8807 14.003 18.8462 13.9542 18.883 13.9443C18.9973 14.003 19.1767 13.9055 19.2625 14.0304C19.3507 14.0076 19.3584 14.0609 19.455 14.0609C19.5516 14.0731 19.6582 14.0716 19.7387 14.1211C19.8958 14.1569 20.0154 14.2879 20.1818 14.3047L20.6349 14.5485C20.8527 14.7093 21.0881 14.8205 21.302 14.9911C21.2958 15.0201 21.3273 15.0315 21.3464 15.0414C21.5036 15.1229 21.6071 15.2715 21.7167 15.4086C21.8525 15.6364 22.1162 15.7134 22.2481 15.9412C22.3339 16.0867 22.4466 16.2162 22.5379 16.3564C22.6 16.4493 22.6368 16.5568 22.6958 16.6512C22.7633 16.7594 22.9274 16.7305 22.8484 16.8531C22.8929 16.8645 22.9235 16.8912 22.9358 16.972C22.9757 17.0862 23.0638 17.1853 23.0999 17.3003C23.2931 17.5761 23.54 18.1064 23.5921 18.0812C23.6442 18.0561 23.4978 17.679 23.3897 17.4961C23.3 17.2417 23.1313 17.0215 23.0079 16.7792L22.9994 16.719C22.9695 16.6794 22.9787 16.6238 22.935 16.5888C22.8798 16.3907 22.7073 16.2383 22.5946 16.0638C22.5409 15.9092 22.4029 15.7903 22.3638 15.6303C22.278 15.5122 22.222 15.3629 22.0894 15.2829C22.0863 15.19 21.9774 15.1427 21.9698 15.0536C21.9138 15.0475 21.8885 14.9515 21.8195 14.9942C21.8364 15.0361 21.7957 15.0521 21.7735 15.0788C21.647 14.9614 21.535 14.8426 21.3986 14.7496L21.3894 14.7214C21.2966 14.7047 21.2399 14.6034 21.164 14.5416C21.1517 14.5249 21.154 14.4914 21.1233 14.4959C21.0045 14.2841 20.7591 14.2887 20.5981 14.134C20.5268 14.1249 20.533 14.0289 20.4594 14.0243C20.2708 13.9855 20.1373 13.8148 19.9533 13.7661C19.8782 13.6823 19.7471 13.7348 19.6436 13.7196C19.616 13.696 19.5869 13.6693 19.593 13.635C19.5278 13.6731 19.4381 13.6472 19.3584 13.6556C19.33 13.6305 19.3016 13.6076 19.2625 13.6107C19.2342 13.5726 19.1782 13.6015 19.1529 13.5665C19.1146 13.5726 19.0655 13.5482 19.0425 13.5847L18.857 13.5459C18.5932 13.539 18.3149 13.5238 18.0857 13.6167C17.9546 13.619 17.8748 13.747 17.7207 13.6998C17.7061 13.6838 17.6885 13.667 17.667 13.6663C17.6341 13.6465 17.6149 13.6137 17.608 13.5794C17.6379 13.5192 17.7192 13.5093 17.792 13.5162C18.1409 13.2975 18.8018 13.2937 18.9996 13.3242C19.3354 13.341 19.6536 13.4301 19.9441 13.5543C20.043 13.6236 20.1596 13.6457 20.2547 13.7188C20.5644 13.8605 20.8366 14.0929 21.1141 14.3116C21.2176 14.4373 21.3395 14.5546 21.4599 14.6719H21.5044C21.5404 14.6354 21.5174 14.5714 21.5243 14.5195C21.5044 14.5058 21.4929 14.47 21.4645 14.4799C21.4476 14.4342 21.4009 14.4624 21.3687 14.4548C21.2782 14.355 21.1908 14.2552 21.1095 14.15C20.9884 14.0441 20.8741 13.9245 20.74 13.8484C20.7039 13.7965 20.6518 13.6937 20.5644 13.7188C20.3942 13.523 20.1665 13.4598 19.9633 13.3463L19.9334 13.2975L19.7233 13.2465C19.5662 13.2221 19.4297 13.1513 19.2587 13.1642C19.1659 13.0735 19.0203 13.1055 18.8938 13.0987C18.7972 13.1444 18.6638 13.0918 18.5717 13.1444C18.5089 13.1124 18.4376 13.1055 18.3716 13.0789C18.3785 13.1109 18.3655 13.136 18.3486 13.1573C18.2352 13.1589 18.1171 13.1703 18.0121 13.2031C18.0029 13.1985 17.9944 13.1939 17.9921 13.181C17.9814 13.2099 17.9523 13.1909 17.9316 13.197C17.9047 13.2404 17.8556 13.2191 17.8242 13.2457C17.7583 13.2061 17.7 13.1634 17.746 13.1101C17.8794 13.0781 18.0075 13.0362 18.1416 13.0065C18.203 12.9318 18.321 12.9905 18.3908 12.9372C18.456 12.9882 18.561 12.9433 18.6315 12.9775C18.7512 12.9966 18.8654 12.973 18.9766 12.9524C18.9858 12.9547 18.9927 12.9555 19.0034 12.9555C19.1115 12.96 19.2058 12.989 19.3147 12.989L19.3269 12.9836L19.5869 13.0469C19.6536 13.0606 19.7256 13.0583 19.7785 13.1025C19.859 13.1627 19.9786 13.1421 20.0599 13.2107C20.2654 13.2663 20.408 13.4743 20.628 13.4933V13.4179C20.6188 13.3371 20.5192 13.3219 20.4732 13.2495C20.3888 13.229 20.3329 13.1467 20.2478 13.1261C20.211 13.085 20.1588 13.0796 20.1143 13.0598C20.0499 13.0073 19.974 12.9798 19.9135 12.9174C19.8529 12.9684 19.7686 12.9615 19.6873 12.9615C19.6068 12.8922 19.5271 12.8183 19.4143 12.8267C19.3591 12.8084 19.2932 12.797 19.2733 12.7939C19.215 12.7856 19.1307 12.7627 19.0594 12.765C19.0341 12.7566 19.0034 12.7673 18.9773 12.7627C18.9597 12.813 18.9198 12.7505 18.8838 12.7627L18.8363 12.7368C18.7458 12.7444 18.5924 12.685 18.5119 12.7208C18.2022 12.7094 17.6732 12.8023 17.4255 12.8671C17.3872 12.8694 17.4493 12.8564 17.447 12.832L17.3834 12.896C17.3581 12.8922 17.3389 12.9029 17.3205 12.9181H16.9962C16.9019 12.9196 16.9149 13.0271 16.8612 13.0766C16.7846 13.1421 16.6772 13.133 16.5868 13.1619C16.4802 13.1314 16.3729 13.1474 16.2862 13.2046C16.277 13.2389 16.2517 13.2686 16.2203 13.2952C16.2019 13.2983 16.1888 13.2891 16.175 13.2754C16.0991 13.2785 16.0286 13.2952 15.9749 13.3592C15.9259 13.3661 15.9021 13.4415 15.8408 13.4286C15.7058 13.5307 15.5379 13.5436 15.4152 13.6678C15.2972 13.7417 15.1868 13.8339 15.0695 13.9162C15.0557 13.8796 15.0173 13.9047 14.9913 13.8971C14.9813 13.9047 14.9882 13.9306 14.9667 13.923V13.9405C14.9246 13.968 14.9184 14.0091 14.9169 14.051C14.8885 14.0457 14.8885 14.0807 14.8755 14.096C14.8517 14.1036 14.8349 14.1264 14.805 14.1203C14.7482 14.1455 14.7704 14.2034 14.7651 14.2499C14.6524 14.3641 14.5167 14.4266 14.3902 14.5127C14.2169 14.6117 14.0551 14.7275 13.8995 14.8662C13.865 14.9081 13.8397 14.9523 13.7952 14.9904C13.7132 15.0498 13.7454 15.1565 13.6587 15.2144C13.3528 15.5778 13.0139 15.9282 12.6536 16.2581C12.6229 16.3137 12.6084 16.3754 12.5578 16.4227C12.5202 16.5316 12.3753 16.5438 12.353 16.6604C12.1545 16.8805 12.0686 17.1632 11.8279 17.3476C11.6515 17.5441 11.5764 17.7818 11.4269 17.9891C11.3816 18.0165 11.341 18.0492 11.3172 18.098C11.1992 18.1658 11.17 18.306 11.1026 18.4119C10.996 18.4881 10.9968 18.6084 10.9024 18.69C10.8426 18.7928 10.7736 18.8873 10.7368 18.997C10.6456 19.0846 10.6456 19.2073 10.6027 19.3109C10.5413 19.3871 10.513 19.4731 10.5053 19.5691C10.447 19.6514 10.4578 19.7703 10.48 19.8838C10.4578 19.9272 10.4593 20.0103 10.4578 20.0819L10.4999 20.1276C10.4486 20.3066 10.5068 20.4879 10.5666 20.6441C10.5896 20.7066 10.5758 20.7813 10.6379 20.8285C10.7414 21.0525 10.9722 21.2521 11.1723 21.4045C11.2912 21.4921 11.4269 21.534 11.5626 21.5827C11.5541 21.6536 11.6377 21.5888 11.6569 21.6391C11.6975 21.6391 11.7573 21.662 11.7826 21.6185C11.9275 21.6132 12.0149 21.473 12.1583 21.4646C12.1644 21.4266 12.2112 21.4525 12.2388 21.4448C12.2833 21.4784 12.3446 21.4768 12.3929 21.5043C12.4036 21.4951 12.4105 21.4768 12.4289 21.4837V21.47C12.5156 21.3755 12.6275 21.3435 12.7149 21.2506C12.8951 21.1241 12.9994 20.9283 13.1228 20.7592V20.7089C13.1657 20.6929 13.1427 20.6495 13.1496 20.6197C13.1788 20.5916 13.2048 20.5603 13.2394 20.5443C13.4103 20.4293 13.4548 20.2548 13.5982 20.1283C13.661 20.1603 13.6702 20.056 13.73 20.0826C13.7569 19.9882 13.7699 19.8876 13.8351 19.8084C13.8588 19.723 13.9064 19.6453 13.9087 19.5501C13.9562 19.4823 14.0206 19.4221 14.0429 19.3459C14.1625 19.2134 14.2154 19.0579 14.2997 18.9132C14.5044 18.4926 14.7835 18.101 15.0265 17.695C15.1293 17.5929 15.2136 17.4786 15.2772 17.3567C15.7051 16.8219 16.1229 16.2505 16.6719 15.7957C16.8858 15.6684 17.0682 15.4696 17.2921 15.3728C17.4094 15.2905 17.5904 15.3027 17.6532 15.1389C17.7675 15.0658 17.8871 15.0026 18.0443 15.03C18.239 14.9927 18.39 14.838 18.6193 14.8746C18.6484 14.9119 18.6921 14.9172 18.7282 14.9401C18.7458 14.8944 18.8025 14.9462 18.8194 14.8944C18.9183 14.8654 18.9704 14.95 19.0686 14.921C19.0808 14.931 19.0916 14.9447 19.1092 14.9401C19.1506 14.8974 19.2265 14.9439 19.2648 14.8982L19.2748 14.921C19.297 14.937 19.3246 14.9439 19.3545 14.9401C19.3676 14.9858 19.4197 14.9447 19.4396 14.9789C19.4772 14.9721 19.4665 15.0102 19.4742 15.03C19.5777 15.0216 19.6451 15.0429 19.7364 15.0635C19.7923 15.1443 19.905 15.0925 19.9809 15.129C20.1251 15.1923 20.2669 15.3157 20.4111 15.382C20.5353 15.4338 20.6832 15.4254 20.7706 15.5663C21.417 15.9496 22.0664 16.7274 22.3071 17.087Z" fill="#009A5B"/>
<path d="M20.851 13.7356C20.9231 13.7927 20.9875 13.8659 21.0726 13.891C21.3478 14.2796 21.7657 14.6125 22.0885 14.9828C22.1743 15.1268 22.2709 15.2669 22.3637 15.4109C22.4404 15.3911 22.4281 15.4963 22.4925 15.5001C22.5331 15.593 22.5538 15.6921 22.5822 15.7896C22.6136 15.8018 22.6405 15.8216 22.6497 15.8543C22.6765 15.8703 22.7072 15.8802 22.7432 15.8833C22.7263 15.9488 22.7701 15.9915 22.7877 16.041C22.882 16.1812 22.9533 16.3183 23.0499 16.4539C23.0545 16.5309 23.1588 16.6985 23.2086 16.6741C23.2577 16.649 23.1603 16.5873 23.1588 16.5339C23.0852 16.4067 23.1036 16.2429 23.0085 16.1271C22.9847 16.022 22.892 15.9442 22.826 15.8566C22.8391 15.8231 22.8069 15.8048 22.8069 15.7736C22.7501 15.6844 22.675 15.6349 22.619 15.5389C22.6543 15.4437 22.5377 15.4117 22.5439 15.3287C22.5201 15.2974 22.4879 15.2304 22.4526 15.2304C22.057 14.6224 21.6377 14.2118 20.9637 13.6289H20.9453L20.9239 13.6091C20.8633 13.6091 20.7928 13.603 20.7483 13.6335C20.805 13.6609 20.7943 13.7295 20.851 13.7356Z" fill="#009A5B"/>
<path d="M16.2633 18.6555C16.2465 18.5443 15.9367 18.0765 15.9007 17.9736C15.8769 17.9394 15.8838 17.8906 15.8447 17.8601C15.8286 17.7893 15.7358 17.7497 15.7082 17.6826C15.7052 17.6643 15.7228 17.6262 15.6868 17.6308C15.6783 17.5866 15.6285 17.5615 15.6017 17.5264C15.5672 17.5097 15.535 17.464 15.5311 17.4152C15.492 17.4213 15.5204 17.3764 15.4874 17.3672C15.5173 17.3108 15.4307 17.3009 15.4399 17.2545C15.413 17.2316 14.9576 16.5345 14.2408 16.0637C14.2339 16.0644 14.0422 15.9662 14.0338 15.9646C13.9962 15.8999 13.8398 15.8328 13.7754 15.7978C13.6312 15.6721 13.4664 15.5974 13.2931 15.5448L13.2234 15.4763C13.1873 15.4801 13.1659 15.4473 13.136 15.4329C13.1199 15.4565 13.0946 15.4618 13.0754 15.4763C13.0225 15.4641 12.9427 15.5075 12.9121 15.4329C12.8354 15.4176 12.7825 15.3376 12.6851 15.3673C12.6736 15.3765 12.669 15.3925 12.6606 15.4047C12.5809 15.3788 12.5149 15.3483 12.4237 15.3452C12.403 15.3262 12.3854 15.3087 12.3539 15.3193C12.3095 15.3864 12.2627 15.298 12.2105 15.3026C12.1745 15.2942 12.1308 15.3049 12.1032 15.2751C12.0365 15.3155 11.9422 15.2911 11.8602 15.2972C11.808 15.3376 11.6846 15.2972 11.6194 15.3049C11.5635 15.3315 11.4968 15.333 11.4308 15.3315C11.2882 15.3719 11.1908 15.3521 11.0651 15.4313C11.0398 15.3963 10.9647 15.4184 10.9815 15.3711C10.9486 15.4222 10.898 15.4313 10.8489 15.4496C10.7722 15.4824 10.7293 15.4054 10.6495 15.4321C10.6189 15.4641 10.5713 15.445 10.5353 15.4641C10.5353 15.5296 10.4586 15.5799 10.4088 15.6104C10.247 15.6469 9.98099 15.5159 9.93269 15.7399C9.89128 15.7079 9.82688 15.7285 9.77551 15.7231C9.72184 15.7726 9.65284 15.7818 9.6007 15.8321C9.36379 15.9273 9.12152 16.0119 8.92678 16.2084C8.91528 16.1871 8.90378 16.1513 8.86697 16.1642C8.87464 16.2023 8.83094 16.1741 8.82251 16.2046C8.7673 16.1917 8.80027 16.2534 8.79184 16.2785C8.75964 16.3128 8.7259 16.3395 8.68297 16.3433C8.65767 16.3699 8.6247 16.3897 8.6385 16.4309C8.49512 16.552 8.34179 16.6488 8.17618 16.7158C8.03051 16.7775 7.91857 16.9192 7.78746 17.0122C7.77213 17.0945 7.71233 17.1569 7.64256 17.2042C7.44475 17.3924 7.25154 17.5942 7.04683 17.7695C6.95866 17.8655 6.80915 17.8921 6.76239 18.0194C6.72022 18.0795 6.67958 18.1405 6.61901 18.1938C6.54081 18.2281 6.51704 18.3226 6.45264 18.3805C6.3614 18.4864 6.28703 18.6007 6.19119 18.7066C5.91135 18.8825 5.85768 19.2094 5.58014 19.3854C5.48583 19.5057 5.4176 19.636 5.31792 19.7533C5.13698 19.9552 5.05265 20.1937 4.92001 20.4139V20.5259C4.89624 20.5701 4.88244 20.6104 4.92001 20.6592V20.7041L4.89624 20.7247V20.8367L4.92001 20.8809V21.1041C4.90621 21.2085 5.00971 21.2656 5.00664 21.3639C5.10402 21.5094 5.26042 21.6351 5.38616 21.7685C5.5303 21.8279 5.64377 21.9528 5.81091 21.9475C5.87685 22.0435 6.01102 21.9825 6.10762 21.9993L6.14903 21.9726C6.22646 21.9635 6.27553 21.8896 6.35373 21.8865C6.40204 21.8865 6.46951 21.8652 6.50707 21.9041C6.54848 21.8957 6.62361 21.9285 6.62361 21.8606C6.81375 21.7898 6.9947 21.6565 7.1189 21.4774C7.16644 21.4203 7.24004 21.3715 7.2224 21.2877C7.23621 21.2725 7.25844 21.2595 7.25001 21.2344C7.26227 21.2199 7.27684 21.2077 7.29754 21.2138C7.39875 21.1453 7.48232 21.0485 7.54365 20.9495C7.61035 20.8771 7.73916 20.89 7.76983 20.7841C7.78056 20.6638 7.93313 20.6021 7.8971 20.4634C8.0006 20.2828 8.18691 20.1381 8.26281 19.9446C8.37015 19.6932 8.58099 19.4837 8.72207 19.246C8.80027 19.1644 8.86851 19.0783 8.92678 18.99L9.41516 18.4391C9.59457 18.2296 9.79545 18.0643 9.99325 17.8693C10.3268 17.5554 10.7025 17.3428 11.0981 17.179C11.1586 17.0876 11.2667 17.1234 11.325 17.0328C11.5849 17.0815 11.7551 16.9147 11.9989 16.9238C12.3608 16.9116 13.2034 16.9444 13.829 17.3657L13.8781 17.4122C13.9847 17.5036 14.0966 17.5798 14.2101 17.6575C14.3052 17.6666 14.3619 17.7695 14.4539 17.787C14.4777 17.8243 14.5206 17.854 14.5252 17.8997L14.6502 18.0308L14.6778 18.0338C14.8641 18.1923 15.0489 18.3531 15.2267 18.5321C15.341 18.6723 15.502 18.7919 15.5296 18.9671C15.6852 19.0562 15.7343 19.2284 15.8393 19.3587C15.8332 19.4029 15.8838 19.4265 15.9106 19.4539C15.9129 19.5835 16.0801 19.6444 16.1115 19.7617C16.1161 19.8074 16.1084 19.8585 16.159 19.8836C16.1836 19.9491 16.271 19.9545 16.3024 20.0147C16.3415 20.0482 16.3392 20.1 16.3385 20.1488C16.4504 20.356 16.6053 20.5449 16.6927 20.7628C16.7003 20.8641 16.7724 20.9373 16.833 21.018V21.0607C16.8652 21.0767 16.8376 21.1178 16.8782 21.13C16.8713 21.1887 16.9357 21.162 16.9587 21.191L16.9242 21.0996C16.8721 21.05 16.905 20.9639 16.8284 20.9258C16.8261 20.9015 16.8353 20.8725 16.8146 20.8565C16.7885 20.6584 16.5999 20.5282 16.5838 20.3247C16.5662 20.2866 16.5018 20.3065 16.5133 20.2516C16.4734 20.2211 16.4987 20.1594 16.4903 20.1129C16.4972 20.0375 16.4082 20.0573 16.3837 19.9941C16.35 19.8692 16.1797 19.7991 16.2027 19.6474C16.1652 19.5987 16.1874 19.508 16.1054 19.4958C16.0893 19.4395 16.0218 19.4021 16.0111 19.3435C15.9068 19.23 15.8447 18.9763 15.7565 18.8582C15.7251 18.7987 15.6576 18.7546 15.6691 18.6791L15.446 18.4582C15.4138 18.4658 15.4207 18.4285 15.4207 18.4102C15.3456 18.3393 15.2758 18.267 15.2198 18.1877V18.1009C15.1815 18.1001 15.1347 18.1893 15.1071 18.1717C15.0558 18.1748 15.1347 18.0011 15.1248 17.9851C14.9684 17.966 14.9829 17.8837 14.8564 17.7984C14.8166 17.7367 14.6939 17.7344 14.7338 17.6346C14.6985 17.6179 14.7184 17.5729 14.6686 17.5904C14.651 17.5523 14.6264 17.5805 14.6065 17.5904C14.595 17.5843 14.598 17.5737 14.598 17.5622C14.5842 17.5264 14.5283 17.5379 14.5336 17.4982C14.4922 17.4762 14.526 17.4106 14.4677 17.4106C14.4608 17.3672 14.3535 17.339 14.3251 17.3017C14.2331 17.339 14.24 17.227 14.2354 17.1668C14.1917 17.1211 13.9602 17.0168 13.9211 16.968C13.826 16.9863 13.7639 16.859 13.6895 16.8202C13.6282 16.8133 13.5569 16.8126 13.5001 16.8392C13.4725 16.8126 13.4357 16.805 13.412 16.7684C13.4058 16.7029 13.3276 16.7181 13.2885 16.6861C13.2579 16.6709 13.208 16.7013 13.1866 16.6602L13.0278 16.6061C12.9857 16.5657 12.922 16.5779 12.8753 16.5452C12.8569 16.517 12.8438 16.4819 12.804 16.4758C12.7994 16.453 12.6882 16.5657 12.6928 16.5414L12.6031 16.4438C12.5847 16.4461 12.5709 16.4408 12.5579 16.4316C12.5004 16.4431 12.4774 16.3593 12.4268 16.3539C12.426 16.3669 12.4314 16.3852 12.4245 16.3966H12.1124L12.0917 16.4103C12.0695 16.4271 12.035 16.4248 12.0204 16.3966C12.0304 16.341 11.9184 16.4156 11.9491 16.4355C11.9223 16.4179 11.8433 16.4294 11.8126 16.4225C11.739 16.4111 11.713 16.4522 11.6417 16.4873C11.6256 16.4956 11.6018 16.5048 11.5926 16.5215C11.5826 16.5429 11.6087 16.5779 11.575 16.5901C11.575 16.629 11.5221 16.6084 11.5014 16.6061V16.5901C11.4699 16.5886 11.44 16.5794 11.4155 16.5642C11.2736 16.5345 11.1793 16.6153 11.0513 16.613C10.9892 16.7097 10.8489 16.7341 10.7485 16.7638C10.7147 16.7745 10.6948 16.8042 10.6541 16.8126C10.5077 16.8438 10.3544 16.9284 10.2294 17.0236C10.1903 17.051 10.1681 17.1074 10.1228 17.1188C10.1021 17.1242 10.0807 17.1211 10.0646 17.128C10.0623 17.128 10.0086 17.1493 10.0163 17.1501C9.98482 17.144 9.93575 17.1516 9.91045 17.1668C9.88745 17.1653 9.86292 17.1577 9.84605 17.1402L9.86215 17.1234C9.90968 17.1181 9.87902 17.048 9.88822 17.0107C9.90585 16.9893 9.93728 16.9741 9.94035 16.9451C9.99785 16.9086 9.99325 16.7851 10.1021 16.8293C10.178 16.8126 10.257 16.8065 10.3122 16.741C10.4172 16.7036 10.4954 16.5954 10.5951 16.5459C10.6419 16.5231 10.947 16.4606 10.924 16.3859C10.9631 16.4057 10.9746 16.3509 11.0122 16.3638C11.0321 16.3936 11.0728 16.4027 11.0827 16.4286C11.1203 16.4446 11.131 16.3996 11.1648 16.4065C11.1809 16.3852 11.2169 16.3699 11.2131 16.341C11.2514 16.3364 11.2874 16.3456 11.3189 16.3631C11.325 16.4179 11.3603 16.3509 11.3879 16.3631V16.3501C11.3879 16.3364 11.4032 16.341 11.4109 16.341C11.4239 16.2153 11.5619 16.2945 11.6378 16.2717C11.6217 16.2412 11.6723 16.2366 11.6631 16.2061H11.7743C11.8057 16.2427 11.8609 16.2229 11.9039 16.2275C11.9177 16.2016 11.9453 16.2077 11.9698 16.2061C11.9997 16.1665 12.0641 16.1917 12.1101 16.1848C12.1316 16.2 12.1852 16.1665 12.2013 16.1376L12.4935 16.1673C12.5402 16.2206 12.6299 16.1711 12.6851 16.2115C12.8538 16.2122 13.0056 16.2572 13.1475 16.328L13.2387 16.3928C13.2977 16.4156 13.3652 16.4179 13.4143 16.4583C13.6696 16.5139 13.872 16.6998 14.0989 16.8194C14.2262 16.9307 14.3358 16.9733 14.4585 17.0891C14.5904 17.2026 14.7223 17.3299 14.825 17.4602C15.0634 17.6605 15.3011 17.8967 15.4867 18.1382C15.5587 18.2304 15.5871 18.2449 15.6247 18.3211C15.6339 18.35 15.7021 18.5153 15.7604 18.5283C15.8133 18.6479 15.9145 18.7805 15.9796 18.8978C16.1015 19.0502 16.1705 19.2604 16.3078 19.3938C16.3078 19.2734 16.1728 19.0524 16.1353 18.8833C16.1176 18.8323 16.044 18.8041 16.0617 18.737C15.9543 18.6365 15.9244 18.5069 15.8156 18.4071C15.8263 18.3706 15.7995 18.35 15.7956 18.3195C15.7573 18.251 15.6929 18.1938 15.6806 18.1154C15.6208 18.0072 15.4859 17.9302 15.4445 17.8144C15.2904 17.6453 15.1968 17.4525 15.0788 17.2682L15.0473 17.2552C14.9339 17.1996 14.8104 17.0046 14.7974 17.0175C14.7345 16.9863 14.6916 16.9192 14.6402 16.8705C14.503 16.7631 14.4156 16.6533 14.2814 16.5436C14.2615 16.4713 14.181 16.4629 14.1327 16.4233C14.0054 16.3364 13.8536 16.3181 13.7516 16.1833C13.701 16.1879 13.6627 16.1741 13.6297 16.1414C13.5538 16.1284 13.5024 16.0591 13.4265 16.0477C13.3637 15.9921 13.2855 15.9715 13.2096 15.9509C13.1482 15.8854 13.0961 15.9806 13.0194 15.9471C12.9903 15.9243 12.9611 15.8945 12.9519 15.8587C12.9343 15.8839 12.9136 15.8702 12.8967 15.8587C12.8116 15.8633 12.7419 15.8351 12.6813 15.7864C12.6146 15.7963 12.5272 15.7498 12.4866 15.8206L12.4766 15.8031L12.3026 15.8008C12.2266 15.7422 12.1454 15.797 12.0595 15.778C11.9713 15.794 11.8732 15.7924 11.7827 15.8077C11.611 15.7932 11.4975 15.8679 11.3127 15.8915C11.2537 15.8983 11.1901 15.8808 11.1195 15.9083C11.0383 15.7673 11.1149 15.8184 11.1402 15.7521C11.1632 15.6919 11.1303 15.8008 11.141 15.7376H11.1801C11.2805 15.7376 11.3526 15.669 11.4477 15.6561C11.5435 15.5768 11.6892 15.6127 11.7958 15.5601C11.8556 15.6058 11.9537 15.5601 12.0143 15.5982C12.1438 15.5959 12.2957 15.6241 12.4091 15.5654C12.4605 15.5692 12.5349 15.5845 12.5962 15.5814V15.6035C12.6821 15.5951 12.758 15.6134 12.8323 15.6401C12.9381 15.6568 13.047 15.6713 13.1352 15.7376C13.2249 15.7178 13.2885 15.7681 13.3606 15.7947C13.3966 15.8161 13.4265 15.8595 13.471 15.8595C13.5515 15.938 13.6558 15.9593 13.7554 15.9997C13.7968 16.0324 13.8459 16.0614 13.8942 16.0827C13.8804 16.0903 13.9487 16.0957 13.9356 16.101C13.9402 16.1635 14.0223 16.1452 14.0238 16.2061C14.0813 16.181 14.0959 16.2503 14.1327 16.2717C14.2047 16.2602 14.2392 16.3181 14.273 16.3677C14.4416 16.5162 14.5168 16.5673 14.687 16.712C14.8633 16.9208 15.1263 17.0929 15.2651 17.3192H15.3095C15.4238 17.3992 15.4176 17.5272 15.469 17.6323C15.5311 17.6179 15.5518 17.6925 15.6024 17.7024C15.6124 17.8479 15.8117 17.9714 15.8455 18.107C15.9068 18.1702 16.0571 18.4399 16.1828 18.6525C16.225 18.7302 16.2748 18.7271 16.2633 18.6555Z" fill="#009A5B"/>
</g>
<defs>
<clipPath id="clip0_944_20400">
<rect width="24" height="19" fill="white" transform="translate(0.5 5)"/>
</clipPath>
</defs>
</svg>
