<svg width="25" height="24" viewBox="0 0 25 24" fill="none" xmlns="http://www.w3.org/2000/svg">
<g clip-path="url(#clip0_944_19246)">
<path d="M0.5 19.8629L8.18129 7.65845L9.26097 9.53158L3.11042 19.23C3.11042 19.23 0.901879 19.6596 0.5 19.8629Z" fill="#00974A"/>
<path d="M12.1725 6.1145L3.98853 19.0776C3.98853 19.0776 5.3945 18.9506 5.64523 18.976L12.9246 7.55687L12.1725 6.1145Z" fill="#00974A"/>
<path d="M15.2592 5L6.64941 18.7993C6.64941 18.7993 13.4526 18.4955 16.9411 19.103C16.9411 19.103 24.0454 20.1158 22.162 22.318C22.162 22.318 21.3582 23.2038 18.5475 23.8366C18.5475 23.8366 23.6675 23.5837 24.3957 21.1286C24.3957 21.1286 24.6968 20.3687 24.2697 19.7104L15.2592 5Z" fill="#00974A"/>
<path d="M2.7626 21.206H3.38042C3.65514 21.206 4.08821 21.2834 4.08821 22.2502C4.08821 22.7875 3.91186 23.3489 3.38881 23.3489H2.7626V21.206ZM2.13159 23.914H3.46679C4.48409 23.914 4.74561 22.9024 4.74561 22.2006C4.74561 21.5811 4.53087 20.6421 3.49198 20.6421H2.13159V23.914Z" fill="#00974A"/>
<path d="M6.27857 21.379H6.28696L6.66965 22.6725H5.88388L6.27857 21.379ZM5.71234 23.2388H6.84959L7.04634 23.914H7.74573L6.66005 20.6421H5.91747L4.8186 23.914H5.4964L5.71234 23.2388Z" fill="#00974A"/>
<path d="M10.4246 21.2205H8.78946V21.9078H10.2914V22.4874H8.78946V23.3344H10.4977V23.914H8.15845V20.6409H10.4246V21.2205Z" fill="#00974A"/>
<path d="M12.4675 22.1498H13.7548V23.914H13.3253L13.2617 23.5038C13.0985 23.7047 12.8622 24.0012 12.2996 24.0012C11.557 24.0012 10.8828 23.4361 10.8828 22.2877C10.8828 21.3947 11.3507 20.5513 12.3896 20.5562C13.3337 20.5562 13.7068 21.2072 13.7416 21.6597H13.0973C13.0973 21.5315 12.879 21.1213 12.4232 21.1213C11.9637 21.1213 11.539 21.4589 11.539 22.2974C11.539 23.1904 11.9985 23.4228 12.4363 23.4228C12.5779 23.4228 13.0506 23.3635 13.1837 22.7028H12.4663V22.1498H12.4675Z" fill="#00974A"/>
<path d="M16.8294 22.7693C16.8294 23.6309 16.34 23.9999 15.5626 23.9999C15.2795 23.9999 14.8584 23.9273 14.5837 23.603C14.4169 23.4022 14.3509 23.1384 14.3438 22.8092V20.6396H15V22.7633C15 23.2194 15.2495 23.4203 15.5494 23.4203C15.9909 23.4203 16.172 23.1928 16.172 22.7959V20.6409H16.8282V22.7693H16.8294Z" fill="#00974A"/>
</g>
<defs>
<clipPath id="clip0_944_19246">
<rect width="24" height="19" fill="white" transform="translate(0.5 5)"/>
</clipPath>
</defs>
</svg>
