<svg width="24" height="24" viewBox="0 0 24 24" fill="none" xmlns="http://www.w3.org/2000/svg">
<g clip-path="url(#clip0_939_4655)">
<path d="M23.7754 11.2732C23.7754 10.6805 24.0269 10.669 23.9658 10.0801C23.9046 9.49118 24.0473 9.47206 23.9862 8.87932C23.925 8.29041 23.8332 8.30188 23.772 7.71297C23.7108 7.12406 23.9692 6.89079 23.653 6.41278C23.4864 6.16422 23.3063 6.88697 23.0479 6.99404L23.0309 7.06288C23.0377 7.05141 23.0445 7.03993 23.0479 7.02846C23.0479 7.02846 24.0915 14.1336 13.9476 19.4491C13.9408 19.4529 13.9306 19.4568 13.9238 19.4606C14.121 19.5562 14.1278 19.7436 14.4133 19.7971C14.7465 19.8621 14.8179 19.4912 15.151 19.5524C15.4842 19.6174 15.474 19.6786 15.8071 19.7436C16.2558 19.8315 16.215 20.0992 16.6638 20.191C17.1125 20.2828 17.1091 20.2942 17.5612 20.386C18.0099 20.4778 18.0201 20.4128 18.4689 20.5046C18.8938 20.5925 18.8836 20.7187 19.3663 20.7225C19.9204 20.7264 19.9 20.4243 20.4473 20.3401C20.9947 20.256 20.9981 20.2751 21.5454 20.191C22.0927 20.1069 22.1063 20.0151 22.6604 20.0342C23.2417 20.0533 23.3233 20.3784 23.7822 20.0342C23.9896 19.8774 23.8978 19.6327 23.8196 19.365C23.7414 19.0973 23.6224 19.0935 23.5442 18.8258C23.466 18.5581 23.619 18.5428 23.5408 18.2751C23.4626 18.0074 23.449 17.843 23.432 17.56C23.4117 17.2044 23.2893 17.2809 23.3335 16.929C23.3777 16.5772 23.1975 16.7646 23.2417 16.4128C23.2859 16.061 23.3369 16.061 23.3811 15.7091C23.4252 15.3573 23.6122 15.3917 23.6564 15.0399C23.7176 14.5734 23.3233 14.5046 23.3845 14.038C23.4456 13.5715 23.5782 13.5944 23.6428 13.1241C23.704 12.6575 23.6224 12.6422 23.687 12.1757C23.7516 11.713 23.7754 11.7474 23.7754 11.2732Z" fill="#009C7C"/>
<path d="M22.5143 7.16627C22.2559 7.27716 22.1336 6.91388 21.8752 7.02477C21.6168 7.13567 21.6916 7.29246 21.4163 7.31541C21.0797 7.34217 21.0389 7.15862 20.7092 7.09361C20.3761 7.0286 20.3965 7.36894 20.0633 7.30393C19.7302 7.23892 19.7302 7.33453 19.397 7.27334C19.0639 7.20833 19.0843 7.06684 18.7545 7.00183C18.3058 6.91388 18.3194 6.82592 17.8707 6.73032C17.4219 6.63854 17.3778 6.91388 16.929 6.81827C16.4803 6.7265 16.5143 6.50852 16.0656 6.41674C15.6168 6.32497 15.6338 5.99992 15.1783 5.99609C14.6242 5.99609 14.6174 6.18347 14.0701 6.2676C13.5228 6.35173 13.5466 6.55824 12.9993 6.64237C12.452 6.7265 12.435 6.60795 11.8877 6.6959C11.3404 6.78003 11.4831 6.14523 11.031 6.50852C10.81 6.68443 10.8848 7.15479 10.963 7.44925C11.0412 7.73988 11.1058 7.72076 11.184 8.01139C11.2622 8.30202 11.0684 8.36703 11.1466 8.66149C11.2248 8.95212 11.4389 8.89858 11.4525 9.20451C11.4729 9.56015 11.3098 9.41866 11.2656 9.77047C11.2214 10.1223 11.116 10.237 11.0718 10.5888C11.0276 10.9406 11.1772 10.9636 11.133 11.3192C11.0888 11.671 11.0752 11.671 11.031 12.0229C10.9698 12.4894 11.1772 12.5238 11.116 12.9942C11.0548 13.4607 10.8032 13.3689 10.7387 13.8355C10.6775 14.302 10.9086 14.3938 10.8474 14.8603C10.7863 15.3269 10.7183 15.2963 10.7183 15.7666C10.7183 16.2944 10.7421 16.3211 10.793 16.7724C11.7211 15.5257 12.4622 14.6997 12.4622 14.6997C12.4622 14.6997 14.6548 11.9731 20.2401 9.49514C20.2503 9.49131 20.2605 9.48367 20.2707 9.47984C20.2707 9.47984 22.3001 8.56206 23.0242 7.06684L23.0412 6.99801C22.7149 7.05919 22.5143 7.16627 22.5143 7.16627Z" fill="#FABE00"/>
<path d="M7.53994 22.5468C7.7847 21.8088 8.12465 21.0593 8.51218 20.3289C8.49179 20.3289 8.47139 20.3289 8.45099 20.3289C3.78357 20.3289 0 21.151 0 22.1644C0 23.1778 3.78357 24 8.45099 24C13.1184 24 16.902 23.1778 16.902 22.1644C16.902 21.3537 14.4748 20.6654 11.1127 20.4206C10.8442 20.4971 10.6708 20.543 10.6708 20.543C8.90652 21.0287 7.53994 22.5468 7.53994 22.5468Z" fill="#004998"/>
</g>
<defs>
<clipPath id="clip0_939_4655">
<rect width="24" height="18" fill="white" transform="translate(0 6)"/>
</clipPath>
</defs>
</svg>
