<svg width="24" height="24" viewBox="0 0 24 24" fill="none" xmlns="http://www.w3.org/2000/svg">
<g clip-path="url(#clip0_939_4699)">
<path d="M0 15.9274C0.137773 16.0053 6.60758 11.8079 11.8429 11.4615C15.5738 11.1714 14.4413 13.3574 14.1851 13.8193C13.8269 14.4772 11.9228 16.6417 11.9228 16.6417C11.9228 16.6417 9.34374 19.6575 13.8269 19.1929C12.9534 19.5984 11.4462 20.6619 9.79839 20.1597C8.19196 19.6763 9.56142 17.7052 9.89759 16.6605C10.2145 15.5971 10.7904 13.9348 7.12009 13.8757C3.90723 14.3618 0 15.9274 0 15.9274Z" fill="#005CAC"/>
<path d="M14.4827 18.8278C14.7417 18.6532 20.5943 16.0429 23.3304 17.861C25.8902 20.047 20.2746 22.9661 20.5722 22.8694C19.6602 23.334 14.7995 25.4421 14.8188 22.3484C15.0778 20.9171 17.2794 20.4149 18.073 19.7757C19.6409 18.8278 19.1835 17.3964 14.4827 18.8278Z" fill="#00A2E3"/>
<path d="M13.6699 8C14.3836 8 14.9595 8.56126 14.9595 9.2568C14.9595 9.93353 14.3836 10.4948 13.6699 10.4948C12.9755 10.4948 12.3997 9.93353 12.3997 9.2568C12.3997 8.56126 12.9755 8 13.6699 8Z" fill="#95BF4D"/>
</g>
<defs>
<clipPath id="clip0_939_4699">
<rect width="24" height="16" fill="white" transform="translate(0 8)"/>
</clipPath>
</defs>
</svg>
