<svg width="25" height="24" viewBox="0 0 25 24" fill="none" xmlns="http://www.w3.org/2000/svg">
<g clip-path="url(#clip0_944_9997)">
<path d="M9.48913 15.4464C7.85842 14.2884 6.42178 17.2422 3.8989 16.7008C-0.370585 15.7734 1.33829 9.9462 6.13068 10.3911C7.97433 10.5654 9.66164 11.7233 10.5942 13.034C12.0875 15.9288 11.4082 17.2422 10.322 19.2284C10.2843 19.2874 10.6724 17.1833 10.2061 16.3523C10.012 15.9851 9.89613 15.7358 9.48913 15.4464Z" fill="#3F5AA0" stroke="#3F5AA0" stroke-width="1.0613" stroke-miterlimit="10"/>
<path d="M10.7694 19.0731L10.5942 19.1884C10.5942 19.1884 12.1279 17.1995 12.0497 14.6531C12.0497 14.6531 11.7398 11.8173 14.3974 10.2519C14.3974 10.2519 15.5241 9.51751 16.9392 9.67297C16.9419 9.67565 16.2815 14.6558 10.7694 19.0731Z" fill="#79BAA6" stroke="#79BAA6" stroke-width="1.0613" stroke-miterlimit="10"/>
<path d="M11.1953 19.1511L10.9419 19.21C10.9419 19.21 11.4271 18.9795 13.5995 17.0282C13.5995 17.0282 15.0739 15.4468 15.772 14.0744C15.772 14.0744 18.3138 8.72969 23.4566 9.88762C23.0334 10.6596 19.5402 16.0257 11.1953 19.1511Z" fill="#FDD000" stroke="#FDD000" stroke-width="1.0613" stroke-miterlimit="10"/>
<path d="M9.60492 19.6736C10.303 20.5796 11.6615 19.0759 12.9822 19.829C15.214 21.1022 13.3515 24.2303 10.7693 23.1098C9.78012 22.6863 8.76935 21.9519 8.49981 20.6385C8.30575 18.9016 8.80978 18.1297 9.62648 17.5132C9.66422 17.4944 9.27608 18.5559 9.37312 19.0759C9.41085 19.3064 9.42972 19.4592 9.60492 19.6736Z" fill="#62B29A" stroke="#62B29A" stroke-width="1.0613" stroke-miterlimit="10"/>
</g>
<defs>
<clipPath id="clip0_944_9997">
<rect width="24" height="15" fill="white" transform="translate(0.5 9)"/>
</clipPath>
</defs>
</svg>
