<svg width="24" height="24" viewBox="0 0 24 24" fill="none" xmlns="http://www.w3.org/2000/svg">
<g clip-path="url(#clip0_944_15235)">
<path d="M7.12263 22.5839C8.24401 22.5839 9.04433 21.7927 9.04433 20.7301V18.2349H8.02446V20.6786C8.02446 21.3012 7.70103 21.657 7.12263 21.657C6.5277 21.657 6.2208 21.3035 6.2208 20.6786V18.2349H5.20093V20.7301C5.20093 21.7927 6.00124 22.5839 7.12263 22.5839Z" fill="#0062B1"/>
<path d="M10.7417 20.1566C10.7417 19.3982 11.1501 19.0284 11.7285 19.0284C12.3234 19.0284 12.5784 19.3491 12.5784 19.9553V22.4996H13.5983V19.9202C13.5983 18.8575 12.8853 18.0991 11.7805 18.0991C11.4075 18.0991 10.9825 18.2677 10.7441 18.5204V18.2349H9.74072V20.4422V22.4973H10.7441V20.1566H10.7417Z" fill="#0062B1"/>
<path d="M21.7242 18.05C20.4659 18.05 19.446 19.0612 19.446 20.3088C19.446 21.5564 20.4659 22.584 21.7242 22.584C22.9825 22.584 24.0024 21.5564 24.0024 20.3088C24.0024 19.0612 22.9802 18.05 21.7242 18.05Z" fill="#5CB531"/>
<path d="M24.0001 23.3586H17.7959V24H24.0001V23.3586Z" fill="#5CB531"/>
<path d="M2.32776 22.6352C3.51761 22.6352 4.554 21.6919 4.62247 20.3437C4.62247 20.2267 4.62247 20.1237 4.62247 20.023H2.34665V20.8142H3.55302C3.38304 21.3198 2.90616 21.6405 2.34665 21.6405C1.59827 21.6405 1.00334 21.0506 1.00334 20.3086C1.00334 19.5666 1.59827 18.9767 2.34665 18.9767C2.84005 18.9767 3.28153 19.2459 3.50344 19.6345L4.36986 19.1289C3.96144 18.4548 3.21306 17.9819 2.34665 17.9819C1.05292 17.9819 0 19.0282 0 20.3086C0 21.589 1.0364 22.6352 2.32776 22.6352Z" fill="#0062B1"/>
<path d="M18.9361 18.6913C18.9361 17.006 17.8997 15.5571 16.3864 15C14.9746 15.6905 13.9902 17.0388 13.9902 18.5064C13.9902 19.5339 14.3821 20.4445 15.0266 21.1514L15.3996 20.8143C14.9581 20.2759 14.6866 19.5667 14.6866 18.8083C14.6866 17.6122 15.3996 16.5847 16.3864 16.044C17.3378 16.5495 17.9681 17.5443 17.9681 18.6889C17.9681 19.6159 17.5432 20.4421 16.8798 20.9969V18.2349H15.893V23.6793H0V24H16.8798V22.1625V22.1462C18.1027 21.472 18.9361 20.173 18.9361 18.6913Z" fill="#5CB531"/>
<path d="M21.7241 19.012C20.9923 19.012 20.4163 19.6018 20.4163 20.3087C20.4163 21.0343 20.9947 21.6242 21.7241 21.6242C22.4536 21.6242 23.032 21.0343 23.032 20.3087C23.032 19.6018 22.4536 19.012 21.7241 19.012Z" fill="white"/>
</g>
<defs>
<clipPath id="clip0_944_15235">
<rect width="24" height="9" fill="white" transform="translate(0 15)"/>
</clipPath>
</defs>
</svg>
