<svg width="24" height="24" viewBox="0 0 24 24" fill="none" xmlns="http://www.w3.org/2000/svg">
<path d="M19.0198 4.99805C20.2642 5.77041 21.347 6.78135 22.1633 7.91753L16.6728 10.7744C16.4064 10.2585 16.0407 9.78731 15.6326 9.39964L19.0198 4.99805Z" fill="#E60819"/>
<path d="M14.5922 3.2356C15.9585 3.51591 17.2453 3.96621 18.3876 4.61035L15.1223 8.94633C14.6517 8.60339 14.1217 8.32307 13.5718 8.15309L14.5922 3.2356Z" fill="#E60819"/>
<path d="M17.3672 13.2405C17.3473 12.5754 17.2028 11.9522 16.959 11.3737L22.5912 8.56152C23.4472 9.95715 23.9574 11.5466 24 13.2434H17.3672V13.2405Z" fill="#E60819"/>
<path d="M6.67258 13.8638C6.83698 16.828 9.1613 19.166 12.0185 19.166C14.8757 19.166 17.2227 16.825 17.3644 13.8638H23.9973C23.7932 19.4672 18.4869 23.997 11.9958 23.997C5.52742 23.997 0.221176 19.4672 0.0170898 13.8638H6.67258Z" fill="#00A73D"/>
<path d="M7.06082 11.4394C6.8369 11.9971 6.71501 12.5995 6.67249 13.2436H0C0.0623598 11.5915 0.5499 10.0438 1.36625 8.64819L7.06082 11.4394Z" fill="#E60819"/>
<path d="M8.46983 9.33379C8.02197 9.76321 7.63364 10.2582 7.34735 10.8159L1.77466 8.02464C2.591 6.8646 3.65112 5.85665 4.89832 5.03955L8.46983 9.33379Z" fill="#E60819"/>
<path d="M10.5304 8.13209C9.98049 8.30506 9.4476 8.58239 8.9799 8.92533L5.53027 4.65197C6.69243 4.00784 7.97931 3.51281 9.36823 3.25635L10.5304 8.13209Z" fill="#E60819"/>
<path d="M12.0013 3C12.6532 3 13.2881 3.04175 13.9004 3.12823L12.9196 8.00099C12.6334 7.93539 12.3272 7.91451 12.0211 7.91451C11.7348 7.91451 11.4485 7.93539 11.1651 7.98012L10.0823 3.12823C10.6945 3.04175 11.3465 3 12.0013 3Z" fill="#E60819"/>
<path d="M10.3063 10.151L10.7768 9.61426L14.6544 9.67688L11.8171 13.2196L12.7751 13.1988L13.0416 12.8349H16.6953L10.9582 16.828L13.8154 16.8488L13.3279 17.3648L9.4077 17.3856L12.2252 13.8429L11.3465 13.8011L11.1623 14.1232L7.4292 14.0993L13.1436 10.1928L10.3063 10.151Z" fill="#1C2288"/>
</svg>
