<svg width="25" height="24" viewBox="0 0 25 24" fill="none" xmlns="http://www.w3.org/2000/svg">
<g clip-path="url(#clip0_944_14762)">
<path d="M7.55212 21.2355C7.83225 20.6942 12.4544 17.0425 9.45114 10.8763C10.5065 11.3936 14.1189 17.9811 5.95603 23.4553C5.95603 23.4553 5.25244 23.9965 6.11889 23.8492C6.11889 23.8492 10.5977 21.9514 12.1222 18.2243C13.6954 15.4153 13.0863 5.22747 1.5 4.16895C1.5 4.16895 2.55537 5.47754 2.67264 6.53606C2.67264 6.53606 3.11889 9.00252 3.1873 9.42045C3.1873 9.42045 3.46743 11.1949 5.20358 12.6748C5.13192 12.6988 6.42182 13.7367 6.49349 14.1547C6.49349 14.1547 6.82248 14.5726 6.25896 16.3505C6.25896 16.3505 5.83551 17.9537 6.70521 19.1116C7.0342 19.6323 7.52606 20.2249 7.55212 21.2355Z" fill="#4FB278"/>
<path d="M13.6956 0C14.2591 0 14.7054 0.469312 14.7054 1.06195C14.7054 1.6306 14.2591 2.09649 13.6956 2.09649C13.1549 2.09649 12.7119 1.62718 12.7119 1.06195C12.7119 0.469312 13.1549 0 13.6956 0Z" fill="#EE780C"/>
<path d="M12.6174 3.2063C13.0865 3.2063 13.4611 3.60025 13.4611 4.09354C13.4611 4.58683 13.0865 4.98078 12.6174 4.98078C12.1484 4.98078 11.751 4.58683 11.751 4.09354C11.751 3.60025 12.1484 3.2063 12.6174 3.2063Z" fill="#EE780C"/>
<path d="M10.6695 5.89551C11.0441 5.89551 11.3731 6.21752 11.3731 6.63545C11.3731 7.05337 11.0441 7.37538 10.6695 7.37538C10.2721 7.37538 9.94312 7.05337 9.94312 6.63545C9.94312 6.21409 10.2721 5.89551 10.6695 5.89551Z" fill="#EE780C"/>
<path d="M7.90385 9.24923C8.21507 9.24923 8.46737 8.9839 8.46737 8.6566C8.46737 8.3293 8.21507 8.06396 7.90385 8.06396C7.59263 8.06396 7.34033 8.3293 7.34033 8.6566C7.34033 8.9839 7.59263 9.24923 7.90385 9.24923Z" fill="#EE780C"/>
<path d="M5.08971 9.07788C5.32424 9.07788 5.53597 9.27657 5.53597 9.52321C5.53597 9.76986 5.32424 9.96854 5.08971 9.96854C4.85518 9.96854 4.66626 9.76986 4.66626 9.52321C4.66626 9.27314 4.85518 9.07788 5.08971 9.07788Z" fill="#EE780C"/>
<path d="M23.4999 4.29224C22.5846 4.29224 17.122 4.78553 14.0015 9.02647C14.0243 9.02647 15.9005 13.9594 12.9233 18.8683C12.9233 18.8683 13.9331 21.8281 18.6237 23.9999C18.6237 23.9999 19.0211 24.0239 18.7181 23.63C18.7181 23.63 17.5227 22.938 17.3338 22.4207C17.3338 22.4207 16.5357 21.1875 17.8973 19.3137C17.8973 19.3137 18.8354 18.4024 18.4836 16.5012L18.1546 14.9973C18.1546 14.9973 17.9917 14.1581 19.0927 13.2229C19.0927 13.2229 21.0862 11.6676 21.438 10.0165C21.7637 8.6565 22.1611 5.32678 23.4999 4.29224Z" fill="#0062B1"/>
</g>
<defs>
<clipPath id="clip0_944_14762">
<rect width="22" height="24" fill="white" transform="translate(1.5)"/>
</clipPath>
</defs>
</svg>
