<svg width="25" height="24" viewBox="0 0 25 24" fill="none" xmlns="http://www.w3.org/2000/svg">
<g clip-path="url(#clip0_944_14830)">
<path d="M13.8238 0C18.5934 0 22.5001 4.17773 22.5001 9.33071C22.5001 11.9055 21.5053 14.2643 19.9019 15.9381C20.9186 14.6997 21.5273 13.0697 21.5273 11.2981C21.5273 7.36333 18.5463 4.15411 14.9063 4.15411C11.2475 4.15411 8.2634 7.35995 8.2634 11.2981C8.2634 15.2362 11.2444 18.4184 14.9063 18.4184C15.3362 18.4184 15.7881 18.3712 16.218 18.2733C15.4492 18.5163 14.6584 18.6378 13.8238 18.6378C9.05729 18.6378 5.14746 14.4601 5.14746 9.33071C5.1506 4.17773 9.05729 0 13.8238 0Z" fill="#E60012"/>
<path d="M14.9094 18.9753C14.0967 19.2419 13.2369 19.387 12.3332 19.387C7.47572 19.3903 3.5 15.1114 3.5 9.88752C3.5 5.70979 6.02915 2.13949 9.53105 0.874023C6.73204 2.52757 4.81164 5.70979 4.81164 9.37796C4.81164 14.6997 8.8564 19.0495 13.8268 19.0495C14.1877 19.0495 14.5486 19.0259 14.9094 18.9753Z" fill="#E60012"/>
<path d="M13.5759 16.7885C16.513 15.9853 18.9292 16.0123 19.472 16.9336C20.1938 18.1957 17.3948 20.6254 13.237 22.3768C9.07931 24.1282 5.08162 24.5163 4.35677 23.2744C3.83587 22.3768 5.10359 20.892 7.38484 19.4611C6.05123 20.433 5.35148 21.3813 5.71234 21.9145C6.2552 22.7649 9.10127 22.3768 12.0603 21.0404C14.9974 19.7041 16.9398 17.9291 16.3969 17.0787C16.0831 16.5961 15.0005 16.5219 13.5759 16.7885Z" fill="#0D3F97"/>
</g>
<defs>
<clipPath id="clip0_944_14830">
<rect width="19" height="24" fill="white" transform="translate(3.5)"/>
</clipPath>
</defs>
</svg>
