<svg width="25" height="24" viewBox="0 0 25 24" fill="none" xmlns="http://www.w3.org/2000/svg">
<g clip-path="url(#clip0_939_4666)">
<path d="M8.33653 2.00745C8.33653 2.00745 3.51834 14.3749 12.3547 16.2031C12.3547 16.1852 6.39107 11.5788 8.33653 2.00745Z" fill="#005BAC"/>
<path d="M8.33618 5.01867C8.33618 5.01867 8.60891 9.4817 11.2998 10.3958C11.2998 10.3958 10.8453 7.38461 11.2453 6.05825H13.6453C13.6453 6.05825 12.9544 7.24122 13.2271 10.3958C13.2271 10.3958 13.8271 10.4496 15.2635 9.89395C15.2635 9.89395 16.0453 5.37714 20.9544 1.91785C20.9544 1.91785 17.5362 3.47722 14.6998 9.21284C14.6998 9.21284 13.8271 9.71471 13.6816 9.62509C13.6816 9.62509 13.4998 7.16953 14.8453 5.43092H10.8271C10.8271 5.43092 10.3725 6.79313 10.7362 9.26661C10.7362 9.26661 9.02709 8.67513 8.33618 5.01867Z" fill="#E60020"/>
<path d="M22.391 20.8992C22.391 20.8992 8.46373 12.8693 23.5001 0C23.5001 0 14.0637 11.3996 22.391 20.8992Z" fill="#FABE00"/>
<path d="M2.5 24C2.5 24 6.62727 8.44216 23.0455 22.9425C23.0455 22.9425 13.2273 14.4646 2.5 24Z" fill="#00A73C"/>
</g>
<defs>
<clipPath id="clip0_939_4666">
<rect width="21" height="24" fill="white" transform="translate(2.5)"/>
</clipPath>
</defs>
</svg>
