<svg width="25" height="24" viewBox="0 0 25 24" fill="none" xmlns="http://www.w3.org/2000/svg">
<g clip-path="url(#clip0_944_17687)">
<path d="M13.2978 12.7255C18.6599 11.6318 21.656 14.7539 23.2174 17.5157C24.0377 15.8638 24.5001 13.9912 24.5001 12.0017C24.5001 11.2034 24.4241 10.4212 24.2816 9.66828C12.4015 7.52629 8.65159 16.9575 7.47974 22.5332C9.11716 23.4711 10.9985 24.0034 13.0001 24.0034C16.1926 24.0034 19.0779 22.6468 21.1619 20.4561C18.8182 12.8845 13.2978 12.7255 13.2978 12.7255Z" fill="#E8380D"/>
<path d="M20.4492 2.85923C18.3779 6.62069 15.4799 8.37972 15.4799 8.37972C17.092 6.35132 17.8933 3.47586 18.286 1.34037C16.7024 0.48357 14.9066 0 13 0C8.94602 0 5.38295 2.19067 3.33379 5.49777C5.00289 6.98093 8.76232 9.44097 14.8845 8.79513C14.8845 8.79513 8.31575 9.99919 2.06376 8.28235C1.69953 9.45071 1.5 10.7002 1.5 12.0016C1.5 15.14 2.65602 17.9959 4.54365 20.1347C7.86601 8.55172 20.8292 7.8572 23.7937 7.85071C23.1033 5.89696 21.9409 4.18012 20.4492 2.85923ZM12.6326 8.11359C11.5716 8.11359 10.7101 7.22434 10.7101 6.12738C10.7101 5.03043 11.5716 4.14118 12.6326 4.14118C13.6936 4.14118 14.5582 5.03043 14.5582 6.12738C14.5551 7.22434 13.6936 8.11359 12.6326 8.11359Z" fill="#E8380D"/>
</g>
<defs>
<clipPath id="clip0_944_17687">
<rect width="23" height="24" fill="white" transform="translate(1.5)"/>
</clipPath>
</defs>
</svg>
