<svg width="24" height="24" viewBox="0 0 24 24" fill="none" xmlns="http://www.w3.org/2000/svg">
<g clip-path="url(#clip0_944_16969)">
<path d="M19.2955 20.0097L13.4921 23.6261C12.7108 24.1256 11.4221 24.1256 10.6217 23.6261L0.599539 17.3948C-0.200823 16.8954 -0.200823 16.1074 0.599539 15.6053L0.77589 15.4905C0.77589 15.4905 2.31964 14.2592 8.39425 14.2592C8.39425 14.2592 9.09694 14.2592 8.88261 14.7586C8.88261 14.7586 5.8548 19.8761 19.2955 20.0097Z" fill="#004098"/>
<path d="M19.7052 13.2415L13.4922 9.37399C12.7109 8.87452 11.4221 8.87452 10.6218 9.37399L3.84448 13.5861C3.84448 13.5861 8.23969 13.124 11.3272 13.4125C11.3272 13.4125 12.5182 13.5273 11.7776 14.3152C11.7776 14.3152 10.9365 14.7586 11.5035 15.1993C11.5035 15.1993 12.8709 16.6042 16.5038 16.6042C16.5038 16.6042 20.3319 16.5081 20.4893 14.8147C20.4866 14.8174 20.6032 13.7971 19.7052 13.2415Z" fill="#004098"/>
<path d="M22.988 17.7393C16.2297 20.1432 11.4438 16.8927 11.4438 16.8927C20.7823 19.2591 22.988 15.2767 22.988 15.2767L23.4954 15.6026C23.4954 15.6026 24.3147 16.2169 23.8671 17.0075C23.8671 17.0102 23.6121 17.5096 22.988 17.7393Z" fill="#004098"/>
</g>
<defs>
<clipPath id="clip0_944_16969">
<rect width="24" height="15" fill="white" transform="translate(0 9)"/>
</clipPath>
</defs>
</svg>
