<svg width="25" height="24" viewBox="0 0 25 24" fill="none" xmlns="http://www.w3.org/2000/svg">
<g clip-path="url(#clip0_944_19213)">
<path d="M12.0221 23.9811C12.1791 23.9811 12.3335 24.0001 12.4905 24.0001C15.9214 24.0001 19.003 22.5579 21.1856 20.2796C16.9748 16.9867 11.9246 15.7205 9.76099 15.3119C10.7358 17.7471 11.5347 20.6125 12.0221 23.9811Z" fill="#181878"/>
<path d="M2.15723 5.94177C1.10386 7.71404 0.5 9.77853 0.5 11.9999C0.5 18.0581 5.02217 23.0854 10.8712 23.8836C9.27355 13.4042 4.22334 7.83039 2.15723 5.94177Z" fill="#009C40"/>
<path d="M17.0343 10.7148C18.6916 9.75964 20.9337 8.92356 23.9747 8.47441C22.4718 3.56618 17.9117 0 12.4905 0C8.51263 0 4.96529 1.94814 2.78003 4.96776C3.77382 5.84442 5.45001 7.51928 7.1289 10.1682C7.1289 10.1682 7.88981 11.3371 8.41514 11.3966L6.34902 6.13664L9.8774 10.6552L9.68243 4.7513L11.5157 10.4009L12.6476 4.53754L12.9211 10.5389L16.1759 5.41421L14.5187 11.1233L19.179 7.3434L17.0343 10.7148Z" fill="#D0121B"/>
<path d="M24.267 9.56482C17.0911 10.6363 14.6161 13.9671 13.9148 15.2144C16.3519 16.0126 19.2764 17.3384 21.9274 19.4219C23.5467 17.3763 24.4999 14.8059 24.4999 12C24.4999 11.1639 24.4214 10.363 24.267 9.56482Z" fill="#F39800"/>
</g>
<defs>
<clipPath id="clip0_944_19213">
<rect width="24" height="24" fill="white" transform="translate(0.5)"/>
</clipPath>
</defs>
</svg>
