<svg width="24" height="21" viewBox="0 0 24 21" fill="none" xmlns="http://www.w3.org/2000/svg">
<path d="M12.1769 8.16074C11.7808 8.43294 11.4031 8.70514 11.0437 8.99621C12.4235 8.49223 13.7063 8.23889 14.8789 8.23889C15.1045 7.65676 15.2199 7.07462 15.2383 6.51135C14.2178 6.91831 13.179 7.48158 12.1769 8.16074Z" fill="#E60012"/>
<path d="M23.4151 7.46256C22.678 6.31715 21.3559 5.73502 19.7138 5.65686C19.3544 6.76184 18.7117 7.94767 17.825 9.07152C18.1451 9.30329 18.4494 9.59436 18.675 9.96359C20.3932 12.6209 18.2788 16.8522 13.216 19.7817C12.9143 19.9569 12.631 20.1321 12.3293 20.2857C14.2181 20.0539 16.3718 19.2185 18.3916 17.8413C22.8853 14.777 25.1517 10.1388 23.4151 7.46256Z" fill="#E60012"/>
<path d="M5.34092 16.6987C3.67779 14.001 5.87082 9.81012 11.0071 6.99647C11.3088 6.84015 11.6105 6.66767 11.9148 6.51135C10.0077 6.72426 7.83562 7.48158 5.77638 8.82103C1.22244 11.7883 -1.13847 16.3888 0.543022 19.0839C2.20615 21.8005 7.24802 21.6065 11.8177 18.6365C12.2138 18.3831 12.5915 18.1136 12.9326 17.8414C9.60893 18.9868 6.5686 18.6958 5.34092 16.6987Z" fill="#FABE00"/>
<path d="M19.4121 1.81372C17.6913 -0.862486 12.6494 -0.533688 8.15321 2.51444C7.7571 2.78664 7.39771 3.05884 7.03833 3.34991C10.3436 2.12635 13.3839 2.36082 14.651 4.32014C15.0654 4.98043 15.2753 5.71618 15.2359 6.51392C15.2176 7.07719 15.1048 7.65933 14.8766 8.24147C14.1211 10.2789 12.1746 12.4323 9.21037 14.141C8.9087 14.3162 8.62539 14.4913 8.32372 14.645C10.2124 14.4132 12.3661 13.5966 14.386 12.2005C15.7449 11.268 16.9174 10.2008 17.8225 9.07694C18.7091 7.9504 19.3518 6.76726 19.7112 5.66228C20.1466 4.22042 20.0916 2.8621 19.4121 1.81372Z" fill="#004098"/>
</svg>
