<svg width="24" height="24" viewBox="0 0 24 24" fill="none" xmlns="http://www.w3.org/2000/svg">
<g clip-path="url(#clip0_944_16708)">
<path d="M4.78247 9.23458C4.81822 9.1072 8.074 7.29084 10.9238 8.29965C10.3186 6.77624 7.00917 4.85033 4.78247 9.23458Z" fill="#5A955A"/>
<path d="M16.1636 4.02505C17.1391 2.06347 16.7714 0.264937 15.3184 0.0254721C13.8833 -0.213993 11.8992 1.19987 10.9237 3.16144C9.93042 5.12302 10.316 6.92155 11.7332 7.16102C13.1862 7.40048 15.1703 5.98662 16.1636 4.02505Z" fill="#EB9423"/>
<path d="M12.3026 8.39144C11.3476 8.20802 20.3744 7.89723 21 15.7282C20.9259 23.4854 13.1478 24.0356 11.8991 24C10.2802 23.9083 3.24003 23.1568 3 16.2046C3.20173 9.23467 9.43496 9.41809 9.71074 9.41809C10.1704 9.41809 14.8766 9.78493 15.3362 14.48C14.8766 16.9383 14.1973 17.1039 13.4415 17.7815C13.4415 17.7815 11.6591 18.5713 10.2061 18.3318C9.39665 18.6069 13.2755 17.8732 13.1836 15.6365C13.1095 14.2965 12.5043 12.8114 9.80011 12.6661C6.9146 12.5388 6.50858 15.0328 6.39878 16.0034C6.43453 16.9205 6.84055 19.6361 11.0871 20.0029C15.1141 19.9112 17.5782 17.5828 17.8157 14.0596C18.186 10.4269 13.6458 8.40928 12.3026 8.39144Z" fill="#0054A0"/>
</g>
<defs>
<clipPath id="clip0_944_16708">
<rect width="18" height="24" fill="white" transform="translate(3)"/>
</clipPath>
</defs>
</svg>
