<svg width="24" height="24" viewBox="0 0 24 24" fill="none" xmlns="http://www.w3.org/2000/svg">
<g clip-path="url(#clip0_944_20421)">
<path d="M10.747 17.8115C13.6201 19.749 18.123 20.4228 22.3224 18.1107C19.7359 22.4884 14.5277 24.8926 9.308 23.6922C2.85263 22.2068 -1.17675 15.7678 0.307745 9.31021C1.74293 3.06831 7.80598 -0.905703 14.0393 0.177636C14.0393 0.177636 16.4842 0.603039 17.7426 2.76718C18.215 3.54637 18.5923 4.45279 18.8383 5.47565L18.8434 5.49952C19.1375 6.86711 19.1438 8.32024 18.8095 9.77302C18.2944 12.0172 17.0285 14.117 15.3813 15.2429L15.3711 15.2521C15.9425 14.66 16.3641 13.9106 16.5628 13.05C17.1434 10.5275 15.5689 8.01211 13.047 7.43261C10.5249 6.85251 8.01042 8.42757 7.43089 10.9491C7.26311 11.6801 7.24157 12.405 7.37913 13.0842C7.37917 13.0843 7.82097 15.9314 10.747 17.8115Z" fill="#0070BD"/>
<path d="M9.72192 16.1177C10.7999 16.7196 12.0953 16.9918 12.0953 16.9918C15.0364 17.669 17.9876 16.9314 20.2268 15.2504L20.242 15.2377C21.2405 14.5313 22.1254 13.6271 22.8323 12.54C23.2865 11.8443 23.6428 11.112 23.904 10.3613C24.2348 13.3543 23.6035 15.0469 23.6035 15.0469C22.7757 16.0324 21.9094 16.6343 21.9094 16.6343C19.6804 18.2836 16.7972 18.9328 13.8827 18.2607C13.8827 18.2607 11.3617 17.7315 9.72192 16.1177Z" fill="#00A7AC"/>
<path d="M12.6659 16.64C17.2634 17.0095 21.5779 13.675 22.6457 9.4755C22.6457 9.4755 22.9677 8.15103 22.9774 7.17109C22.9774 7.17109 22.0207 4.66167 19.419 2.56372C20.4276 4.54862 20.7725 6.88642 20.2332 9.2268C19.419 12.7735 16.7796 15.4287 13.5369 16.4288C13.2626 16.5133 12.9588 16.5886 12.6609 16.6346L12.6659 16.64Z" fill="#00A7AC"/>
</g>
<defs>
<clipPath id="clip0_944_20421">
<rect width="24" height="24" fill="white"/>
</clipPath>
</defs>
</svg>
