<svg width="24" height="24" viewBox="0 0 24 24" fill="none" xmlns="http://www.w3.org/2000/svg">
<g clip-path="url(#clip0_944_20410)">
<path d="M19.0313 11.5359C19.0167 11.5216 18.9953 11.5073 18.974 11.5031C18.8887 11.4845 18.8034 11.5515 18.6715 11.6642L18.5689 11.744C18.2104 11.9478 17.9372 12.9044 17.8772 13.2979C17.8679 13.3022 17.8586 13.3107 17.8399 13.3193C17.6173 12.913 17.2162 12.5352 16.7991 12.4782C16.963 13.1582 17.5227 15.2124 18.2677 15.0357C18.6449 14.943 19.4365 13.2423 19.4418 12.3014C19.4418 12.29 19.4418 12.2772 19.4418 12.2658C19.4378 11.7739 19.2232 11.5943 19.0313 11.5359Z" fill="#F5821F"/>
<path d="M24.0541 21.994C23.1212 22.034 22.8093 21.9812 21.8951 22.302C21.7698 22.3447 21.6592 22.4388 21.5539 22.5614C21.5686 22.7696 21.4526 23.0932 21.6339 23.1687C21.6419 23.1716 21.6419 23.2029 21.6499 23.22C21.7019 23.2771 21.7592 23.2842 21.8111 23.3555C21.8445 23.4097 21.8738 23.3512 21.9098 23.3726C21.9297 23.3925 21.9377 23.4225 21.9537 23.4282C22.043 23.4738 22.1256 23.4553 22.2149 23.5023C22.2603 23.5408 22.3056 23.5323 22.3509 23.5408C22.3789 23.528 22.4135 23.5978 22.4202 23.6135C22.5921 23.6891 22.748 23.6221 22.9199 23.6178C23.4384 23.6092 23.3424 23.5551 23.8568 23.5465C24.2939 23.5408 24.7204 23.6121 25.1535 23.6035C25.3934 23.595 25.648 23.6035 25.8825 23.585C26.2983 23.5608 26.7168 23.6306 27.1366 23.6335C27.3445 23.6306 27.587 23.7176 27.7976 23.7333C28.0255 23.7333 28.24 23.672 28.4706 23.719C28.5439 23.7261 28.6172 23.7147 28.6878 23.7518C28.7558 23.7889 28.8318 23.8245 28.8971 23.8316C29.0956 23.8445 29.2742 23.766 29.4688 23.6876C29.5821 23.6492 29.6993 23.6263 29.8046 23.5579C29.8566 23.5308 29.9072 23.4396 29.9286 23.3484C29.9819 23.1816 30.0272 22.9991 29.9699 22.8081C29.9592 22.8081 29.9326 22.8223 29.9232 22.8052C29.9032 22.7724 29.9059 22.6969 29.8793 22.694C29.7953 22.6584 29.7127 22.6498 29.6287 22.6284C29.5181 22.6042 29.4035 22.55 29.2955 22.5272C28.7811 22.3918 25.8252 21.9142 24.0541 21.994Z" fill="#00A87E"/>
<path d="M15.0145 22.3588C15.1091 22.3816 15.2157 22.3788 15.2663 22.4472C15.3197 22.4985 15.2157 22.5883 15.2224 22.6553C15.2224 22.8193 15.2797 22.9675 15.277 23.1315C15.2797 23.1571 15.265 23.1871 15.237 23.2156C15.2104 23.2584 15.1691 23.3026 15.1251 23.3296C14.9945 23.418 14.8239 23.3824 14.6733 23.4309C14.4814 23.4922 14.2682 23.515 14.0709 23.5364C13.7071 23.5777 13.3633 23.4964 12.9954 23.4822C12.8555 23.4765 12.7076 23.4936 12.589 23.5406C12.4224 23.5877 12.2531 23.582 12.0852 23.5748C11.2096 23.5406 10.3514 23.5221 9.48113 23.5306C9.32787 23.5364 9.16128 23.5577 9.00802 23.5606C8.30836 23.6034 7.61136 23.5905 6.91036 23.6105C6.66648 23.6176 6.42393 23.6262 6.17738 23.6176C6.04145 23.6219 5.90152 23.6262 5.78024 23.6304C5.26182 23.6561 4.73141 23.6846 4.21033 23.6604C4.01309 23.6647 3.80253 23.6661 3.59996 23.6661C3.0229 23.6989 2.43252 23.8001 1.85013 23.7673C1.42234 23.7431 1.0212 23.6376 0.626721 23.4223C0.360183 23.2726 0.15095 23.0702 -0.000976562 22.8236C0.0976426 22.6853 0.248237 22.6268 0.414823 22.5883C0.805302 22.4729 1.16513 22.4016 1.55961 22.3289C1.89278 22.2704 2.19663 22.2391 2.51515 22.2106C6.70513 21.81 11.4029 21.9582 13.2327 22.0894C13.851 22.1322 14.4227 22.2177 15.0145 22.3588Z" fill="#0079C1"/>
<path d="M22.5765 18.1689C22.5765 18.1946 22.5765 18.1946 22.5765 18.2202C22.6152 18.3215 22.6858 18.35 22.7618 18.4241C22.8377 18.4241 22.9297 18.4241 23.0043 18.4241C23.0043 18.3728 23.059 18.4241 23.059 18.3728C23.1149 18.3728 23.1989 18.35 23.2389 18.2716C23.2575 18.2716 23.2575 18.2716 23.2788 18.2716C23.3188 18.1946 23.3775 18.1433 23.4588 18.1433C23.5574 18.015 23.6587 17.8867 23.7573 17.7598C23.7573 17.7085 23.7773 17.6557 23.8186 17.6315C23.8772 17.4005 23.9172 17.1439 24.0185 16.9144C24.0185 16.836 24.0585 16.7319 24.0385 16.6564C24.0585 16.6564 24.0771 16.6564 24.0771 16.6321C24.0585 16.5281 24.1171 16.4768 24.1571 16.4254C24.1971 16.4254 24.2397 16.4254 24.257 16.3727C24.257 16.3485 24.257 16.3485 24.257 16.3242C24.3583 16.3242 24.4716 16.4012 24.5502 16.5038C24.6022 16.5038 24.6302 16.5038 24.6795 16.5038C24.6795 16.5566 24.7075 16.5566 24.7341 16.5794C24.8381 16.5794 25.07 16.5566 25.1766 16.6051C25.1766 16.6835 25.2792 16.6564 25.3072 16.7319C25.3312 16.8089 25.3312 16.8859 25.3872 16.9643C25.3872 16.9885 25.3872 17.0156 25.3592 17.0427C25.4125 17.1197 25.4631 17.2466 25.3872 17.3236C25.4125 17.4262 25.3872 17.5545 25.4391 17.6571C25.3872 17.7099 25.4125 17.7854 25.4125 17.8382C25.4645 17.9394 25.4645 18.0691 25.4911 18.1974C25.5964 18.3243 25.5671 18.4811 25.6497 18.608C25.6497 18.6608 25.6497 18.7106 25.6497 18.7605C25.7017 18.7605 25.6497 18.8404 25.7017 18.8404C25.7297 18.9943 25.6497 19.1711 25.6497 19.3265C25.6217 19.3522 25.5964 19.3792 25.5671 19.4035C25.5671 19.4306 25.5671 19.4306 25.5671 19.4548C25.5418 19.4548 25.5164 19.4548 25.5164 19.4306C25.4631 19.5075 25.3872 19.5603 25.3312 19.6358C25.2779 19.6073 25.2539 19.6601 25.2272 19.6601C25.1766 19.6601 25.2272 19.7371 25.1766 19.7371C25.122 19.7371 25.07 19.7627 25.042 19.787C24.99 19.814 24.8128 19.7613 24.7581 19.814L24.7328 19.787C24.7048 19.814 24.6782 19.8411 24.6275 19.8411C24.6275 19.814 24.6275 19.787 24.6009 19.787C24.5729 19.8654 24.4596 19.9181 24.3903 19.8896C24.3663 19.8411 24.3783 19.7998 24.317 19.7784C24.2957 19.6159 24.2957 19.4776 24.2171 19.3393C24.2384 19.3393 24.2384 19.3151 24.2384 19.2937C24.2171 19.2224 24.1771 19.154 24.1771 19.0827C24.1158 18.9901 24.0971 18.8546 24.0172 18.7834C24.0371 18.7605 23.9772 18.7363 23.9958 18.7121C23.9585 18.6693 23.9372 18.6451 23.8972 18.598C23.8572 18.598 23.8572 18.6208 23.8372 18.6451C23.8173 18.762 23.7186 18.8546 23.6986 18.9687L23.6773 18.9459C23.6587 19.0143 23.5987 19.0613 23.5987 19.1298C23.5574 19.154 23.5374 19.2224 23.4987 19.2481C23.4987 19.2695 23.4987 19.2695 23.4987 19.2937C23.3588 19.4306 23.2828 19.6558 23.1149 19.7513C23.0723 19.8525 22.9683 19.8682 22.9257 19.9751C22.8644 19.9751 22.7644 20.0037 22.6845 20.0293C22.6338 20.0037 22.5565 19.9481 22.5019 20.0037C22.5019 19.9751 22.4766 19.9751 22.4512 19.9751L22.4233 20.0037C22.3713 19.9481 22.294 20.0037 22.214 19.9751C22.0581 19.8411 21.8769 19.787 21.6943 19.6786C21.6423 19.6786 21.6943 19.5988 21.6423 19.5988C21.6143 19.5988 21.589 19.5988 21.565 19.5731C21.565 19.4919 21.5903 19.4363 21.5117 19.3835L21.537 19.3579C21.537 19.3293 21.5117 19.3293 21.4864 19.3293C21.4584 19.1683 21.3811 19.0343 21.3571 18.8703C21.3291 18.8418 21.3291 18.8418 21.3038 18.8176C21.3038 18.7349 21.2758 18.655 21.2518 18.6009C21.2238 18.4925 21.3145 18.4027 21.2665 18.3001C21.2665 18.2744 21.2665 18.2473 21.2891 18.2231C21.2665 18.0948 21.2891 18.0164 21.3145 17.8881C21.2891 17.8881 21.2891 17.8624 21.2891 17.8382C21.3398 17.7341 21.3398 17.6329 21.3398 17.5303C21.3651 17.4533 21.4157 17.3763 21.4384 17.2979L21.4157 17.2751C21.4637 17.2223 21.4384 17.1468 21.5144 17.094C21.5144 17.0698 21.5144 17.0456 21.4904 17.0456C21.4904 16.9914 21.541 16.9672 21.5663 16.9401C21.5877 16.8887 21.6863 16.6863 21.7463 16.6493L21.7276 16.6179C21.7689 16.5523 21.8822 16.5238 21.9701 16.5167C22.0354 16.5081 22.1647 16.5794 22.2007 16.6008C22.2287 16.6621 22.2034 16.7106 22.238 16.7861C22.258 16.7861 22.258 16.7861 22.2767 16.7861C22.2767 16.8103 22.2767 16.8103 22.2767 16.8374C22.2767 16.8631 22.2953 16.8631 22.3153 16.8631C22.334 16.9386 22.37 17.0171 22.3526 17.0926C22.3526 17.1211 22.3699 17.1211 22.3913 17.1211C22.3699 17.1696 22.4259 17.2223 22.4259 17.2751C22.3913 17.325 22.4259 17.402 22.4073 17.4804C22.4632 17.6072 22.4446 17.7626 22.5006 17.8895C22.5006 17.9893 22.5405 18.0919 22.5765 18.1689Z" fill="black"/>
<path d="M12.9357 19.121C12.9357 19.121 13.0329 19.188 13.0596 19.2365C13.0836 19.2878 13.1369 19.3505 13.1715 19.3648C13.2235 19.3876 13.2755 19.4175 13.2755 19.4175L13.3075 19.4902L13.3874 19.5701C13.4741 19.5986 13.4927 19.5444 13.5567 19.6413C13.5833 19.6413 13.6167 19.6413 13.6167 19.667L13.6433 19.6413C13.6726 19.6955 13.7299 19.7212 13.7593 19.7483C13.8459 19.7483 13.9192 19.7825 13.9778 19.8395C14.0085 19.8395 14.0098 19.8994 14.0098 19.8737C14.0978 19.8994 14.1577 19.9592 14.215 19.9065C14.2444 19.9065 14.2723 19.9065 14.2723 19.9322L14.3017 19.9065C14.3576 19.8794 14.371 19.955 14.4296 19.925C14.4589 19.925 14.4589 19.955 14.4589 19.9792C14.4869 19.9792 14.4869 19.9792 14.5162 19.9792C14.5722 20.0334 14.8187 19.9621 14.8747 20.0163C15.1999 20.059 15.7303 19.9792 15.7303 19.9792C15.733 19.9293 15.8116 19.9835 15.8143 19.9322L15.8396 19.9592C15.9489 19.992 16.0635 19.858 16.1741 19.9151C16.2007 19.8894 16.2007 19.8894 16.2301 19.8637C16.286 19.8424 16.3647 19.9493 16.4206 19.8737C16.418 19.9008 16.4473 19.9022 16.4753 19.9051C16.4766 19.8751 16.4766 19.8751 16.4766 19.8509C16.5619 19.8039 16.6659 19.8138 16.7285 19.7426C16.7565 19.7468 16.8111 19.7511 16.8378 19.7554C16.8671 19.7312 16.8671 19.7312 16.8991 19.7083C17.039 19.6741 17.1643 19.5515 17.3242 19.513C17.3495 19.4817 17.4068 19.4774 17.4268 19.4247C17.4548 19.4204 17.4841 19.4204 17.5108 19.4161C17.5361 19.3876 17.5614 19.3577 17.5867 19.3306C17.6694 19.3491 17.744 19.2236 17.8253 19.2094C17.8213 19.1866 17.8173 19.1623 17.844 19.1524L17.8733 19.1752C17.9266 19.1395 17.9266 19.1395 17.9426 19.0854C18.0279 19.0953 18.0745 18.9841 18.1212 18.9243C18.1491 18.9214 18.1491 18.9214 18.1758 18.9157C18.1971 18.8858 18.1971 18.8858 18.2224 18.8544C18.2491 18.8501 18.2491 18.8501 18.2757 18.8459C18.349 18.7789 18.3917 18.6933 18.493 18.6506C18.489 18.6249 18.4876 18.5978 18.513 18.595C18.5716 18.6106 18.5596 18.5308 18.5823 18.5009C18.6049 18.4838 18.6796 18.4296 18.6982 18.4538C18.6929 18.4966 18.7675 18.3441 18.7662 18.3854C18.7848 18.4096 18.8781 18.1473 18.9008 18.1316L18.6729 17.4901C18.5876 17.6184 18.2864 18.039 18.1278 18.0775C18.1305 18.2129 17.9919 18.2172 17.8959 18.2942C17.9026 18.3184 17.9053 18.3469 17.8813 18.3512C17.8013 18.3711 17.764 18.4667 17.7107 18.4795C17.7067 18.4524 17.68 18.461 17.652 18.4667C17.6307 18.4994 17.5787 18.5137 17.5641 18.5707C17.4828 18.5907 17.4601 18.6748 17.4122 18.7347L17.3828 18.7119C17.2842 18.8088 17.1443 18.796 17.0777 18.9143C16.9217 18.9913 16.7898 19.0198 16.6285 19.0839C16.6006 19.0882 16.5739 19.0882 16.5739 19.0626C16.5486 19.1167 16.4353 19.0697 16.4126 19.1253C16.2461 19.1353 16.1075 19.121 15.9449 19.1595C15.9422 19.1067 15.8622 19.1638 15.8582 19.111C15.7263 19.1723 15.5877 19.0925 15.4491 19.0925C15.4225 19.0654 15.3665 19.0654 15.3398 19.0141C15.2012 19.0397 15.1213 19.0141 15.0373 18.9343C14.956 18.9343 14.8987 18.8558 14.8174 18.8288C14.8174 18.8031 14.8174 18.8031 14.8174 18.7774C14.7894 18.7518 14.7894 18.7518 14.7628 18.7261C14.7628 18.6463 14.8441 18.6463 14.8987 18.6206C14.956 18.5408 15.1026 18.5593 15.1573 18.4838C15.1573 18.4553 15.2319 18.4054 15.2319 18.3783C15.2599 18.327 15.2785 18.2771 15.3065 18.2771C15.3878 18.2243 15.3345 18.163 15.4438 18.1388C15.4438 18.1131 15.5291 18.0475 15.5024 18.0233C15.613 17.942 15.613 17.8979 15.6397 17.7396C15.6943 17.6641 15.773 17.5771 15.773 17.473C15.8009 17.4474 15.7676 17.3333 15.8236 17.3062C15.8489 17.1252 15.7796 17.0282 15.7796 16.8443C15.7516 16.8201 15.7516 16.8201 15.725 16.793C15.725 16.7146 15.669 16.6633 15.6957 16.5835C15.613 16.5065 15.6357 16.4794 15.5517 16.401L15.5051 16.3482C15.4784 16.3482 15.4784 16.3482 15.4491 16.3482C15.4225 16.2969 15.3398 16.2727 15.3398 16.2199C15.2292 16.1929 15.1213 16.1144 15.0093 16.0617L14.9827 16.0902L14.9547 16.0617C14.9267 16.0902 14.9267 16.0902 14.8974 16.1144C14.8974 16.0375 14.8161 16.1144 14.7881 16.0617C14.7348 16.0617 14.6775 16.0375 14.6255 16.0902C14.4589 16.0375 14.2817 16.1287 14.1151 16.0503C14.1151 16.1045 14.0071 16.0232 14.0071 16.1045C13.9498 16.1287 13.8725 16.1258 13.8432 16.1544C13.8152 16.1544 13.7886 16.1544 13.7606 16.1544C13.678 16.2299 13.6087 16.3226 13.4434 16.3226C13.3901 16.3226 13.4434 16.401 13.3901 16.401C13.3621 16.401 13.3621 16.401 13.3355 16.401C13.1995 16.5321 13.0889 16.6875 12.9223 16.793C12.9223 16.8187 12.8677 16.8443 12.8943 16.8957C12.8943 16.9228 12.8677 16.9228 12.8397 16.9228C12.8397 16.9741 12.8117 16.9997 12.7851 17.0254C12.7851 17.0525 12.7851 17.0796 12.813 17.0796C12.813 17.1052 12.7704 17.1708 12.7424 17.1708C12.7158 17.2763 12.7158 17.3789 12.6331 17.4317C12.6331 17.6412 12.5758 17.741 12.5625 17.9706C12.5812 18.0932 12.5918 18.2756 12.5918 18.384C12.6771 18.4396 12.5692 18.4381 12.6278 18.5194C12.6571 18.5194 12.6398 18.565 12.6398 18.5935C12.6691 18.6463 12.7584 18.6891 12.7291 18.7418C12.7291 18.7703 12.7784 18.7945 12.8064 18.7945C12.8357 18.8501 12.7651 18.9086 12.821 18.9357C12.821 18.9656 12.913 18.9442 12.8837 18.997L12.9357 19.121ZM14.7268 17.4174C14.6722 17.4445 14.7268 17.5015 14.6721 17.5272L14.6988 17.5543C14.6775 17.7781 14.5469 18.0832 14.2537 18.2999C14.227 18.2999 14.2004 18.2999 14.2004 18.2714C14.2004 18.2172 14.1431 18.1345 14.1711 18.0803C14.1711 18.0518 14.1431 18.0518 14.1164 18.0518C14.1711 17.9948 14.0791 17.9406 14.1084 17.8579C14.0791 17.8579 14.0791 17.8294 14.0791 17.8023C14.1631 17.7482 14.0938 17.6056 14.1777 17.5514L14.1511 17.5229C14.1777 17.4673 14.2217 17.3818 14.2763 17.3276C14.2763 17.2991 14.2763 17.2991 14.2763 17.2706C14.387 17.1608 14.5349 17.1124 14.6735 17.0582C14.7001 17.0582 14.7281 17.0582 14.7281 17.0867C14.8121 17.1979 14.7548 17.3077 14.7268 17.4174Z" fill="black"/>
<path d="M19.5073 17.1667C19.5113 17.2024 19.5153 17.2394 19.5179 17.2751C19.7072 17.4689 19.6712 17.8025 19.7978 18.0406C19.7338 18.1233 19.7778 18.2259 19.7512 18.3015C19.7885 18.3357 19.7885 18.3357 19.8258 18.3656C19.7752 18.5552 19.8951 18.7206 19.8791 18.9059C19.8485 18.9473 19.8485 18.9473 19.8178 18.9872C19.8205 19.0243 19.8245 19.0585 19.8578 19.0542L19.8285 19.0955L19.8644 19.1255L19.8365 19.1682C19.8671 19.164 19.8724 19.1982 19.8764 19.2352C19.8151 19.3151 19.9257 19.412 19.8311 19.4961C19.8684 19.5261 19.8724 19.5631 19.8764 19.5973C19.7831 19.6829 19.8405 19.8383 19.7738 19.9523L19.8071 19.9851L19.7752 20.0236L19.7392 19.9908C19.7059 19.9908 19.7059 20.0293 19.7085 20.0635C19.7418 20.1348 19.8111 20.2032 19.7458 20.2788L19.7818 20.3116C19.6805 20.3914 19.6525 20.4841 19.6219 20.5881C19.5899 20.6238 19.5899 20.6238 19.5593 20.6623C19.5952 20.695 19.5952 20.7278 19.5952 20.7635C19.5339 20.839 19.5033 20.9075 19.442 20.983C19.442 21.0172 19.4793 21.0857 19.414 21.1241L19.4473 21.1555C19.4167 21.2268 19.3887 21.3323 19.3594 21.405C19.3913 21.4036 19.3913 21.4378 19.3913 21.472C19.298 21.5475 19.1914 21.6259 19.2248 21.7628C19.1634 21.8697 19.0862 21.9068 19.0262 22.0137C19.0595 22.0807 18.9156 22.1149 18.9156 22.1819C18.9182 22.2532 18.8209 22.2233 18.8543 22.2903L18.8862 22.3245C18.8569 22.3259 18.8569 22.3259 18.8249 22.3288C18.7943 22.3972 18.7943 22.3972 18.733 22.4357C18.733 22.4699 18.7357 22.507 18.7037 22.5084C18.6477 22.554 18.6197 22.6082 18.5597 22.6809C18.5917 22.7137 18.4585 22.7864 18.4904 22.7864C18.4545 22.8206 18.4198 22.852 18.4145 22.9204C18.3825 22.919 18.3518 22.919 18.3492 22.9517V22.9974C18.3292 23.0216 18.3212 23.0202 18.2785 23.0301C18.0333 23.3309 17.6748 23.4478 17.4269 23.7472C17.3616 23.7772 17.2977 23.8099 17.2324 23.8413C17.1644 23.8712 17.1884 23.9753 17.1298 23.9382C17.1311 23.9026 17.0458 23.9682 17.0138 23.9668C16.9432 24.0309 16.8419 23.9839 16.7793 23.981C16.7819 23.9468 16.7433 23.9525 16.714 23.9183L16.6806 23.9511C16.6527 23.914 16.582 23.8427 16.55 23.8413C16.5234 23.8042 16.5834 23.77 16.554 23.77L16.5874 23.7358C16.59 23.7016 16.538 23.693 16.5074 23.6902C16.4488 23.6189 16.57 23.6717 16.5434 23.6004L16.4221 23.5918C16.3928 23.522 16.3341 23.5206 16.3062 23.4493C16.3128 23.3794 16.4488 23.3823 16.4567 23.3124C16.5194 23.3167 16.5021 23.3053 16.566 23.2725L16.5434 23.2255C16.61 23.1927 16.5993 23.1314 16.6313 23.1356C16.63 23.1699 16.654 23.1314 16.686 23.1314C16.718 23.1328 16.7486 23.1356 16.7526 23.1014C16.7553 23.0672 16.7579 23.0301 16.7913 23.0002C16.8232 23.0016 16.8232 23.0016 16.8552 23.0059C16.9912 22.8719 16.9045 22.9603 17.0431 22.7949C17.0485 22.7621 17.0485 22.7621 17.0498 22.7236C17.0831 22.6894 17.0898 22.6224 17.1537 22.5911C17.1511 22.6267 17.1484 22.6609 17.1791 22.6623C17.2804 22.5953 17.2217 22.5597 17.1964 22.4899C17.2297 22.4571 17.2297 22.4571 17.2657 22.4257C17.2604 22.4599 17.3177 22.4314 17.287 22.4314C17.283 22.4656 17.3203 22.3501 17.3523 22.3516C17.4283 22.2233 17.3723 22.3744 17.4883 22.1392C17.5122 22.1106 17.5695 22.0893 17.5762 22.0722C17.5682 22.0679 17.6468 22.0379 17.6202 22.0009C17.6162 21.9752 17.6282 21.9624 17.5616 21.9966C17.6002 21.9296 17.7108 21.8284 17.7175 21.7571C17.8081 21.7956 17.7335 21.6416 17.7974 21.6431C17.7615 21.6773 17.7321 21.6088 17.7348 21.6459L17.8388 21.6416C17.9081 21.5761 17.7415 21.5789 17.8054 21.5062C17.8041 21.4691 17.7948 21.4492 17.7641 21.4506C17.7641 21.4178 17.7548 21.3879 17.7868 21.3864L17.8188 21.4192C17.8494 21.3822 17.7881 21.2653 17.8521 21.2282C17.8521 21.1926 17.8494 21.1584 17.8494 21.1256C17.9427 21.0486 17.8987 21.0628 17.9294 20.9573L17.8974 20.9231C17.8974 20.9573 17.9627 20.8932 17.9294 20.8932C17.9294 20.859 17.9294 20.859 17.9294 20.8233C17.9907 20.7849 18.0373 20.5553 18.0347 20.4869C18.0373 20.5539 17.9614 20.3272 18.024 20.3586C18.1146 20.2132 18.0533 20.0236 18.068 19.8454C18 19.8169 18.1186 19.7698 18.0813 19.7028C18.0506 19.7071 18.02 19.7114 18.016 19.6772C18.0453 19.6387 18.0453 19.6387 18.0706 19.5973C18.068 19.5631 18.0653 19.5303 18.0347 19.5346C18.0293 19.499 18.028 19.4662 18.0573 19.4619C18.052 19.4248 18.052 19.3906 18.0187 19.3963C18.0466 19.3578 18.0467 19.3578 18.076 19.3194C18.0706 19.2851 18.04 19.2894 18.0093 19.298C18.028 19.1511 17.8947 19.0499 17.9427 18.9017C17.9134 18.9059 17.9094 18.8717 17.9067 18.8375C17.988 18.7235 17.8747 18.5823 17.9267 18.4697C17.8627 18.4455 17.8867 18.3728 17.8801 18.3015C17.9081 18.263 17.8281 18.2288 17.8241 18.1946C17.7468 18.0278 17.7668 17.8995 17.7175 17.7213C17.6548 17.7811 17.6122 17.2423 17.5576 17.0284C17.4763 16.893 17.5309 16.7405 17.4829 16.6008C17.5162 16.5965 17.5496 16.5922 17.5442 16.5566C17.5029 16.4525 17.5989 16.4026 17.6229 16.2886C17.6908 16.2814 17.7521 16.2358 17.8268 16.2985C17.8907 16.2543 17.8507 16.1873 17.8494 16.1503C17.9813 16.1332 18.0813 16.1203 18.2159 16.1018C18.2212 16.136 18.2212 16.1745 18.2585 16.1688C18.3572 16.156 18.3985 16.2216 18.4971 16.2087C18.5011 16.2472 18.5024 16.2829 18.5384 16.2757C18.6037 16.2672 18.641 16.2985 18.6783 16.3328C18.7103 16.327 18.7463 16.3228 18.741 16.2886L18.7796 16.3199L18.809 16.2786C18.8476 16.3099 18.8796 16.3071 18.9129 16.3C18.9502 16.3328 18.9595 16.4411 19.0248 16.3955C19.1888 16.6606 19.3807 16.893 19.5073 17.1667Z" fill="black"/>
<path d="M4.69022 17.8095C4.67822 17.7525 4.60093 17.7368 4.56894 17.7353C4.53829 17.7353 4.47699 17.8066 4.44367 17.751C4.44367 17.751 4.39036 17.8437 4.32506 17.8922C4.28241 17.925 4.21578 17.9193 4.21578 17.9193C4.19845 18.0091 4.18779 18.019 4.26509 18.2258C4.29574 18.2329 4.33172 18.431 4.36504 18.4367C4.35038 18.3598 4.46099 18.6021 4.49698 18.6363C4.51963 18.6406 4.51963 18.6406 4.54229 18.6477C4.56228 18.6549 4.55295 18.6762 4.54495 18.6976L4.64624 18.7732C4.65423 18.8031 4.67422 18.8117 4.6529 18.8502C4.7302 18.8573 4.77817 18.9086 4.84348 18.9371C4.86746 18.9471 4.85147 18.9642 4.83948 18.9842C4.85947 18.9956 4.88212 19.0041 4.89412 18.9842C4.95009 18.9842 4.91011 19.0455 4.91944 19.0754L4.95542 19.0654C4.96342 19.0954 5.00607 19.1182 5.00607 19.1182C5.0727 19.2251 5.40054 19.3577 5.48184 19.4575L5.51382 19.4404C5.53914 19.4974 5.68441 19.5074 5.68441 19.5829L5.71372 19.563C5.72705 19.5886 5.94428 19.6342 6.00425 19.6684C6.03624 19.6471 5.99226 19.6128 6.02558 19.5972C6.06023 19.6314 6.13619 19.7027 6.17084 19.7383C6.17084 19.7383 6.26546 19.7454 6.33076 19.7625C6.41472 19.8566 6.5893 19.7967 6.68926 19.8481C6.70125 19.8752 6.72524 19.8823 6.7479 19.8866L6.77988 19.868L6.79321 19.898C6.85851 19.8637 6.89449 19.8951 6.9358 19.8566L6.94647 19.8866L6.97978 19.868C6.99311 19.8965 6.99311 19.8965 7.00511 19.925C7.09573 19.9464 7.17569 19.9921 7.27164 19.9379C7.28231 19.9678 7.30763 19.9707 7.32895 19.9792C7.36093 19.9593 7.36093 19.9593 7.39425 19.9422C7.46089 19.9593 7.47421 19.9878 7.55151 19.9806L7.5635 20.0077C7.65946 19.955 7.72742 19.9707 7.81538 19.9935C7.83537 19.9493 7.88468 20.0092 7.90334 19.965L7.914 19.9935C7.98997 19.9365 8.10324 19.9678 8.17921 19.9635L8.1912 19.9935C8.22585 19.9735 8.21252 19.9935 8.21252 19.9935C8.27516 19.9607 8.43242 19.9593 8.4764 19.9208C8.56436 19.945 8.56169 19.9635 8.6843 19.945C8.70695 19.9507 8.7576 19.965 8.78292 19.9707C8.88154 19.9022 8.96816 19.9037 9.05479 19.955C9.15341 19.935 9.30933 19.8538 9.39462 19.8067C9.41861 19.8124 9.44393 19.821 9.46925 19.8281C9.50657 19.8153 9.53056 19.8224 9.55588 19.7796C9.66649 19.7397 9.74512 19.6984 9.84507 19.6271C9.85574 19.6556 9.91837 19.6014 9.9317 19.63C9.94236 19.6071 9.94236 19.6071 9.95702 19.5872C10.005 19.6014 10.041 19.5373 10.0916 19.553C10.1049 19.533 10.1049 19.533 10.1169 19.5102C10.1902 19.4817 10.1609 19.4617 10.2342 19.4346C10.2969 19.389 10.3875 19.2279 10.5327 19.1609C10.5287 19.1096 10.6234 19.084 10.6434 19.0369C10.6567 19.0155 10.682 19.0198 10.7073 19.0255L10.6913 18.9956C10.726 18.9813 10.7167 18.9058 10.7513 18.94C10.7593 18.9186 10.8033 18.8573 10.7806 18.8516C10.8513 18.7946 10.8513 18.5993 10.9539 18.575C10.9619 18.5536 10.9619 18.5536 10.9712 18.5308C11.0125 18.4724 10.9952 18.3598 11.0205 18.3469C11.0298 18.3241 11.0192 18.307 11.0405 18.3156C11.0658 18.2243 11.0858 18.0917 11.1098 17.9706C11.0898 17.9663 11.0978 17.9449 11.1058 17.9221C11.1271 17.9264 11.1378 17.9036 11.1471 17.8808C11.1258 17.8751 11.1338 17.8508 11.1445 17.8309L11.1738 17.8123C11.1311 17.8038 11.1804 17.7411 11.1378 17.7311L11.1658 17.7125C11.1298 17.6042 11.1818 17.493 11.1471 17.3861L11.1764 17.3675C11.1258 17.3062 11.1311 17.2421 11.1764 17.1765C11.1618 17.148 11.1698 17.1252 11.1764 17.1024C11.1191 17.0639 11.1884 17.024 11.1538 16.9898C11.1738 16.9228 11.1031 16.8529 11.1458 16.7888C11.1191 16.7317 11.1125 16.7089 11.0831 16.6533C11.0885 16.6305 11.0951 16.6063 11.1018 16.5821C11.0791 16.5763 11.0578 16.5721 11.0618 16.5493C11.0991 16.5051 11.0592 16.4737 11.0725 16.4267C11.0285 16.4181 11.0512 16.3768 11.0365 16.3511C11.0245 16.2228 10.9925 16.1273 10.9219 16.0204C10.9512 15.9748 10.8926 15.7909 10.8939 15.731L10.8526 15.7082C10.8353 15.6497 10.8139 15.6198 10.7726 15.587C10.774 15.5599 10.774 15.5599 10.7766 15.5314C10.7553 15.5285 10.7313 15.5271 10.734 15.4986C10.7366 15.4715 10.7366 15.4715 10.738 15.4416L10.714 15.4701C10.6727 15.4373 10.6554 15.3803 10.658 15.3218C10.5781 15.2021 10.5474 15.1165 10.4355 14.9412C10.3901 14.9683 10.4341 14.8528 10.3808 14.8771C10.3195 14.7288 10.2782 14.6946 10.1876 14.6033C10.1929 14.5763 10.1929 14.5763 10.1942 14.5435C10.1689 14.5435 10.1689 14.5435 10.1436 14.542C10.1183 14.5406 10.1223 14.5121 10.1236 14.4836C9.98101 14.3924 9.47992 14.3168 9.40129 14.1685C9.35997 14.1671 9.31466 14.1357 9.29067 14.1942C9.27068 14.1643 9.27068 14.1643 9.25069 14.1343C9.13342 14.217 9.0348 14.0687 8.92552 14.0345L8.89886 14.063C8.86155 13.9761 8.78958 14.0588 8.74693 14.0573C8.72561 14.0274 8.70296 14.0274 8.68297 14.0274C8.56702 14.0816 8.46174 14.0203 8.36179 14.1628L8.3418 14.1329L8.59368 14.6319C8.58701 14.6604 8.65631 14.9697 8.72428 15.1265C8.74693 15.1308 8.77492 15.1878 8.79091 15.2206C8.78692 15.2463 8.78692 15.2463 8.78025 15.2734C8.81357 15.3389 8.84555 15.4031 8.87887 15.4701C8.85755 15.4644 8.85222 15.4901 8.84555 15.5171C8.87221 15.6098 8.87087 15.7082 8.89886 15.7994C8.93218 15.8322 8.8922 15.8522 8.93218 15.8963C8.93484 15.9006 8.90952 15.9534 8.91352 15.9576C8.89886 16.0004 8.92552 16.056 8.92552 16.056C8.93618 16.1572 8.93085 16.0788 8.99615 16.1487C8.93751 16.2257 9.03746 16.3497 8.97749 16.4267C9.00948 16.4623 9.00948 16.411 9.02147 16.4409C9.01081 16.4609 9.01081 16.4609 9.00148 16.4808C8.98948 16.5008 9.01081 16.5108 9.02947 16.5193C9.05079 16.5763 9.01214 16.6091 9.04279 16.6633C9.06278 16.6676 9.04546 16.736 9.06545 16.7431C9.07211 16.7916 9.13075 16.8073 9.07478 16.8444C9.05345 16.8387 9.06545 16.9399 9.04279 17.0069C9.05479 17.0325 9.04279 17.1494 9.03613 17.1722C9.05745 17.1779 9.07211 17.1494 9.06278 17.1722C9.05745 17.1951 9.05745 17.1951 9.04946 17.2179C9.07211 17.2221 9.06811 17.2635 9.06145 17.2849C9.05878 17.3561 9.01747 17.3946 8.99348 17.4616C8.97083 17.607 9.04146 17.7254 8.94684 17.7767C8.98016 17.8095 8.94018 17.848 8.93085 17.8708C8.89886 17.8865 8.90819 17.9592 8.8802 17.9763C8.84422 18.0647 8.8269 18.059 8.79358 18.1488C8.73761 18.183 8.72828 18.2229 8.67497 18.2557C8.66697 18.2799 8.66697 18.2799 8.65498 18.3027C8.64698 18.3241 8.62832 18.3184 8.60967 18.3141C8.57368 18.3541 8.44441 18.4154 8.42709 18.4595L8.43775 18.4866C8.36179 18.518 8.34046 18.528 8.25784 18.5793C8.17254 18.6335 8.11124 18.6335 8.02462 18.6834C7.94865 18.6591 7.88335 18.7176 7.80605 18.6962C7.7794 18.7105 7.75008 18.729 7.72076 18.7432C7.68211 18.7304 7.62614 18.766 7.59682 18.7304C7.55817 18.7204 7.5675 18.796 7.52885 18.7846C7.51153 18.7775 7.51153 18.7775 7.49154 18.7732L7.48354 18.7461C7.42357 18.7775 7.37826 18.739 7.31962 18.7717L7.30896 18.7432C7.25299 18.776 7.20368 18.7418 7.16903 18.7789C7.11838 18.7447 7.01443 18.7432 6.92781 18.7504C6.9358 18.729 6.91848 18.7247 6.89582 18.7204L6.86917 18.7375C6.8785 18.7147 6.70791 18.729 6.68926 18.7276L6.64928 18.7204L6.63595 18.6905L6.60929 18.7119C6.57731 18.6819 6.37474 18.6606 6.32277 18.6021C6.28412 18.6434 6.24547 18.6235 6.20149 18.6149C6.01891 18.6021 5.79502 18.5151 5.77236 18.5094L5.75904 18.4809C5.6964 18.5166 5.58845 18.4795 5.5618 18.4239C5.53781 18.4196 5.50849 18.4154 5.48583 18.4097C5.46318 18.3512 5.31791 18.3626 5.29926 18.3042C5.29926 18.3042 5.22596 18.2514 5.19397 18.2101C5.14866 18.24 5.02872 18.0889 5.00607 18.0803L4.92877 18.0761L4.89945 17.9834L4.79283 17.8979C4.74752 17.8138 4.70488 17.885 4.69022 17.8095Z" fill="black"/>
<path d="M6.37506 14.4823C6.40438 14.4823 6.43503 14.4837 6.46435 14.4865C6.60695 14.6434 6.88548 14.5977 7.06939 14.6947C7.14402 14.6391 7.22532 14.6733 7.29195 14.6476C7.31461 14.679 7.31461 14.679 7.33726 14.7089C7.49852 14.6576 7.58648 14.746 7.7424 14.7317C7.77972 14.7075 7.77972 14.7075 7.81837 14.6818C7.84769 14.6847 7.87834 14.6875 7.86901 14.7175L7.90632 14.6904L7.92765 14.726L7.96496 14.6989C7.95697 14.7275 7.98628 14.7317 8.0156 14.736C8.0889 14.6847 8.13555 14.7517 8.22217 14.6747C8.24349 14.7089 8.27148 14.7132 8.29947 14.7175C8.38476 14.6405 8.41674 14.7218 8.52336 14.6861L8.54068 14.7232L8.57933 14.7004L8.56068 14.6647C8.57134 14.6362 8.59932 14.6419 8.62864 14.6505C8.67395 14.6918 8.70594 14.756 8.78857 14.7146L8.80589 14.7517C8.85253 14.7132 8.46872 14.6947 9.06976 14.6733C9.10708 14.6562 9.10708 14.6562 9.14706 14.6362C9.16172 14.6719 9.18971 14.679 9.21636 14.6861C9.29232 14.6491 9.35629 14.6391 9.43225 14.602C9.45891 14.6106 9.50422 14.6505 9.5522 14.6077L9.56686 14.6405C9.63216 14.6319 9.72411 14.6277 9.78942 14.6177C9.77875 14.6434 9.74544 14.5821 9.77209 14.5935C9.86271 14.545 9.96267 14.4837 10.052 14.5578C10.1532 14.545 10.1959 14.4908 10.3012 14.4823C10.3345 14.535 10.4184 14.4338 10.4678 14.4609C10.5157 14.4865 10.5171 14.4153 10.5491 14.468L10.5584 14.5051C10.5744 14.4837 10.5744 14.4837 10.589 14.458C10.6517 14.4637 10.6517 14.4637 10.7076 14.4324C10.7303 14.448 10.753 14.4623 10.7703 14.4381C10.8263 14.4153 10.8769 14.4153 10.9542 14.3953C10.9622 14.4352 11.0168 14.3768 11.0022 14.3996C11.0395 14.391 11.0808 14.3825 11.1274 14.4124C11.1421 14.3896 11.1568 14.3654 11.1821 14.3796L11.2101 14.4039C11.2381 14.3982 11.2394 14.3953 11.2714 14.3668C11.5925 14.3369 11.7725 14.1701 12.0896 14.1701C12.1456 14.1415 12.2003 14.113 12.2576 14.0888C12.3122 14.0589 12.3628 14.1344 12.3762 14.0717C12.3522 14.0546 12.4401 14.0318 12.4575 14.0118C12.5348 14.0004 12.5827 13.8564 12.6147 13.8108C12.5921 13.7923 12.6161 13.7709 12.6081 13.731L12.648 13.7238C12.6414 13.6854 12.6334 13.52 12.648 13.4972C12.6414 13.4587 12.5841 13.4844 12.6014 13.4601L12.5867 13.4316C12.5641 13.4159 12.5934 13.3732 12.6094 13.3518C12.5934 13.2734 12.5281 13.3603 12.4948 13.3062L12.5534 13.2121C12.5281 13.155 12.4095 13.1237 12.3628 13.0909C12.3309 13.1379 12.3335 13.118 12.2776 13.1493L12.2589 13.1051C12.2043 13.1351 12.1723 13.098 12.1549 13.1194C12.1789 13.1351 12.1403 13.1337 12.127 13.155C12.1096 13.1793 12.0923 13.2021 12.0697 13.1864C12.0483 13.1707 12.0243 13.155 11.987 13.1622C11.9697 13.185 11.9697 13.185 11.955 13.2078C11.7991 13.2349 11.4513 13.2463 11.4153 13.1935C11.3767 13.2035 11.3767 13.2035 11.338 13.2135C11.3633 13.2277 11.3167 13.2605 11.3313 13.2334C11.3567 13.2477 11.262 13.222 11.2474 13.2463C11.1234 13.2449 10.8516 13.2748 10.9049 13.2406C10.8422 13.2363 10.7183 13.2734 10.6703 13.2463C10.6543 13.3318 10.565 13.1964 10.5384 13.2463C10.5784 13.2334 10.4891 13.2263 10.5144 13.242L10.5184 13.2762C10.4411 13.3005 10.4344 13.2235 10.3585 13.2534C10.3318 13.2434 10.3212 13.2277 10.3332 13.2035C10.3078 13.1935 10.2892 13.1764 10.2772 13.2035L10.2892 13.2377C10.2519 13.252 10.1866 13.1693 10.1359 13.2092C10.1079 13.1978 10.0853 13.185 10.0586 13.175C9.968 13.2277 9.87338 13.2277 9.78142 13.2334L9.76143 13.2021C9.78942 13.2092 9.71745 13.2534 9.72811 13.2277C9.70013 13.2192 9.70013 13.2192 9.67347 13.2135C9.62683 13.262 9.43226 13.2605 9.37761 13.2463C9.43226 13.2605 9.26833 13.1436 9.27633 13.2035C9.1404 13.2605 8.98181 13.1736 8.83654 13.1736C8.82455 13.1137 8.76458 13.2121 8.71793 13.1736C8.72859 13.1465 8.73526 13.1208 8.70994 13.1151C8.67395 13.1379 8.64597 13.128 8.60998 13.1493C8.582 13.1451 8.55534 13.1422 8.56334 13.1151C8.53535 13.1108 8.50603 13.1066 8.49804 13.1337C8.47005 13.1294 8.4434 13.1265 8.45273 13.1009C8.41674 13.1237 8.37943 13.1536 8.34211 13.1764C8.31546 13.175 8.32212 13.1451 8.33012 13.1194C8.21018 13.1379 8.14088 13.0225 8.01427 13.0667C8.02094 13.0396 7.99428 13.0367 7.96363 13.0339C7.85968 13.1094 7.70775 13.0282 7.6118 13.0809C7.59447 13.0253 7.53184 13.0524 7.47586 13.0524C7.43988 13.0781 7.41856 13.0111 7.3919 13.0096C7.25997 12.9526 7.14936 12.9825 7.00809 12.9483C7.06406 12.8913 6.61761 12.8885 6.44569 12.8542C6.34174 12.7944 6.20981 12.8514 6.09786 12.8186C6.0912 12.8485 6.08587 12.8771 6.05655 12.8771C5.97259 12.8471 5.92461 12.9341 5.82999 12.9612C5.818 13.0225 5.75403 13.0495 5.77002 13.1009C5.73004 13.1607 5.72471 13.1693 5.69539 13.1693C5.67007 13.2862 5.65274 13.2748 5.62476 13.3931C5.65274 13.396 5.68339 13.396 5.67407 13.4259C5.65274 13.5157 5.70338 13.5485 5.68206 13.6369C5.71005 13.6397 5.74337 13.6412 5.73137 13.6697C5.71938 13.7281 5.74337 13.7609 5.76469 13.7894C5.75669 13.8194 5.7487 13.8507 5.71938 13.8464L5.74337 13.8792L5.70605 13.9063C5.72871 13.9377 5.72204 13.9676 5.71405 13.9961C5.73404 14.0275 5.82466 14.0332 5.78201 14.0902C5.98991 14.2228 6.16183 14.381 6.37506 14.4823Z" fill="black"/>
</g>
<defs>
<clipPath id="clip0_944_20410">
<rect width="24" height="10" fill="white" transform="translate(0 14)"/>
</clipPath>
</defs>
</svg>
