<svg width="25" height="24" viewBox="0 0 25 24" fill="none" xmlns="http://www.w3.org/2000/svg">
<g clip-path="url(#clip0_944_20393)">
<path d="M22.5001 0C16.779 5.53272 9.83285 6.71519 9.83285 6.71519C9.83285 10.8103 9.11771 13.8349 8.08521 16.0754C18.9646 10.6339 22.5001 0 22.5001 0Z" fill="#8BBE1D"/>
<path d="M16.1717 13.2975C13.3153 16.3367 9.34401 19.3198 3.95509 21.0272C2.11858 22.2221 0.5 22.3175 0.5 22.3175L2.34709 23.9999C11.1594 22.527 16.1294 17.2474 18.9307 12.0134C18.0082 12.4823 17.0793 12.9096 16.1717 13.2975Z" fill="#D7001D"/>
<path d="M18.9306 12.0134C20.1007 9.82898 20.8898 7.65282 21.423 5.76294C20.4561 7.70261 18.7804 10.5239 16.1716 13.2976C17.0793 12.9096 18.0081 12.4823 18.9306 12.0134Z" fill="#003B83"/>
<path d="M21.4232 5.76299C22.3604 2.4334 22.5001 0 22.5001 0C22.5001 0 18.9646 10.6339 8.08521 16.0754C8.08732 16.0733 11.8598 15.1439 16.1718 13.2976C18.7805 10.524 20.4562 7.70265 21.4232 5.76299Z" fill="#0081CC"/>
<path d="M16.1717 13.2976C11.8597 15.1439 8.08722 16.0733 8.0851 16.0754C6.92353 18.5959 5.35785 20.1144 3.95508 21.0293C9.344 19.3199 13.3175 16.3368 16.1717 13.2976Z" fill="#FABE00"/>
</g>
<defs>
<clipPath id="clip0_944_20393">
<rect width="22" height="24" fill="white" transform="translate(0.5)"/>
</clipPath>
</defs>
</svg>
