<svg width="24" height="24" viewBox="0 0 24 24" fill="none" xmlns="http://www.w3.org/2000/svg">
<g clip-path="url(#clip0_944_20390)">
<path d="M15.0871 6.04073C15.0871 4.3386 13.6952 2.95605 11.9736 2.95605C10.2591 2.95605 8.86011 4.3386 8.86011 6.04073C8.86011 7.73938 10.2556 9.12192 11.9736 9.12192C13.6917 9.1254 15.0871 7.74285 15.0871 6.04073Z" fill="#F47520"/>
<path d="M18.3059 17.9904C18.3059 17.9904 15.3922 18.251 11.7282 15.8402C9.57543 14.4229 8.84964 13.9991 8.40085 13.7525C7.76973 13.4086 6.86864 13.0786 5.83781 13.1307C4.27755 13.2071 3.0083 14.3847 3.0083 15.9305C3.0083 17.4798 4.27404 18.7338 5.83781 18.7338C7.22276 18.7338 8.3728 17.7473 8.61473 16.4446L8.63577 16.3647C8.64628 16.3231 8.69187 16.2015 8.82861 16.2049C8.96886 16.2119 9.15819 16.4134 9.64906 16.7885L10.1399 17.1811C14.137 20.4811 17.3557 20.8736 17.9938 20.957C18.3374 20.9987 21.1319 21.3878 24.0035 20.1685V15.3469C23.169 16.5002 20.7217 17.8967 18.3059 17.9904Z" fill="#006FBA"/>
<path d="M21.0863 9.76811C21.0723 9.69517 21.0127 9.63959 20.9356 9.62569C20.876 9.62222 20.8199 9.61874 20.7603 9.61874C19.1965 9.5979 17.5591 9.59443 16.367 10.779C15.5465 11.5918 15.0977 12.627 15.0066 13.6865C15.0066 13.6865 15.0066 13.6865 15.0066 13.69C15.0066 13.7629 15.0487 13.8254 15.1118 13.8532C15.5255 14.0339 16.083 14.1902 16.6685 14.0999C17.3417 13.9956 18.064 13.6101 18.5584 12.891C18.5829 12.8597 18.6741 12.7764 18.7933 12.8285C18.8844 12.8702 18.9125 12.957 18.8915 13.0543C18.8669 13.1272 18.8319 13.1967 18.7933 13.2488C18.2042 14.1172 17.6047 14.5549 16.7597 14.6869C16.6089 14.7078 16.4617 14.7182 16.3179 14.7182C15.5991 14.7182 14.968 14.4611 14.5543 14.2388C13.6462 13.8463 12.0929 12.6548 12.0929 12.6548C9.22834 10.3621 6.79854 9.96264 6.7179 9.94875C3.95851 9.41379 1.78817 9.96959 0 11.0603V12.8111C1.62688 11.4216 3.75515 10.6088 6.55311 11.0638C6.55311 11.0638 8.80409 11.3174 11.5354 13.3599C13.9056 15.1837 15.3046 15.4928 15.3046 15.4928C16.8929 15.9375 18.618 15.5415 19.8697 14.3013C21.0618 13.1203 21.1144 11.4702 21.0934 9.94875C21.0934 9.88622 21.0899 9.82717 21.0863 9.76811Z" fill="#009457"/>
<path d="M5.83784 13.1307C6.86866 13.0786 7.76976 13.4086 8.40088 13.7525C8.84967 13.9991 9.57195 14.4229 11.7283 15.8402C15.3958 18.251 18.3059 17.9904 18.3059 17.9904C20.7217 17.8967 23.169 16.5002 24 15.3469V0H0V11.0604C1.78817 9.97308 3.95851 9.41381 6.7179 9.95224C6.79854 9.96613 9.22834 10.3656 12.0929 12.6583C12.0929 12.6583 13.6427 13.8498 14.5543 14.2423C14.968 14.4646 15.6026 14.7217 16.3179 14.7217C16.4617 14.7217 16.6089 14.7112 16.7597 14.6904C17.6082 14.5584 18.2042 14.1207 18.7933 13.2523C18.8283 13.2002 18.8669 13.1272 18.8915 13.0578C18.9125 12.9605 18.8844 12.8736 18.7933 12.832C18.6741 12.7799 18.5864 12.8667 18.5584 12.8945C18.064 13.6135 17.3417 13.9991 16.6685 14.1033C16.083 14.1937 15.5255 14.0373 15.1118 13.8567C15.0486 13.8289 15.0066 13.7664 15.0066 13.6934V13.69C15.0942 12.6305 15.5465 11.5918 16.367 10.7825C17.5626 9.59792 19.2 9.60139 20.7603 9.62223C20.8199 9.62223 20.8795 9.62571 20.9356 9.62918C21.0092 9.6396 21.0688 9.69865 21.0863 9.7716C21.0898 9.83066 21.0934 9.88971 21.0969 9.95571C21.1179 11.4737 21.0653 13.1238 19.8732 14.3083C18.6215 15.5449 16.8999 15.9444 15.3081 15.4998C15.3081 15.4998 13.9091 15.1906 11.5389 13.3669C8.8076 11.3244 6.55661 11.0708 6.55661 11.0708C3.75515 10.6122 1.62688 11.4216 0 12.8111V24H24V20.172C21.1284 21.3878 18.334 21.0022 17.9904 20.9605C17.3522 20.8771 14.1335 20.4881 10.1364 17.1845L9.64558 16.792C9.15121 16.4168 8.96538 16.2154 8.82513 16.2084C8.69189 16.2015 8.64281 16.3265 8.63229 16.3682L8.61125 16.4481C8.36932 17.7508 7.21928 18.7373 5.83433 18.7373C4.27056 18.7373 3.00482 17.4833 3.00482 15.934C3.00833 14.3847 4.27758 13.2106 5.83784 13.1307ZM11.9737 9.12549C10.2592 9.12549 8.86019 7.74294 8.86019 6.04429C8.86019 4.34216 10.2557 2.95962 11.9737 2.95962C13.6953 2.95962 15.0872 4.34216 15.0872 6.04429C15.0872 7.74294 13.6917 9.12549 11.9737 9.12549Z" fill="#FFD600"/>
</g>
<defs>
<clipPath id="clip0_944_20390">
<rect width="24" height="24" fill="white"/>
</clipPath>
</defs>
</svg>
