<svg width="24" height="24" viewBox="0 0 24 24" fill="none" xmlns="http://www.w3.org/2000/svg">
<path d="M16.4954 15.4754V15.8615H15.0752C15.0752 16.0801 15.2278 16.2476 15.5306 16.3965C15.817 16.5476 16.2066 16.6477 16.7137 16.6988L16.4437 17.0175C16.0048 16.9663 15.6503 16.8826 15.3616 16.7826C15.0752 16.6825 14.871 16.5639 14.7184 16.4151C14.5822 16.5663 14.3639 16.6825 14.0752 16.7826C13.8052 16.8826 13.4508 16.9663 13.0447 17.0175L12.7935 16.6988C13.2841 16.6477 13.655 16.5476 13.9437 16.3965C14.1456 16.2964 14.2653 16.1964 14.3334 16.0615C13.3193 16.4476 12.2888 16.8826 11.2747 17.385V17.4176H11.2231C11.0869 17.485 10.9367 17.5525 10.8005 17.6176C10.7677 17.6339 10.7325 17.6502 10.716 17.6688C10.7841 17.7013 10.8522 17.7199 10.9015 17.7525C11.1879 17.9037 11.3405 18.0712 11.3405 18.2875C11.3405 18.4875 11.1879 18.655 10.9015 18.8062C10.5799 18.9573 10.1409 19.0411 9.58224 19.0411C9.1597 19.0411 8.82167 19.0085 8.53529 18.9062C4.83341 21.1531 3.17848 22.8115 2.04468 24C4.56346 23.6814 7.62214 22.6766 12.8944 20.3669C15.3123 19.162 17.3569 17.8874 18.8944 16.7988C18.8944 16.7663 18.8944 16.7477 18.8944 16.7151V15.4265H19.5869V16.2802C20.939 15.2591 21.7677 14.438 21.9015 14.0519C20.6855 14.2356 18.5212 14.6706 16.0376 15.4754H16.4954ZM16.7653 17.8199H15.094V18.9411H14.4015V17.8199H12.7442V17.4199H16.7677V17.8199H16.7653Z" fill="#53AC37"/>
<path d="M2.43427 15.4265H2.95775C3.73474 15.1079 4.63146 14.7241 5.71362 14.203C8.43427 12.747 10.2441 11.156 10.3944 10.7188C9.31221 10.9025 6.82864 11.5235 4.54695 12.7958C1.75822 14.4054 0.70892 15.5428 0 16.3127C0.692488 16.1964 1.46948 15.994 2.43427 15.6265V15.4265Z" fill="#006BAD"/>
<path d="M20.3826 11.2723C18.6596 12.2771 17.9999 12.9796 17.5774 13.4494C18.406 13.3331 19.4037 12.9633 21.1103 12.1608C22.8004 11.2397 23.9154 10.2675 23.9999 10C23.3403 10.1163 21.8027 10.4861 20.3826 11.2723Z" fill="#F29500"/>
<path d="M6.01651 17.6036H2.63623V18.9108H6.01651V17.6036Z" fill="black"/>
<path d="M9.8192 15.6615C9.58211 15.4777 9.26051 15.3777 8.83797 15.3777C8.41544 15.3777 8.07741 15.4777 7.85675 15.6615C7.65488 15.8452 7.53516 16.0638 7.53516 16.3313C7.53516 16.6151 7.65253 16.8337 7.85675 17.0012C8.07741 17.2012 8.41544 17.3036 8.83797 17.3036C9.26051 17.3036 9.58211 17.2036 9.8192 17.0012C10.0211 16.8337 10.1408 16.6151 10.1408 16.3313C10.1408 16.0615 10.0234 15.8452 9.8192 15.6615Z" fill="black"/>
<path d="M21.8192 15.3916H21.1267V18.941H21.8192V15.3916Z" fill="black"/>
<path d="M18.8968 15.4265V16.7151C18.8968 16.7477 18.8968 16.7663 18.8968 16.7988C18.8639 17.1012 18.7277 17.4175 18.4578 17.7711C18.2371 18.0549 18.0024 18.2735 17.7817 18.4084L18.1526 18.6922C18.3733 18.5573 18.5916 18.3898 18.777 18.1898C19.0141 17.9386 19.1831 17.6711 19.2512 17.4199C19.3193 17.6874 19.4719 17.9386 19.6902 18.1735C19.8756 18.3921 20.0799 18.5596 20.3146 18.6922L20.7536 18.4084C20.4836 18.2247 20.2465 18.006 20.0259 17.7385C19.7207 17.3873 19.5869 17.0361 19.5869 16.7174V16.2801V15.4265H18.8968Z" fill="black"/>
<path d="M13.9437 16.3964C13.6573 16.5476 13.2841 16.6476 12.7935 16.6988L13.047 17.0175C13.4531 16.9663 13.8075 16.8826 14.0775 16.7825C14.3639 16.6825 14.5845 16.5639 14.7207 16.415C14.8733 16.5662 15.0751 16.6825 15.3639 16.7825C15.6503 16.8826 16.0071 16.9663 16.446 17.0175L16.716 16.6988C16.209 16.6476 15.8193 16.5476 15.5329 16.3964C15.2277 16.2452 15.0775 16.0778 15.0775 15.8615H16.4977V15.4753H16.0423H13.0305V15.8615H14.3827C14.3827 15.9452 14.3662 15.9964 14.331 16.0615C14.2653 16.1964 14.1456 16.2964 13.9437 16.3964Z" fill="black"/>
<path d="M12.7441 17.8199H14.3991V18.9433H15.0939V17.8199H16.7653V17.4198H12.7441V17.8199Z" fill="black"/>
<path d="M11.2723 17.385V17.0175H11.7465V16.6151H11.2723V16.1289H11.7465V15.7451H11.2723V15.3916H10.5798V17.4198H11.223H11.2723V17.385Z" fill="black"/>
<path d="M10.9013 18.8084C11.1877 18.6572 11.3403 18.4897 11.3403 18.2897C11.3403 18.071 11.1877 17.9036 10.9013 17.7547C10.8496 17.7221 10.7839 17.7035 10.7158 17.671C10.4107 17.5709 10.0398 17.5198 9.58439 17.5198C9.00927 17.5198 8.5703 17.6035 8.24871 17.7547C7.96232 17.8896 7.82617 18.0734 7.82617 18.2897C7.82617 18.4897 7.96232 18.6572 8.24871 18.8084C8.33321 18.8409 8.43415 18.8921 8.53509 18.9084C8.82148 19.0084 9.15951 19.0433 9.58204 19.0433C10.1407 19.0433 10.5797 18.9595 10.9013 18.8084Z" fill="black"/>
<path d="M2.43433 15.6265V17.1175H3.02588H5.34043V17.4198H6.03292V16.6476H6.49066V16.229H6.03292V15.3916H5.34043V16.7314H3.12681V15.4265H2.9578H2.43433V15.6265Z" fill="black"/>
<path d="M9.54939 17.9224C9.21136 17.9224 8.94141 17.9549 8.75596 18.0387C8.58695 18.1061 8.50244 18.1898 8.50244 18.2899C8.50244 18.3736 8.58695 18.4573 8.75596 18.5248C8.84047 18.5574 8.94141 18.5922 9.06113 18.6085C9.41559 18.4085 9.78882 18.1898 10.1761 17.9712C10.0048 17.9386 9.80291 17.9224 9.54939 17.9224Z" fill="white"/>
<path d="M10.6479 18.2897C10.6479 18.1897 10.547 18.106 10.3779 18.0385C10.3099 18.006 10.2418 17.9874 10.1761 17.9711C9.78639 18.1897 9.4155 18.406 9.06104 18.6084C9.21362 18.6247 9.3662 18.6409 9.55165 18.6409C9.90611 18.6409 10.1761 18.6084 10.3803 18.5246C10.547 18.4572 10.6479 18.3735 10.6479 18.2897Z" fill="#53AC37"/>
<path d="M5.34035 18.0059H3.32861V18.5083H5.34035V18.0059Z" fill="white"/>
<path d="M9.29571 16.7314C9.19477 16.8477 9.04219 16.8989 8.84031 16.8989C8.63843 16.8989 8.48585 16.8477 8.36613 16.7314C8.28162 16.6314 8.22998 16.4965 8.22998 16.329C8.22998 16.1615 8.28162 16.0266 8.36613 15.9266C8.4835 15.8266 8.63608 15.7592 8.84031 15.7592C9.04219 15.7592 9.19477 15.8266 9.29571 15.9266C9.39665 16.0266 9.44829 16.1615 9.44829 16.329C9.44829 16.4988 9.39665 16.6314 9.29571 16.7314Z" fill="white"/>
</svg>
