<svg width="24" height="24" viewBox="0 0 24 24" fill="none" xmlns="http://www.w3.org/2000/svg">
<g clip-path="url(#clip0_944_16007)">
<path d="M17.2594 13.9431C17.2594 17.5533 14.3895 20.546 10.7659 20.8333C10.5867 20.8333 10.389 20.8547 10.2314 20.8547C6.33904 20.8547 3.2035 17.7306 3.2035 13.9431C3.2035 10.1342 6.29579 7.05287 10.0986 6.98868V3.84009C4.4917 3.88288 0 8.39485 0 13.9431C0 19.4669 4.58128 24.0002 10.2314 24.0002C10.7195 24.0002 11.2107 23.9574 11.6988 23.8902C16.6353 23.1871 20.4412 18.9808 20.4412 13.9431H17.2594Z" fill="#0082C1"/>
<path d="M11.6988 23.8899H24C24 23.8899 22.6655 15.1962 20.33 12.445C19.8852 11.9375 19.3971 11.6318 18.9275 11.6318C18.2819 11.6318 17.661 12.0506 17.1049 12.6223C15.86 13.8756 14.9239 15.9237 14.9239 15.9237C14.9239 15.9237 14.2783 14.7346 13.4566 14.7346C12.7213 14.7346 11.81 15.5049 10.7659 20.83C14.3926 20.5427 17.2594 17.55 17.2594 13.9398H20.4412C20.4412 18.9806 16.6384 23.1869 11.6988 23.8899Z" fill="#7CBB32"/>
<path d="M18.8163 1C17.7474 1 17.1698 1.59304 17.4138 3.24375C17.457 3.7512 17.837 5.20322 17.5466 6.89673C17.3458 7.92996 16.969 9.05489 16.0576 10.0881C15.2112 11.1213 13.9014 12.0476 11.8996 12.7079C11.8996 12.7079 14.1022 11.8275 15.3039 9.11908C15.7055 8.19591 15.9928 7.02818 15.9928 5.59755C15.9928 5.55476 15.9928 5.48751 15.9928 5.42025C15.9928 3.76954 15.5047 3.50665 14.8807 3.50665C14.1918 3.50665 13.8581 3.87959 13.7469 4.45428C13.7037 4.67438 13.7037 4.89447 13.7469 5.15736C13.7902 6.08054 13.9014 7.02818 13.8365 7.97581C13.7469 9.62653 13.0797 11.2344 10.5218 12.3777C10.5218 12.3777 12.7893 11.0999 12.9252 7.51422C12.9252 7.42557 12.9252 7.33692 12.9252 7.25133C12.9252 6.39234 12.7924 5.60061 11.9459 5.71066C11.4578 5.75346 11.257 6.41374 11.2786 7.07403C11.2786 7.07403 11.2786 7.07403 11.2786 7.09543C11.3682 8.26316 12.2363 12.7507 6.09497 13.8297C6.09497 13.8297 12.5885 14.7315 16.8145 11.5615C17.7042 10.9012 18.4827 10.0423 19.1283 8.98764C19.95 7.55702 20.4412 5.75346 20.4412 3.46385C20.4412 1.96903 19.8852 1 18.8163 1Z" fill="#EF8D22"/>
</g>
<defs>
<clipPath id="clip0_944_16007">
<rect width="24" height="23" fill="white" transform="translate(0 1)"/>
</clipPath>
</defs>
</svg>
