<svg width="24" height="24" viewBox="0 0 24 24" fill="none" xmlns="http://www.w3.org/2000/svg">
<g clip-path="url(#clip0_944_16671)">
<path d="M10.9082 18.4342V12.6104L7.25844 10.3977C7.01666 10.2003 6.29648 9.35035 6.2399 10.9708V17.5047C6.2399 17.5047 -1.26026 18.4314 0.185239 21.2364C1.94454 23.6849 9.07432 24.0002 9.07432 24.0002C9.07432 24.0002 3.44405 23.0542 2.31491 21.1185C1.77735 18.8482 6.57427 17.979 8.48017 17.8227C4.8124 18.6508 -0.0951165 20.5674 5.66632 22.4017C4.61177 21.1377 4.81497 20.3672 6.61027 19.5008C7.87059 18.7879 10.9082 18.4342 10.9082 18.4342Z" fill="#ED832C"/>
<path d="M13.1846 18.2173V12.6897L17.0915 10.2412C17.0915 10.2412 17.8143 9.66818 17.7757 10.8335V17.5456C18.4599 17.584 21.4615 18.1378 22.6832 19.0865C19.1672 17.8225 16.2042 18.1954 13.1846 18.2173Z" fill="#0071B2"/>
<path d="M16.4819 18.7493C22.0016 18.5903 23.9821 19.2621 24.0001 20.8222C24.0361 22.4015 19.5556 23.7834 13.9999 23.9205C11.4818 23.9808 9.16695 23.7615 7.38965 23.3667C8.40819 23.4462 9.50132 23.4654 10.6305 23.4462C15.9084 23.3091 20.1857 22.0643 20.1677 20.644C20.1677 19.3416 18.555 19.0839 16.4819 18.7493Z" fill="#80BA45"/>
</g>
<defs>
<clipPath id="clip0_944_16671">
<rect width="24" height="14" fill="white" transform="translate(0 10)"/>
</clipPath>
</defs>
</svg>
