<svg width="25" height="24" viewBox="0 0 25 24" fill="none" xmlns="http://www.w3.org/2000/svg">
<g clip-path="url(#clip0_944_16701)">
<path d="M10.3927 9.84494C11.6948 9.84494 12.747 8.75171 12.747 7.42247C12.747 6.09323 11.6921 5 10.3927 5C9.09334 5 8.00122 6.09323 8.00122 7.42247C8.00122 8.75171 9.09068 9.84494 10.3927 9.84494Z" fill="#E4201E"/>
<path d="M13.3185 17.0499C19.1537 17.2832 20.9527 19.0221 21.9651 19.7057C25.0634 16.4233 25.9828 9.19655 20.8756 7.41971C17.5647 6.34547 15.3858 8.70826 14.7162 9.54921C14.2007 10.0375 11.9792 12.4003 10.7171 13.2412C9.01379 13.7892 8.21131 13.9248 6.41237 10.3305C5.51423 8.21997 4.30785 7.71268 2.37605 10.4281C-3.38214 20.175 5.18739 24.7242 13.6267 23.905C18.8296 23.3977 19.9987 21.7185 20.1688 20.8966C19.8233 17.8882 11.6923 17.9858 8.99518 19.0601C5.97127 20.6823 9.6276 21.4825 10.5071 21.4228C11.6365 21.3252 13.6639 21.0919 12.7844 20.6416C11.3495 19.8413 12.1918 19.2744 14.6391 19.2744C21.1812 20.5439 13.5284 22.5758 11.7693 22.4591C1.61077 21.9735 3.84815 16.7976 13.3185 17.0499Z" fill="#37AA40"/>
</g>
<defs>
<clipPath id="clip0_944_16701">
<rect width="24" height="19" fill="white" transform="translate(0.5 5)"/>
</clipPath>
</defs>
</svg>
