<svg width="25" height="22" viewBox="0 0 25 22" fill="none" xmlns="http://www.w3.org/2000/svg">
<g clip-path="url(#clip0_1201_9593)">
<path d="M0.498535 16.9066C2.43091 17.3942 9.47153 19.0995 11.9118 22L13.7625 20.337C14.7257 20.0297 3.29493 16.5204 0.498535 16.9066Z" fill="#2D2788"/>
<path d="M2.2002 16.4189C5.60375 16.9459 10.7762 17.7183 15.251 19.5645L18.1934 18.2651C16.4303 17.5548 6.52907 15.8692 2.2002 16.4189Z" fill="#2D2788"/>
<path d="M3.82031 15.8919C8.61331 15.7707 15.9692 16.6022 20.0237 17.7805L24.5014 16.6642C20.444 15.0576 8.00032 15.0181 3.82031 15.8919Z" fill="#2D2788"/>
<path d="M11.5529 0C15.7562 0 19.1598 3.28661 19.1598 7.30609C19.1598 10.7956 16.5735 13.7186 13.2108 14.4487C15.4585 13.496 16.4889 11.9513 16.8479 11.3227C18.2344 9.07059 15.5665 5.90519 12.0141 8.82537C8.73603 12.7011 4.48888 10.308 3.98682 7.50621C3.98682 7.4442 3.98682 7.38501 3.98682 7.30327C3.98682 3.28661 7.41372 0 11.5529 0Z" fill="#24A85B"/>
</g>
<defs>
<clipPath id="clip0_1201_9593">
<rect width="24.0029" height="22" fill="white" transform="translate(0.498535)"/>
</clipPath>
</defs>
</svg>
