<svg width="24" height="24" viewBox="0 0 24 24" fill="none" xmlns="http://www.w3.org/2000/svg">
<g clip-path="url(#clip0_944_15880)">
<path d="M12.2305 10.2711C12.2305 9.03614 12.2305 6 12.2305 6C10.3606 6.8253 3.01245 10.0994 3.01245 13.1988C3.01245 15.0843 5.6523 16.3434 8.40214 16.7982C6.77362 15.5181 5.30093 14.3042 5.30093 13.241C5.30093 10.988 10.0093 10.2711 12.2305 10.2711Z" fill="#F08300"/>
<path d="M0 20.3132C0 22.6324 6.68822 23.9999 9.10808 23.9999C11.5066 23.9999 12.9579 23.3493 12.9579 22.286C12.9579 20.3553 10.5166 18.4698 8.40535 16.7981C2.70707 17.1686 0 18.6867 0 20.3132Z" fill="#0068B7"/>
<path d="M14.1892 16.8645C13.462 16.9067 12.7379 16.9519 12.0107 16.9729C15.4633 18.6657 19.3589 20.4006 19.3589 22.2862C19.3589 23.0031 18.8762 23.3043 17.6662 23.7621C22.2432 22.9368 24.0031 21.5723 24.0031 20.5513C24 18.1657 19.2275 17.1476 14.1892 16.8645Z" fill="#0068B7"/>
<path d="M12.9578 10.9456C8.73526 10.9456 6.75537 11.7709 6.75537 12.9636C6.75537 14.2438 8.99802 15.4998 11.5951 16.7799C11.7265 16.8462 11.8823 16.9094 12.0137 16.9757C12.7409 16.9546 13.465 16.9094 14.1922 16.8672C18.2191 16.5209 21.519 15.5871 21.519 14.0901C21.5159 12.7227 18.7416 10.9456 12.9578 10.9456Z" fill="#F08300"/>
</g>
<defs>
<clipPath id="clip0_944_15880">
<rect width="24" height="18" fill="white" transform="translate(0 6)"/>
</clipPath>
</defs>
</svg>
