<svg width="24" height="24" viewBox="0 0 24 24" fill="none" xmlns="http://www.w3.org/2000/svg">
<g clip-path="url(#clip0_944_15405)">
<path d="M6.5962 11.3498C6.5962 11.3498 5.77095 11.9241 5.26287 12.0544C5.26287 12.0544 4.45817 12.2468 3.5918 12.0129V12.0988L3.82381 12.1402L3.80325 12.2054L3.5918 12.1846V12.2705C3.5918 12.2705 4.18504 12.4629 4.5639 12.4185C4.5639 12.4185 4.69018 12.4392 4.49929 12.5044C4.49929 12.5044 3.77976 12.4836 3.61236 12.3771V12.4836C3.61236 12.4836 3.90898 12.6317 4.22616 12.6317C4.22616 12.6317 4.373 12.6731 4.2056 12.7383C4.2056 12.7383 3.69752 12.6731 3.65641 12.6317V12.6731C3.65641 12.6731 3.80325 12.7797 3.88842 12.8004C3.88842 12.8004 3.90898 12.8419 3.82381 12.8656C3.82381 12.8656 3.67697 12.8448 3.61236 12.8241V12.91C3.61236 12.91 4.12043 12.9958 4.05582 13.0817C4.05582 13.0817 4.0147 13.1024 3.80325 13.0402L3.5918 12.9751L3.61236 13.1231L3.84437 13.1646C3.84437 13.1646 3.99121 13.2504 3.84437 13.2504L3.61236 13.2297V13.3363L3.95009 13.4014C3.95009 13.4014 4.09694 13.508 3.92954 13.5287C3.92954 13.5287 3.63291 13.4636 3.5918 13.4014L3.61236 13.5731L4.22616 13.6382C4.22616 13.6382 4.45817 13.7241 4.18504 13.7448L3.61529 13.6797V13.9343C3.61529 13.9343 4.77829 14.0823 5.47726 13.807C5.47726 13.807 6.15274 13.508 6.57564 13.1883C6.57564 13.1883 7.33629 12.7205 7.88548 12.8892L8.01177 11.0359C7.90898 11.0093 7.06316 10.9886 6.5962 11.3498Z" fill="#E6002D"/>
<path d="M12.3289 18.2981C10.1733 16.5514 7.0837 17.1672 7.0837 17.1672C2.76946 17.6823 1.88253 15.2725 1.88253 15.2725H0C0.654919 17.8096 3.02496 18.4906 3.02496 18.4906C4.75771 19.3432 7.2746 19.0649 7.2746 19.0649C9.62115 18.8932 10.6167 20.1958 11.0602 20.5984C11.0602 20.5984 11.0808 20.6192 11.1013 20.6399C11.207 20.7465 11.3774 20.8945 11.5888 21.1077L13.6182 19.4231C12.9633 18.8547 12.3289 18.2981 12.3289 18.2981Z" fill="#007D4F"/>
<path d="M23.9794 17.8303C23.4713 14.4197 19.3069 13.8217 19.3069 13.8217C16.0939 13.3747 12.6049 13.4368 12.6049 13.4368L12.2232 8.8125H11.6093V8.30329C12.5609 8.26184 12.5403 7.96283 12.5403 7.96283V7.49211C11.4419 7.21382 11.4419 6.63947 11.4419 6.63947V6H11.2099V6.34046C10.323 6.72533 9.16001 6.40559 9.16001 6.40559V6.1273H8.928V6.7875C8.7371 7.27895 7.87073 7.55428 7.87073 7.55428V7.95987C7.87073 8.34474 8.82227 8.27961 8.82227 8.27961V8.83322H8.18791L8.01757 11.0299L7.89129 12.8832L7.72095 15.2072H13.4948C16.7723 15.1421 19.2041 15.6987 19.2041 15.6987C21.9941 16.4862 21.4449 17.8954 21.4449 17.8954C21.254 19.047 19.4361 18.5556 19.4361 18.5556C17.765 18.15 17.3627 19.5799 17.3627 19.5799C16.7283 21.0069 15.8825 20.9003 15.8825 20.9003C15.207 20.9418 14.5286 20.2609 14.5286 20.2609C14.2525 20.027 13.9353 19.728 13.6182 19.4289L11.5888 21.1135C12.3083 21.8181 13.3861 22.8839 13.3861 22.8839C15.0778 24.1836 15.9882 23.9911 15.9882 23.9911C17.4273 23.9053 18.4845 22.0076 18.4845 22.0076C19.3509 20.7493 20.558 20.8352 20.558 20.8352C21.4889 20.7938 21.9735 20.7079 21.9735 20.7079C24.3582 20.2401 23.9794 17.8303 23.9794 17.8303Z" fill="#004898"/>
<path d="M10.508 9.21802H9.93823V9.77164H10.508V9.21802Z" fill="white"/>
<path d="M9.32463 9.21802H8.75488V9.77164H9.32463V9.21802Z" fill="white"/>
<path d="M11.6506 9.21802H11.0808V9.77164H11.6506V9.21802Z" fill="white"/>
</g>
<defs>
<clipPath id="clip0_944_15405">
<rect width="24" height="18" fill="white" transform="translate(0 6)"/>
</clipPath>
</defs>
</svg>
