<svg width="24" height="24" viewBox="0 0 24 24" fill="none" xmlns="http://www.w3.org/2000/svg">
<g clip-path="url(#clip0_944_16528)">
<path d="M6.67636 3.93474C6.67636 3.93474 6.381 2.54275 8.31983 3.15522C10.4458 3.57722 18.2158 4.86371 22.7222 8.30412C26.553 11.7211 20.5114 13.79 20.8477 13.8105C20.8477 13.8105 21.0173 13.242 19.7306 12.4801C18.4877 11.7211 12.6771 10.2441 7.18227 10.7511C5.98329 10.8566 3.93918 10.6866 3.93918 10.6866C3.93918 10.6866 1.43303 10.9826 0.339327 8.28068C0.254521 8.02865 0.149245 8.04917 0.00302846 7.94367C-0.0379122 7.83817 0.424132 7.33119 0.804296 7.83817C1.16106 8.28068 1.54123 8.02865 1.77225 7.8792C2.00327 7.70923 2.55012 6.65425 3.98305 5.98023C5.41597 5.28277 6.02423 6.02126 6.02423 6.02126C4.82525 6.37878 4.71998 8.3217 3.20225 8.91074C3.43327 9.3972 4.0854 10.1767 5.51832 10.4082C6.06517 10.4082 6.57108 10.2617 6.67636 9.52321V3.93474Z" fill="#37AA40"/>
<path d="M3.7081 11.8062C3.66715 12.1226 3.43321 12.6707 4.5503 13.1776C5.83408 13.8106 10.5306 15.3521 17.6893 14.9711C20.8885 14.5901 21.3535 15.8356 21.6255 16.2781C21.9004 16.9521 22.1314 18.347 21.2453 19.443C21.0757 19.0005 21.2453 18.3881 20.0025 17.9661C18.6748 17.5851 18.7187 16.5301 18.7596 15.8766C19.4966 15.6861 21.1166 17.0576 21.2863 17.8606C21.0552 16.7851 20.3797 16.0261 19.2655 15.6656C18.1923 15.4546 17.9174 15.6012 17.6455 15.7301V23.03C17.6455 23.03 17.7303 24.2315 16.2973 23.959C14.6977 23.663 4.33683 20.8585 1.43296 17.6935C-1.17554 14.4436 1.43589 12.8406 3.7081 11.8062Z" fill="#0076BA"/>
<path d="M4.86613 16.5946C4.86613 16.7206 4.8018 16.8261 4.71992 16.9111C4.63511 16.9756 4.5503 17.0166 4.44503 17.0166C4.31928 17.0166 4.21401 16.9756 4.17014 16.9111C4.06487 16.8261 4.02393 16.7206 4.02393 16.5946C4.02393 16.4891 4.06487 16.4041 4.17014 16.3191C4.21108 16.2341 4.31636 16.1931 4.44503 16.1931C4.5503 16.1931 4.63511 16.2341 4.71992 16.3191C4.80472 16.407 4.86613 16.4891 4.86613 16.5946Z" fill="#0076BA"/>
<path d="M9.37259 18.0101C9.37259 18.1361 9.33165 18.2211 9.24685 18.3061C9.20591 18.3706 9.10063 18.4116 8.97196 18.4116C8.88715 18.4116 8.78188 18.3706 8.69707 18.3061C8.65613 18.2211 8.5918 18.1361 8.5918 18.0101C8.5918 17.9046 8.65613 17.8196 8.69707 17.7346C8.78188 17.6702 8.88715 17.6292 8.97196 17.6292C9.09771 17.6292 9.20298 17.6702 9.24685 17.7346C9.33165 17.8196 9.37259 17.9046 9.37259 18.0101Z" fill="#0076BA"/>
<path d="M13.0338 16.5535H11.0979V16.9344H13.0338V16.5535Z" fill="#0076BA"/>
</g>
<defs>
<clipPath id="clip0_944_16528">
<rect width="24" height="21" fill="white" transform="translate(0 3)"/>
</clipPath>
</defs>
</svg>
