<svg width="25" height="24" viewBox="0 0 25 24" fill="none" xmlns="http://www.w3.org/2000/svg">
<g clip-path="url(#clip0_944_16500)">
<path d="M10.6656 9.00054L9.38867 8.94653C9.69345 9.33618 9.99822 9.80685 10.249 10.3354H10.3609C10.3609 10.1386 10.4727 9.6371 10.6656 9.00054Z" fill="#62C0B4"/>
<path d="M17.0002 10.0847L24.307 9.7799C24.307 9.72589 24.307 9.66802 24.307 9.61401L16.7803 9.28223C16.8343 9.52913 16.9423 9.8069 17.0002 10.0847Z" fill="#62C0B4"/>
<path d="M21.3867 4.94582C21.3867 4.97283 21.3867 4.97283 21.3867 4.99984L22.247 4.94582C22.1622 4.89181 22.1352 4.86095 22.1081 4.80694L21.3867 4.75293C21.3867 4.83395 21.3867 4.88796 21.3867 4.94582Z" fill="#62C0B4"/>
<path d="M16.082 7.66563L23.5818 7.33385C23.5278 7.27984 23.5278 7.22197 23.5278 7.16796L15.5574 6.83618C15.7233 7.08309 15.9162 7.36086 16.082 7.66563Z" fill="#62C0B4"/>
<path d="M11.7228 6.6665L1.97384 6.27686C1.61119 6.91727 1.33343 7.61169 1.11353 8.33312L11.0862 7.88946C11.2212 7.49981 11.472 7.08316 11.7228 6.6665Z" fill="#62C0B4"/>
<path d="M6.63786 8.8345L1.00146 8.58374C0.808569 9.27816 0.669685 9.99959 0.611816 10.7519L5.3879 10.559C5.75054 9.80669 6.16719 9.22029 6.63786 8.8345Z" fill="#62C0B4"/>
<path d="M17.9145 4.58319L3.66732 3.91577C3.11178 4.52532 2.58325 5.19274 2.1936 5.94503L17.8605 5.16573C17.8605 4.91497 17.8605 4.72207 17.9145 4.58319Z" fill="#62C0B4"/>
<path d="M6.52607 22.4453L19.6931 21.6969C19.7471 21.6429 19.805 21.612 19.859 21.558L4.2229 20.6938C4.89032 21.3613 5.66576 21.9438 6.52607 22.4453Z" fill="#62C0B4"/>
<path d="M12.498 24C13.7209 24 14.859 23.8341 15.9701 23.4985L8.24658 23.2207C9.58142 23.7222 11.0281 24 12.498 24Z" fill="#62C0B4"/>
<path d="M12.498 0C10.9703 0 9.44256 0.304774 8.05371 0.860312L15.9161 0.470664C14.805 0.16589 13.721 0 12.498 0Z" fill="#62C0B4"/>
<path d="M17.6099 12.4148C17.6639 12.1911 17.8028 11.8593 17.9147 11.6664L17.3591 11.6394C17.4131 11.8902 17.498 12.1409 17.498 12.4187H17.6099V12.4148Z" fill="#62C0B4"/>
<path d="M21.6952 12.2218L24.4999 12.1099C24.4999 12.0829 24.4999 12.0559 24.4999 12.025C24.4999 11.998 24.4999 11.971 24.4999 11.9131L21.5293 11.8013C21.5833 11.944 21.6373 12.0829 21.6952 12.2218Z" fill="#62C0B4"/>
<path d="M19.7509 2.41509L6.47197 1.63965C5.61166 2.14118 4.80536 2.75072 4.13794 3.44515L19.8859 2.52697C19.8589 2.49996 19.8049 2.44595 19.7509 2.41509Z" fill="#62C0B4"/>
<path d="M2.2207 18.2478C2.63736 18.9422 3.16589 19.5826 3.72143 20.1652C3.72143 19.6366 3.72143 18.9692 3.77544 18.2478H2.2207Z" fill="#62C0B4"/>
<path d="M22.6675 16.971L23.4738 16.944C23.5278 16.89 23.5278 16.8321 23.5857 16.7781L22.6135 16.7241C22.6096 16.8051 22.6675 16.89 22.6675 16.971Z" fill="#62C0B4"/>
<path d="M22.3589 14.6098L24.2493 14.5249C24.2493 14.4979 24.3033 14.44 24.3033 14.413L22.3049 14.3281C22.3049 14.4169 22.3049 14.5287 22.3589 14.6098Z" fill="#62C0B4"/>
<path d="M4.44271 13.5567L0.611816 13.387C0.665827 14.1084 0.804711 14.8298 1.05548 15.5242L4.08393 15.3854C4.16494 14.7758 4.27682 14.1663 4.44271 13.5567Z" fill="#62C0B4"/>
<path d="M5.1372 11.1648L0.554011 10.9719C0.554011 11.3346 0.5 11.6663 0.5 12.029C0.5 12.4186 0.554011 12.8083 0.554011 13.1671L4.58166 13.0012C4.75141 12.3338 4.9443 11.7204 5.1372 11.1648Z" fill="#62C0B4"/>
<path d="M4.02619 15.9177L1.10962 15.7788C1.33338 16.5002 1.66516 17.2217 2.0278 17.8891L3.8333 17.8042C3.8603 17.1947 3.91817 16.5542 4.02619 15.9177Z" fill="#62C0B4"/>
<path d="M21.3866 4.7491C21.2748 3.9428 20.6073 3.33325 19.8049 3.33325C18.8867 3.33325 18.1653 4.05468 18.1653 4.94585C18.1653 5.83703 18.8867 6.55846 19.8049 6.55846C20.6652 6.55846 21.3866 5.86403 21.3866 5.00372C21.3866 4.97672 21.3866 4.97672 21.3866 4.94971C21.3866 4.88799 21.3866 4.83398 21.3866 4.7491Z" fill="#F39945"/>
<path d="M22.7485 18.3326C22.7215 17.862 22.6636 17.4145 22.6636 16.9708C22.6636 16.8859 22.6096 16.8049 22.6096 16.72C22.5556 15.9407 22.4437 15.2463 22.3588 14.6098C22.3048 14.5249 22.3048 14.4169 22.3048 14.332C22.1119 13.4987 21.9422 12.8043 21.6953 12.2217C21.6413 12.0828 21.5834 11.944 21.5294 11.8051C21.0857 10.7789 20.5572 10.2773 20.0557 10.2773C18.7787 10.2773 18.1113 12.3606 17.8065 13.8613C15.8351 13.9462 13.7249 14.4439 13.7249 15.6128C13.7249 17.5572 19.3072 19.0001 21.892 19.5556C22.2547 19.6405 22.6135 19.6945 22.8102 19.7485C22.7755 19.2508 22.7485 18.7763 22.7485 18.3326Z" fill="#009BA2"/>
<path d="M10.8622 15.9986C10.8622 13.6916 15.7772 13.3328 17.6676 13.4139C17.6136 13.0512 17.5557 12.7194 17.5017 12.4147C17.5017 12.1369 17.4168 11.8861 17.3628 11.6354C17.2509 11.0798 17.1391 10.5513 17.0002 10.0806C16.9462 9.80286 16.8343 9.52509 16.7764 9.27433C16.5256 8.66478 16.3327 8.13624 16.082 7.66172C15.9161 7.35695 15.7193 7.07918 15.5535 6.82842C14.9979 6.02212 14.3305 5.66333 13.775 5.66333C11.9965 5.66333 11.0821 9.30133 10.6076 11.2457C10.5536 10.9409 10.4147 10.6362 10.245 10.3275C9.99422 9.799 9.68944 9.32834 9.38467 8.93869C9.02203 8.57604 8.71725 8.32914 8.41248 8.32914C5.54991 8.32914 4.27295 15.4971 4.27295 20.2192L21.3326 20.1652C21.3866 20.1652 21.3866 20.1652 21.3866 20.1382C16.4716 19.8334 10.8622 18.2208 10.8622 15.9986Z" fill="#009BA2"/>
</g>
<defs>
<clipPath id="clip0_944_16500">
<rect width="24" height="24" fill="white" transform="translate(0.5)"/>
</clipPath>
</defs>
</svg>
