<svg width="25" height="24" viewBox="0 0 25 24" fill="none" xmlns="http://www.w3.org/2000/svg">
<g clip-path="url(#clip0_944_19274)">
<path d="M10.8102 8.59952C11.2313 7.74701 12.1019 7.87024 13.1701 8.23488C13.9405 8.47881 15.3067 8.1871 15.6045 7.28681L13.617 4C13.6914 5.192 13.1701 5.58179 12.4254 5.65472C11.7783 5.65472 11.3828 5.82573 11.085 6.16522L7.50781 12.1755C9.4954 12.2736 11.4085 12.9777 13.0469 15.2888C13.9662 16.5789 15.5814 17.6728 18.6116 18.2336C16.981 18.5882 15.6918 18.1934 14.092 17.6401" fill="#009FB5"/>
<path d="M14.0921 17.6402C13.4989 17.4365 12.8646 17.2102 12.1508 16.9914C10.0399 16.3577 6.80944 16.0911 4.59844 17.0895L0.5 24.0001C3.30676 21.7142 8.3502 21.1282 11.953 22.4661C16.1028 24.0001 20.1011 24.4603 24.5 22.2473L21.4929 17.2605C20.9716 17.6754 20.4504 17.8942 19.9265 17.9671L20.4966 13.9762C18.6579 14.1698 17.0684 13.7323 15.9 12.4196C14.1615 10.4253 12.4718 8.94162 10.8077 8.59961" fill="#009FB5"/>
<path d="M8.16792 12.4722C9.25673 12.4722 10.1221 13.3196 10.1452 14.3859C10.1452 15.4295 9.27984 16.2997 8.19103 16.2997C7.12533 16.2997 6.23682 15.4522 6.23682 14.406C6.23425 13.3423 7.09965 12.4948 8.16792 12.4722Z" fill="#E77F32"/>
</g>
<defs>
<clipPath id="clip0_944_19274">
<rect width="24" height="20" fill="white" transform="translate(0.5 4)"/>
</clipPath>
</defs>
</svg>
