<svg width="25" height="24" viewBox="0 0 25 24" fill="none" xmlns="http://www.w3.org/2000/svg">
<g clip-path="url(#clip0_944_15933)">
<path d="M12.4916 12.6466L11.1155 11C7.19225 11.24 3.51334 12.6271 0.5 14.8375C1.8143 15.4794 3.0275 16.1827 4.26036 16.9669L8.72841 13.3499L10.1831 15.1389L12.4888 12.7471L12.5281 12.708L12.4916 12.6466Z" fill="#4CB352"/>
<path d="M10.8937 18.516C12.1265 18.516 13.3818 18.6555 13.3818 19.0379C13.3818 19.4007 12.4916 19.5011 12.4916 19.5011C12.4916 19.5011 12.8567 19.8026 13.6037 19.8026C16.6563 19.8026 17.4062 19.4398 17.4062 19.0183C17.4062 18.4964 14.9405 18.0527 11.9075 18.0331C9.41928 18.0136 7.31865 18.2732 6.66992 18.6555C7.1361 18.996 7.5405 19.3393 7.98422 19.6798C7.9449 19.6184 7.90278 19.5598 7.90278 19.4788C7.9421 18.6164 9.92197 18.516 10.8937 18.516Z" fill="#0052A5"/>
<path d="M14.1287 11.0391L12.5308 12.708L12.4915 12.7471L10.1858 15.1389L8.72831 13.3499L4.26025 16.9669C5.00727 17.4498 5.71497 17.9521 6.40301 18.474C7.71731 17.8907 10.2645 17.5084 13.2778 17.5084C15.6424 17.5084 17.7655 17.7484 19.1809 18.1307C20.8603 16.9446 22.638 15.8813 24.4999 14.9547C21.5905 12.7694 17.9902 11.3628 14.1287 11.0391Z" fill="#0052A5"/>
<path d="M8.34644 19.9615C9.78149 21.2063 11.1576 22.5543 12.4915 24V23.9804C13.5643 22.7943 14.755 21.6696 15.9907 20.6035C15.3223 20.6649 14.6764 20.6649 14.0895 20.6649C13.2779 20.6649 9.51751 20.6258 8.34644 19.9615Z" fill="#0052A5"/>
</g>
<defs>
<clipPath id="clip0_944_15933">
<rect width="24" height="13" fill="white" transform="translate(0.5 11)"/>
</clipPath>
</defs>
</svg>
