<svg width="25" height="24" viewBox="0 0 25 24" fill="none" xmlns="http://www.w3.org/2000/svg">
<g clip-path="url(#clip0_944_16001)">
<path d="M16.314 19.9031C14.2735 21.8893 12.2121 22.8261 11.6304 23.0841C13.0056 22.0376 14.1005 20.9081 14.9805 19.8408C14.3779 19.8201 13.7992 19.8201 13.2413 19.8201C12.6835 19.8201 12.1674 19.8201 11.696 19.8408C8.94548 21.9753 6.60664 22.6572 6.60664 22.6572C4.11565 23.256 2.69862 22.7224 1.9021 22.0583C2.26605 23.1463 7.12273 24.0001 13.0504 24.0001C19.2793 24.0001 24.3478 23.0603 24.4135 21.9071C24.4522 20.9466 21.0156 20.1373 16.314 19.9031Z" fill="#4CB352"/>
<path d="M24.4971 8.65259C24.348 3.35789 19.6434 0.00793886 11.7827 3.31639C5.145 6.13568 0.0973904 13.0075 0.526974 18.8566C0.526974 18.8566 0.655252 19.9654 0.956557 20.6294V20.6087C0.956557 20.6087 1.12958 21.3972 1.90224 22.0613C2.69577 22.7224 4.11579 23.256 6.60677 22.6601C6.60677 22.6601 8.9486 21.9783 11.6961 19.8438C13.1997 18.6491 14.8315 17.0038 16.2933 14.7863C16.2933 14.7863 19.5152 9.68426 15.0254 9.57754C15.0254 9.57754 19.6434 8.65852 17.7103 15.062C17.7103 15.062 17.0242 17.2824 14.9837 19.8438C14.1036 20.911 13.0088 22.0435 11.6335 23.087C12.2122 22.8321 14.2766 21.8923 16.3172 19.9061C17.7789 18.4979 19.2168 16.5976 20.1625 14.0777C20.8278 12.0915 20.9352 9.85028 19.1303 8.48658C19.1303 8.48658 16.2515 6.28688 10.3895 10.707C10.3895 10.707 15.0284 5.6495 20.2282 7.84623C20.2282 7.84623 25.2966 9.72576 20.5086 17.9435C23.1875 15.0353 24.5837 11.5786 24.4971 8.65259ZM5.89677 11.4274C6.04593 10.873 6.88421 10.3602 7.68073 10.295C8.49814 10.2297 9.056 10.6151 8.86209 11.1903C8.66818 11.7446 7.87464 12.2575 7.03636 12.3227C6.21896 12.3879 5.70286 11.9818 5.89677 11.4274ZM6.26072 15.6104C5.55071 16.0166 4.90634 15.8654 4.79894 15.2902C4.71243 14.7151 5.22853 13.9028 5.9803 13.4967C6.6903 13.0905 7.31081 13.2417 7.39733 13.8169C7.46296 14.4157 6.97073 15.2072 6.26072 15.6104ZM11.4157 11.0657C11.8244 10.3394 12.4479 10.126 12.8119 10.5736C13.1997 11.0213 13.1549 11.9818 12.7701 12.7081C12.3614 13.4137 11.7379 13.6271 11.3948 13.1765C10.9861 12.7289 11.0279 11.7683 11.4157 11.0657ZM9.91218 14.7803C9.44083 15.4414 8.81734 15.5926 8.47427 15.0798C8.15208 14.5876 8.30124 13.6508 8.77557 12.9868C9.24692 12.3257 9.8913 12.1745 10.2374 12.6666C10.5566 13.1558 10.4283 14.0955 9.91218 14.7803ZM11.3948 8.97277C11.1144 9.50639 10.2344 9.86806 9.41995 9.80581C8.58167 9.71984 8.15208 9.25144 8.4325 8.71781C8.66818 8.20495 9.57209 7.82252 10.3865 7.90553C11.2218 7.97075 11.6514 8.4599 11.3948 8.97277Z" fill="#0052A5"/>
</g>
<defs>
<clipPath id="clip0_944_16001">
<rect width="24" height="22" fill="white" transform="translate(0.5 2)"/>
</clipPath>
</defs>
</svg>
