<svg width="25" height="24" viewBox="0 0 25 24" fill="none" xmlns="http://www.w3.org/2000/svg">
<g clip-path="url(#clip0_944_16013)">
<path d="M15.1945 15.6767C15.923 15.168 16.6515 14.6388 17.2961 14.1096C19.0654 10.1522 19.7736 6.27719 19.3574 3.58994C19.3574 3.50468 19.3574 3.41942 19.3371 3.35768C19.0654 1.83471 18.4409 0.73217 17.4233 0.267635C14.8851 -0.961325 10.8668 2.1934 7.88915 7.48557C9.26233 6.4683 10.6789 5.62155 11.948 4.94533C11.948 4.86007 11.9075 4.7748 11.9075 4.69248C11.9075 3.67521 12.7401 2.85198 13.7403 2.85198C14.7811 2.85198 15.5732 3.67815 15.5732 4.69248C15.5732 5.73033 14.7811 6.5565 13.7403 6.5565C13.0957 6.5565 12.5117 6.19781 12.1793 5.64507C10.2655 6.5565 8.66102 7.57083 7.26761 8.60869C7.12307 8.92622 6.97563 9.24375 6.81085 9.56128C4.93754 13.5833 4.1888 17.5201 4.56173 20.2926C4.56173 20.4191 4.6022 20.5249 4.62533 20.6307C4.87395 22.1537 5.52151 23.2563 6.51887 23.7414C9.18428 25.0321 13.5958 21.3922 16.6139 15.5708C14.7811 16.8615 12.6389 18.1317 10.225 19.1901C12.2226 18.7667 13.6999 17.8141 15.3881 16.7351C12.6418 20.1221 9.41555 19.8898 7.54225 19.5076C9.07442 19.2313 9.95037 15.7178 15.1945 15.6767Z" fill="#005BAC"/>
<path d="M9.49085 11.4633V10.8077C9.57468 10.6607 9.63539 10.4696 9.63539 10.2784C9.63539 9.74923 9.2191 9.34644 8.65827 9.34644C8.15814 9.34644 7.72161 9.74923 7.72161 10.2784C7.72161 10.4901 7.76209 10.6812 7.92976 10.8488V11.4633H7.38916V11.8661H9.99097V11.4633H9.49085Z" fill="white"/>
<path d="M12.8241 9.3877H12.324V11.3987H12.8241V9.3877Z" fill="white"/>
<path d="M11.2599 11.4634H10.7627C10.7627 11.4634 10.7627 12.0338 10.7627 12.2454C10.7627 12.4571 10.8668 12.5218 11.0547 12.5218C11.2223 12.5218 12.8239 12.5218 12.8239 12.5218V12.0543H11.2628V11.4634H11.2599Z" fill="white"/>
<path d="M15.9229 9.3877H15.3823V12.5218H15.9229V9.3877Z" fill="white"/>
<path d="M14.5094 9.87575C14.5094 9.55822 14.5094 9.3877 14.5094 9.3877H13.9254C13.9254 9.3877 13.9254 9.55822 13.9254 9.87575C13.9254 10.1727 13.9052 10.5961 13.2808 10.8489L13.5091 11.2517C13.7809 11.1665 14.0093 11.04 14.2377 10.7225C14.4256 11.04 14.6539 11.1665 14.9662 11.2517L15.1541 10.8489C14.5701 10.5961 14.5094 10.1727 14.5094 9.87575Z" fill="white"/>
<path d="M9.11771 10.2785C9.11771 10.4902 8.9298 10.6813 8.66095 10.6813C8.4528 10.6813 8.26489 10.4902 8.26489 10.2785C8.26489 10.0463 8.4528 9.87573 8.66095 9.87573C8.9298 9.87573 9.11771 10.0433 9.11771 10.2785Z" fill="#005BAC"/>
<path d="M12.0926 10.2551C12.0926 10.7432 11.6763 11.1224 11.1762 11.1224C10.6761 11.1224 10.2598 10.7402 10.2598 10.2551C10.2598 9.76704 10.6761 9.36719 11.1762 9.36719C11.6763 9.36719 12.0926 9.76998 12.0926 10.2551Z" fill="white"/>
<path d="M11.5519 10.255C11.5519 10.4667 11.4074 10.6372 11.1761 10.6372C10.9477 10.6372 10.78 10.4667 10.78 10.255C10.78 10.0433 10.9477 9.8728 11.1761 9.8728C11.4074 9.87574 11.5519 10.0433 11.5519 10.255Z" fill="#005BAC"/>
<path d="M9.63814 12.86C9.63814 13.3686 9.22185 13.792 8.66102 13.792C8.16089 13.792 7.72437 13.3686 7.72437 12.86C7.72437 12.3308 8.16089 11.928 8.66102 11.928C9.22185 11.928 9.63814 12.3308 9.63814 12.86Z" fill="white"/>
<path d="M9.11771 12.8601C9.11771 13.0718 8.9298 13.2629 8.66095 13.2629C8.4528 13.2629 8.26489 13.0718 8.26489 12.8601C8.26489 12.6278 8.4528 12.4573 8.66095 12.4573C8.9298 12.4573 9.11771 12.6278 9.11771 12.8601Z" fill="#005BAC"/>
<path d="M10.783 13.1775H10.8668L10.9911 13.4303L11.0952 13.1775H11.179L11.0316 13.5156V13.6861H10.9477V13.5156L10.783 13.1775Z" fill="white"/>
<path d="M11.7195 13.2422C11.679 13.201 11.6356 13.1775 11.5518 13.1775C11.4477 13.1775 11.4073 13.1981 11.3639 13.2422C11.3003 13.2833 11.3003 13.348 11.3003 13.4333C11.3003 13.498 11.3003 13.5597 11.3639 13.6244C11.4044 13.6655 11.4477 13.6891 11.5518 13.6891C11.5923 13.6891 11.6761 13.6685 11.7195 13.6244C11.7599 13.5597 11.7831 13.5185 11.7831 13.4333C11.7802 13.348 11.7599 13.3039 11.7195 13.2422Z" fill="white"/>
<path d="M11.948 13.1775H12.0521L12.2602 13.5803V13.1775H12.3643V13.6861H12.24L12.0116 13.2628V13.6861H11.948V13.1775Z" fill="white"/>
<path d="M12.8644 13.3038C12.8239 13.2833 12.8239 13.2627 12.8239 13.2392C12.7835 13.2186 12.7835 13.2186 12.7199 13.2186C12.6794 13.2186 12.636 13.2392 12.636 13.2597C12.5956 13.3009 12.5956 13.345 12.5956 13.4067C12.5956 13.4685 12.5956 13.5126 12.636 13.5332C12.636 13.5743 12.6765 13.5979 12.7199 13.5979C12.7401 13.5979 12.7835 13.5979 12.8239 13.5979V13.4714H12.7199V13.4067H12.928V13.639C12.9078 13.6596 12.8644 13.6596 12.8644 13.6596C12.8239 13.6802 12.7806 13.6802 12.7199 13.6802C12.636 13.6802 12.5956 13.6596 12.5522 13.5949C12.5117 13.5538 12.5117 13.4891 12.5117 13.4038C12.5117 13.3391 12.5117 13.2774 12.5522 13.2127C12.5927 13.1715 12.636 13.1274 12.7199 13.1274C12.7835 13.1274 12.8239 13.148 12.8644 13.1686C12.9049 13.1892 12.928 13.2098 12.928 13.2539C12.928 13.2744 12.928 13.2744 12.928 13.295H12.8644V13.3038Z" fill="white"/>
<path d="M13.3211 13.1775H13.2373V13.6861H13.3211V13.1775Z" fill="white"/>
<path d="M13.4685 13.1775H13.5928L13.8212 13.5803V13.1775H13.905V13.6861H13.7807L13.5495 13.2628V13.6861H13.4685V13.1775Z" fill="white"/>
<path d="M14.5904 13.348C14.5701 13.3274 14.5701 13.3069 14.5701 13.2833C14.5499 13.2628 14.5065 13.2422 14.4661 13.2422C14.4256 13.2422 14.3822 13.2628 14.362 13.3069C14.362 13.3274 14.362 13.3715 14.362 13.4333C14.362 13.4745 14.362 13.5186 14.362 13.5597C14.3822 13.6009 14.4256 13.6009 14.4661 13.6009C14.5065 13.6009 14.5499 13.6009 14.5701 13.5597C14.5701 13.5597 14.5701 13.5391 14.5904 13.5186H14.654C14.654 13.5391 14.654 13.5391 14.654 13.5597C14.654 13.6009 14.6135 13.6244 14.6135 13.645C14.5933 13.6656 14.5094 13.6861 14.469 13.6861C14.3851 13.6861 14.3649 13.6656 14.3244 13.6009C14.2839 13.5597 14.2839 13.495 14.2839 13.4303C14.2839 13.3451 14.2839 13.2833 14.3244 13.2392C14.3649 13.1951 14.388 13.1746 14.469 13.1746C14.5094 13.1746 14.5933 13.1746 14.6135 13.2157C14.6135 13.2363 14.654 13.2569 14.654 13.2804C14.654 13.3039 14.654 13.3216 14.654 13.3451H14.5904V13.348Z" fill="white"/>
<path d="M14.8622 13.1775H14.7783V13.6861H14.8622V13.1775Z" fill="white"/>
<path d="M15.0066 13.1775H15.3824V13.2422H15.2379V13.6861H15.154V13.2422H15.0066V13.1775Z" fill="white"/>
<path d="M15.5066 13.1775H15.6107L15.6945 13.4303L15.839 13.1775H15.9229L15.735 13.5156V13.6861H15.654V13.5156L15.5066 13.1775Z" fill="white"/>
<path d="M8.42969 11.1871C8.49329 11.2077 8.57423 11.2077 8.65807 11.2077C8.76214 11.2077 8.88645 11.1871 8.95005 11.1665V11.4635H8.42969V11.1871Z" fill="#005BAC"/>
<path d="M11.6358 13.5599C11.6358 13.6011 11.5953 13.6246 11.552 13.6246C11.5086 13.6246 11.4479 13.6041 11.4074 13.5599C11.4074 13.5394 11.3669 13.4953 11.3669 13.4335C11.3669 13.3688 11.4074 13.3277 11.4074 13.2865C11.4479 13.2659 11.4913 13.2454 11.552 13.2454C11.5924 13.2454 11.6358 13.2659 11.6358 13.2865C11.6763 13.3277 11.6763 13.3718 11.6763 13.4335C11.6763 13.4953 11.6763 13.5364 11.6358 13.5599Z" fill="#005BAC"/>
<path d="M19.337 3.35474C19.3573 3.41942 19.3573 3.50174 19.3573 3.587C20.5223 3.62817 22.8553 4.39259 22.8553 6.50946C22.8553 8.39406 20.8981 11.1872 17.2989 14.1096C16.6543 14.6388 15.9258 15.168 15.1973 15.6767C9.95317 15.7178 9.07723 19.2342 7.53638 19.5076C9.40968 19.8898 12.6359 20.1221 15.3823 16.7351C13.6969 17.8141 12.2196 18.7667 10.2191 19.1901C12.633 18.1317 14.7781 16.8615 16.608 15.5708C20.9791 12.3308 23.497 8.67043 23.497 6.48888C23.4999 4.94239 22.2713 3.37532 19.337 3.35474Z" fill="#009E96"/>
<path d="M13.7374 2.84619C12.7372 2.84619 11.9046 3.67236 11.9046 4.68669C11.9046 4.77195 11.9451 4.85722 11.9451 4.93954C10.676 5.61576 9.25943 6.46251 7.88625 7.47978C4.10206 10.1494 0.5 13.8333 0.5 17.5584C0.5 19.1255 1.68527 20.6073 4.62242 20.6279C4.60219 20.522 4.55882 20.4162 4.55882 20.2898C3.10181 20.228 1.14467 19.3166 1.14467 17.285C1.14467 15.4857 3.01797 11.8664 7.26471 8.60584C8.65812 7.56799 10.2626 6.55365 12.1763 5.64222C12.5088 6.19202 13.0928 6.55365 13.7374 6.55365C14.7782 6.55365 15.5703 5.72748 15.5703 4.68963C15.5703 3.67236 14.7782 2.84619 13.7374 2.84619Z" fill="#EC6D56"/>
</g>
<defs>
<clipPath id="clip0_944_16013">
<rect width="23" height="24" fill="white" transform="translate(0.5)"/>
</clipPath>
</defs>
</svg>
